%TF.GenerationSoftware,KiCad,Pcbnew,9.0.6*%
%TF.CreationDate,2026-04-06T15:53:31+01:00*%
%TF.ProjectId,active label,61637469-7665-4206-9c61-62656c2e6b69,rev?*%
%TF.SameCoordinates,Original*%
%TF.FileFunction,Copper,L3,Inr*%
%TF.FilePolarity,Positive*%
%FSLAX46Y46*%
G04 Gerber Fmt 4.6, Leading zero omitted, Abs format (unit mm)*
G04 Created by KiCad (PCBNEW 9.0.6) date 2026-04-06 15:53:31*
%MOMM*%
%LPD*%
G01*
G04 APERTURE LIST*
%TA.AperFunction,WasherPad*%
%ADD10O,0.990600X1.803400*%
%TD*%
%TA.AperFunction,WasherPad*%
%ADD11O,0.990600X2.108200*%
%TD*%
%TA.AperFunction,HeatsinkPad*%
%ADD12C,0.600000*%
%TD*%
%TA.AperFunction,ViaPad*%
%ADD13C,0.600000*%
%TD*%
G04 APERTURE END LIST*
D10*
%TO.N,*%
%TO.C,J2*%
X178579998Y-146469200D03*
X187220002Y-146469200D03*
D11*
X178579998Y-142289200D03*
X187220002Y-142289200D03*
%TD*%
D12*
%TO.N,GND*%
%TO.C,U1*%
X122255000Y-139580000D03*
X122255000Y-138180000D03*
X121555000Y-140280000D03*
X121555000Y-138880000D03*
X121555000Y-137480000D03*
X120855000Y-139580000D03*
X120855000Y-138180000D03*
X120155000Y-140280000D03*
X120155000Y-138880000D03*
X120155000Y-137480000D03*
X119455000Y-139580000D03*
X119455000Y-138180000D03*
%TD*%
D13*
%TO.N,VBAT_SENSE*%
X198900000Y-140100000D03*
X198900000Y-135800000D03*
%TO.N,GND*%
X134600000Y-139200000D03*
%TO.N,SWITCH_R*%
X125100000Y-132700000D03*
X222800000Y-132600000D03*
%TO.N,RESET_N*%
X125800000Y-141400000D03*
X125800000Y-120600000D03*
%TO.N,BUSY_N*%
X126000000Y-143000000D03*
X131500000Y-120000000D03*
%TO.N,DATA_COMMAND_N*%
X129550000Y-140250000D03*
X132800000Y-121500000D03*
%TO.N,SPI_CS*%
X129500000Y-139100000D03*
X131300000Y-122100000D03*
%TO.N,GND*%
X212712500Y-132500000D03*
%TO.N,+3V3*%
X78700000Y-139500000D03*
%TO.N,GND*%
X82900000Y-139500000D03*
X214400000Y-122000000D03*
X197300000Y-119900000D03*
%TO.N,+3V3*%
X209700000Y-122000000D03*
%TO.N,GND*%
X204500000Y-123000000D03*
X200800000Y-123600000D03*
%TO.N,Net-(U2-\u002AEN)*%
X200500000Y-130300000D03*
X195100000Y-130300000D03*
%TO.N,GND*%
X223700002Y-120600000D03*
X233100000Y-128900000D03*
X225700000Y-126300000D03*
%TO.N,+3V3*%
X233900000Y-126300000D03*
%TO.N,GND*%
X226400000Y-139300000D03*
%TO.N,+3V3*%
X234900000Y-139300000D03*
%TO.N,GND*%
X233299998Y-142100002D03*
X205324150Y-132305000D03*
X206700000Y-139400000D03*
%TO.N,CHIP_PU*%
X135100000Y-144100000D03*
X175201000Y-144499000D03*
%TO.N,VUSB*%
X184700000Y-143300000D03*
X180600000Y-143300000D03*
%TO.N,CHIP_PU*%
X189300000Y-144300000D03*
X199900000Y-145700000D03*
%TO.N,+3V3*%
X150400000Y-130600000D03*
%TO.N,USBD-*%
X182900000Y-139900000D03*
%TO.N,USBD+*%
X183400000Y-139200000D03*
%TO.N,USBD-*%
X172400000Y-145000000D03*
%TO.N,USBD+*%
X173100000Y-143300000D03*
%TO.N,GND*%
X170500000Y-135600000D03*
%TO.N,+3V3*%
X159200000Y-142500000D03*
%TO.N,GND*%
X163600000Y-142500000D03*
X163600000Y-140100000D03*
%TO.N,Net-(Q1-D)*%
X150300000Y-136200000D03*
X161125000Y-137375000D03*
%TO.N,GND*%
X154650000Y-137050000D03*
%TO.N,+3V3*%
X152900000Y-134700000D03*
X156900000Y-136800000D03*
%TO.N,GND*%
X158500000Y-136900000D03*
%TO.N,VSH1*%
X149000000Y-130800000D03*
X150000000Y-139000000D03*
%TO.N,GND*%
X156900000Y-142300000D03*
%TO.N,VSL*%
X148500000Y-129800000D03*
X148300000Y-143900000D03*
%TO.N,GND*%
X151600000Y-145000000D03*
X157000000Y-140100000D03*
X141800000Y-143600000D03*
%TO.N,Net-(C17-Pad1)*%
X143850000Y-133450000D03*
X143650000Y-138600000D03*
%TO.N,GND*%
X139200000Y-139400000D03*
X139200000Y-135100000D03*
%TO.N,Net-(Q1-D)*%
X147400000Y-136000000D03*
X146900000Y-125200000D03*
X147400000Y-125200000D03*
%TO.N,GND*%
X142700000Y-127500000D03*
X154300000Y-131700000D03*
X149700000Y-131700000D03*
%TO.N,+3V3*%
X147300000Y-141700000D03*
%TO.N,GND*%
X190100000Y-143800000D03*
X186300000Y-140400000D03*
X179687500Y-140287500D03*
%TO.N,VUSB*%
X193900000Y-138800000D03*
%TO.N,GND*%
X195400000Y-142500000D03*
%TO.N,VUSB_SENSE*%
X192200000Y-144100000D03*
X113800000Y-146300000D03*
%TO.N,GND*%
X77000002Y-120399998D03*
%TO.N,+3V3*%
X113800000Y-124475000D03*
%TO.N,SDA0*%
X107200000Y-132100000D03*
X114910000Y-131700000D03*
%TO.N,SCL0*%
X113600000Y-131300000D03*
X106400000Y-131400000D03*
%TO.N,SWITCH_L*%
X123800000Y-132800000D03*
X104000000Y-132800000D03*
%TO.N,GND*%
X81800000Y-127600000D03*
%TO.N,+3V3*%
X75900000Y-133600000D03*
%TO.N,GND*%
X80300000Y-133600000D03*
%TO.N,+3V3*%
X84800000Y-141200000D03*
%TO.N,GND*%
X83800000Y-141200000D03*
X74599997Y-141200003D03*
%TO.N,+3V3*%
X75599998Y-141200002D03*
%TO.N,SDA1*%
X108100000Y-136500000D03*
X108100000Y-143300000D03*
%TO.N,GND*%
X129750000Y-146650000D03*
%TO.N,+3V3*%
X106087500Y-139100000D03*
%TO.N,GND*%
X108700000Y-146600000D03*
X134300000Y-145600000D03*
%TO.N,+3V3*%
X129700000Y-145330000D03*
%TD*%
%TA.AperFunction,Conductor*%
%TO.N,+3V3*%
G36*
X236442539Y-113620185D02*
G01*
X236488294Y-113672989D01*
X236499500Y-113724500D01*
X236499500Y-147475500D01*
X236479815Y-147542539D01*
X236427011Y-147588294D01*
X236375500Y-147599500D01*
X188165933Y-147599500D01*
X188098894Y-147579815D01*
X188053139Y-147527011D01*
X188043195Y-147457853D01*
X188062831Y-147406609D01*
X188066913Y-147400500D01*
X188102468Y-147347288D01*
X188177534Y-147166064D01*
X188215802Y-146973678D01*
X188215802Y-145964722D01*
X188215802Y-145964719D01*
X188215801Y-145964717D01*
X188207071Y-145920827D01*
X188177534Y-145772336D01*
X188114911Y-145621153D01*
X199099500Y-145621153D01*
X199099500Y-145778846D01*
X199130261Y-145933489D01*
X199130264Y-145933501D01*
X199190602Y-146079172D01*
X199190609Y-146079185D01*
X199278210Y-146210288D01*
X199278213Y-146210292D01*
X199389707Y-146321786D01*
X199389711Y-146321789D01*
X199520814Y-146409390D01*
X199520827Y-146409397D01*
X199666498Y-146469735D01*
X199666503Y-146469737D01*
X199821153Y-146500499D01*
X199821156Y-146500500D01*
X199821158Y-146500500D01*
X199978844Y-146500500D01*
X199978845Y-146500499D01*
X200133497Y-146469737D01*
X200279179Y-146409394D01*
X200410289Y-146321789D01*
X200521789Y-146210289D01*
X200609394Y-146079179D01*
X200669737Y-145933497D01*
X200700500Y-145778842D01*
X200700500Y-145621158D01*
X200700500Y-145621155D01*
X200700499Y-145621153D01*
X200682419Y-145530261D01*
X200669737Y-145466503D01*
X200633569Y-145379185D01*
X200609397Y-145320827D01*
X200609390Y-145320814D01*
X200521789Y-145189711D01*
X200521786Y-145189707D01*
X200410292Y-145078213D01*
X200410288Y-145078210D01*
X200279185Y-144990609D01*
X200279172Y-144990602D01*
X200133501Y-144930264D01*
X200133489Y-144930261D01*
X199978845Y-144899500D01*
X199978842Y-144899500D01*
X199821158Y-144899500D01*
X199821155Y-144899500D01*
X199666510Y-144930261D01*
X199666498Y-144930264D01*
X199520827Y-144990602D01*
X199520814Y-144990609D01*
X199389711Y-145078210D01*
X199389707Y-145078213D01*
X199278213Y-145189707D01*
X199278210Y-145189711D01*
X199190609Y-145320814D01*
X199190602Y-145320827D01*
X199130264Y-145466498D01*
X199130261Y-145466510D01*
X199099500Y-145621153D01*
X188114911Y-145621153D01*
X188102468Y-145591112D01*
X188102466Y-145591109D01*
X188102464Y-145591105D01*
X187993490Y-145428015D01*
X187993487Y-145428011D01*
X187854790Y-145289314D01*
X187854786Y-145289311D01*
X187691696Y-145180337D01*
X187691686Y-145180332D01*
X187510466Y-145105268D01*
X187510458Y-145105266D01*
X187318083Y-145067000D01*
X187318080Y-145067000D01*
X187121924Y-145067000D01*
X187121921Y-145067000D01*
X186929545Y-145105266D01*
X186929537Y-145105268D01*
X186748317Y-145180332D01*
X186748307Y-145180337D01*
X186585217Y-145289311D01*
X186585213Y-145289314D01*
X186446516Y-145428011D01*
X186446513Y-145428015D01*
X186337539Y-145591105D01*
X186337534Y-145591115D01*
X186262470Y-145772335D01*
X186262468Y-145772343D01*
X186224202Y-145964717D01*
X186224202Y-146973682D01*
X186262468Y-147166056D01*
X186262470Y-147166064D01*
X186337534Y-147347284D01*
X186337539Y-147347293D01*
X186377173Y-147406609D01*
X186398051Y-147473286D01*
X186379567Y-147540666D01*
X186327588Y-147587357D01*
X186274071Y-147599500D01*
X179525929Y-147599500D01*
X179458890Y-147579815D01*
X179413135Y-147527011D01*
X179403191Y-147457853D01*
X179422827Y-147406609D01*
X179426909Y-147400500D01*
X179462464Y-147347288D01*
X179537530Y-147166064D01*
X179575798Y-146973678D01*
X179575798Y-145964722D01*
X179575798Y-145964719D01*
X179575797Y-145964717D01*
X179567067Y-145920827D01*
X179537530Y-145772336D01*
X179462464Y-145591112D01*
X179462462Y-145591109D01*
X179462460Y-145591105D01*
X179353486Y-145428015D01*
X179353483Y-145428011D01*
X179214786Y-145289314D01*
X179214782Y-145289311D01*
X179051692Y-145180337D01*
X179051682Y-145180332D01*
X178870462Y-145105268D01*
X178870454Y-145105266D01*
X178678079Y-145067000D01*
X178678076Y-145067000D01*
X178481920Y-145067000D01*
X178481917Y-145067000D01*
X178289541Y-145105266D01*
X178289533Y-145105268D01*
X178108313Y-145180332D01*
X178108303Y-145180337D01*
X177945213Y-145289311D01*
X177945209Y-145289314D01*
X177806512Y-145428011D01*
X177806509Y-145428015D01*
X177697535Y-145591105D01*
X177697530Y-145591115D01*
X177622466Y-145772335D01*
X177622464Y-145772343D01*
X177584198Y-145964717D01*
X177584198Y-146973682D01*
X177622464Y-147166056D01*
X177622466Y-147166064D01*
X177697530Y-147347284D01*
X177697535Y-147347293D01*
X177737169Y-147406609D01*
X177758047Y-147473286D01*
X177739563Y-147540666D01*
X177687584Y-147587357D01*
X177634067Y-147599500D01*
X130172902Y-147599500D01*
X130105863Y-147579815D01*
X130060108Y-147527011D01*
X130050164Y-147457853D01*
X130079189Y-147394297D01*
X130125451Y-147360938D01*
X130129179Y-147359394D01*
X130260289Y-147271789D01*
X130371789Y-147160289D01*
X130459394Y-147029179D01*
X130519737Y-146883497D01*
X130550500Y-146728842D01*
X130550500Y-146571158D01*
X130550500Y-146571155D01*
X130550499Y-146571153D01*
X130519737Y-146416503D01*
X130516791Y-146409390D01*
X130459397Y-146270827D01*
X130459390Y-146270814D01*
X130371789Y-146139711D01*
X130371786Y-146139707D01*
X130260292Y-146028213D01*
X130260288Y-146028210D01*
X130129185Y-145940609D01*
X130129172Y-145940602D01*
X129983501Y-145880264D01*
X129983489Y-145880261D01*
X129828845Y-145849500D01*
X129828842Y-145849500D01*
X129671158Y-145849500D01*
X129671155Y-145849500D01*
X129516510Y-145880261D01*
X129516498Y-145880264D01*
X129370827Y-145940602D01*
X129370814Y-145940609D01*
X129239711Y-146028210D01*
X129239707Y-146028213D01*
X129128213Y-146139707D01*
X129128210Y-146139711D01*
X129040609Y-146270814D01*
X129040602Y-146270827D01*
X128980264Y-146416498D01*
X128980261Y-146416510D01*
X128949500Y-146571153D01*
X128949500Y-146728846D01*
X128980261Y-146883489D01*
X128980264Y-146883501D01*
X129040602Y-147029172D01*
X129040609Y-147029185D01*
X129128210Y-147160288D01*
X129128213Y-147160292D01*
X129239707Y-147271786D01*
X129239711Y-147271789D01*
X129370814Y-147359390D01*
X129370821Y-147359394D01*
X129374549Y-147360938D01*
X129428953Y-147404778D01*
X129451019Y-147471072D01*
X129433741Y-147538771D01*
X129382605Y-147586383D01*
X129327098Y-147599500D01*
X109002190Y-147599500D01*
X108935151Y-147579815D01*
X108889396Y-147527011D01*
X108879452Y-147457853D01*
X108908477Y-147394297D01*
X108954738Y-147360939D01*
X109079172Y-147309397D01*
X109079172Y-147309396D01*
X109079179Y-147309394D01*
X109210289Y-147221789D01*
X109321789Y-147110289D01*
X109409394Y-146979179D01*
X109469737Y-146833497D01*
X109500500Y-146678842D01*
X109500500Y-146521158D01*
X109500500Y-146521155D01*
X109500499Y-146521153D01*
X109479684Y-146416510D01*
X109469737Y-146366503D01*
X109451215Y-146321786D01*
X109426666Y-146262518D01*
X109409532Y-146221153D01*
X112999500Y-146221153D01*
X112999500Y-146378846D01*
X113030261Y-146533489D01*
X113030264Y-146533501D01*
X113090602Y-146679172D01*
X113090609Y-146679185D01*
X113178210Y-146810288D01*
X113178213Y-146810292D01*
X113289707Y-146921786D01*
X113289711Y-146921789D01*
X113420814Y-147009390D01*
X113420827Y-147009397D01*
X113566498Y-147069735D01*
X113566503Y-147069737D01*
X113721153Y-147100499D01*
X113721156Y-147100500D01*
X113721158Y-147100500D01*
X113878844Y-147100500D01*
X113878845Y-147100499D01*
X114033497Y-147069737D01*
X114179179Y-147009394D01*
X114310289Y-146921789D01*
X114421789Y-146810289D01*
X114509394Y-146679179D01*
X114569737Y-146533497D01*
X114600500Y-146378842D01*
X114600500Y-146221158D01*
X114600500Y-146221155D01*
X114600499Y-146221153D01*
X114578447Y-146110292D01*
X114569737Y-146066503D01*
X114533569Y-145979185D01*
X114509397Y-145920827D01*
X114509390Y-145920814D01*
X114421789Y-145789711D01*
X114421786Y-145789707D01*
X114310292Y-145678213D01*
X114310288Y-145678210D01*
X114220429Y-145618168D01*
X114179185Y-145590609D01*
X114179172Y-145590602D01*
X114033501Y-145530264D01*
X114033489Y-145530261D01*
X113987701Y-145521153D01*
X133499500Y-145521153D01*
X133499500Y-145678846D01*
X133530261Y-145833489D01*
X133530264Y-145833501D01*
X133590602Y-145979172D01*
X133590609Y-145979185D01*
X133678210Y-146110288D01*
X133678213Y-146110292D01*
X133789707Y-146221786D01*
X133789711Y-146221789D01*
X133920814Y-146309390D01*
X133920827Y-146309397D01*
X134058683Y-146366498D01*
X134066503Y-146369737D01*
X134221153Y-146400499D01*
X134221156Y-146400500D01*
X134221158Y-146400500D01*
X134378844Y-146400500D01*
X134378845Y-146400499D01*
X134533497Y-146369737D01*
X134679179Y-146309394D01*
X134810289Y-146221789D01*
X134921789Y-146110289D01*
X135009394Y-145979179D01*
X135015384Y-145964719D01*
X135033569Y-145920814D01*
X135069737Y-145833497D01*
X135100500Y-145678842D01*
X135100500Y-145521158D01*
X135100500Y-145521155D01*
X135100499Y-145521153D01*
X135089627Y-145466498D01*
X135069737Y-145366503D01*
X135041984Y-145299500D01*
X135009397Y-145220827D01*
X135009390Y-145220814D01*
X134924248Y-145093391D01*
X134903370Y-145026714D01*
X134921854Y-144959334D01*
X134964359Y-144921153D01*
X150799500Y-144921153D01*
X150799500Y-145078846D01*
X150830261Y-145233489D01*
X150830264Y-145233501D01*
X150890602Y-145379172D01*
X150890609Y-145379185D01*
X150978210Y-145510288D01*
X150978213Y-145510292D01*
X151089707Y-145621786D01*
X151089711Y-145621789D01*
X151220814Y-145709390D01*
X151220827Y-145709397D01*
X151366498Y-145769735D01*
X151366503Y-145769737D01*
X151516131Y-145799500D01*
X151521153Y-145800499D01*
X151521156Y-145800500D01*
X151521158Y-145800500D01*
X151678844Y-145800500D01*
X151678845Y-145800499D01*
X151833497Y-145769737D01*
X151979179Y-145709394D01*
X152110289Y-145621789D01*
X152221789Y-145510289D01*
X152309394Y-145379179D01*
X152369737Y-145233497D01*
X152400500Y-145078842D01*
X152400500Y-144921158D01*
X152400500Y-144921155D01*
X152400499Y-144921153D01*
X171599500Y-144921153D01*
X171599500Y-145078846D01*
X171630261Y-145233489D01*
X171630264Y-145233501D01*
X171690602Y-145379172D01*
X171690609Y-145379185D01*
X171778210Y-145510288D01*
X171778213Y-145510292D01*
X171889707Y-145621786D01*
X171889711Y-145621789D01*
X172020814Y-145709390D01*
X172020827Y-145709397D01*
X172166498Y-145769735D01*
X172166503Y-145769737D01*
X172316131Y-145799500D01*
X172321153Y-145800499D01*
X172321156Y-145800500D01*
X172321158Y-145800500D01*
X172478844Y-145800500D01*
X172478845Y-145800499D01*
X172633497Y-145769737D01*
X172779179Y-145709394D01*
X172910289Y-145621789D01*
X173021789Y-145510289D01*
X173109394Y-145379179D01*
X173169737Y-145233497D01*
X173200500Y-145078842D01*
X173200500Y-144921158D01*
X173200500Y-144921155D01*
X173200499Y-144921153D01*
X173178447Y-144810292D01*
X173169737Y-144766503D01*
X173155653Y-144732501D01*
X173109397Y-144620827D01*
X173109390Y-144620814D01*
X173021788Y-144489709D01*
X172952232Y-144420153D01*
X174400500Y-144420153D01*
X174400500Y-144577846D01*
X174431261Y-144732489D01*
X174431264Y-144732501D01*
X174491602Y-144878172D01*
X174491609Y-144878185D01*
X174579210Y-145009288D01*
X174579213Y-145009292D01*
X174690707Y-145120786D01*
X174690711Y-145120789D01*
X174821814Y-145208390D01*
X174821827Y-145208397D01*
X174967498Y-145268735D01*
X174967503Y-145268737D01*
X175122153Y-145299499D01*
X175122156Y-145299500D01*
X175122158Y-145299500D01*
X175279844Y-145299500D01*
X175279845Y-145299499D01*
X175434497Y-145268737D01*
X175580179Y-145208394D01*
X175711289Y-145120789D01*
X175822789Y-145009289D01*
X175910394Y-144878179D01*
X175970737Y-144732497D01*
X176001500Y-144577842D01*
X176001500Y-144420158D01*
X176001500Y-144420155D01*
X176001499Y-144420153D01*
X175970737Y-144265503D01*
X175956140Y-144230263D01*
X175952367Y-144221153D01*
X188499500Y-144221153D01*
X188499500Y-144378846D01*
X188530261Y-144533489D01*
X188530264Y-144533501D01*
X188590602Y-144679172D01*
X188590609Y-144679185D01*
X188678210Y-144810288D01*
X188678213Y-144810292D01*
X188789707Y-144921786D01*
X188789711Y-144921789D01*
X188920814Y-145009390D01*
X188920827Y-145009397D01*
X188962635Y-145026714D01*
X189066503Y-145069737D01*
X189185419Y-145093391D01*
X189221153Y-145100499D01*
X189221156Y-145100500D01*
X189221158Y-145100500D01*
X189378844Y-145100500D01*
X189378845Y-145100499D01*
X189533497Y-145069737D01*
X189679179Y-145009394D01*
X189810289Y-144921789D01*
X189921789Y-144810289D01*
X190009394Y-144679179D01*
X190010275Y-144677049D01*
X190011035Y-144676106D01*
X190012264Y-144673809D01*
X190012699Y-144674041D01*
X190054115Y-144622646D01*
X190120408Y-144600579D01*
X190124838Y-144600500D01*
X190178844Y-144600500D01*
X190178845Y-144600499D01*
X190333497Y-144569737D01*
X190479179Y-144509394D01*
X190610289Y-144421789D01*
X190721789Y-144310289D01*
X190809394Y-144179179D01*
X190869737Y-144033497D01*
X190872192Y-144021153D01*
X191399500Y-144021153D01*
X191399500Y-144178846D01*
X191430261Y-144333489D01*
X191430264Y-144333501D01*
X191490602Y-144479172D01*
X191490609Y-144479185D01*
X191578210Y-144610288D01*
X191578213Y-144610292D01*
X191689707Y-144721786D01*
X191689711Y-144721789D01*
X191820814Y-144809390D01*
X191820827Y-144809397D01*
X191966498Y-144869735D01*
X191966503Y-144869737D01*
X192116131Y-144899500D01*
X192121153Y-144900499D01*
X192121156Y-144900500D01*
X192121158Y-144900500D01*
X192278844Y-144900500D01*
X192278845Y-144900499D01*
X192433497Y-144869737D01*
X192579179Y-144809394D01*
X192710289Y-144721789D01*
X192821789Y-144610289D01*
X192909394Y-144479179D01*
X192969737Y-144333497D01*
X193000500Y-144178842D01*
X193000500Y-144021158D01*
X193000500Y-144021155D01*
X193000499Y-144021153D01*
X192992148Y-143979172D01*
X192969737Y-143866503D01*
X192950955Y-143821158D01*
X192909397Y-143720827D01*
X192909390Y-143720814D01*
X192821789Y-143589711D01*
X192821786Y-143589707D01*
X192710292Y-143478213D01*
X192710288Y-143478210D01*
X192579185Y-143390609D01*
X192579172Y-143390602D01*
X192433501Y-143330264D01*
X192433489Y-143330261D01*
X192278845Y-143299500D01*
X192278842Y-143299500D01*
X192121158Y-143299500D01*
X192121155Y-143299500D01*
X191966510Y-143330261D01*
X191966498Y-143330264D01*
X191820827Y-143390602D01*
X191820814Y-143390609D01*
X191689711Y-143478210D01*
X191689707Y-143478213D01*
X191578213Y-143589707D01*
X191578210Y-143589711D01*
X191490609Y-143720814D01*
X191490602Y-143720827D01*
X191430264Y-143866498D01*
X191430261Y-143866510D01*
X191399500Y-144021153D01*
X190872192Y-144021153D01*
X190874531Y-144009397D01*
X190878216Y-143990874D01*
X190878216Y-143990873D01*
X190900499Y-143878846D01*
X190900500Y-143878844D01*
X190900500Y-143721155D01*
X190900499Y-143721153D01*
X190892148Y-143679172D01*
X190869737Y-143566503D01*
X190856062Y-143533489D01*
X190809397Y-143420827D01*
X190809390Y-143420814D01*
X190721789Y-143289711D01*
X190721786Y-143289707D01*
X190610292Y-143178213D01*
X190610288Y-143178210D01*
X190479185Y-143090609D01*
X190479172Y-143090602D01*
X190333501Y-143030264D01*
X190333489Y-143030261D01*
X190178845Y-142999500D01*
X190178842Y-142999500D01*
X190021158Y-142999500D01*
X190021155Y-142999500D01*
X189866510Y-143030261D01*
X189866498Y-143030264D01*
X189720827Y-143090602D01*
X189720814Y-143090609D01*
X189589711Y-143178210D01*
X189589707Y-143178213D01*
X189478213Y-143289707D01*
X189478210Y-143289711D01*
X189390609Y-143420814D01*
X189390607Y-143420819D01*
X189389725Y-143422949D01*
X189388964Y-143423893D01*
X189387736Y-143426191D01*
X189387300Y-143425958D01*
X189345885Y-143477354D01*
X189279592Y-143499421D01*
X189275162Y-143499500D01*
X189221155Y-143499500D01*
X189066510Y-143530261D01*
X189066498Y-143530264D01*
X188920827Y-143590602D01*
X188920814Y-143590609D01*
X188789711Y-143678210D01*
X188789707Y-143678213D01*
X188678213Y-143789707D01*
X188678210Y-143789711D01*
X188590609Y-143920814D01*
X188590602Y-143920827D01*
X188530264Y-144066498D01*
X188530261Y-144066510D01*
X188499500Y-144221153D01*
X175952367Y-144221153D01*
X175910397Y-144119827D01*
X175910390Y-144119814D01*
X175822789Y-143988711D01*
X175822786Y-143988707D01*
X175711292Y-143877213D01*
X175711288Y-143877210D01*
X175580185Y-143789609D01*
X175580172Y-143789602D01*
X175434501Y-143729264D01*
X175434489Y-143729261D01*
X175279845Y-143698500D01*
X175279842Y-143698500D01*
X175122158Y-143698500D01*
X175122155Y-143698500D01*
X174967510Y-143729261D01*
X174967498Y-143729264D01*
X174821827Y-143789602D01*
X174821814Y-143789609D01*
X174690711Y-143877210D01*
X174690707Y-143877213D01*
X174579213Y-143988707D01*
X174579210Y-143988711D01*
X174491609Y-144119814D01*
X174491602Y-144119827D01*
X174431264Y-144265498D01*
X174431261Y-144265510D01*
X174400500Y-144420153D01*
X172952232Y-144420153D01*
X172910292Y-144378213D01*
X172910288Y-144378210D01*
X172800149Y-144304617D01*
X172800146Y-144304615D01*
X172779179Y-144290606D01*
X172633497Y-144230263D01*
X172605317Y-144224657D01*
X172605311Y-144224655D01*
X172478845Y-144199500D01*
X172478842Y-144199500D01*
X172321158Y-144199500D01*
X172321155Y-144199500D01*
X172166510Y-144230261D01*
X172166498Y-144230264D01*
X172020827Y-144290602D01*
X172020814Y-144290609D01*
X171889711Y-144378210D01*
X171889707Y-144378213D01*
X171778213Y-144489707D01*
X171778210Y-144489711D01*
X171690609Y-144620814D01*
X171690602Y-144620827D01*
X171630264Y-144766498D01*
X171630261Y-144766510D01*
X171599500Y-144921153D01*
X152400499Y-144921153D01*
X152378447Y-144810292D01*
X152369737Y-144766503D01*
X152355653Y-144732501D01*
X152309397Y-144620827D01*
X152309390Y-144620814D01*
X152221789Y-144489711D01*
X152221786Y-144489707D01*
X152110292Y-144378213D01*
X152110288Y-144378210D01*
X151979185Y-144290609D01*
X151979172Y-144290602D01*
X151833501Y-144230264D01*
X151833489Y-144230261D01*
X151678845Y-144199500D01*
X151678842Y-144199500D01*
X151521158Y-144199500D01*
X151521155Y-144199500D01*
X151366510Y-144230261D01*
X151366498Y-144230264D01*
X151220827Y-144290602D01*
X151220814Y-144290609D01*
X151089711Y-144378210D01*
X151089707Y-144378213D01*
X150978213Y-144489707D01*
X150978210Y-144489711D01*
X150890609Y-144620814D01*
X150890602Y-144620827D01*
X150830264Y-144766498D01*
X150830261Y-144766510D01*
X150799500Y-144921153D01*
X134964359Y-144921153D01*
X134973833Y-144912643D01*
X135027350Y-144900500D01*
X135178844Y-144900500D01*
X135178845Y-144900499D01*
X135333497Y-144869737D01*
X135479179Y-144809394D01*
X135610289Y-144721789D01*
X135721789Y-144610289D01*
X135809394Y-144479179D01*
X135869737Y-144333497D01*
X135900500Y-144178842D01*
X135900500Y-144021158D01*
X135900500Y-144021155D01*
X135900499Y-144021153D01*
X135892148Y-143979172D01*
X135869737Y-143866503D01*
X135850955Y-143821158D01*
X135809397Y-143720827D01*
X135809390Y-143720814D01*
X135721790Y-143589712D01*
X135721784Y-143589705D01*
X135653232Y-143521153D01*
X140999500Y-143521153D01*
X140999500Y-143678846D01*
X141030261Y-143833489D01*
X141030264Y-143833501D01*
X141090602Y-143979172D01*
X141090609Y-143979185D01*
X141178210Y-144110288D01*
X141178213Y-144110292D01*
X141289707Y-144221786D01*
X141289711Y-144221789D01*
X141420814Y-144309390D01*
X141420827Y-144309397D01*
X141566498Y-144369735D01*
X141566503Y-144369737D01*
X141721153Y-144400499D01*
X141721156Y-144400500D01*
X141721158Y-144400500D01*
X141878844Y-144400500D01*
X141878845Y-144400499D01*
X142033497Y-144369737D01*
X142179179Y-144309394D01*
X142310289Y-144221789D01*
X142421789Y-144110289D01*
X142509394Y-143979179D01*
X142569737Y-143833497D01*
X142572193Y-143821153D01*
X147499500Y-143821153D01*
X147499500Y-143978846D01*
X147530261Y-144133489D01*
X147530264Y-144133501D01*
X147590602Y-144279172D01*
X147590609Y-144279185D01*
X147678210Y-144410288D01*
X147678213Y-144410292D01*
X147789707Y-144521786D01*
X147789711Y-144521789D01*
X147920814Y-144609390D01*
X147920827Y-144609397D01*
X148066498Y-144669735D01*
X148066503Y-144669737D01*
X148221153Y-144700499D01*
X148221156Y-144700500D01*
X148221158Y-144700500D01*
X148378844Y-144700500D01*
X148378845Y-144700499D01*
X148533497Y-144669737D01*
X148651592Y-144620821D01*
X148679172Y-144609397D01*
X148679172Y-144609396D01*
X148679179Y-144609394D01*
X148810289Y-144521789D01*
X148921789Y-144410289D01*
X149009394Y-144279179D01*
X149069737Y-144133497D01*
X149100500Y-143978842D01*
X149100500Y-143821158D01*
X149100500Y-143821155D01*
X149100499Y-143821153D01*
X149082220Y-143729261D01*
X149069737Y-143666503D01*
X149051215Y-143621786D01*
X149009397Y-143520827D01*
X149009390Y-143520814D01*
X148921789Y-143389711D01*
X148921786Y-143389707D01*
X148810292Y-143278213D01*
X148810288Y-143278210D01*
X148679185Y-143190609D01*
X148679172Y-143190602D01*
X148533501Y-143130264D01*
X148533489Y-143130261D01*
X148378845Y-143099500D01*
X148378842Y-143099500D01*
X148221158Y-143099500D01*
X148221155Y-143099500D01*
X148066510Y-143130261D01*
X148066498Y-143130264D01*
X147920827Y-143190602D01*
X147920814Y-143190609D01*
X147789711Y-143278210D01*
X147789707Y-143278213D01*
X147678213Y-143389707D01*
X147678210Y-143389711D01*
X147590609Y-143520814D01*
X147590602Y-143520827D01*
X147530264Y-143666498D01*
X147530261Y-143666510D01*
X147499500Y-143821153D01*
X142572193Y-143821153D01*
X142574353Y-143810292D01*
X142578216Y-143790874D01*
X142578216Y-143790873D01*
X142600499Y-143678846D01*
X142600500Y-143678844D01*
X142600500Y-143521155D01*
X142600499Y-143521153D01*
X142581563Y-143425958D01*
X142569737Y-143366503D01*
X142558687Y-143339826D01*
X142509397Y-143220827D01*
X142509390Y-143220814D01*
X142421789Y-143089711D01*
X142421786Y-143089707D01*
X142310292Y-142978213D01*
X142310288Y-142978210D01*
X142179185Y-142890609D01*
X142179172Y-142890602D01*
X142033501Y-142830264D01*
X142033489Y-142830261D01*
X141878845Y-142799500D01*
X141878842Y-142799500D01*
X141721158Y-142799500D01*
X141721155Y-142799500D01*
X141566510Y-142830261D01*
X141566498Y-142830264D01*
X141420827Y-142890602D01*
X141420814Y-142890609D01*
X141289711Y-142978210D01*
X141289707Y-142978213D01*
X141178213Y-143089707D01*
X141178210Y-143089711D01*
X141090609Y-143220814D01*
X141090602Y-143220827D01*
X141030264Y-143366498D01*
X141030261Y-143366510D01*
X140999500Y-143521153D01*
X135653232Y-143521153D01*
X135610292Y-143478213D01*
X135610288Y-143478210D01*
X135479185Y-143390609D01*
X135479172Y-143390602D01*
X135333501Y-143330264D01*
X135333489Y-143330261D01*
X135178845Y-143299500D01*
X135178842Y-143299500D01*
X135021158Y-143299500D01*
X135021155Y-143299500D01*
X134866510Y-143330261D01*
X134866498Y-143330264D01*
X134720827Y-143390602D01*
X134720814Y-143390609D01*
X134589711Y-143478210D01*
X134589707Y-143478213D01*
X134478213Y-143589707D01*
X134478210Y-143589711D01*
X134390609Y-143720814D01*
X134390602Y-143720827D01*
X134330264Y-143866498D01*
X134330261Y-143866510D01*
X134299500Y-144021153D01*
X134299500Y-144178846D01*
X134330261Y-144333489D01*
X134330264Y-144333501D01*
X134390602Y-144479172D01*
X134390609Y-144479185D01*
X134475752Y-144606609D01*
X134496630Y-144673286D01*
X134478146Y-144740666D01*
X134426167Y-144787357D01*
X134372650Y-144799500D01*
X134221155Y-144799500D01*
X134066510Y-144830261D01*
X134066498Y-144830264D01*
X133920827Y-144890602D01*
X133920814Y-144890609D01*
X133789711Y-144978210D01*
X133789707Y-144978213D01*
X133678213Y-145089707D01*
X133678210Y-145089711D01*
X133590609Y-145220814D01*
X133590602Y-145220827D01*
X133530264Y-145366498D01*
X133530261Y-145366510D01*
X133499500Y-145521153D01*
X113987701Y-145521153D01*
X113878845Y-145499500D01*
X113878842Y-145499500D01*
X113721158Y-145499500D01*
X113721155Y-145499500D01*
X113566510Y-145530261D01*
X113566498Y-145530264D01*
X113420827Y-145590602D01*
X113420814Y-145590609D01*
X113289711Y-145678210D01*
X113289707Y-145678213D01*
X113178213Y-145789707D01*
X113178210Y-145789711D01*
X113090609Y-145920814D01*
X113090602Y-145920827D01*
X113030264Y-146066498D01*
X113030261Y-146066510D01*
X112999500Y-146221153D01*
X109409532Y-146221153D01*
X109409395Y-146220823D01*
X109409390Y-146220814D01*
X109321789Y-146089711D01*
X109321786Y-146089707D01*
X109210292Y-145978213D01*
X109210288Y-145978210D01*
X109079185Y-145890609D01*
X109079172Y-145890602D01*
X108933501Y-145830264D01*
X108933489Y-145830261D01*
X108778845Y-145799500D01*
X108778842Y-145799500D01*
X108621158Y-145799500D01*
X108621155Y-145799500D01*
X108466510Y-145830261D01*
X108466498Y-145830264D01*
X108320827Y-145890602D01*
X108320814Y-145890609D01*
X108189711Y-145978210D01*
X108189707Y-145978213D01*
X108078213Y-146089707D01*
X108078210Y-146089711D01*
X107990609Y-146220814D01*
X107990602Y-146220827D01*
X107930264Y-146366498D01*
X107930261Y-146366510D01*
X107899500Y-146521153D01*
X107899500Y-146678846D01*
X107930261Y-146833489D01*
X107930264Y-146833501D01*
X107990602Y-146979172D01*
X107990609Y-146979185D01*
X108078210Y-147110288D01*
X108078213Y-147110292D01*
X108189707Y-147221786D01*
X108189711Y-147221789D01*
X108320814Y-147309390D01*
X108320827Y-147309397D01*
X108445262Y-147360939D01*
X108499666Y-147404779D01*
X108521731Y-147471074D01*
X108504452Y-147538773D01*
X108453315Y-147586384D01*
X108397810Y-147599500D01*
X67624500Y-147599500D01*
X67557461Y-147579815D01*
X67511706Y-147527011D01*
X67500500Y-147475500D01*
X67500500Y-143221153D01*
X107299500Y-143221153D01*
X107299500Y-143378846D01*
X107330261Y-143533489D01*
X107330264Y-143533501D01*
X107390602Y-143679172D01*
X107390609Y-143679185D01*
X107478210Y-143810288D01*
X107478213Y-143810292D01*
X107589707Y-143921786D01*
X107589711Y-143921789D01*
X107720814Y-144009390D01*
X107720827Y-144009397D01*
X107858683Y-144066498D01*
X107866503Y-144069737D01*
X108021153Y-144100499D01*
X108021156Y-144100500D01*
X108021158Y-144100500D01*
X108178844Y-144100500D01*
X108178845Y-144100499D01*
X108333497Y-144069737D01*
X108479179Y-144009394D01*
X108610289Y-143921789D01*
X108721789Y-143810289D01*
X108809394Y-143679179D01*
X108869737Y-143533497D01*
X108900500Y-143378842D01*
X108900500Y-143221158D01*
X108900500Y-143221155D01*
X108900499Y-143221153D01*
X108892226Y-143179561D01*
X108869737Y-143066503D01*
X108869502Y-143065935D01*
X108809397Y-142920827D01*
X108809390Y-142920814D01*
X108721789Y-142789711D01*
X108721786Y-142789707D01*
X108610292Y-142678213D01*
X108610288Y-142678210D01*
X108479185Y-142590609D01*
X108479172Y-142590602D01*
X108333501Y-142530264D01*
X108333489Y-142530261D01*
X108178845Y-142499500D01*
X108178842Y-142499500D01*
X108021158Y-142499500D01*
X108021155Y-142499500D01*
X107866510Y-142530261D01*
X107866498Y-142530264D01*
X107720827Y-142590602D01*
X107720814Y-142590609D01*
X107589711Y-142678210D01*
X107589707Y-142678213D01*
X107478213Y-142789707D01*
X107478210Y-142789711D01*
X107390609Y-142920814D01*
X107390602Y-142920827D01*
X107330264Y-143066498D01*
X107330261Y-143066510D01*
X107299500Y-143221153D01*
X67500500Y-143221153D01*
X67500500Y-141121156D01*
X73799497Y-141121156D01*
X73799497Y-141278849D01*
X73830258Y-141433492D01*
X73830261Y-141433504D01*
X73890599Y-141579175D01*
X73890606Y-141579188D01*
X73978207Y-141710291D01*
X73978210Y-141710295D01*
X74089704Y-141821789D01*
X74089708Y-141821792D01*
X74220811Y-141909393D01*
X74220824Y-141909400D01*
X74366488Y-141969735D01*
X74366500Y-141969740D01*
X74521135Y-142000499D01*
X74521150Y-142000502D01*
X74521153Y-142000503D01*
X74521155Y-142000503D01*
X74678841Y-142000503D01*
X74678842Y-142000502D01*
X74833494Y-141969740D01*
X74979176Y-141909397D01*
X75110286Y-141821792D01*
X75221786Y-141710292D01*
X75309391Y-141579182D01*
X75369734Y-141433500D01*
X75400497Y-141278845D01*
X75400497Y-141121161D01*
X75400496Y-141121158D01*
X75400496Y-141121155D01*
X75400496Y-141121153D01*
X82999500Y-141121153D01*
X82999500Y-141278846D01*
X83030261Y-141433489D01*
X83030264Y-141433501D01*
X83090602Y-141579172D01*
X83090609Y-141579185D01*
X83178210Y-141710288D01*
X83178213Y-141710292D01*
X83289707Y-141821786D01*
X83289711Y-141821789D01*
X83420814Y-141909390D01*
X83420827Y-141909397D01*
X83566498Y-141969735D01*
X83566503Y-141969737D01*
X83721153Y-142000499D01*
X83721156Y-142000500D01*
X83721158Y-142000500D01*
X83878844Y-142000500D01*
X83878845Y-142000499D01*
X84033497Y-141969737D01*
X84151592Y-141920821D01*
X84179172Y-141909397D01*
X84179172Y-141909396D01*
X84179179Y-141909394D01*
X84310289Y-141821789D01*
X84421789Y-141710289D01*
X84509394Y-141579179D01*
X84569737Y-141433497D01*
X84592083Y-141321158D01*
X84592084Y-141321153D01*
X124999500Y-141321153D01*
X124999500Y-141478846D01*
X125030261Y-141633489D01*
X125030264Y-141633501D01*
X125090602Y-141779172D01*
X125090609Y-141779185D01*
X125178210Y-141910288D01*
X125178213Y-141910292D01*
X125289707Y-142021786D01*
X125289711Y-142021789D01*
X125420814Y-142109390D01*
X125420821Y-142109394D01*
X125497373Y-142141102D01*
X125551775Y-142184942D01*
X125573841Y-142251236D01*
X125556562Y-142318935D01*
X125518814Y-142358763D01*
X125489712Y-142378209D01*
X125489707Y-142378213D01*
X125378213Y-142489707D01*
X125378210Y-142489711D01*
X125290609Y-142620814D01*
X125290602Y-142620827D01*
X125230264Y-142766498D01*
X125230261Y-142766510D01*
X125199500Y-142921153D01*
X125199500Y-143078846D01*
X125230261Y-143233489D01*
X125230264Y-143233501D01*
X125290602Y-143379172D01*
X125290609Y-143379185D01*
X125378210Y-143510288D01*
X125378213Y-143510292D01*
X125489707Y-143621786D01*
X125489711Y-143621789D01*
X125620814Y-143709390D01*
X125620827Y-143709397D01*
X125766498Y-143769735D01*
X125766503Y-143769737D01*
X125921153Y-143800499D01*
X125921156Y-143800500D01*
X125921158Y-143800500D01*
X126078844Y-143800500D01*
X126078845Y-143800499D01*
X126233497Y-143769737D01*
X126351592Y-143720821D01*
X126379172Y-143709397D01*
X126379172Y-143709396D01*
X126379179Y-143709394D01*
X126510289Y-143621789D01*
X126621789Y-143510289D01*
X126709394Y-143379179D01*
X126769737Y-143233497D01*
X126800500Y-143078842D01*
X126800500Y-142921158D01*
X126800500Y-142921155D01*
X126800499Y-142921153D01*
X126778447Y-142810292D01*
X126769737Y-142766503D01*
X126756062Y-142733489D01*
X126709397Y-142620827D01*
X126709390Y-142620814D01*
X126621789Y-142489711D01*
X126621786Y-142489707D01*
X126510292Y-142378213D01*
X126510288Y-142378210D01*
X126426571Y-142322272D01*
X126426568Y-142322270D01*
X126379179Y-142290606D01*
X126298200Y-142257063D01*
X126293921Y-142254890D01*
X126271846Y-142234093D01*
X126255788Y-142221153D01*
X156099500Y-142221153D01*
X156099500Y-142378846D01*
X156130261Y-142533489D01*
X156130264Y-142533501D01*
X156190602Y-142679172D01*
X156190609Y-142679185D01*
X156278210Y-142810288D01*
X156278213Y-142810292D01*
X156389707Y-142921786D01*
X156389711Y-142921789D01*
X156520814Y-143009390D01*
X156520827Y-143009397D01*
X156657324Y-143065935D01*
X156666503Y-143069737D01*
X156816131Y-143099500D01*
X156821153Y-143100499D01*
X156821156Y-143100500D01*
X156821158Y-143100500D01*
X156978844Y-143100500D01*
X156978845Y-143100499D01*
X157133497Y-143069737D01*
X157279179Y-143009394D01*
X157410289Y-142921789D01*
X157521789Y-142810289D01*
X157609394Y-142679179D01*
X157669737Y-142533497D01*
X157684715Y-142458194D01*
X157692084Y-142421153D01*
X162799500Y-142421153D01*
X162799500Y-142578846D01*
X162830261Y-142733489D01*
X162830264Y-142733501D01*
X162890602Y-142879172D01*
X162890609Y-142879185D01*
X162978210Y-143010288D01*
X162978213Y-143010292D01*
X163089707Y-143121786D01*
X163089711Y-143121789D01*
X163220814Y-143209390D01*
X163220827Y-143209397D01*
X163342225Y-143259681D01*
X163366503Y-143269737D01*
X163516131Y-143299500D01*
X163521153Y-143300499D01*
X163521156Y-143300500D01*
X163521158Y-143300500D01*
X163678844Y-143300500D01*
X163678845Y-143300499D01*
X163833497Y-143269737D01*
X163950790Y-143221153D01*
X172299500Y-143221153D01*
X172299500Y-143378846D01*
X172330261Y-143533489D01*
X172330264Y-143533501D01*
X172390602Y-143679172D01*
X172390609Y-143679185D01*
X172478210Y-143810288D01*
X172478213Y-143810292D01*
X172589707Y-143921786D01*
X172589711Y-143921789D01*
X172699848Y-143995381D01*
X172699850Y-143995382D01*
X172720821Y-144009394D01*
X172866503Y-144069737D01*
X172973445Y-144091009D01*
X173021155Y-144100500D01*
X173021158Y-144100500D01*
X173178844Y-144100500D01*
X173178845Y-144100499D01*
X173333497Y-144069737D01*
X173479179Y-144009394D01*
X173610289Y-143921789D01*
X173721789Y-143810289D01*
X173809394Y-143679179D01*
X173869737Y-143533497D01*
X173900500Y-143378842D01*
X173900500Y-143221158D01*
X173900500Y-143221155D01*
X173900499Y-143221153D01*
X173892226Y-143179561D01*
X173869737Y-143066503D01*
X173869502Y-143065935D01*
X173809397Y-142920827D01*
X173809390Y-142920814D01*
X173721789Y-142789711D01*
X173721786Y-142789707D01*
X173610292Y-142678213D01*
X173610288Y-142678210D01*
X173479185Y-142590609D01*
X173479172Y-142590602D01*
X173333501Y-142530264D01*
X173333489Y-142530261D01*
X173178845Y-142499500D01*
X173178842Y-142499500D01*
X173021158Y-142499500D01*
X173021155Y-142499500D01*
X172866510Y-142530261D01*
X172866498Y-142530264D01*
X172720827Y-142590602D01*
X172720814Y-142590609D01*
X172589711Y-142678210D01*
X172589707Y-142678213D01*
X172478213Y-142789707D01*
X172478210Y-142789711D01*
X172390609Y-142920814D01*
X172390602Y-142920827D01*
X172330264Y-143066498D01*
X172330261Y-143066510D01*
X172299500Y-143221153D01*
X163950790Y-143221153D01*
X163951592Y-143220821D01*
X163979172Y-143209397D01*
X163979172Y-143209396D01*
X163979179Y-143209394D01*
X164110289Y-143121789D01*
X164221789Y-143010289D01*
X164309394Y-142879179D01*
X164369737Y-142733497D01*
X164400500Y-142578842D01*
X164400500Y-142421158D01*
X164400500Y-142421155D01*
X164400499Y-142421153D01*
X164394476Y-142390874D01*
X164369737Y-142266503D01*
X164363413Y-142251236D01*
X164309397Y-142120827D01*
X164309390Y-142120814D01*
X164221789Y-141989711D01*
X164221786Y-141989707D01*
X164110292Y-141878213D01*
X164110288Y-141878210D01*
X163979185Y-141790609D01*
X163979172Y-141790602D01*
X163858915Y-141740791D01*
X163833501Y-141730264D01*
X163833489Y-141730261D01*
X163678845Y-141699500D01*
X163678842Y-141699500D01*
X163521158Y-141699500D01*
X163521155Y-141699500D01*
X163366510Y-141730261D01*
X163366498Y-141730264D01*
X163220827Y-141790602D01*
X163220814Y-141790609D01*
X163089711Y-141878210D01*
X163089707Y-141878213D01*
X162978213Y-141989707D01*
X162978210Y-141989711D01*
X162890609Y-142120814D01*
X162890602Y-142120827D01*
X162830264Y-142266498D01*
X162830261Y-142266510D01*
X162799500Y-142421153D01*
X157692084Y-142421153D01*
X157698107Y-142390875D01*
X157698107Y-142390874D01*
X157700500Y-142378844D01*
X157700500Y-142221155D01*
X157700499Y-142221153D01*
X157692084Y-142178848D01*
X157669737Y-142066503D01*
X157651215Y-142021786D01*
X157609397Y-141920827D01*
X157609390Y-141920814D01*
X157521789Y-141789711D01*
X157521786Y-141789707D01*
X157410292Y-141678213D01*
X157410288Y-141678210D01*
X157341605Y-141632317D01*
X177584198Y-141632317D01*
X177584198Y-142946082D01*
X177622464Y-143138456D01*
X177622466Y-143138464D01*
X177697530Y-143319684D01*
X177697535Y-143319694D01*
X177806509Y-143482784D01*
X177806512Y-143482788D01*
X177945209Y-143621485D01*
X177945213Y-143621488D01*
X178108303Y-143730462D01*
X178108307Y-143730464D01*
X178108310Y-143730466D01*
X178289534Y-143805532D01*
X178481915Y-143843799D01*
X178481918Y-143843800D01*
X178481920Y-143843800D01*
X178678078Y-143843800D01*
X178678079Y-143843799D01*
X178870462Y-143805532D01*
X179051686Y-143730466D01*
X179214783Y-143621488D01*
X179353486Y-143482785D01*
X179462464Y-143319688D01*
X179520507Y-143179558D01*
X179537135Y-143158924D01*
X179550687Y-143136151D01*
X179558714Y-143132145D01*
X179564346Y-143125157D01*
X179589494Y-143116786D01*
X179613206Y-143104955D01*
X179622126Y-143105925D01*
X179630640Y-143103092D01*
X179656315Y-143109645D01*
X179682666Y-143112512D01*
X179691988Y-143118749D01*
X179698340Y-143120371D01*
X179712996Y-143130561D01*
X179718104Y-143134688D01*
X179733265Y-143149849D01*
X179745890Y-143157137D01*
X179753429Y-143163229D01*
X179768020Y-143184301D01*
X179785714Y-143202857D01*
X179788327Y-143213629D01*
X179793204Y-143220672D01*
X179793728Y-143235890D01*
X179799500Y-143259681D01*
X179799500Y-143378846D01*
X179830261Y-143533489D01*
X179830264Y-143533501D01*
X179890602Y-143679172D01*
X179890609Y-143679185D01*
X179978210Y-143810288D01*
X179978213Y-143810292D01*
X180089707Y-143921786D01*
X180089711Y-143921789D01*
X180220814Y-144009390D01*
X180220827Y-144009397D01*
X180358683Y-144066498D01*
X180366503Y-144069737D01*
X180521153Y-144100499D01*
X180521156Y-144100500D01*
X180521158Y-144100500D01*
X180678844Y-144100500D01*
X180678845Y-144100499D01*
X180833497Y-144069737D01*
X180979179Y-144009394D01*
X181110289Y-143921789D01*
X181221789Y-143810289D01*
X181309394Y-143679179D01*
X181369737Y-143533497D01*
X181400500Y-143378842D01*
X181400500Y-143221158D01*
X181400500Y-143221155D01*
X181400499Y-143221153D01*
X183899500Y-143221153D01*
X183899500Y-143378846D01*
X183930261Y-143533489D01*
X183930264Y-143533501D01*
X183990602Y-143679172D01*
X183990609Y-143679185D01*
X184078210Y-143810288D01*
X184078213Y-143810292D01*
X184189707Y-143921786D01*
X184189711Y-143921789D01*
X184320814Y-144009390D01*
X184320827Y-144009397D01*
X184458683Y-144066498D01*
X184466503Y-144069737D01*
X184621153Y-144100499D01*
X184621156Y-144100500D01*
X184621158Y-144100500D01*
X184778844Y-144100500D01*
X184778845Y-144100499D01*
X184789179Y-144098443D01*
X184814287Y-144093450D01*
X184814292Y-144093449D01*
X184905319Y-144075342D01*
X184933497Y-144069737D01*
X185079179Y-144009394D01*
X185210289Y-143921789D01*
X185321789Y-143810289D01*
X185409394Y-143679179D01*
X185469737Y-143533497D01*
X185500500Y-143378842D01*
X185500500Y-143339826D01*
X185520185Y-143272787D01*
X185572989Y-143227032D01*
X185642147Y-143217088D01*
X185656579Y-143220047D01*
X185730663Y-143239899D01*
X185730666Y-143239899D01*
X185849332Y-143239899D01*
X185849335Y-143239899D01*
X185963963Y-143209184D01*
X186066735Y-143149849D01*
X186077252Y-143139331D01*
X186138570Y-143105848D01*
X186208262Y-143110830D01*
X186264197Y-143152700D01*
X186279491Y-143179557D01*
X186291852Y-143209397D01*
X186337534Y-143319685D01*
X186337539Y-143319694D01*
X186446513Y-143482784D01*
X186446516Y-143482788D01*
X186585213Y-143621485D01*
X186585217Y-143621488D01*
X186748307Y-143730462D01*
X186748311Y-143730464D01*
X186748314Y-143730466D01*
X186929538Y-143805532D01*
X187121919Y-143843799D01*
X187121922Y-143843800D01*
X187121924Y-143843800D01*
X187318082Y-143843800D01*
X187318083Y-143843799D01*
X187510466Y-143805532D01*
X187691690Y-143730466D01*
X187854787Y-143621488D01*
X187993490Y-143482785D01*
X188102468Y-143319688D01*
X188177534Y-143138464D01*
X188215802Y-142946078D01*
X188215802Y-142421153D01*
X194599500Y-142421153D01*
X194599500Y-142578846D01*
X194630261Y-142733489D01*
X194630264Y-142733501D01*
X194690602Y-142879172D01*
X194690609Y-142879185D01*
X194778210Y-143010288D01*
X194778213Y-143010292D01*
X194889707Y-143121786D01*
X194889711Y-143121789D01*
X195020814Y-143209390D01*
X195020827Y-143209397D01*
X195142225Y-143259681D01*
X195166503Y-143269737D01*
X195316131Y-143299500D01*
X195321153Y-143300499D01*
X195321156Y-143300500D01*
X195321158Y-143300500D01*
X195478844Y-143300500D01*
X195478845Y-143300499D01*
X195633497Y-143269737D01*
X195751592Y-143220821D01*
X195779172Y-143209397D01*
X195779172Y-143209396D01*
X195779179Y-143209394D01*
X195910289Y-143121789D01*
X196021789Y-143010289D01*
X196109394Y-142879179D01*
X196169737Y-142733497D01*
X196200500Y-142578842D01*
X196200500Y-142421158D01*
X196200500Y-142421155D01*
X196200499Y-142421153D01*
X196194476Y-142390874D01*
X196169737Y-142266503D01*
X196163413Y-142251236D01*
X196109397Y-142120827D01*
X196109390Y-142120814D01*
X196084764Y-142083959D01*
X196042799Y-142021155D01*
X232499498Y-142021155D01*
X232499498Y-142178848D01*
X232530259Y-142333491D01*
X232530262Y-142333503D01*
X232590600Y-142479174D01*
X232590607Y-142479187D01*
X232678208Y-142610290D01*
X232678211Y-142610294D01*
X232789705Y-142721788D01*
X232789709Y-142721791D01*
X232920812Y-142809392D01*
X232920825Y-142809399D01*
X233066496Y-142869737D01*
X233066501Y-142869739D01*
X233221151Y-142900501D01*
X233221154Y-142900502D01*
X233221156Y-142900502D01*
X233378842Y-142900502D01*
X233378843Y-142900501D01*
X233533495Y-142869739D01*
X233679177Y-142809396D01*
X233810287Y-142721791D01*
X233921787Y-142610291D01*
X234009392Y-142479181D01*
X234069735Y-142333499D01*
X234100498Y-142178844D01*
X234100498Y-142021160D01*
X234100498Y-142021157D01*
X234100497Y-142021155D01*
X234094242Y-141989711D01*
X234069735Y-141866505D01*
X234069733Y-141866500D01*
X234009395Y-141720829D01*
X234009388Y-141720816D01*
X233921787Y-141589713D01*
X233921784Y-141589709D01*
X233810290Y-141478215D01*
X233810286Y-141478212D01*
X233679183Y-141390611D01*
X233679170Y-141390604D01*
X233533499Y-141330266D01*
X233533487Y-141330263D01*
X233378843Y-141299502D01*
X233378840Y-141299502D01*
X233221156Y-141299502D01*
X233221153Y-141299502D01*
X233066508Y-141330263D01*
X233066496Y-141330266D01*
X232920825Y-141390604D01*
X232920812Y-141390611D01*
X232789709Y-141478212D01*
X232789705Y-141478215D01*
X232678211Y-141589709D01*
X232678208Y-141589713D01*
X232590607Y-141720816D01*
X232590600Y-141720829D01*
X232530262Y-141866500D01*
X232530259Y-141866512D01*
X232499498Y-142021155D01*
X196042799Y-142021155D01*
X196021789Y-141989711D01*
X196021786Y-141989707D01*
X195910292Y-141878213D01*
X195910288Y-141878210D01*
X195779185Y-141790609D01*
X195779172Y-141790602D01*
X195633501Y-141730264D01*
X195633489Y-141730261D01*
X195478845Y-141699500D01*
X195478842Y-141699500D01*
X195321158Y-141699500D01*
X195321155Y-141699500D01*
X195166510Y-141730261D01*
X195166498Y-141730264D01*
X195020827Y-141790602D01*
X195020814Y-141790609D01*
X194889711Y-141878210D01*
X194889707Y-141878213D01*
X194778213Y-141989707D01*
X194778210Y-141989711D01*
X194690609Y-142120814D01*
X194690602Y-142120827D01*
X194630264Y-142266498D01*
X194630261Y-142266510D01*
X194599500Y-142421153D01*
X188215802Y-142421153D01*
X188215802Y-141632322D01*
X188215802Y-141632319D01*
X188215801Y-141632317D01*
X188207503Y-141590602D01*
X188177534Y-141439936D01*
X188102468Y-141258712D01*
X188102466Y-141258709D01*
X188102464Y-141258705D01*
X187993490Y-141095615D01*
X187993487Y-141095611D01*
X187854790Y-140956914D01*
X187854786Y-140956911D01*
X187691696Y-140847937D01*
X187691686Y-140847932D01*
X187510466Y-140772868D01*
X187510458Y-140772866D01*
X187318083Y-140734600D01*
X187318080Y-140734600D01*
X187200721Y-140734600D01*
X187133682Y-140714915D01*
X187087927Y-140662111D01*
X187077983Y-140592953D01*
X187079104Y-140586409D01*
X187099574Y-140483497D01*
X187100500Y-140478842D01*
X187100500Y-140321158D01*
X187100500Y-140321155D01*
X187100499Y-140321153D01*
X187078269Y-140209397D01*
X187069737Y-140166503D01*
X187056066Y-140133497D01*
X187026666Y-140062518D01*
X187009532Y-140021153D01*
X198099500Y-140021153D01*
X198099500Y-140178846D01*
X198130261Y-140333489D01*
X198130264Y-140333501D01*
X198190602Y-140479172D01*
X198190609Y-140479185D01*
X198278210Y-140610288D01*
X198278213Y-140610292D01*
X198389707Y-140721786D01*
X198389711Y-140721789D01*
X198520814Y-140809390D01*
X198520827Y-140809397D01*
X198666498Y-140869735D01*
X198666503Y-140869737D01*
X198821153Y-140900499D01*
X198821156Y-140900500D01*
X198821158Y-140900500D01*
X198978844Y-140900500D01*
X198978845Y-140900499D01*
X199133497Y-140869737D01*
X199251601Y-140820817D01*
X199279172Y-140809397D01*
X199279172Y-140809396D01*
X199279179Y-140809394D01*
X199410289Y-140721789D01*
X199521789Y-140610289D01*
X199609394Y-140479179D01*
X199669737Y-140333497D01*
X199700500Y-140178842D01*
X199700500Y-140021158D01*
X199700500Y-140021155D01*
X199700499Y-140021153D01*
X199696391Y-140000499D01*
X199669737Y-139866503D01*
X199647783Y-139813501D01*
X199609397Y-139720827D01*
X199609390Y-139720814D01*
X199521789Y-139589711D01*
X199521786Y-139589707D01*
X199410292Y-139478213D01*
X199410288Y-139478210D01*
X199320429Y-139418168D01*
X199279185Y-139390609D01*
X199279172Y-139390602D01*
X199133501Y-139330264D01*
X199133489Y-139330261D01*
X199087701Y-139321153D01*
X205899500Y-139321153D01*
X205899500Y-139478846D01*
X205930261Y-139633489D01*
X205930264Y-139633501D01*
X205990602Y-139779172D01*
X205990609Y-139779185D01*
X206078210Y-139910288D01*
X206078213Y-139910292D01*
X206189707Y-140021786D01*
X206189711Y-140021789D01*
X206320814Y-140109390D01*
X206320827Y-140109397D01*
X206458683Y-140166498D01*
X206466503Y-140169737D01*
X206621153Y-140200499D01*
X206621156Y-140200500D01*
X206621158Y-140200500D01*
X206778844Y-140200500D01*
X206778845Y-140200499D01*
X206933497Y-140169737D01*
X207079179Y-140109394D01*
X207210289Y-140021789D01*
X207321789Y-139910289D01*
X207409394Y-139779179D01*
X207469737Y-139633497D01*
X207500500Y-139478842D01*
X207500500Y-139321158D01*
X207500500Y-139321155D01*
X207484209Y-139239258D01*
X207484209Y-139239257D01*
X207480608Y-139221153D01*
X225599500Y-139221153D01*
X225599500Y-139378846D01*
X225630261Y-139533489D01*
X225630264Y-139533501D01*
X225690602Y-139679172D01*
X225690609Y-139679185D01*
X225778210Y-139810288D01*
X225778213Y-139810292D01*
X225889707Y-139921786D01*
X225889711Y-139921789D01*
X226020814Y-140009390D01*
X226020827Y-140009397D01*
X226166498Y-140069735D01*
X226166503Y-140069737D01*
X226321153Y-140100499D01*
X226321156Y-140100500D01*
X226321158Y-140100500D01*
X226478844Y-140100500D01*
X226478845Y-140100499D01*
X226633497Y-140069737D01*
X226751592Y-140020821D01*
X226779172Y-140009397D01*
X226779172Y-140009396D01*
X226779179Y-140009394D01*
X226910289Y-139921789D01*
X227021789Y-139810289D01*
X227109394Y-139679179D01*
X227169737Y-139533497D01*
X227200500Y-139378842D01*
X227200500Y-139221158D01*
X227200500Y-139221155D01*
X227200499Y-139221153D01*
X227192148Y-139179172D01*
X227169737Y-139066503D01*
X227150955Y-139021158D01*
X227109397Y-138920827D01*
X227109390Y-138920814D01*
X227021789Y-138789711D01*
X227021786Y-138789707D01*
X226910292Y-138678213D01*
X226910288Y-138678210D01*
X226779185Y-138590609D01*
X226779172Y-138590602D01*
X226633501Y-138530264D01*
X226633489Y-138530261D01*
X226478845Y-138499500D01*
X226478842Y-138499500D01*
X226321158Y-138499500D01*
X226321155Y-138499500D01*
X226166510Y-138530261D01*
X226166498Y-138530264D01*
X226020827Y-138590602D01*
X226020814Y-138590609D01*
X225889711Y-138678210D01*
X225889707Y-138678213D01*
X225778213Y-138789707D01*
X225778210Y-138789711D01*
X225690609Y-138920814D01*
X225690602Y-138920827D01*
X225630264Y-139066498D01*
X225630261Y-139066510D01*
X225599500Y-139221153D01*
X207480608Y-139221153D01*
X207478834Y-139212237D01*
X207469737Y-139166503D01*
X207450955Y-139121158D01*
X207409397Y-139020827D01*
X207409390Y-139020814D01*
X207321789Y-138889711D01*
X207321786Y-138889707D01*
X207210292Y-138778213D01*
X207210288Y-138778210D01*
X207079185Y-138690609D01*
X207079172Y-138690602D01*
X206933501Y-138630264D01*
X206933489Y-138630261D01*
X206778845Y-138599500D01*
X206778842Y-138599500D01*
X206621158Y-138599500D01*
X206621155Y-138599500D01*
X206466510Y-138630261D01*
X206466498Y-138630264D01*
X206320827Y-138690602D01*
X206320814Y-138690609D01*
X206189711Y-138778210D01*
X206189707Y-138778213D01*
X206078213Y-138889707D01*
X206078210Y-138889711D01*
X205990609Y-139020814D01*
X205990602Y-139020827D01*
X205930264Y-139166498D01*
X205930261Y-139166510D01*
X205899500Y-139321153D01*
X199087701Y-139321153D01*
X198978845Y-139299500D01*
X198978842Y-139299500D01*
X198821158Y-139299500D01*
X198821155Y-139299500D01*
X198666510Y-139330261D01*
X198666498Y-139330264D01*
X198520827Y-139390602D01*
X198520814Y-139390609D01*
X198389711Y-139478210D01*
X198389707Y-139478213D01*
X198278213Y-139589707D01*
X198278210Y-139589711D01*
X198190609Y-139720814D01*
X198190602Y-139720827D01*
X198130264Y-139866498D01*
X198130261Y-139866510D01*
X198099500Y-140021153D01*
X187009532Y-140021153D01*
X187009395Y-140020823D01*
X187009390Y-140020814D01*
X186921789Y-139889711D01*
X186921786Y-139889707D01*
X186810292Y-139778213D01*
X186810288Y-139778210D01*
X186679185Y-139690609D01*
X186679172Y-139690602D01*
X186533501Y-139630264D01*
X186533489Y-139630261D01*
X186378845Y-139599500D01*
X186378842Y-139599500D01*
X186221158Y-139599500D01*
X186221155Y-139599500D01*
X186066510Y-139630261D01*
X186066498Y-139630264D01*
X185920827Y-139690602D01*
X185920814Y-139690609D01*
X185789711Y-139778210D01*
X185789707Y-139778213D01*
X185678213Y-139889707D01*
X185678210Y-139889711D01*
X185590609Y-140020814D01*
X185590602Y-140020827D01*
X185530264Y-140166498D01*
X185530261Y-140166510D01*
X185499500Y-140321153D01*
X185499500Y-140478846D01*
X185530261Y-140633489D01*
X185530264Y-140633501D01*
X185590602Y-140779172D01*
X185590609Y-140779185D01*
X185678210Y-140910288D01*
X185678213Y-140910292D01*
X185789707Y-141021786D01*
X185789711Y-141021789D01*
X185920814Y-141109390D01*
X185920827Y-141109397D01*
X186058683Y-141166498D01*
X186066503Y-141169737D01*
X186147463Y-141185841D01*
X186202762Y-141196841D01*
X186264673Y-141229226D01*
X186299247Y-141289941D01*
X186295508Y-141359711D01*
X186293132Y-141365910D01*
X186262471Y-141439931D01*
X186262468Y-141439943D01*
X186224202Y-141632317D01*
X186224202Y-142304688D01*
X186204517Y-142371727D01*
X186151713Y-142417482D01*
X186082555Y-142427426D01*
X186038203Y-142412076D01*
X185963963Y-142369214D01*
X185963964Y-142369214D01*
X185924960Y-142358763D01*
X185849335Y-142338499D01*
X185730663Y-142338499D01*
X185661886Y-142356928D01*
X185616033Y-142369214D01*
X185616028Y-142369217D01*
X185513269Y-142428544D01*
X185513261Y-142428550D01*
X185429350Y-142512461D01*
X185429344Y-142512469D01*
X185365950Y-142622273D01*
X185363077Y-142620614D01*
X185328874Y-142663004D01*
X185262566Y-142685027D01*
X185194878Y-142667705D01*
X185189328Y-142664205D01*
X185079185Y-142590609D01*
X185079172Y-142590602D01*
X184933501Y-142530264D01*
X184933489Y-142530261D01*
X184778845Y-142499500D01*
X184778842Y-142499500D01*
X184621158Y-142499500D01*
X184621155Y-142499500D01*
X184466510Y-142530261D01*
X184466498Y-142530264D01*
X184320827Y-142590602D01*
X184320814Y-142590609D01*
X184189711Y-142678210D01*
X184189707Y-142678213D01*
X184078213Y-142789707D01*
X184078210Y-142789711D01*
X183990609Y-142920814D01*
X183990602Y-142920827D01*
X183930264Y-143066498D01*
X183930261Y-143066510D01*
X183899500Y-143221153D01*
X181400499Y-143221153D01*
X181392226Y-143179561D01*
X181369737Y-143066503D01*
X181369502Y-143065935D01*
X181309397Y-142920827D01*
X181309390Y-142920814D01*
X181221789Y-142789711D01*
X181221786Y-142789707D01*
X181110292Y-142678213D01*
X181110288Y-142678210D01*
X180979185Y-142590609D01*
X180979172Y-142590602D01*
X180833501Y-142530264D01*
X180833489Y-142530261D01*
X180678845Y-142499500D01*
X180678842Y-142499500D01*
X180521158Y-142499500D01*
X180449814Y-142513691D01*
X180380223Y-142507463D01*
X180337944Y-142479755D01*
X180286738Y-142428550D01*
X180286730Y-142428544D01*
X180183971Y-142369217D01*
X180183966Y-142369214D01*
X180144962Y-142358763D01*
X180069337Y-142338499D01*
X179950665Y-142338499D01*
X179875040Y-142358763D01*
X179836036Y-142369214D01*
X179761797Y-142412076D01*
X179693897Y-142428548D01*
X179627870Y-142405695D01*
X179584680Y-142350773D01*
X179575798Y-142304688D01*
X179575798Y-141632319D01*
X179575797Y-141632317D01*
X179567499Y-141590602D01*
X179537530Y-141439936D01*
X179462464Y-141258712D01*
X179461055Y-141255310D01*
X179453586Y-141185841D01*
X179484861Y-141123361D01*
X179544950Y-141087709D01*
X179599808Y-141086240D01*
X179608655Y-141088000D01*
X179608658Y-141088000D01*
X179766344Y-141088000D01*
X179766345Y-141087999D01*
X179920997Y-141057237D01*
X180066679Y-140996894D01*
X180197789Y-140909289D01*
X180309289Y-140797789D01*
X180396894Y-140666679D01*
X180400004Y-140659172D01*
X180427432Y-140592953D01*
X180457237Y-140520997D01*
X180488000Y-140366342D01*
X180488000Y-140208658D01*
X180488000Y-140208655D01*
X180487999Y-140208653D01*
X180473048Y-140133489D01*
X180457237Y-140054003D01*
X180443894Y-140021789D01*
X180396897Y-139908327D01*
X180396890Y-139908314D01*
X180380615Y-139883957D01*
X180338650Y-139821153D01*
X182099500Y-139821153D01*
X182099500Y-139978846D01*
X182130261Y-140133489D01*
X182130264Y-140133501D01*
X182190602Y-140279172D01*
X182190609Y-140279185D01*
X182278210Y-140410288D01*
X182278213Y-140410292D01*
X182389707Y-140521786D01*
X182389711Y-140521789D01*
X182520814Y-140609390D01*
X182520827Y-140609397D01*
X182641028Y-140659185D01*
X182666503Y-140669737D01*
X182821153Y-140700499D01*
X182821156Y-140700500D01*
X182821158Y-140700500D01*
X182978844Y-140700500D01*
X182978845Y-140700499D01*
X183133497Y-140669737D01*
X183279179Y-140609394D01*
X183410289Y-140521789D01*
X183521789Y-140410289D01*
X183609394Y-140279179D01*
X183669737Y-140133497D01*
X183685548Y-140054010D01*
X183695560Y-140003680D01*
X183727945Y-139941769D01*
X183769721Y-139913311D01*
X183779179Y-139909394D01*
X183910289Y-139821789D01*
X184021789Y-139710289D01*
X184109394Y-139579179D01*
X184109839Y-139578106D01*
X184141713Y-139501153D01*
X184169737Y-139433497D01*
X184200500Y-139278842D01*
X184200500Y-139121158D01*
X184200500Y-139121155D01*
X184200499Y-139121153D01*
X184194801Y-139092506D01*
X184169737Y-138966503D01*
X184150955Y-138921158D01*
X184109397Y-138820827D01*
X184109390Y-138820814D01*
X184084763Y-138783957D01*
X184042798Y-138721153D01*
X193099500Y-138721153D01*
X193099500Y-138878846D01*
X193130261Y-139033489D01*
X193130264Y-139033501D01*
X193190602Y-139179172D01*
X193190609Y-139179185D01*
X193278210Y-139310288D01*
X193278213Y-139310292D01*
X193389707Y-139421786D01*
X193389711Y-139421789D01*
X193520814Y-139509390D01*
X193520827Y-139509397D01*
X193666498Y-139569735D01*
X193666503Y-139569737D01*
X193812818Y-139598841D01*
X193821153Y-139600499D01*
X193821156Y-139600500D01*
X193821158Y-139600500D01*
X193978844Y-139600500D01*
X193978845Y-139600499D01*
X194133497Y-139569737D01*
X194251592Y-139520821D01*
X194279172Y-139509397D01*
X194279172Y-139509396D01*
X194279179Y-139509394D01*
X194410289Y-139421789D01*
X194521789Y-139310289D01*
X194609394Y-139179179D01*
X194669737Y-139033497D01*
X194700500Y-138878842D01*
X194700500Y-138721158D01*
X194700500Y-138721155D01*
X194700499Y-138721153D01*
X194694360Y-138690289D01*
X194669737Y-138566503D01*
X194666703Y-138559179D01*
X194609397Y-138420827D01*
X194609390Y-138420814D01*
X194521789Y-138289711D01*
X194521786Y-138289707D01*
X194410292Y-138178213D01*
X194410288Y-138178210D01*
X194279185Y-138090609D01*
X194279172Y-138090602D01*
X194133501Y-138030264D01*
X194133489Y-138030261D01*
X193978845Y-137999500D01*
X193978842Y-137999500D01*
X193821158Y-137999500D01*
X193821155Y-137999500D01*
X193666510Y-138030261D01*
X193666498Y-138030264D01*
X193520827Y-138090602D01*
X193520814Y-138090609D01*
X193389711Y-138178210D01*
X193389707Y-138178213D01*
X193278213Y-138289707D01*
X193278210Y-138289711D01*
X193190609Y-138420814D01*
X193190602Y-138420827D01*
X193130264Y-138566498D01*
X193130261Y-138566510D01*
X193099500Y-138721153D01*
X184042798Y-138721153D01*
X184021789Y-138689711D01*
X184021786Y-138689707D01*
X183910292Y-138578213D01*
X183910288Y-138578210D01*
X183779185Y-138490609D01*
X183779172Y-138490602D01*
X183633501Y-138430264D01*
X183633489Y-138430261D01*
X183478845Y-138399500D01*
X183478842Y-138399500D01*
X183321158Y-138399500D01*
X183321155Y-138399500D01*
X183166510Y-138430261D01*
X183166498Y-138430264D01*
X183020827Y-138490602D01*
X183020814Y-138490609D01*
X182889711Y-138578210D01*
X182889707Y-138578213D01*
X182778213Y-138689707D01*
X182778210Y-138689711D01*
X182690609Y-138820814D01*
X182690602Y-138820827D01*
X182630264Y-138966498D01*
X182630261Y-138966508D01*
X182604440Y-139096320D01*
X182572055Y-139158231D01*
X182530278Y-139186688D01*
X182520826Y-139190603D01*
X182520814Y-139190609D01*
X182389711Y-139278210D01*
X182389707Y-139278213D01*
X182278213Y-139389707D01*
X182278210Y-139389711D01*
X182190609Y-139520814D01*
X182190602Y-139520827D01*
X182130264Y-139666498D01*
X182130261Y-139666510D01*
X182099500Y-139821153D01*
X180338650Y-139821153D01*
X180309289Y-139777211D01*
X180309286Y-139777207D01*
X180197792Y-139665713D01*
X180197788Y-139665710D01*
X180066685Y-139578109D01*
X180066672Y-139578102D01*
X179921001Y-139517764D01*
X179920989Y-139517761D01*
X179766345Y-139487000D01*
X179766342Y-139487000D01*
X179608658Y-139487000D01*
X179608655Y-139487000D01*
X179454010Y-139517761D01*
X179453998Y-139517764D01*
X179308327Y-139578102D01*
X179308314Y-139578109D01*
X179177211Y-139665710D01*
X179177207Y-139665713D01*
X179065713Y-139777207D01*
X179065710Y-139777211D01*
X178978109Y-139908314D01*
X178978102Y-139908327D01*
X178917764Y-140053998D01*
X178917761Y-140054010D01*
X178887000Y-140208653D01*
X178887000Y-140366346D01*
X178917761Y-140520989D01*
X178917763Y-140520996D01*
X178946928Y-140591409D01*
X178954396Y-140660878D01*
X178923120Y-140723357D01*
X178863031Y-140759009D01*
X178808175Y-140760477D01*
X178678080Y-140734600D01*
X178678076Y-140734600D01*
X178481920Y-140734600D01*
X178481917Y-140734600D01*
X178289541Y-140772866D01*
X178289533Y-140772868D01*
X178108313Y-140847932D01*
X178108303Y-140847937D01*
X177945213Y-140956911D01*
X177945209Y-140956914D01*
X177806512Y-141095611D01*
X177806509Y-141095615D01*
X177697535Y-141258705D01*
X177697530Y-141258715D01*
X177622466Y-141439935D01*
X177622464Y-141439943D01*
X177584198Y-141632317D01*
X157341605Y-141632317D01*
X157279185Y-141590609D01*
X157279172Y-141590602D01*
X157133501Y-141530264D01*
X157133489Y-141530261D01*
X156978845Y-141499500D01*
X156978842Y-141499500D01*
X156821158Y-141499500D01*
X156821155Y-141499500D01*
X156666510Y-141530261D01*
X156666498Y-141530264D01*
X156520827Y-141590602D01*
X156520814Y-141590609D01*
X156389711Y-141678210D01*
X156389707Y-141678213D01*
X156278213Y-141789707D01*
X156278210Y-141789711D01*
X156190609Y-141920814D01*
X156190602Y-141920827D01*
X156130264Y-142066498D01*
X156130261Y-142066510D01*
X156099500Y-142221153D01*
X126255788Y-142221153D01*
X126248223Y-142215057D01*
X126246661Y-142210366D01*
X126243066Y-142206979D01*
X126235737Y-142177545D01*
X126226158Y-142148762D01*
X126227379Y-142143974D01*
X126226186Y-142139179D01*
X126235935Y-142110453D01*
X126243437Y-142081063D01*
X126247290Y-142076997D01*
X126248642Y-142073016D01*
X126258513Y-142065156D01*
X126281188Y-142041234D01*
X126290441Y-142035050D01*
X126310289Y-142021789D01*
X126421789Y-141910289D01*
X126509394Y-141779179D01*
X126569737Y-141633497D01*
X126600500Y-141478842D01*
X126600500Y-141321158D01*
X126600500Y-141321155D01*
X126600499Y-141321153D01*
X126594476Y-141290874D01*
X126569737Y-141166503D01*
X126550956Y-141121161D01*
X126509397Y-141020827D01*
X126509390Y-141020814D01*
X126421789Y-140889711D01*
X126421786Y-140889707D01*
X126310292Y-140778213D01*
X126310288Y-140778210D01*
X126179185Y-140690609D01*
X126179172Y-140690602D01*
X126033501Y-140630264D01*
X126033489Y-140630261D01*
X125878845Y-140599500D01*
X125878842Y-140599500D01*
X125721158Y-140599500D01*
X125721155Y-140599500D01*
X125566510Y-140630261D01*
X125566498Y-140630264D01*
X125420827Y-140690602D01*
X125420814Y-140690609D01*
X125289711Y-140778210D01*
X125289707Y-140778213D01*
X125178213Y-140889707D01*
X125178210Y-140889711D01*
X125090609Y-141020814D01*
X125090602Y-141020827D01*
X125030264Y-141166498D01*
X125030261Y-141166510D01*
X124999500Y-141321153D01*
X84592084Y-141321153D01*
X84598107Y-141290875D01*
X84598107Y-141290874D01*
X84600500Y-141278844D01*
X84600500Y-141121155D01*
X84600499Y-141121153D01*
X84593904Y-141087999D01*
X84569737Y-140966503D01*
X84546452Y-140910288D01*
X84509397Y-140820827D01*
X84509390Y-140820814D01*
X84421789Y-140689711D01*
X84421786Y-140689707D01*
X84310292Y-140578213D01*
X84310288Y-140578210D01*
X84179185Y-140490609D01*
X84179172Y-140490602D01*
X84033501Y-140430264D01*
X84033489Y-140430261D01*
X83878845Y-140399500D01*
X83878842Y-140399500D01*
X83721158Y-140399500D01*
X83721155Y-140399500D01*
X83566510Y-140430261D01*
X83566498Y-140430264D01*
X83420827Y-140490602D01*
X83420814Y-140490609D01*
X83289711Y-140578210D01*
X83289707Y-140578213D01*
X83178213Y-140689707D01*
X83178210Y-140689711D01*
X83090609Y-140820814D01*
X83090602Y-140820827D01*
X83030264Y-140966498D01*
X83030261Y-140966510D01*
X82999500Y-141121153D01*
X75400496Y-141121153D01*
X75387781Y-141057235D01*
X75369734Y-140966506D01*
X75366788Y-140959394D01*
X75309394Y-140820830D01*
X75309387Y-140820817D01*
X75221786Y-140689714D01*
X75221783Y-140689710D01*
X75110289Y-140578216D01*
X75110285Y-140578213D01*
X74979182Y-140490612D01*
X74979169Y-140490605D01*
X74833498Y-140430267D01*
X74833486Y-140430264D01*
X74678842Y-140399503D01*
X74678839Y-140399503D01*
X74521155Y-140399503D01*
X74521152Y-140399503D01*
X74366507Y-140430264D01*
X74366495Y-140430267D01*
X74220824Y-140490605D01*
X74220811Y-140490612D01*
X74089708Y-140578213D01*
X74089704Y-140578216D01*
X73978210Y-140689710D01*
X73978207Y-140689714D01*
X73890606Y-140820817D01*
X73890599Y-140820830D01*
X73830261Y-140966501D01*
X73830258Y-140966513D01*
X73799497Y-141121156D01*
X67500500Y-141121156D01*
X67500500Y-139421153D01*
X82099500Y-139421153D01*
X82099500Y-139578846D01*
X82130261Y-139733489D01*
X82130264Y-139733501D01*
X82190602Y-139879172D01*
X82190609Y-139879185D01*
X82278210Y-140010288D01*
X82278213Y-140010292D01*
X82389707Y-140121786D01*
X82389711Y-140121789D01*
X82520814Y-140209390D01*
X82520827Y-140209397D01*
X82666498Y-140269735D01*
X82666503Y-140269737D01*
X82821153Y-140300499D01*
X82821156Y-140300500D01*
X82821158Y-140300500D01*
X82978844Y-140300500D01*
X82978845Y-140300499D01*
X83133497Y-140269737D01*
X83279179Y-140209394D01*
X83410289Y-140121789D01*
X83521789Y-140010289D01*
X83609394Y-139879179D01*
X83612854Y-139870827D01*
X83623067Y-139846166D01*
X83669737Y-139733497D01*
X83700500Y-139578842D01*
X83700500Y-139421158D01*
X83700500Y-139421155D01*
X83700499Y-139421153D01*
X83692148Y-139379172D01*
X83669737Y-139266503D01*
X83658452Y-139239258D01*
X83609397Y-139120827D01*
X83609390Y-139120814D01*
X83521789Y-138989711D01*
X83521786Y-138989707D01*
X83410292Y-138878213D01*
X83410288Y-138878210D01*
X83279185Y-138790609D01*
X83279172Y-138790602D01*
X83133501Y-138730264D01*
X83133489Y-138730261D01*
X82978845Y-138699500D01*
X82978842Y-138699500D01*
X82821158Y-138699500D01*
X82821155Y-138699500D01*
X82666510Y-138730261D01*
X82666498Y-138730264D01*
X82520827Y-138790602D01*
X82520814Y-138790609D01*
X82389711Y-138878210D01*
X82389707Y-138878213D01*
X82278213Y-138989707D01*
X82278210Y-138989711D01*
X82190609Y-139120814D01*
X82190602Y-139120827D01*
X82130264Y-139266498D01*
X82130261Y-139266510D01*
X82099500Y-139421153D01*
X67500500Y-139421153D01*
X67500500Y-138101153D01*
X118654500Y-138101153D01*
X118654500Y-138258846D01*
X118685261Y-138413489D01*
X118685264Y-138413501D01*
X118745602Y-138559172D01*
X118745609Y-138559185D01*
X118833210Y-138690288D01*
X118833213Y-138690292D01*
X118935240Y-138792319D01*
X118968725Y-138853642D01*
X118963741Y-138923334D01*
X118935240Y-138967681D01*
X118833213Y-139069707D01*
X118833210Y-139069711D01*
X118745609Y-139200814D01*
X118745602Y-139200827D01*
X118685264Y-139346498D01*
X118685261Y-139346510D01*
X118654500Y-139501153D01*
X118654500Y-139658846D01*
X118685261Y-139813489D01*
X118685264Y-139813501D01*
X118745602Y-139959172D01*
X118745609Y-139959185D01*
X118833210Y-140090288D01*
X118833213Y-140090292D01*
X118944707Y-140201786D01*
X118944711Y-140201789D01*
X119075814Y-140289390D01*
X119075827Y-140289397D01*
X119185082Y-140334651D01*
X119221503Y-140349737D01*
X119276831Y-140360742D01*
X119338740Y-140393126D01*
X119373315Y-140453841D01*
X119374256Y-140458166D01*
X119385261Y-140513492D01*
X119385264Y-140513501D01*
X119445602Y-140659172D01*
X119445609Y-140659185D01*
X119533210Y-140790288D01*
X119533213Y-140790292D01*
X119644707Y-140901786D01*
X119644711Y-140901789D01*
X119775814Y-140989390D01*
X119775827Y-140989397D01*
X119921498Y-141049735D01*
X119921503Y-141049737D01*
X120076153Y-141080499D01*
X120076156Y-141080500D01*
X120076158Y-141080500D01*
X120233844Y-141080500D01*
X120233845Y-141080499D01*
X120388497Y-141049737D01*
X120534179Y-140989394D01*
X120665289Y-140901789D01*
X120697343Y-140869735D01*
X120767319Y-140799760D01*
X120828642Y-140766275D01*
X120898334Y-140771259D01*
X120942681Y-140799760D01*
X121044707Y-140901786D01*
X121044711Y-140901789D01*
X121175814Y-140989390D01*
X121175827Y-140989397D01*
X121321498Y-141049735D01*
X121321503Y-141049737D01*
X121476153Y-141080499D01*
X121476156Y-141080500D01*
X121476158Y-141080500D01*
X121633844Y-141080500D01*
X121633845Y-141080499D01*
X121788497Y-141049737D01*
X121934179Y-140989394D01*
X122065289Y-140901789D01*
X122176789Y-140790289D01*
X122264394Y-140659179D01*
X122324737Y-140513497D01*
X122335743Y-140458166D01*
X122368125Y-140396258D01*
X122428841Y-140361683D01*
X122433118Y-140360752D01*
X122488497Y-140349737D01*
X122634179Y-140289394D01*
X122765289Y-140201789D01*
X122876789Y-140090289D01*
X122964394Y-139959179D01*
X123024737Y-139813497D01*
X123055500Y-139658842D01*
X123055500Y-139501158D01*
X123055500Y-139501155D01*
X123055499Y-139501153D01*
X123050936Y-139478213D01*
X123024737Y-139346503D01*
X123024735Y-139346498D01*
X122964397Y-139200827D01*
X122964390Y-139200814D01*
X122903902Y-139110288D01*
X122876789Y-139069711D01*
X122828231Y-139021153D01*
X128699500Y-139021153D01*
X128699500Y-139178846D01*
X128730261Y-139333489D01*
X128730264Y-139333501D01*
X128790602Y-139479172D01*
X128790609Y-139479185D01*
X128878210Y-139610288D01*
X128878213Y-139610292D01*
X128888064Y-139620143D01*
X128921549Y-139681466D01*
X128916565Y-139751158D01*
X128903485Y-139776715D01*
X128840609Y-139870814D01*
X128840602Y-139870827D01*
X128780264Y-140016498D01*
X128780261Y-140016510D01*
X128749500Y-140171153D01*
X128749500Y-140328846D01*
X128780261Y-140483489D01*
X128780264Y-140483501D01*
X128840602Y-140629172D01*
X128840609Y-140629185D01*
X128928210Y-140760288D01*
X128928213Y-140760292D01*
X129039707Y-140871786D01*
X129039711Y-140871789D01*
X129170814Y-140959390D01*
X129170827Y-140959397D01*
X129316498Y-141019735D01*
X129316503Y-141019737D01*
X129467312Y-141049735D01*
X129471153Y-141050499D01*
X129471156Y-141050500D01*
X129471158Y-141050500D01*
X129628844Y-141050500D01*
X129628845Y-141050499D01*
X129783497Y-141019737D01*
X129929179Y-140959394D01*
X130060289Y-140871789D01*
X130171789Y-140760289D01*
X130259394Y-140629179D01*
X130319737Y-140483497D01*
X130350500Y-140328842D01*
X130350500Y-140171158D01*
X130350500Y-140171155D01*
X130350499Y-140171153D01*
X130349573Y-140166498D01*
X130319737Y-140016503D01*
X130314426Y-140003680D01*
X130259397Y-139870827D01*
X130259390Y-139870814D01*
X130171789Y-139739711D01*
X130171786Y-139739707D01*
X130161935Y-139729856D01*
X130128450Y-139668533D01*
X130133434Y-139598841D01*
X130146512Y-139573287D01*
X130194710Y-139501155D01*
X130209389Y-139479187D01*
X130209390Y-139479184D01*
X130209394Y-139479179D01*
X130269737Y-139333497D01*
X130300500Y-139178842D01*
X130300500Y-139121153D01*
X133799500Y-139121153D01*
X133799500Y-139278846D01*
X133830261Y-139433489D01*
X133830264Y-139433501D01*
X133890602Y-139579172D01*
X133890609Y-139579185D01*
X133978210Y-139710288D01*
X133978213Y-139710292D01*
X134089707Y-139821786D01*
X134089711Y-139821789D01*
X134220814Y-139909390D01*
X134220827Y-139909397D01*
X134341028Y-139959185D01*
X134366503Y-139969737D01*
X134521153Y-140000499D01*
X134521156Y-140000500D01*
X134521158Y-140000500D01*
X134678844Y-140000500D01*
X134678845Y-140000499D01*
X134833497Y-139969737D01*
X134979179Y-139909394D01*
X135110289Y-139821789D01*
X135221789Y-139710289D01*
X135309394Y-139579179D01*
X135309839Y-139578106D01*
X135341713Y-139501153D01*
X135369737Y-139433497D01*
X135389628Y-139333501D01*
X135392084Y-139321153D01*
X138399500Y-139321153D01*
X138399500Y-139478846D01*
X138430261Y-139633489D01*
X138430264Y-139633501D01*
X138490602Y-139779172D01*
X138490609Y-139779185D01*
X138578210Y-139910288D01*
X138578213Y-139910292D01*
X138689707Y-140021786D01*
X138689711Y-140021789D01*
X138820814Y-140109390D01*
X138820827Y-140109397D01*
X138958683Y-140166498D01*
X138966503Y-140169737D01*
X139121153Y-140200499D01*
X139121156Y-140200500D01*
X139121158Y-140200500D01*
X139278844Y-140200500D01*
X139278845Y-140200499D01*
X139433497Y-140169737D01*
X139579179Y-140109394D01*
X139710289Y-140021789D01*
X139710925Y-140021153D01*
X156199500Y-140021153D01*
X156199500Y-140178846D01*
X156230261Y-140333489D01*
X156230264Y-140333501D01*
X156290602Y-140479172D01*
X156290609Y-140479185D01*
X156378210Y-140610288D01*
X156378213Y-140610292D01*
X156489707Y-140721786D01*
X156489711Y-140721789D01*
X156620814Y-140809390D01*
X156620827Y-140809397D01*
X156766498Y-140869735D01*
X156766503Y-140869737D01*
X156921153Y-140900499D01*
X156921156Y-140900500D01*
X156921158Y-140900500D01*
X157078844Y-140900500D01*
X157078845Y-140900499D01*
X157233497Y-140869737D01*
X157351601Y-140820817D01*
X157379172Y-140809397D01*
X157379172Y-140809396D01*
X157379179Y-140809394D01*
X157510289Y-140721789D01*
X157621789Y-140610289D01*
X157709394Y-140479179D01*
X157769737Y-140333497D01*
X157800500Y-140178842D01*
X157800500Y-140021158D01*
X157800500Y-140021155D01*
X157800499Y-140021153D01*
X162799500Y-140021153D01*
X162799500Y-140178846D01*
X162830261Y-140333489D01*
X162830264Y-140333501D01*
X162890602Y-140479172D01*
X162890609Y-140479185D01*
X162978210Y-140610288D01*
X162978213Y-140610292D01*
X163089707Y-140721786D01*
X163089711Y-140721789D01*
X163220814Y-140809390D01*
X163220827Y-140809397D01*
X163366498Y-140869735D01*
X163366503Y-140869737D01*
X163521153Y-140900499D01*
X163521156Y-140900500D01*
X163521158Y-140900500D01*
X163678844Y-140900500D01*
X163678845Y-140900499D01*
X163833497Y-140869737D01*
X163951601Y-140820817D01*
X163979172Y-140809397D01*
X163979172Y-140809396D01*
X163979179Y-140809394D01*
X164110289Y-140721789D01*
X164221789Y-140610289D01*
X164309394Y-140479179D01*
X164369737Y-140333497D01*
X164400500Y-140178842D01*
X164400500Y-140021158D01*
X164400500Y-140021155D01*
X164400499Y-140021153D01*
X164396391Y-140000499D01*
X164369737Y-139866503D01*
X164347783Y-139813501D01*
X164309397Y-139720827D01*
X164309390Y-139720814D01*
X164221789Y-139589711D01*
X164221786Y-139589707D01*
X164110292Y-139478213D01*
X164110288Y-139478210D01*
X163979185Y-139390609D01*
X163979172Y-139390602D01*
X163833501Y-139330264D01*
X163833489Y-139330261D01*
X163678845Y-139299500D01*
X163678842Y-139299500D01*
X163521158Y-139299500D01*
X163521155Y-139299500D01*
X163366510Y-139330261D01*
X163366498Y-139330264D01*
X163220827Y-139390602D01*
X163220814Y-139390609D01*
X163089711Y-139478210D01*
X163089707Y-139478213D01*
X162978213Y-139589707D01*
X162978210Y-139589711D01*
X162890609Y-139720814D01*
X162890602Y-139720827D01*
X162830264Y-139866498D01*
X162830261Y-139866510D01*
X162799500Y-140021153D01*
X157800499Y-140021153D01*
X157796391Y-140000499D01*
X157769737Y-139866503D01*
X157747783Y-139813501D01*
X157709397Y-139720827D01*
X157709390Y-139720814D01*
X157621789Y-139589711D01*
X157621786Y-139589707D01*
X157510292Y-139478213D01*
X157510288Y-139478210D01*
X157379185Y-139390609D01*
X157379172Y-139390602D01*
X157233501Y-139330264D01*
X157233489Y-139330261D01*
X157078845Y-139299500D01*
X157078842Y-139299500D01*
X156921158Y-139299500D01*
X156921155Y-139299500D01*
X156766510Y-139330261D01*
X156766498Y-139330264D01*
X156620827Y-139390602D01*
X156620814Y-139390609D01*
X156489711Y-139478210D01*
X156489707Y-139478213D01*
X156378213Y-139589707D01*
X156378210Y-139589711D01*
X156290609Y-139720814D01*
X156290602Y-139720827D01*
X156230264Y-139866498D01*
X156230261Y-139866510D01*
X156199500Y-140021153D01*
X139710925Y-140021153D01*
X139753236Y-139978842D01*
X139804694Y-139927385D01*
X139821786Y-139910292D01*
X139821789Y-139910289D01*
X139909394Y-139779179D01*
X139969737Y-139633497D01*
X140000500Y-139478842D01*
X140000500Y-139321158D01*
X140000500Y-139321155D01*
X140000499Y-139321153D01*
X139994476Y-139290874D01*
X139969737Y-139166503D01*
X139950955Y-139121158D01*
X139909397Y-139020827D01*
X139909390Y-139020814D01*
X139821789Y-138889711D01*
X139821786Y-138889707D01*
X139710292Y-138778213D01*
X139710288Y-138778210D01*
X139579185Y-138690609D01*
X139579172Y-138690602D01*
X139433501Y-138630264D01*
X139433489Y-138630261D01*
X139278845Y-138599500D01*
X139278842Y-138599500D01*
X139121158Y-138599500D01*
X139121155Y-138599500D01*
X138966510Y-138630261D01*
X138966498Y-138630264D01*
X138820827Y-138690602D01*
X138820814Y-138690609D01*
X138689711Y-138778210D01*
X138689707Y-138778213D01*
X138578213Y-138889707D01*
X138578210Y-138889711D01*
X138490609Y-139020814D01*
X138490602Y-139020827D01*
X138430264Y-139166498D01*
X138430261Y-139166510D01*
X138399500Y-139321153D01*
X135392084Y-139321153D01*
X135398107Y-139290875D01*
X135398107Y-139290874D01*
X135400500Y-139278844D01*
X135400500Y-139121155D01*
X135400499Y-139121153D01*
X135394801Y-139092506D01*
X135369737Y-138966503D01*
X135350955Y-138921158D01*
X135309397Y-138820827D01*
X135309390Y-138820814D01*
X135221789Y-138689711D01*
X135221786Y-138689707D01*
X135110292Y-138578213D01*
X135110288Y-138578210D01*
X135024897Y-138521153D01*
X142849500Y-138521153D01*
X142849500Y-138678846D01*
X142880261Y-138833489D01*
X142880264Y-138833501D01*
X142940602Y-138979172D01*
X142940609Y-138979185D01*
X143028210Y-139110288D01*
X143028213Y-139110292D01*
X143139707Y-139221786D01*
X143139711Y-139221789D01*
X143270814Y-139309390D01*
X143270827Y-139309397D01*
X143416498Y-139369735D01*
X143416503Y-139369737D01*
X143571153Y-139400499D01*
X143571156Y-139400500D01*
X143571158Y-139400500D01*
X143728844Y-139400500D01*
X143728845Y-139400499D01*
X143883497Y-139369737D01*
X144029179Y-139309394D01*
X144160289Y-139221789D01*
X144271789Y-139110289D01*
X144359394Y-138979179D01*
X144364642Y-138966510D01*
X144383429Y-138921153D01*
X149199500Y-138921153D01*
X149199500Y-139078846D01*
X149230261Y-139233489D01*
X149230264Y-139233501D01*
X149290602Y-139379172D01*
X149290609Y-139379185D01*
X149378210Y-139510288D01*
X149378213Y-139510292D01*
X149489707Y-139621786D01*
X149489711Y-139621789D01*
X149620814Y-139709390D01*
X149620827Y-139709397D01*
X149766498Y-139769735D01*
X149766503Y-139769737D01*
X149921153Y-139800499D01*
X149921156Y-139800500D01*
X149921158Y-139800500D01*
X150078844Y-139800500D01*
X150078845Y-139800499D01*
X150233497Y-139769737D01*
X150351592Y-139720821D01*
X150379172Y-139709397D01*
X150379172Y-139709396D01*
X150379179Y-139709394D01*
X150510289Y-139621789D01*
X150621789Y-139510289D01*
X150709394Y-139379179D01*
X150769737Y-139233497D01*
X150800500Y-139078842D01*
X150800500Y-138921158D01*
X150800500Y-138921155D01*
X150800499Y-138921153D01*
X150792313Y-138880000D01*
X150769737Y-138766503D01*
X150769735Y-138766498D01*
X150709397Y-138620827D01*
X150709390Y-138620814D01*
X150621789Y-138489711D01*
X150621786Y-138489707D01*
X150510292Y-138378213D01*
X150510288Y-138378210D01*
X150379185Y-138290609D01*
X150379172Y-138290602D01*
X150233501Y-138230264D01*
X150233489Y-138230261D01*
X150078845Y-138199500D01*
X150078842Y-138199500D01*
X149921158Y-138199500D01*
X149921155Y-138199500D01*
X149766510Y-138230261D01*
X149766498Y-138230264D01*
X149620827Y-138290602D01*
X149620814Y-138290609D01*
X149489711Y-138378210D01*
X149489707Y-138378213D01*
X149378213Y-138489707D01*
X149378210Y-138489711D01*
X149290609Y-138620814D01*
X149290602Y-138620827D01*
X149230264Y-138766498D01*
X149230261Y-138766510D01*
X149199500Y-138921153D01*
X144383429Y-138921153D01*
X144405603Y-138867621D01*
X144405605Y-138867614D01*
X144419737Y-138833497D01*
X144450500Y-138678842D01*
X144450500Y-138521158D01*
X144450500Y-138521155D01*
X144450499Y-138521153D01*
X144430543Y-138420827D01*
X144419737Y-138366503D01*
X144419735Y-138366498D01*
X144359397Y-138220827D01*
X144359390Y-138220814D01*
X144271789Y-138089711D01*
X144271786Y-138089707D01*
X144160292Y-137978213D01*
X144160288Y-137978210D01*
X144029185Y-137890609D01*
X144029172Y-137890602D01*
X143883501Y-137830264D01*
X143883489Y-137830261D01*
X143728845Y-137799500D01*
X143728842Y-137799500D01*
X143571158Y-137799500D01*
X143571155Y-137799500D01*
X143416510Y-137830261D01*
X143416498Y-137830264D01*
X143270827Y-137890602D01*
X143270814Y-137890609D01*
X143139711Y-137978210D01*
X143139707Y-137978213D01*
X143028213Y-138089707D01*
X143028210Y-138089711D01*
X142940609Y-138220814D01*
X142940602Y-138220827D01*
X142880264Y-138366498D01*
X142880261Y-138366510D01*
X142849500Y-138521153D01*
X135024897Y-138521153D01*
X134979185Y-138490609D01*
X134979172Y-138490602D01*
X134833501Y-138430264D01*
X134833489Y-138430261D01*
X134678845Y-138399500D01*
X134678842Y-138399500D01*
X134521158Y-138399500D01*
X134521155Y-138399500D01*
X134366510Y-138430261D01*
X134366498Y-138430264D01*
X134220827Y-138490602D01*
X134220814Y-138490609D01*
X134089711Y-138578210D01*
X134089707Y-138578213D01*
X133978213Y-138689707D01*
X133978210Y-138689711D01*
X133890609Y-138820814D01*
X133890602Y-138820827D01*
X133830264Y-138966498D01*
X133830261Y-138966510D01*
X133799500Y-139121153D01*
X130300500Y-139121153D01*
X130300500Y-139021158D01*
X130300500Y-139021155D01*
X130300499Y-139021153D01*
X130281041Y-138923334D01*
X130269737Y-138866503D01*
X130242932Y-138801789D01*
X130209397Y-138720827D01*
X130209390Y-138720814D01*
X130121789Y-138589711D01*
X130121786Y-138589707D01*
X130010292Y-138478213D01*
X130010288Y-138478210D01*
X129879185Y-138390609D01*
X129879172Y-138390602D01*
X129733501Y-138330264D01*
X129733489Y-138330261D01*
X129578845Y-138299500D01*
X129578842Y-138299500D01*
X129421158Y-138299500D01*
X129421155Y-138299500D01*
X129266510Y-138330261D01*
X129266498Y-138330264D01*
X129120827Y-138390602D01*
X129120814Y-138390609D01*
X128989711Y-138478210D01*
X128989707Y-138478213D01*
X128878213Y-138589707D01*
X128878210Y-138589711D01*
X128790609Y-138720814D01*
X128790602Y-138720827D01*
X128730264Y-138866498D01*
X128730261Y-138866510D01*
X128699500Y-139021153D01*
X122828231Y-139021153D01*
X122773410Y-138966332D01*
X122772093Y-138964931D01*
X122757133Y-138935401D01*
X122741275Y-138906358D01*
X122741416Y-138904375D01*
X122740519Y-138902603D01*
X122743897Y-138869688D01*
X122746259Y-138836666D01*
X122747482Y-138834762D01*
X122747653Y-138833099D01*
X122752270Y-138827312D01*
X122774760Y-138792319D01*
X122876786Y-138690292D01*
X122876789Y-138690289D01*
X122964394Y-138559179D01*
X123024737Y-138413497D01*
X123055500Y-138258842D01*
X123055500Y-138101158D01*
X123055500Y-138101155D01*
X123055499Y-138101153D01*
X123041398Y-138030263D01*
X123024737Y-137946503D01*
X122984972Y-137850500D01*
X122964397Y-137800827D01*
X122964390Y-137800814D01*
X122876789Y-137669711D01*
X122876786Y-137669707D01*
X122765292Y-137558213D01*
X122765288Y-137558210D01*
X122634185Y-137470609D01*
X122634172Y-137470602D01*
X122488501Y-137410264D01*
X122488492Y-137410261D01*
X122433166Y-137399256D01*
X122371256Y-137366870D01*
X122336682Y-137306154D01*
X122335750Y-137301874D01*
X122324737Y-137246503D01*
X122281243Y-137141498D01*
X122264397Y-137100827D01*
X122264390Y-137100814D01*
X122176789Y-136969711D01*
X122176786Y-136969707D01*
X122065292Y-136858213D01*
X122065288Y-136858210D01*
X121934185Y-136770609D01*
X121934172Y-136770602D01*
X121788501Y-136710264D01*
X121788489Y-136710261D01*
X121633845Y-136679500D01*
X121633842Y-136679500D01*
X121476158Y-136679500D01*
X121476155Y-136679500D01*
X121321510Y-136710261D01*
X121321498Y-136710264D01*
X121175827Y-136770602D01*
X121175814Y-136770609D01*
X121044711Y-136858210D01*
X121044707Y-136858213D01*
X120942681Y-136960240D01*
X120881358Y-136993725D01*
X120811666Y-136988741D01*
X120767319Y-136960240D01*
X120665292Y-136858213D01*
X120665288Y-136858210D01*
X120534185Y-136770609D01*
X120534172Y-136770602D01*
X120388501Y-136710264D01*
X120388489Y-136710261D01*
X120233845Y-136679500D01*
X120233842Y-136679500D01*
X120076158Y-136679500D01*
X120076155Y-136679500D01*
X119921510Y-136710261D01*
X119921498Y-136710264D01*
X119775827Y-136770602D01*
X119775814Y-136770609D01*
X119644711Y-136858210D01*
X119644707Y-136858213D01*
X119533213Y-136969707D01*
X119533210Y-136969711D01*
X119445609Y-137100814D01*
X119445602Y-137100827D01*
X119385264Y-137246498D01*
X119385262Y-137246505D01*
X119374256Y-137301833D01*
X119341870Y-137363743D01*
X119281153Y-137398316D01*
X119276833Y-137399256D01*
X119221505Y-137410262D01*
X119221498Y-137410264D01*
X119075827Y-137470602D01*
X119075814Y-137470609D01*
X118944711Y-137558210D01*
X118944707Y-137558213D01*
X118833213Y-137669707D01*
X118833210Y-137669711D01*
X118745609Y-137800814D01*
X118745602Y-137800827D01*
X118685264Y-137946498D01*
X118685261Y-137946510D01*
X118654500Y-138101153D01*
X67500500Y-138101153D01*
X67500500Y-136421153D01*
X107299500Y-136421153D01*
X107299500Y-136578846D01*
X107330261Y-136733489D01*
X107330264Y-136733501D01*
X107390602Y-136879172D01*
X107390609Y-136879185D01*
X107478210Y-137010288D01*
X107478213Y-137010292D01*
X107589707Y-137121786D01*
X107589711Y-137121789D01*
X107720814Y-137209390D01*
X107720827Y-137209397D01*
X107866498Y-137269735D01*
X107866503Y-137269737D01*
X108021153Y-137300499D01*
X108021156Y-137300500D01*
X108021158Y-137300500D01*
X108178844Y-137300500D01*
X108178845Y-137300499D01*
X108333497Y-137269737D01*
X108479179Y-137209394D01*
X108610289Y-137121789D01*
X108721789Y-137010289D01*
X108809394Y-136879179D01*
X108815389Y-136864707D01*
X108825930Y-136839257D01*
X108869737Y-136733497D01*
X108900500Y-136578842D01*
X108900500Y-136421158D01*
X108900500Y-136421155D01*
X108900499Y-136421153D01*
X108890271Y-136369735D01*
X108869737Y-136266503D01*
X108833569Y-136179185D01*
X108809397Y-136120827D01*
X108809390Y-136120814D01*
X108721789Y-135989711D01*
X108721786Y-135989707D01*
X108653232Y-135921153D01*
X146599500Y-135921153D01*
X146599500Y-136078846D01*
X146630261Y-136233489D01*
X146630264Y-136233501D01*
X146690602Y-136379172D01*
X146690609Y-136379185D01*
X146778210Y-136510288D01*
X146778213Y-136510292D01*
X146889707Y-136621786D01*
X146889711Y-136621789D01*
X147020814Y-136709390D01*
X147020827Y-136709397D01*
X147126603Y-136753210D01*
X147166503Y-136769737D01*
X147321153Y-136800499D01*
X147321156Y-136800500D01*
X147321158Y-136800500D01*
X147478844Y-136800500D01*
X147478845Y-136800499D01*
X147633497Y-136769737D01*
X147779179Y-136709394D01*
X147910289Y-136621789D01*
X148021789Y-136510289D01*
X148109394Y-136379179D01*
X148169737Y-136233497D01*
X148184715Y-136158194D01*
X148192084Y-136121153D01*
X149499500Y-136121153D01*
X149499500Y-136278846D01*
X149530261Y-136433489D01*
X149530264Y-136433501D01*
X149590602Y-136579172D01*
X149590609Y-136579185D01*
X149678210Y-136710288D01*
X149678213Y-136710292D01*
X149789707Y-136821786D01*
X149789711Y-136821789D01*
X149920814Y-136909390D01*
X149920827Y-136909397D01*
X150066440Y-136969711D01*
X150066503Y-136969737D01*
X150221153Y-137000499D01*
X150221156Y-137000500D01*
X150221158Y-137000500D01*
X150378844Y-137000500D01*
X150378845Y-137000499D01*
X150526378Y-136971153D01*
X153849500Y-136971153D01*
X153849500Y-137128846D01*
X153880261Y-137283489D01*
X153880264Y-137283501D01*
X153940602Y-137429172D01*
X153940609Y-137429185D01*
X154028210Y-137560288D01*
X154028213Y-137560292D01*
X154139707Y-137671786D01*
X154139711Y-137671789D01*
X154270814Y-137759390D01*
X154270827Y-137759397D01*
X154416498Y-137819735D01*
X154416503Y-137819737D01*
X154571153Y-137850499D01*
X154571156Y-137850500D01*
X154571158Y-137850500D01*
X154728844Y-137850500D01*
X154728845Y-137850499D01*
X154883497Y-137819737D01*
X155029179Y-137759394D01*
X155160289Y-137671789D01*
X155271789Y-137560289D01*
X155359394Y-137429179D01*
X155419737Y-137283497D01*
X155450500Y-137128842D01*
X155450500Y-136971158D01*
X155450500Y-136971155D01*
X155450499Y-136971153D01*
X155424264Y-136839257D01*
X155420662Y-136821153D01*
X157699500Y-136821153D01*
X157699500Y-136978846D01*
X157730261Y-137133489D01*
X157730264Y-137133501D01*
X157790602Y-137279172D01*
X157790609Y-137279185D01*
X157878210Y-137410288D01*
X157878213Y-137410292D01*
X157989707Y-137521786D01*
X157989711Y-137521789D01*
X158120814Y-137609390D01*
X158120827Y-137609397D01*
X158266440Y-137669711D01*
X158266503Y-137669737D01*
X158421153Y-137700499D01*
X158421156Y-137700500D01*
X158421158Y-137700500D01*
X158578844Y-137700500D01*
X158578845Y-137700499D01*
X158733497Y-137669737D01*
X158879179Y-137609394D01*
X159010289Y-137521789D01*
X159121789Y-137410289D01*
X159198052Y-137296153D01*
X160324500Y-137296153D01*
X160324500Y-137453846D01*
X160355261Y-137608489D01*
X160355264Y-137608501D01*
X160415602Y-137754172D01*
X160415609Y-137754185D01*
X160503210Y-137885288D01*
X160503213Y-137885292D01*
X160614707Y-137996786D01*
X160614711Y-137996789D01*
X160745814Y-138084390D01*
X160745827Y-138084397D01*
X160891498Y-138144735D01*
X160891503Y-138144737D01*
X161046153Y-138175499D01*
X161046156Y-138175500D01*
X161046158Y-138175500D01*
X161203844Y-138175500D01*
X161203845Y-138175499D01*
X161358497Y-138144737D01*
X161489182Y-138090606D01*
X161504172Y-138084397D01*
X161504172Y-138084396D01*
X161504179Y-138084394D01*
X161635289Y-137996789D01*
X161746789Y-137885289D01*
X161834394Y-137754179D01*
X161894737Y-137608497D01*
X161925500Y-137453842D01*
X161925500Y-137296158D01*
X161925500Y-137296155D01*
X161925499Y-137296153D01*
X161920245Y-137269738D01*
X161894737Y-137141503D01*
X161894735Y-137141498D01*
X161834397Y-136995827D01*
X161834390Y-136995814D01*
X161746789Y-136864711D01*
X161746786Y-136864707D01*
X161635292Y-136753213D01*
X161635288Y-136753210D01*
X161504185Y-136665609D01*
X161504172Y-136665602D01*
X161358501Y-136605264D01*
X161358489Y-136605261D01*
X161203845Y-136574500D01*
X161203842Y-136574500D01*
X161046158Y-136574500D01*
X161046155Y-136574500D01*
X160891510Y-136605261D01*
X160891498Y-136605264D01*
X160745827Y-136665602D01*
X160745814Y-136665609D01*
X160614711Y-136753210D01*
X160614707Y-136753213D01*
X160503213Y-136864707D01*
X160503210Y-136864711D01*
X160415609Y-136995814D01*
X160415602Y-136995827D01*
X160355264Y-137141498D01*
X160355261Y-137141510D01*
X160324500Y-137296153D01*
X159198052Y-137296153D01*
X159209394Y-137279179D01*
X159222929Y-137246503D01*
X159224540Y-137242614D01*
X159269735Y-137133501D01*
X159269737Y-137133497D01*
X159300500Y-136978842D01*
X159300500Y-136821158D01*
X159300500Y-136821155D01*
X159300499Y-136821153D01*
X159290445Y-136770609D01*
X159269737Y-136666503D01*
X159269367Y-136665609D01*
X159209397Y-136520827D01*
X159209390Y-136520814D01*
X159121789Y-136389711D01*
X159121786Y-136389707D01*
X159010292Y-136278213D01*
X159010288Y-136278210D01*
X158879185Y-136190609D01*
X158879172Y-136190602D01*
X158733501Y-136130264D01*
X158733489Y-136130261D01*
X158578845Y-136099500D01*
X158578842Y-136099500D01*
X158421158Y-136099500D01*
X158421155Y-136099500D01*
X158266510Y-136130261D01*
X158266498Y-136130264D01*
X158120827Y-136190602D01*
X158120814Y-136190609D01*
X157989711Y-136278210D01*
X157989707Y-136278213D01*
X157878213Y-136389707D01*
X157878210Y-136389711D01*
X157790609Y-136520814D01*
X157790602Y-136520827D01*
X157730264Y-136666498D01*
X157730261Y-136666510D01*
X157699500Y-136821153D01*
X155420662Y-136821153D01*
X155419738Y-136816507D01*
X155419735Y-136816498D01*
X155359397Y-136670827D01*
X155359390Y-136670814D01*
X155271789Y-136539711D01*
X155271786Y-136539707D01*
X155160292Y-136428213D01*
X155160288Y-136428210D01*
X155029185Y-136340609D01*
X155029172Y-136340602D01*
X154883501Y-136280264D01*
X154883489Y-136280261D01*
X154728845Y-136249500D01*
X154728842Y-136249500D01*
X154571158Y-136249500D01*
X154571155Y-136249500D01*
X154416510Y-136280261D01*
X154416498Y-136280264D01*
X154270827Y-136340602D01*
X154270814Y-136340609D01*
X154139711Y-136428210D01*
X154139707Y-136428213D01*
X154028213Y-136539707D01*
X154028210Y-136539711D01*
X153940609Y-136670814D01*
X153940602Y-136670827D01*
X153880264Y-136816498D01*
X153880261Y-136816510D01*
X153849500Y-136971153D01*
X150526378Y-136971153D01*
X150533497Y-136969737D01*
X150679179Y-136909394D01*
X150679185Y-136909390D01*
X150750164Y-136861964D01*
X150784146Y-136839257D01*
X150810289Y-136821789D01*
X150921789Y-136710289D01*
X151009394Y-136579179D01*
X151069737Y-136433497D01*
X151100500Y-136278842D01*
X151100500Y-136121158D01*
X151100500Y-136121155D01*
X151100499Y-136121153D01*
X151094476Y-136090874D01*
X151069737Y-135966503D01*
X151050955Y-135921158D01*
X151009397Y-135820827D01*
X151009390Y-135820814D01*
X150921789Y-135689711D01*
X150921786Y-135689707D01*
X150810292Y-135578213D01*
X150810288Y-135578210D01*
X150724897Y-135521153D01*
X169699500Y-135521153D01*
X169699500Y-135678846D01*
X169730261Y-135833489D01*
X169730264Y-135833501D01*
X169790602Y-135979172D01*
X169790609Y-135979185D01*
X169878210Y-136110288D01*
X169878213Y-136110292D01*
X169989707Y-136221786D01*
X169989711Y-136221789D01*
X170120814Y-136309390D01*
X170120827Y-136309397D01*
X170196181Y-136340609D01*
X170266503Y-136369737D01*
X170421153Y-136400499D01*
X170421156Y-136400500D01*
X170421158Y-136400500D01*
X170578844Y-136400500D01*
X170578845Y-136400499D01*
X170733497Y-136369737D01*
X170879179Y-136309394D01*
X171010289Y-136221789D01*
X171121789Y-136110289D01*
X171209394Y-135979179D01*
X171269737Y-135833497D01*
X171284715Y-135758194D01*
X171292084Y-135721153D01*
X198099500Y-135721153D01*
X198099500Y-135878846D01*
X198130261Y-136033489D01*
X198130264Y-136033501D01*
X198190602Y-136179172D01*
X198190609Y-136179185D01*
X198278210Y-136310288D01*
X198278213Y-136310292D01*
X198389707Y-136421786D01*
X198389711Y-136421789D01*
X198520814Y-136509390D01*
X198520827Y-136509397D01*
X198594013Y-136539711D01*
X198666503Y-136569737D01*
X198821153Y-136600499D01*
X198821156Y-136600500D01*
X198821158Y-136600500D01*
X198978844Y-136600500D01*
X198978845Y-136600499D01*
X199133497Y-136569737D01*
X199251592Y-136520821D01*
X199279172Y-136509397D01*
X199279172Y-136509396D01*
X199279179Y-136509394D01*
X199410289Y-136421789D01*
X199521789Y-136310289D01*
X199609394Y-136179179D01*
X199669737Y-136033497D01*
X199700500Y-135878842D01*
X199700500Y-135721158D01*
X199700500Y-135721155D01*
X199700499Y-135721153D01*
X199694244Y-135689707D01*
X199669737Y-135566503D01*
X199650955Y-135521158D01*
X199609397Y-135420827D01*
X199609390Y-135420814D01*
X199521789Y-135289711D01*
X199521786Y-135289707D01*
X199410292Y-135178213D01*
X199410288Y-135178210D01*
X199279185Y-135090609D01*
X199279172Y-135090602D01*
X199133501Y-135030264D01*
X199133489Y-135030261D01*
X198978845Y-134999500D01*
X198978842Y-134999500D01*
X198821158Y-134999500D01*
X198821155Y-134999500D01*
X198666510Y-135030261D01*
X198666498Y-135030264D01*
X198520827Y-135090602D01*
X198520814Y-135090609D01*
X198389711Y-135178210D01*
X198389707Y-135178213D01*
X198278213Y-135289707D01*
X198278210Y-135289711D01*
X198190609Y-135420814D01*
X198190602Y-135420827D01*
X198130264Y-135566498D01*
X198130261Y-135566510D01*
X198099500Y-135721153D01*
X171292084Y-135721153D01*
X171298107Y-135690875D01*
X171298107Y-135690874D01*
X171300500Y-135678844D01*
X171300500Y-135521155D01*
X171300499Y-135521153D01*
X171280543Y-135420827D01*
X171269737Y-135366503D01*
X171237929Y-135289711D01*
X171209397Y-135220827D01*
X171209390Y-135220814D01*
X171121789Y-135089711D01*
X171121786Y-135089707D01*
X171010292Y-134978213D01*
X171010288Y-134978210D01*
X170879185Y-134890609D01*
X170879172Y-134890602D01*
X170733501Y-134830264D01*
X170733489Y-134830261D01*
X170578845Y-134799500D01*
X170578842Y-134799500D01*
X170421158Y-134799500D01*
X170421155Y-134799500D01*
X170266510Y-134830261D01*
X170266498Y-134830264D01*
X170120827Y-134890602D01*
X170120814Y-134890609D01*
X169989711Y-134978210D01*
X169989707Y-134978213D01*
X169878213Y-135089707D01*
X169878210Y-135089711D01*
X169790609Y-135220814D01*
X169790602Y-135220827D01*
X169730264Y-135366498D01*
X169730261Y-135366510D01*
X169699500Y-135521153D01*
X150724897Y-135521153D01*
X150679185Y-135490609D01*
X150679172Y-135490602D01*
X150533501Y-135430264D01*
X150533489Y-135430261D01*
X150378845Y-135399500D01*
X150378842Y-135399500D01*
X150221158Y-135399500D01*
X150221155Y-135399500D01*
X150066510Y-135430261D01*
X150066498Y-135430264D01*
X149920827Y-135490602D01*
X149920814Y-135490609D01*
X149789711Y-135578210D01*
X149789707Y-135578213D01*
X149678213Y-135689707D01*
X149678210Y-135689711D01*
X149590609Y-135820814D01*
X149590602Y-135820827D01*
X149530264Y-135966498D01*
X149530261Y-135966510D01*
X149499500Y-136121153D01*
X148192084Y-136121153D01*
X148198107Y-136090875D01*
X148198107Y-136090874D01*
X148200500Y-136078844D01*
X148200500Y-135921155D01*
X148200499Y-135921153D01*
X148196391Y-135900499D01*
X148169737Y-135766503D01*
X148169735Y-135766498D01*
X148109397Y-135620827D01*
X148109390Y-135620814D01*
X148021789Y-135489711D01*
X148021786Y-135489707D01*
X147910292Y-135378213D01*
X147910288Y-135378210D01*
X147779185Y-135290609D01*
X147779172Y-135290602D01*
X147633501Y-135230264D01*
X147633489Y-135230261D01*
X147478845Y-135199500D01*
X147478842Y-135199500D01*
X147321158Y-135199500D01*
X147321155Y-135199500D01*
X147166510Y-135230261D01*
X147166498Y-135230264D01*
X147020827Y-135290602D01*
X147020814Y-135290609D01*
X146889711Y-135378210D01*
X146889707Y-135378213D01*
X146778213Y-135489707D01*
X146778210Y-135489711D01*
X146690609Y-135620814D01*
X146690602Y-135620827D01*
X146630264Y-135766498D01*
X146630261Y-135766510D01*
X146599500Y-135921153D01*
X108653232Y-135921153D01*
X108610292Y-135878213D01*
X108610288Y-135878210D01*
X108479185Y-135790609D01*
X108479172Y-135790602D01*
X108333501Y-135730264D01*
X108333489Y-135730261D01*
X108178845Y-135699500D01*
X108178842Y-135699500D01*
X108021158Y-135699500D01*
X108021155Y-135699500D01*
X107866510Y-135730261D01*
X107866498Y-135730264D01*
X107720827Y-135790602D01*
X107720814Y-135790609D01*
X107589711Y-135878210D01*
X107589707Y-135878213D01*
X107478213Y-135989707D01*
X107478210Y-135989711D01*
X107390609Y-136120814D01*
X107390602Y-136120827D01*
X107330264Y-136266498D01*
X107330261Y-136266510D01*
X107299500Y-136421153D01*
X67500500Y-136421153D01*
X67500500Y-135021153D01*
X138399500Y-135021153D01*
X138399500Y-135178846D01*
X138430261Y-135333489D01*
X138430264Y-135333501D01*
X138490602Y-135479172D01*
X138490609Y-135479185D01*
X138578210Y-135610288D01*
X138578213Y-135610292D01*
X138689707Y-135721786D01*
X138689711Y-135721789D01*
X138820814Y-135809390D01*
X138820827Y-135809397D01*
X138966498Y-135869735D01*
X138966503Y-135869737D01*
X139121153Y-135900499D01*
X139121156Y-135900500D01*
X139121158Y-135900500D01*
X139278844Y-135900500D01*
X139278845Y-135900499D01*
X139433497Y-135869737D01*
X139551592Y-135820821D01*
X139579172Y-135809397D01*
X139579172Y-135809396D01*
X139579179Y-135809394D01*
X139710289Y-135721789D01*
X139821789Y-135610289D01*
X139909394Y-135479179D01*
X139969737Y-135333497D01*
X140000500Y-135178842D01*
X140000500Y-135021158D01*
X140000500Y-135021155D01*
X140000499Y-135021153D01*
X139974531Y-134890606D01*
X139969737Y-134866503D01*
X139969735Y-134866498D01*
X139909397Y-134720827D01*
X139909390Y-134720814D01*
X139821789Y-134589711D01*
X139821786Y-134589707D01*
X139710292Y-134478213D01*
X139710288Y-134478210D01*
X139579185Y-134390609D01*
X139579172Y-134390602D01*
X139433501Y-134330264D01*
X139433489Y-134330261D01*
X139278845Y-134299500D01*
X139278842Y-134299500D01*
X139121158Y-134299500D01*
X139121155Y-134299500D01*
X138966510Y-134330261D01*
X138966498Y-134330264D01*
X138820827Y-134390602D01*
X138820814Y-134390609D01*
X138689711Y-134478210D01*
X138689707Y-134478213D01*
X138578213Y-134589707D01*
X138578210Y-134589711D01*
X138490609Y-134720814D01*
X138490602Y-134720827D01*
X138430264Y-134866498D01*
X138430261Y-134866510D01*
X138399500Y-135021153D01*
X67500500Y-135021153D01*
X67500500Y-133521153D01*
X79499500Y-133521153D01*
X79499500Y-133678846D01*
X79530261Y-133833489D01*
X79530264Y-133833501D01*
X79590602Y-133979172D01*
X79590609Y-133979185D01*
X79678210Y-134110288D01*
X79678213Y-134110292D01*
X79789707Y-134221786D01*
X79789711Y-134221789D01*
X79920814Y-134309390D01*
X79920827Y-134309397D01*
X80066498Y-134369735D01*
X80066503Y-134369737D01*
X80221153Y-134400499D01*
X80221156Y-134400500D01*
X80221158Y-134400500D01*
X80378844Y-134400500D01*
X80378845Y-134400499D01*
X80533497Y-134369737D01*
X80679179Y-134309394D01*
X80810289Y-134221789D01*
X80921789Y-134110289D01*
X81009394Y-133979179D01*
X81069737Y-133833497D01*
X81100500Y-133678842D01*
X81100500Y-133521158D01*
X81100500Y-133521155D01*
X81100499Y-133521153D01*
X81080734Y-133421789D01*
X81069737Y-133366503D01*
X81042398Y-133300500D01*
X81009397Y-133220827D01*
X81009390Y-133220814D01*
X80921789Y-133089711D01*
X80921786Y-133089707D01*
X80810292Y-132978213D01*
X80810288Y-132978210D01*
X80679185Y-132890609D01*
X80679172Y-132890602D01*
X80533501Y-132830264D01*
X80533489Y-132830261D01*
X80378845Y-132799500D01*
X80378842Y-132799500D01*
X80221158Y-132799500D01*
X80221155Y-132799500D01*
X80066510Y-132830261D01*
X80066498Y-132830264D01*
X79920827Y-132890602D01*
X79920814Y-132890609D01*
X79789711Y-132978210D01*
X79789707Y-132978213D01*
X79678213Y-133089707D01*
X79678210Y-133089711D01*
X79590609Y-133220814D01*
X79590602Y-133220827D01*
X79530264Y-133366498D01*
X79530261Y-133366510D01*
X79499500Y-133521153D01*
X67500500Y-133521153D01*
X67500500Y-132721153D01*
X103199500Y-132721153D01*
X103199500Y-132878846D01*
X103230261Y-133033489D01*
X103230264Y-133033501D01*
X103290602Y-133179172D01*
X103290609Y-133179185D01*
X103378210Y-133310288D01*
X103378213Y-133310292D01*
X103489707Y-133421786D01*
X103489711Y-133421789D01*
X103620814Y-133509390D01*
X103620827Y-133509397D01*
X103766498Y-133569735D01*
X103766503Y-133569737D01*
X103921153Y-133600499D01*
X103921156Y-133600500D01*
X103921158Y-133600500D01*
X104078844Y-133600500D01*
X104078845Y-133600499D01*
X104233497Y-133569737D01*
X104379179Y-133509394D01*
X104510289Y-133421789D01*
X104621789Y-133310289D01*
X104709394Y-133179179D01*
X104769737Y-133033497D01*
X104800500Y-132878842D01*
X104800500Y-132721158D01*
X104800500Y-132721155D01*
X104800499Y-132721153D01*
X104769737Y-132566503D01*
X104750955Y-132521158D01*
X104709397Y-132420827D01*
X104709390Y-132420814D01*
X104621789Y-132289711D01*
X104621786Y-132289707D01*
X104510292Y-132178213D01*
X104510288Y-132178210D01*
X104379185Y-132090609D01*
X104379172Y-132090602D01*
X104233501Y-132030264D01*
X104233489Y-132030261D01*
X104078845Y-131999500D01*
X104078842Y-131999500D01*
X103921158Y-131999500D01*
X103921155Y-131999500D01*
X103766510Y-132030261D01*
X103766498Y-132030264D01*
X103620827Y-132090602D01*
X103620814Y-132090609D01*
X103489711Y-132178210D01*
X103489707Y-132178213D01*
X103378213Y-132289707D01*
X103378210Y-132289711D01*
X103290609Y-132420814D01*
X103290602Y-132420827D01*
X103230264Y-132566498D01*
X103230261Y-132566510D01*
X103199500Y-132721153D01*
X67500500Y-132721153D01*
X67500500Y-131321153D01*
X105599500Y-131321153D01*
X105599500Y-131478846D01*
X105630261Y-131633489D01*
X105630264Y-131633501D01*
X105690602Y-131779172D01*
X105690609Y-131779185D01*
X105778210Y-131910288D01*
X105778213Y-131910292D01*
X105889707Y-132021786D01*
X105889711Y-132021789D01*
X106020814Y-132109390D01*
X106020827Y-132109397D01*
X106121690Y-132151175D01*
X106166503Y-132169737D01*
X106166507Y-132169737D01*
X106166508Y-132169738D01*
X106325951Y-132201454D01*
X106387862Y-132233839D01*
X106422436Y-132294555D01*
X106423376Y-132298878D01*
X106430261Y-132333492D01*
X106430264Y-132333501D01*
X106490602Y-132479172D01*
X106490609Y-132479185D01*
X106578210Y-132610288D01*
X106578213Y-132610292D01*
X106689707Y-132721786D01*
X106689711Y-132721789D01*
X106820814Y-132809390D01*
X106820827Y-132809397D01*
X106966498Y-132869735D01*
X106966503Y-132869737D01*
X107121153Y-132900499D01*
X107121156Y-132900500D01*
X107121158Y-132900500D01*
X107278844Y-132900500D01*
X107278845Y-132900499D01*
X107433497Y-132869737D01*
X107579179Y-132809394D01*
X107710289Y-132721789D01*
X107710925Y-132721153D01*
X122999500Y-132721153D01*
X122999500Y-132878846D01*
X123030261Y-133033489D01*
X123030264Y-133033501D01*
X123090602Y-133179172D01*
X123090609Y-133179185D01*
X123178210Y-133310288D01*
X123178213Y-133310292D01*
X123289707Y-133421786D01*
X123289711Y-133421789D01*
X123420814Y-133509390D01*
X123420827Y-133509397D01*
X123566498Y-133569735D01*
X123566503Y-133569737D01*
X123721153Y-133600499D01*
X123721156Y-133600500D01*
X123721158Y-133600500D01*
X123878844Y-133600500D01*
X123878845Y-133600499D01*
X124033497Y-133569737D01*
X124179179Y-133509394D01*
X124310289Y-133421789D01*
X124412320Y-133319757D01*
X124473641Y-133286274D01*
X124543333Y-133291258D01*
X124584939Y-133317999D01*
X124585001Y-133317924D01*
X124585647Y-133318454D01*
X124587688Y-133319766D01*
X124589711Y-133321789D01*
X124720814Y-133409390D01*
X124720827Y-133409397D01*
X124866498Y-133469735D01*
X124866503Y-133469737D01*
X125021153Y-133500499D01*
X125021156Y-133500500D01*
X125021158Y-133500500D01*
X125178844Y-133500500D01*
X125178845Y-133500499D01*
X125333497Y-133469737D01*
X125479179Y-133409394D01*
X125536411Y-133371153D01*
X143049500Y-133371153D01*
X143049500Y-133528846D01*
X143080261Y-133683489D01*
X143080264Y-133683501D01*
X143140602Y-133829172D01*
X143140609Y-133829185D01*
X143228210Y-133960288D01*
X143228213Y-133960292D01*
X143339707Y-134071786D01*
X143339711Y-134071789D01*
X143470814Y-134159390D01*
X143470827Y-134159397D01*
X143616498Y-134219735D01*
X143616503Y-134219737D01*
X143771153Y-134250499D01*
X143771156Y-134250500D01*
X143771158Y-134250500D01*
X143928844Y-134250500D01*
X143928845Y-134250499D01*
X144083497Y-134219737D01*
X144229179Y-134159394D01*
X144360289Y-134071789D01*
X144471789Y-133960289D01*
X144559394Y-133829179D01*
X144619737Y-133683497D01*
X144650500Y-133528842D01*
X144650500Y-133371158D01*
X144650500Y-133371155D01*
X144650499Y-133371153D01*
X144630326Y-133269737D01*
X144619737Y-133216503D01*
X144616791Y-133209390D01*
X144559397Y-133070827D01*
X144559390Y-133070814D01*
X144471789Y-132939711D01*
X144471786Y-132939707D01*
X144360292Y-132828213D01*
X144360288Y-132828210D01*
X144229185Y-132740609D01*
X144229172Y-132740602D01*
X144083501Y-132680264D01*
X144083489Y-132680261D01*
X143928845Y-132649500D01*
X143928842Y-132649500D01*
X143771158Y-132649500D01*
X143771155Y-132649500D01*
X143616510Y-132680261D01*
X143616498Y-132680264D01*
X143470827Y-132740602D01*
X143470814Y-132740609D01*
X143339711Y-132828210D01*
X143339707Y-132828213D01*
X143228213Y-132939707D01*
X143228210Y-132939711D01*
X143140609Y-133070814D01*
X143140602Y-133070827D01*
X143080264Y-133216498D01*
X143080261Y-133216510D01*
X143049500Y-133371153D01*
X125536411Y-133371153D01*
X125610289Y-133321789D01*
X125631579Y-133300499D01*
X125654694Y-133277385D01*
X125721786Y-133210292D01*
X125721789Y-133210289D01*
X125809394Y-133079179D01*
X125812854Y-133070827D01*
X125837929Y-133010288D01*
X125869737Y-132933497D01*
X125900500Y-132778842D01*
X125900500Y-132621158D01*
X125900500Y-132621155D01*
X125900499Y-132621153D01*
X125898338Y-132610288D01*
X125869737Y-132466503D01*
X125850955Y-132421158D01*
X125809397Y-132320827D01*
X125809390Y-132320814D01*
X125721789Y-132189711D01*
X125721786Y-132189707D01*
X125610292Y-132078213D01*
X125610288Y-132078210D01*
X125479185Y-131990609D01*
X125479172Y-131990602D01*
X125333501Y-131930264D01*
X125333489Y-131930261D01*
X125178845Y-131899500D01*
X125178842Y-131899500D01*
X125021158Y-131899500D01*
X125021155Y-131899500D01*
X124866510Y-131930261D01*
X124866498Y-131930264D01*
X124720827Y-131990602D01*
X124720814Y-131990609D01*
X124589711Y-132078210D01*
X124487680Y-132180241D01*
X124426357Y-132213725D01*
X124356665Y-132208741D01*
X124315060Y-132182000D01*
X124314999Y-132182076D01*
X124314350Y-132181544D01*
X124312311Y-132180233D01*
X124310288Y-132178210D01*
X124179185Y-132090609D01*
X124179172Y-132090602D01*
X124033501Y-132030264D01*
X124033489Y-132030261D01*
X123878845Y-131999500D01*
X123878842Y-131999500D01*
X123721158Y-131999500D01*
X123721155Y-131999500D01*
X123566510Y-132030261D01*
X123566498Y-132030264D01*
X123420827Y-132090602D01*
X123420814Y-132090609D01*
X123289711Y-132178210D01*
X123289707Y-132178213D01*
X123178213Y-132289707D01*
X123178210Y-132289711D01*
X123090609Y-132420814D01*
X123090602Y-132420827D01*
X123030264Y-132566498D01*
X123030261Y-132566510D01*
X122999500Y-132721153D01*
X107710925Y-132721153D01*
X107753236Y-132678842D01*
X107804694Y-132627385D01*
X107821786Y-132610292D01*
X107821789Y-132610289D01*
X107909394Y-132479179D01*
X107969737Y-132333497D01*
X108000500Y-132178842D01*
X108000500Y-132021158D01*
X108000500Y-132021155D01*
X108000499Y-132021153D01*
X107980734Y-131921789D01*
X107969737Y-131866503D01*
X107969735Y-131866498D01*
X107909397Y-131720827D01*
X107909390Y-131720814D01*
X107821789Y-131589711D01*
X107821786Y-131589707D01*
X107710292Y-131478213D01*
X107710288Y-131478210D01*
X107579185Y-131390609D01*
X107579172Y-131390602D01*
X107442605Y-131334035D01*
X107442601Y-131334034D01*
X107433497Y-131330263D01*
X107278842Y-131299500D01*
X107278545Y-131299500D01*
X107272697Y-131298269D01*
X107242485Y-131282034D01*
X107212137Y-131266160D01*
X107211782Y-131265536D01*
X107211150Y-131265197D01*
X107194537Y-131235252D01*
X107186508Y-131221153D01*
X112799500Y-131221153D01*
X112799500Y-131378846D01*
X112825469Y-131509397D01*
X112830263Y-131533497D01*
X112830995Y-131535264D01*
X112890602Y-131679172D01*
X112890609Y-131679185D01*
X112978210Y-131810288D01*
X112978213Y-131810292D01*
X113089707Y-131921786D01*
X113089711Y-131921789D01*
X113220814Y-132009390D01*
X113220827Y-132009397D01*
X113366498Y-132069735D01*
X113366503Y-132069737D01*
X113521153Y-132100499D01*
X113521156Y-132100500D01*
X113521158Y-132100500D01*
X113678844Y-132100500D01*
X113678845Y-132100499D01*
X113833497Y-132069737D01*
X113979179Y-132009394D01*
X114004334Y-131992585D01*
X114071010Y-131971706D01*
X114138391Y-131990189D01*
X114185082Y-132042166D01*
X114187778Y-132048210D01*
X114197427Y-132071503D01*
X114200607Y-132079181D01*
X114200609Y-132079185D01*
X114288210Y-132210288D01*
X114288213Y-132210292D01*
X114399707Y-132321786D01*
X114399711Y-132321789D01*
X114530814Y-132409390D01*
X114530827Y-132409397D01*
X114668683Y-132466498D01*
X114676503Y-132469737D01*
X114831153Y-132500499D01*
X114831156Y-132500500D01*
X114831158Y-132500500D01*
X114988844Y-132500500D01*
X114988845Y-132500499D01*
X115143497Y-132469737D01*
X115261592Y-132420821D01*
X115289172Y-132409397D01*
X115289172Y-132409396D01*
X115289179Y-132409394D01*
X115420289Y-132321789D01*
X115531789Y-132210289D01*
X115619394Y-132079179D01*
X115622574Y-132071503D01*
X115639655Y-132030264D01*
X115679737Y-131933497D01*
X115710500Y-131778842D01*
X115710500Y-131621158D01*
X115710500Y-131621155D01*
X115710499Y-131621153D01*
X115705417Y-131595606D01*
X115679737Y-131466503D01*
X115643427Y-131378842D01*
X115619397Y-131320827D01*
X115619390Y-131320814D01*
X115531789Y-131189711D01*
X115531786Y-131189707D01*
X115420292Y-131078213D01*
X115420288Y-131078210D01*
X115289185Y-130990609D01*
X115289172Y-130990602D01*
X115143501Y-130930264D01*
X115143489Y-130930261D01*
X114988845Y-130899500D01*
X114988842Y-130899500D01*
X114831158Y-130899500D01*
X114831155Y-130899500D01*
X114676510Y-130930261D01*
X114676498Y-130930264D01*
X114530827Y-130990602D01*
X114530816Y-130990608D01*
X114505662Y-131007416D01*
X114438984Y-131028293D01*
X114371604Y-131009808D01*
X114324915Y-130957829D01*
X114322210Y-130951763D01*
X114313304Y-130930262D01*
X114309394Y-130920821D01*
X114309392Y-130920818D01*
X114309390Y-130920814D01*
X114221789Y-130789711D01*
X114221786Y-130789707D01*
X114110292Y-130678213D01*
X114110288Y-130678210D01*
X113979185Y-130590609D01*
X113979172Y-130590602D01*
X113833501Y-130530264D01*
X113833489Y-130530261D01*
X113678845Y-130499500D01*
X113678842Y-130499500D01*
X113521158Y-130499500D01*
X113521155Y-130499500D01*
X113366510Y-130530261D01*
X113366498Y-130530264D01*
X113220827Y-130590602D01*
X113220814Y-130590609D01*
X113089711Y-130678210D01*
X113089707Y-130678213D01*
X112978213Y-130789707D01*
X112978210Y-130789711D01*
X112890609Y-130920814D01*
X112890602Y-130920827D01*
X112830264Y-131066498D01*
X112830261Y-131066510D01*
X112799500Y-131221153D01*
X107186508Y-131221153D01*
X107177563Y-131205444D01*
X107177281Y-131204150D01*
X107177254Y-131204100D01*
X107177257Y-131204040D01*
X107176623Y-131201119D01*
X107169738Y-131166510D01*
X107169737Y-131166503D01*
X107169735Y-131166498D01*
X107109397Y-131020827D01*
X107109390Y-131020814D01*
X107021789Y-130889711D01*
X107021786Y-130889707D01*
X106910292Y-130778213D01*
X106910288Y-130778210D01*
X106779185Y-130690609D01*
X106779172Y-130690602D01*
X106633501Y-130630264D01*
X106633489Y-130630261D01*
X106478845Y-130599500D01*
X106478842Y-130599500D01*
X106321158Y-130599500D01*
X106321155Y-130599500D01*
X106166510Y-130630261D01*
X106166498Y-130630264D01*
X106020827Y-130690602D01*
X106020814Y-130690609D01*
X105889711Y-130778210D01*
X105889707Y-130778213D01*
X105778213Y-130889707D01*
X105778210Y-130889711D01*
X105690609Y-131020814D01*
X105690602Y-131020827D01*
X105630264Y-131166498D01*
X105630261Y-131166510D01*
X105599500Y-131321153D01*
X67500500Y-131321153D01*
X67500500Y-129721153D01*
X147699500Y-129721153D01*
X147699500Y-129878846D01*
X147730261Y-130033489D01*
X147730264Y-130033501D01*
X147790602Y-130179172D01*
X147790609Y-130179185D01*
X147878210Y-130310288D01*
X147878213Y-130310292D01*
X147989707Y-130421786D01*
X147989711Y-130421789D01*
X148120817Y-130509392D01*
X148120819Y-130509393D01*
X148120821Y-130509394D01*
X148138409Y-130516679D01*
X148192812Y-130560520D01*
X148214877Y-130626814D01*
X148212573Y-130655431D01*
X148199500Y-130721153D01*
X148199500Y-130878846D01*
X148230261Y-131033489D01*
X148230264Y-131033501D01*
X148290602Y-131179172D01*
X148290609Y-131179185D01*
X148378210Y-131310288D01*
X148378213Y-131310292D01*
X148489707Y-131421786D01*
X148489711Y-131421789D01*
X148620814Y-131509390D01*
X148620827Y-131509397D01*
X148683277Y-131535264D01*
X148766503Y-131569737D01*
X148799690Y-131576338D01*
X148861600Y-131608721D01*
X148896176Y-131669435D01*
X148899500Y-131697955D01*
X148899500Y-131778846D01*
X148930261Y-131933489D01*
X148930264Y-131933501D01*
X148990602Y-132079172D01*
X148990609Y-132079185D01*
X149078210Y-132210288D01*
X149078213Y-132210292D01*
X149189707Y-132321786D01*
X149189711Y-132321789D01*
X149320814Y-132409390D01*
X149320827Y-132409397D01*
X149458683Y-132466498D01*
X149466503Y-132469737D01*
X149621153Y-132500499D01*
X149621156Y-132500500D01*
X149621158Y-132500500D01*
X149778844Y-132500500D01*
X149778845Y-132500499D01*
X149933497Y-132469737D01*
X150051592Y-132420821D01*
X150079172Y-132409397D01*
X150079172Y-132409396D01*
X150079179Y-132409394D01*
X150210289Y-132321789D01*
X150321789Y-132210289D01*
X150409394Y-132079179D01*
X150412574Y-132071503D01*
X150429655Y-132030264D01*
X150469737Y-131933497D01*
X150500500Y-131778842D01*
X150500500Y-131621158D01*
X150500500Y-131621155D01*
X150500499Y-131621153D01*
X153499500Y-131621153D01*
X153499500Y-131778846D01*
X153530261Y-131933489D01*
X153530264Y-131933501D01*
X153590602Y-132079172D01*
X153590609Y-132079185D01*
X153678210Y-132210288D01*
X153678213Y-132210292D01*
X153789707Y-132321786D01*
X153789711Y-132321789D01*
X153920814Y-132409390D01*
X153920827Y-132409397D01*
X154058683Y-132466498D01*
X154066503Y-132469737D01*
X154221153Y-132500499D01*
X154221156Y-132500500D01*
X154221158Y-132500500D01*
X154378844Y-132500500D01*
X154378845Y-132500499D01*
X154533497Y-132469737D01*
X154651592Y-132420821D01*
X154679172Y-132409397D01*
X154679172Y-132409396D01*
X154679179Y-132409394D01*
X154810289Y-132321789D01*
X154905925Y-132226153D01*
X204523650Y-132226153D01*
X204523650Y-132383846D01*
X204554411Y-132538489D01*
X204554414Y-132538501D01*
X204614752Y-132684172D01*
X204614759Y-132684185D01*
X204702360Y-132815288D01*
X204702363Y-132815292D01*
X204813857Y-132926786D01*
X204813861Y-132926789D01*
X204944964Y-133014390D01*
X204944977Y-133014397D01*
X205081182Y-133070814D01*
X205090653Y-133074737D01*
X205245303Y-133105499D01*
X205245306Y-133105500D01*
X205245308Y-133105500D01*
X205402994Y-133105500D01*
X205402995Y-133105499D01*
X205557647Y-133074737D01*
X205703329Y-133014394D01*
X205834439Y-132926789D01*
X205945939Y-132815289D01*
X206033544Y-132684179D01*
X206093887Y-132538497D01*
X206107564Y-132469738D01*
X206117229Y-132421153D01*
X211912000Y-132421153D01*
X211912000Y-132578846D01*
X211942761Y-132733489D01*
X211942764Y-132733501D01*
X212003102Y-132879172D01*
X212003109Y-132879185D01*
X212090710Y-133010288D01*
X212090713Y-133010292D01*
X212202207Y-133121786D01*
X212202211Y-133121789D01*
X212333314Y-133209390D01*
X212333327Y-133209397D01*
X212478998Y-133269735D01*
X212479003Y-133269737D01*
X212562140Y-133286274D01*
X212633653Y-133300499D01*
X212633656Y-133300500D01*
X212633658Y-133300500D01*
X212791344Y-133300500D01*
X212791345Y-133300499D01*
X212945997Y-133269737D01*
X213064092Y-133220821D01*
X213091672Y-133209397D01*
X213091672Y-133209396D01*
X213091679Y-133209394D01*
X213222789Y-133121789D01*
X213334289Y-133010289D01*
X213421894Y-132879179D01*
X213482237Y-132733497D01*
X213513000Y-132578842D01*
X213513000Y-132521153D01*
X221999500Y-132521153D01*
X221999500Y-132678846D01*
X222030261Y-132833489D01*
X222030264Y-132833501D01*
X222090602Y-132979172D01*
X222090609Y-132979185D01*
X222178210Y-133110288D01*
X222178213Y-133110292D01*
X222289707Y-133221786D01*
X222289711Y-133221789D01*
X222420814Y-133309390D01*
X222420827Y-133309397D01*
X222558683Y-133366498D01*
X222566503Y-133369737D01*
X222721153Y-133400499D01*
X222721156Y-133400500D01*
X222721158Y-133400500D01*
X222878844Y-133400500D01*
X222878845Y-133400499D01*
X223033497Y-133369737D01*
X223154139Y-133319766D01*
X223179172Y-133309397D01*
X223179172Y-133309396D01*
X223179179Y-133309394D01*
X223310289Y-133221789D01*
X223421789Y-133110289D01*
X223509394Y-132979179D01*
X223569737Y-132833497D01*
X223600500Y-132678842D01*
X223600500Y-132521158D01*
X223600500Y-132521155D01*
X223600499Y-132521153D01*
X223589627Y-132466498D01*
X223569737Y-132366503D01*
X223541726Y-132298878D01*
X223509397Y-132220827D01*
X223509390Y-132220814D01*
X223421789Y-132089711D01*
X223421786Y-132089707D01*
X223310292Y-131978213D01*
X223310288Y-131978210D01*
X223179185Y-131890609D01*
X223179172Y-131890602D01*
X223033501Y-131830264D01*
X223033489Y-131830261D01*
X222878845Y-131799500D01*
X222878842Y-131799500D01*
X222721158Y-131799500D01*
X222721155Y-131799500D01*
X222566510Y-131830261D01*
X222566498Y-131830264D01*
X222420827Y-131890602D01*
X222420814Y-131890609D01*
X222289711Y-131978210D01*
X222289707Y-131978213D01*
X222178213Y-132089707D01*
X222178210Y-132089711D01*
X222090609Y-132220814D01*
X222090602Y-132220827D01*
X222030264Y-132366498D01*
X222030261Y-132366510D01*
X221999500Y-132521153D01*
X213513000Y-132521153D01*
X213513000Y-132421158D01*
X213513000Y-132421155D01*
X213512999Y-132421153D01*
X213505578Y-132383846D01*
X213482237Y-132266503D01*
X213465526Y-132226158D01*
X213421897Y-132120827D01*
X213421890Y-132120814D01*
X213334289Y-131989711D01*
X213334286Y-131989707D01*
X213222792Y-131878213D01*
X213222788Y-131878210D01*
X213091685Y-131790609D01*
X213091672Y-131790602D01*
X212946001Y-131730264D01*
X212945989Y-131730261D01*
X212791345Y-131699500D01*
X212791342Y-131699500D01*
X212633658Y-131699500D01*
X212633655Y-131699500D01*
X212479010Y-131730261D01*
X212478998Y-131730264D01*
X212333327Y-131790602D01*
X212333314Y-131790609D01*
X212202211Y-131878210D01*
X212202207Y-131878213D01*
X212090713Y-131989707D01*
X212090710Y-131989711D01*
X212003109Y-132120814D01*
X212003102Y-132120827D01*
X211942764Y-132266498D01*
X211942761Y-132266510D01*
X211912000Y-132421153D01*
X206117229Y-132421153D01*
X206123252Y-132390874D01*
X206124650Y-132383843D01*
X206124650Y-132226155D01*
X206124649Y-132226153D01*
X206093888Y-132071506D01*
X206093885Y-132071498D01*
X206033547Y-131925827D01*
X206033540Y-131925814D01*
X205945939Y-131794711D01*
X205945936Y-131794707D01*
X205834442Y-131683213D01*
X205834438Y-131683210D01*
X205703335Y-131595609D01*
X205703322Y-131595602D01*
X205557651Y-131535264D01*
X205557639Y-131535261D01*
X205402995Y-131504500D01*
X205402992Y-131504500D01*
X205245308Y-131504500D01*
X205245305Y-131504500D01*
X205090660Y-131535261D01*
X205090648Y-131535264D01*
X204944977Y-131595602D01*
X204944964Y-131595609D01*
X204813861Y-131683210D01*
X204813857Y-131683213D01*
X204702363Y-131794707D01*
X204702360Y-131794711D01*
X204614759Y-131925814D01*
X204614752Y-131925827D01*
X204554414Y-132071498D01*
X204554412Y-132071506D01*
X204523650Y-132226153D01*
X154905925Y-132226153D01*
X154921789Y-132210289D01*
X155009394Y-132079179D01*
X155012574Y-132071503D01*
X155029655Y-132030264D01*
X155069737Y-131933497D01*
X155100500Y-131778842D01*
X155100500Y-131621158D01*
X155100500Y-131621155D01*
X155100499Y-131621153D01*
X155095417Y-131595606D01*
X155069737Y-131466503D01*
X155033427Y-131378842D01*
X155009397Y-131320827D01*
X155009390Y-131320814D01*
X154921789Y-131189711D01*
X154921786Y-131189707D01*
X154810292Y-131078213D01*
X154810288Y-131078210D01*
X154679185Y-130990609D01*
X154679172Y-130990602D01*
X154533501Y-130930264D01*
X154533489Y-130930261D01*
X154378845Y-130899500D01*
X154378842Y-130899500D01*
X154221158Y-130899500D01*
X154221155Y-130899500D01*
X154066510Y-130930261D01*
X154066498Y-130930264D01*
X153920827Y-130990602D01*
X153920814Y-130990609D01*
X153789711Y-131078210D01*
X153789707Y-131078213D01*
X153678213Y-131189707D01*
X153678210Y-131189711D01*
X153590609Y-131320814D01*
X153590602Y-131320827D01*
X153530264Y-131466498D01*
X153530261Y-131466510D01*
X153499500Y-131621153D01*
X150500499Y-131621153D01*
X150495417Y-131595606D01*
X150469737Y-131466503D01*
X150433427Y-131378842D01*
X150409397Y-131320827D01*
X150409390Y-131320814D01*
X150321789Y-131189711D01*
X150321786Y-131189707D01*
X150210292Y-131078213D01*
X150210288Y-131078210D01*
X150079185Y-130990609D01*
X150079172Y-130990602D01*
X149933501Y-130930264D01*
X149933493Y-130930262D01*
X149900306Y-130923660D01*
X149838396Y-130891273D01*
X149803823Y-130830557D01*
X149800500Y-130802043D01*
X149800500Y-130721155D01*
X149800499Y-130721153D01*
X149782419Y-130630261D01*
X149769737Y-130566503D01*
X149756062Y-130533489D01*
X149709397Y-130420827D01*
X149709390Y-130420814D01*
X149621790Y-130289712D01*
X149621784Y-130289705D01*
X149553232Y-130221153D01*
X194299500Y-130221153D01*
X194299500Y-130378846D01*
X194330261Y-130533489D01*
X194330264Y-130533501D01*
X194390602Y-130679172D01*
X194390609Y-130679185D01*
X194478210Y-130810288D01*
X194478213Y-130810292D01*
X194589707Y-130921786D01*
X194589711Y-130921789D01*
X194720814Y-131009390D01*
X194720827Y-131009397D01*
X194858683Y-131066498D01*
X194866503Y-131069737D01*
X195021153Y-131100499D01*
X195021156Y-131100500D01*
X195021158Y-131100500D01*
X195178844Y-131100500D01*
X195178845Y-131100499D01*
X195333497Y-131069737D01*
X195451592Y-131020821D01*
X195479172Y-131009397D01*
X195479172Y-131009396D01*
X195479179Y-131009394D01*
X195610289Y-130921789D01*
X195721789Y-130810289D01*
X195809394Y-130679179D01*
X195869737Y-130533497D01*
X195900500Y-130378842D01*
X195900500Y-130221158D01*
X195900500Y-130221155D01*
X195900499Y-130221153D01*
X199699500Y-130221153D01*
X199699500Y-130378846D01*
X199730261Y-130533489D01*
X199730264Y-130533501D01*
X199790602Y-130679172D01*
X199790609Y-130679185D01*
X199878210Y-130810288D01*
X199878213Y-130810292D01*
X199989707Y-130921786D01*
X199989711Y-130921789D01*
X200120814Y-131009390D01*
X200120827Y-131009397D01*
X200258683Y-131066498D01*
X200266503Y-131069737D01*
X200421153Y-131100499D01*
X200421156Y-131100500D01*
X200421158Y-131100500D01*
X200578844Y-131100500D01*
X200578845Y-131100499D01*
X200733497Y-131069737D01*
X200851592Y-131020821D01*
X200879172Y-131009397D01*
X200879172Y-131009396D01*
X200879179Y-131009394D01*
X201010289Y-130921789D01*
X201121789Y-130810289D01*
X201209394Y-130679179D01*
X201269737Y-130533497D01*
X201300500Y-130378842D01*
X201300500Y-130221158D01*
X201300500Y-130221155D01*
X201300499Y-130221153D01*
X201269738Y-130066510D01*
X201269737Y-130066503D01*
X201256062Y-130033489D01*
X201209397Y-129920827D01*
X201209390Y-129920814D01*
X201121789Y-129789711D01*
X201121786Y-129789707D01*
X201010292Y-129678213D01*
X201010288Y-129678210D01*
X200879185Y-129590609D01*
X200879172Y-129590602D01*
X200733501Y-129530264D01*
X200733489Y-129530261D01*
X200578845Y-129499500D01*
X200578842Y-129499500D01*
X200421158Y-129499500D01*
X200421155Y-129499500D01*
X200266510Y-129530261D01*
X200266498Y-129530264D01*
X200120827Y-129590602D01*
X200120814Y-129590609D01*
X199989711Y-129678210D01*
X199989707Y-129678213D01*
X199878213Y-129789707D01*
X199878210Y-129789711D01*
X199790609Y-129920814D01*
X199790602Y-129920827D01*
X199730264Y-130066498D01*
X199730261Y-130066510D01*
X199699500Y-130221153D01*
X195900499Y-130221153D01*
X195869738Y-130066510D01*
X195869737Y-130066503D01*
X195856062Y-130033489D01*
X195809397Y-129920827D01*
X195809390Y-129920814D01*
X195721789Y-129789711D01*
X195721786Y-129789707D01*
X195610292Y-129678213D01*
X195610288Y-129678210D01*
X195479185Y-129590609D01*
X195479172Y-129590602D01*
X195333501Y-129530264D01*
X195333489Y-129530261D01*
X195178845Y-129499500D01*
X195178842Y-129499500D01*
X195021158Y-129499500D01*
X195021155Y-129499500D01*
X194866510Y-129530261D01*
X194866498Y-129530264D01*
X194720827Y-129590602D01*
X194720814Y-129590609D01*
X194589711Y-129678210D01*
X194589707Y-129678213D01*
X194478213Y-129789707D01*
X194478210Y-129789711D01*
X194390609Y-129920814D01*
X194390602Y-129920827D01*
X194330264Y-130066498D01*
X194330261Y-130066510D01*
X194299500Y-130221153D01*
X149553232Y-130221153D01*
X149510292Y-130178213D01*
X149510288Y-130178210D01*
X149379185Y-130090609D01*
X149379179Y-130090606D01*
X149361589Y-130083320D01*
X149307186Y-130039478D01*
X149285122Y-129973184D01*
X149287425Y-129944571D01*
X149300500Y-129878842D01*
X149300500Y-129721158D01*
X149300500Y-129721155D01*
X149300499Y-129721153D01*
X149278269Y-129609397D01*
X149269737Y-129566503D01*
X149269735Y-129566498D01*
X149209397Y-129420827D01*
X149209390Y-129420814D01*
X149121789Y-129289711D01*
X149121786Y-129289707D01*
X149010292Y-129178213D01*
X149010288Y-129178210D01*
X148879185Y-129090609D01*
X148879172Y-129090602D01*
X148733501Y-129030264D01*
X148733489Y-129030261D01*
X148578845Y-128999500D01*
X148578842Y-128999500D01*
X148421158Y-128999500D01*
X148421155Y-128999500D01*
X148266510Y-129030261D01*
X148266498Y-129030264D01*
X148120827Y-129090602D01*
X148120814Y-129090609D01*
X147989711Y-129178210D01*
X147989707Y-129178213D01*
X147878213Y-129289707D01*
X147878210Y-129289711D01*
X147790609Y-129420814D01*
X147790602Y-129420827D01*
X147730264Y-129566498D01*
X147730261Y-129566510D01*
X147699500Y-129721153D01*
X67500500Y-129721153D01*
X67500500Y-128821153D01*
X232299500Y-128821153D01*
X232299500Y-128978846D01*
X232330261Y-129133489D01*
X232330264Y-129133501D01*
X232390602Y-129279172D01*
X232390609Y-129279185D01*
X232478210Y-129410288D01*
X232478213Y-129410292D01*
X232589707Y-129521786D01*
X232589711Y-129521789D01*
X232720814Y-129609390D01*
X232720827Y-129609397D01*
X232866498Y-129669735D01*
X232866503Y-129669737D01*
X233021153Y-129700499D01*
X233021156Y-129700500D01*
X233021158Y-129700500D01*
X233178844Y-129700500D01*
X233178845Y-129700499D01*
X233333497Y-129669737D01*
X233479179Y-129609394D01*
X233610289Y-129521789D01*
X233721789Y-129410289D01*
X233809394Y-129279179D01*
X233869737Y-129133497D01*
X233900500Y-128978842D01*
X233900500Y-128821158D01*
X233900500Y-128821155D01*
X233900499Y-128821153D01*
X233869738Y-128666510D01*
X233869737Y-128666503D01*
X233869735Y-128666498D01*
X233809397Y-128520827D01*
X233809390Y-128520814D01*
X233721789Y-128389711D01*
X233721786Y-128389707D01*
X233610292Y-128278213D01*
X233610288Y-128278210D01*
X233479185Y-128190609D01*
X233479172Y-128190602D01*
X233333501Y-128130264D01*
X233333489Y-128130261D01*
X233178845Y-128099500D01*
X233178842Y-128099500D01*
X233021158Y-128099500D01*
X233021155Y-128099500D01*
X232866510Y-128130261D01*
X232866498Y-128130264D01*
X232720827Y-128190602D01*
X232720814Y-128190609D01*
X232589711Y-128278210D01*
X232589707Y-128278213D01*
X232478213Y-128389707D01*
X232478210Y-128389711D01*
X232390609Y-128520814D01*
X232390602Y-128520827D01*
X232330264Y-128666498D01*
X232330261Y-128666510D01*
X232299500Y-128821153D01*
X67500500Y-128821153D01*
X67500500Y-127521153D01*
X80999500Y-127521153D01*
X80999500Y-127678846D01*
X81030261Y-127833489D01*
X81030264Y-127833501D01*
X81090602Y-127979172D01*
X81090609Y-127979185D01*
X81178210Y-128110288D01*
X81178213Y-128110292D01*
X81289707Y-128221786D01*
X81289711Y-128221789D01*
X81420814Y-128309390D01*
X81420827Y-128309397D01*
X81566498Y-128369735D01*
X81566503Y-128369737D01*
X81721153Y-128400499D01*
X81721156Y-128400500D01*
X81721158Y-128400500D01*
X81878844Y-128400500D01*
X81878845Y-128400499D01*
X82033497Y-128369737D01*
X82179179Y-128309394D01*
X82310289Y-128221789D01*
X82421789Y-128110289D01*
X82509394Y-127979179D01*
X82569737Y-127833497D01*
X82600500Y-127678842D01*
X82600500Y-127521158D01*
X82600500Y-127521155D01*
X82584209Y-127439258D01*
X82584209Y-127439257D01*
X82580608Y-127421153D01*
X141899500Y-127421153D01*
X141899500Y-127578846D01*
X141930261Y-127733489D01*
X141930264Y-127733501D01*
X141990602Y-127879172D01*
X141990609Y-127879185D01*
X142078210Y-128010288D01*
X142078213Y-128010292D01*
X142189707Y-128121786D01*
X142189711Y-128121789D01*
X142320814Y-128209390D01*
X142320827Y-128209397D01*
X142466498Y-128269735D01*
X142466503Y-128269737D01*
X142621153Y-128300499D01*
X142621156Y-128300500D01*
X142621158Y-128300500D01*
X142778844Y-128300500D01*
X142778845Y-128300499D01*
X142933497Y-128269737D01*
X143079179Y-128209394D01*
X143210289Y-128121789D01*
X143321789Y-128010289D01*
X143409394Y-127879179D01*
X143469737Y-127733497D01*
X143500500Y-127578842D01*
X143500500Y-127421158D01*
X143500500Y-127421155D01*
X143500499Y-127421153D01*
X143469738Y-127266510D01*
X143469737Y-127266503D01*
X143450812Y-127220814D01*
X143409397Y-127120827D01*
X143409390Y-127120814D01*
X143321789Y-126989711D01*
X143321786Y-126989707D01*
X143210292Y-126878213D01*
X143210288Y-126878210D01*
X143079185Y-126790609D01*
X143079172Y-126790602D01*
X142933501Y-126730264D01*
X142933489Y-126730261D01*
X142778845Y-126699500D01*
X142778842Y-126699500D01*
X142621158Y-126699500D01*
X142621155Y-126699500D01*
X142466510Y-126730261D01*
X142466498Y-126730264D01*
X142320827Y-126790602D01*
X142320814Y-126790609D01*
X142189711Y-126878210D01*
X142189707Y-126878213D01*
X142078213Y-126989707D01*
X142078210Y-126989711D01*
X141990609Y-127120814D01*
X141990602Y-127120827D01*
X141930264Y-127266498D01*
X141930261Y-127266510D01*
X141899500Y-127421153D01*
X82580608Y-127421153D01*
X82569738Y-127366510D01*
X82569737Y-127366503D01*
X82528314Y-127266498D01*
X82509397Y-127220827D01*
X82509390Y-127220814D01*
X82421789Y-127089711D01*
X82421786Y-127089707D01*
X82310292Y-126978213D01*
X82310288Y-126978210D01*
X82179185Y-126890609D01*
X82179172Y-126890602D01*
X82033501Y-126830264D01*
X82033489Y-126830261D01*
X81878845Y-126799500D01*
X81878842Y-126799500D01*
X81721158Y-126799500D01*
X81721155Y-126799500D01*
X81566510Y-126830261D01*
X81566498Y-126830264D01*
X81420827Y-126890602D01*
X81420814Y-126890609D01*
X81289711Y-126978210D01*
X81289707Y-126978213D01*
X81178213Y-127089707D01*
X81178210Y-127089711D01*
X81090609Y-127220814D01*
X81090602Y-127220827D01*
X81030264Y-127366498D01*
X81030261Y-127366510D01*
X80999500Y-127521153D01*
X67500500Y-127521153D01*
X67500500Y-126221153D01*
X224899500Y-126221153D01*
X224899500Y-126378846D01*
X224930261Y-126533489D01*
X224930264Y-126533501D01*
X224990602Y-126679172D01*
X224990609Y-126679185D01*
X225078210Y-126810288D01*
X225078213Y-126810292D01*
X225189707Y-126921786D01*
X225189711Y-126921789D01*
X225320814Y-127009390D01*
X225320827Y-127009397D01*
X225466498Y-127069735D01*
X225466503Y-127069737D01*
X225621153Y-127100499D01*
X225621156Y-127100500D01*
X225621158Y-127100500D01*
X225778844Y-127100500D01*
X225778845Y-127100499D01*
X225933497Y-127069737D01*
X226079179Y-127009394D01*
X226210289Y-126921789D01*
X226321789Y-126810289D01*
X226409394Y-126679179D01*
X226469737Y-126533497D01*
X226500500Y-126378842D01*
X226500500Y-126221158D01*
X226500500Y-126221155D01*
X226500499Y-126221153D01*
X226469738Y-126066510D01*
X226469737Y-126066503D01*
X226442398Y-126000500D01*
X226409397Y-125920827D01*
X226409390Y-125920814D01*
X226321789Y-125789711D01*
X226321786Y-125789707D01*
X226210292Y-125678213D01*
X226210288Y-125678210D01*
X226079185Y-125590609D01*
X226079172Y-125590602D01*
X225933501Y-125530264D01*
X225933489Y-125530261D01*
X225778845Y-125499500D01*
X225778842Y-125499500D01*
X225621158Y-125499500D01*
X225621155Y-125499500D01*
X225466510Y-125530261D01*
X225466498Y-125530264D01*
X225320827Y-125590602D01*
X225320814Y-125590609D01*
X225189711Y-125678210D01*
X225189707Y-125678213D01*
X225078213Y-125789707D01*
X225078210Y-125789711D01*
X224990609Y-125920814D01*
X224990602Y-125920827D01*
X224930264Y-126066498D01*
X224930261Y-126066510D01*
X224899500Y-126221153D01*
X67500500Y-126221153D01*
X67500500Y-125121153D01*
X146099500Y-125121153D01*
X146099500Y-125278846D01*
X146130261Y-125433489D01*
X146130264Y-125433501D01*
X146190602Y-125579172D01*
X146190609Y-125579185D01*
X146278210Y-125710288D01*
X146278213Y-125710292D01*
X146389707Y-125821786D01*
X146389711Y-125821789D01*
X146520814Y-125909390D01*
X146520827Y-125909397D01*
X146649999Y-125962901D01*
X146666503Y-125969737D01*
X146821153Y-126000499D01*
X146821156Y-126000500D01*
X146821158Y-126000500D01*
X146978844Y-126000500D01*
X147048006Y-125986742D01*
X147125810Y-125971266D01*
X147174190Y-125971266D01*
X147237173Y-125983794D01*
X147321155Y-126000500D01*
X147321158Y-126000500D01*
X147478844Y-126000500D01*
X147478845Y-126000499D01*
X147633497Y-125969737D01*
X147751592Y-125920821D01*
X147779172Y-125909397D01*
X147779172Y-125909396D01*
X147779179Y-125909394D01*
X147910289Y-125821789D01*
X148021789Y-125710289D01*
X148109394Y-125579179D01*
X148169737Y-125433497D01*
X148200500Y-125278842D01*
X148200500Y-125121158D01*
X148200500Y-125121155D01*
X148200499Y-125121153D01*
X148169738Y-124966510D01*
X148169737Y-124966503D01*
X148169735Y-124966498D01*
X148109397Y-124820827D01*
X148109390Y-124820814D01*
X148021789Y-124689711D01*
X148021786Y-124689707D01*
X147910292Y-124578213D01*
X147910288Y-124578210D01*
X147779185Y-124490609D01*
X147779172Y-124490602D01*
X147633501Y-124430264D01*
X147633489Y-124430261D01*
X147478845Y-124399500D01*
X147478842Y-124399500D01*
X147321158Y-124399500D01*
X147321155Y-124399500D01*
X147174191Y-124428733D01*
X147125809Y-124428733D01*
X146978845Y-124399500D01*
X146978842Y-124399500D01*
X146821158Y-124399500D01*
X146821155Y-124399500D01*
X146666510Y-124430261D01*
X146666498Y-124430264D01*
X146520827Y-124490602D01*
X146520814Y-124490609D01*
X146389711Y-124578210D01*
X146389707Y-124578213D01*
X146278213Y-124689707D01*
X146278210Y-124689711D01*
X146190609Y-124820814D01*
X146190602Y-124820827D01*
X146130264Y-124966498D01*
X146130261Y-124966510D01*
X146099500Y-125121153D01*
X67500500Y-125121153D01*
X67500500Y-121859568D01*
X69699500Y-121859568D01*
X69699500Y-122140431D01*
X69730942Y-122419494D01*
X69730945Y-122419512D01*
X69793439Y-122693317D01*
X69793443Y-122693329D01*
X69886200Y-122958411D01*
X70008053Y-123211442D01*
X70008055Y-123211445D01*
X70157477Y-123449248D01*
X70332584Y-123668825D01*
X70531175Y-123867416D01*
X70750752Y-124042523D01*
X70988555Y-124191945D01*
X71241592Y-124313801D01*
X71401448Y-124369737D01*
X71506670Y-124406556D01*
X71506682Y-124406560D01*
X71780491Y-124469055D01*
X71780497Y-124469055D01*
X71780505Y-124469057D01*
X71966547Y-124490018D01*
X72059569Y-124500499D01*
X72059572Y-124500500D01*
X72059575Y-124500500D01*
X72340428Y-124500500D01*
X72340429Y-124500499D01*
X72483055Y-124484429D01*
X72619494Y-124469057D01*
X72619499Y-124469056D01*
X72619509Y-124469055D01*
X72893318Y-124406560D01*
X73158408Y-124313801D01*
X73411445Y-124191945D01*
X73649248Y-124042523D01*
X73868825Y-123867416D01*
X74067416Y-123668825D01*
X74185181Y-123521153D01*
X199999500Y-123521153D01*
X199999500Y-123678846D01*
X200030261Y-123833489D01*
X200030264Y-123833501D01*
X200090602Y-123979172D01*
X200090609Y-123979185D01*
X200178210Y-124110288D01*
X200178213Y-124110292D01*
X200289707Y-124221786D01*
X200289711Y-124221789D01*
X200420814Y-124309390D01*
X200420827Y-124309397D01*
X200566498Y-124369735D01*
X200566503Y-124369737D01*
X200716131Y-124399500D01*
X200721153Y-124400499D01*
X200721156Y-124400500D01*
X200721158Y-124400500D01*
X200878844Y-124400500D01*
X200878845Y-124400499D01*
X201033497Y-124369737D01*
X201146166Y-124323067D01*
X201179172Y-124309397D01*
X201179172Y-124309396D01*
X201179179Y-124309394D01*
X201310289Y-124221789D01*
X201421789Y-124110289D01*
X201509394Y-123979179D01*
X201569737Y-123833497D01*
X201600500Y-123678842D01*
X201600500Y-123521158D01*
X201600500Y-123521155D01*
X201600499Y-123521153D01*
X201598338Y-123510288D01*
X201569737Y-123366503D01*
X201569735Y-123366498D01*
X201509397Y-123220827D01*
X201509390Y-123220814D01*
X201421789Y-123089711D01*
X201421786Y-123089707D01*
X201310292Y-122978213D01*
X201310288Y-122978210D01*
X201224897Y-122921153D01*
X203699500Y-122921153D01*
X203699500Y-123078846D01*
X203730261Y-123233489D01*
X203730264Y-123233501D01*
X203790602Y-123379172D01*
X203790609Y-123379185D01*
X203878210Y-123510288D01*
X203878213Y-123510292D01*
X203989707Y-123621786D01*
X203989711Y-123621789D01*
X204120814Y-123709390D01*
X204120827Y-123709397D01*
X204266498Y-123769735D01*
X204266503Y-123769737D01*
X204421153Y-123800499D01*
X204421156Y-123800500D01*
X204421158Y-123800500D01*
X204578844Y-123800500D01*
X204578845Y-123800499D01*
X204733497Y-123769737D01*
X204879179Y-123709394D01*
X205010289Y-123621789D01*
X205121789Y-123510289D01*
X205209394Y-123379179D01*
X205269737Y-123233497D01*
X205300500Y-123078842D01*
X205300500Y-122921158D01*
X205300500Y-122921155D01*
X205300499Y-122921153D01*
X205278269Y-122809397D01*
X205269737Y-122766503D01*
X205209794Y-122621786D01*
X205209397Y-122620827D01*
X205209390Y-122620814D01*
X205121789Y-122489711D01*
X205121786Y-122489707D01*
X205010292Y-122378213D01*
X205010288Y-122378210D01*
X204879185Y-122290609D01*
X204879172Y-122290602D01*
X204733501Y-122230264D01*
X204733489Y-122230261D01*
X204578845Y-122199500D01*
X204578842Y-122199500D01*
X204421158Y-122199500D01*
X204421155Y-122199500D01*
X204266510Y-122230261D01*
X204266498Y-122230264D01*
X204120827Y-122290602D01*
X204120814Y-122290609D01*
X203989711Y-122378210D01*
X203989707Y-122378213D01*
X203878213Y-122489707D01*
X203878210Y-122489711D01*
X203790609Y-122620814D01*
X203790602Y-122620827D01*
X203730264Y-122766498D01*
X203730261Y-122766510D01*
X203699500Y-122921153D01*
X201224897Y-122921153D01*
X201179185Y-122890609D01*
X201179172Y-122890602D01*
X201033501Y-122830264D01*
X201033489Y-122830261D01*
X200878845Y-122799500D01*
X200878842Y-122799500D01*
X200721158Y-122799500D01*
X200721155Y-122799500D01*
X200566510Y-122830261D01*
X200566498Y-122830264D01*
X200420827Y-122890602D01*
X200420814Y-122890609D01*
X200289711Y-122978210D01*
X200289707Y-122978213D01*
X200178213Y-123089707D01*
X200178210Y-123089711D01*
X200090609Y-123220814D01*
X200090602Y-123220827D01*
X200030264Y-123366498D01*
X200030261Y-123366510D01*
X199999500Y-123521153D01*
X74185181Y-123521153D01*
X74242523Y-123449248D01*
X74391945Y-123211445D01*
X74513801Y-122958408D01*
X74606560Y-122693318D01*
X74669055Y-122419509D01*
X74673599Y-122379185D01*
X74692729Y-122209394D01*
X74700500Y-122140425D01*
X74700500Y-122021153D01*
X130499500Y-122021153D01*
X130499500Y-122178846D01*
X130530261Y-122333489D01*
X130530264Y-122333501D01*
X130590602Y-122479172D01*
X130590609Y-122479185D01*
X130678210Y-122610288D01*
X130678213Y-122610292D01*
X130789707Y-122721786D01*
X130789711Y-122721789D01*
X130920814Y-122809390D01*
X130920827Y-122809397D01*
X131066498Y-122869735D01*
X131066503Y-122869737D01*
X131221153Y-122900499D01*
X131221156Y-122900500D01*
X131221158Y-122900500D01*
X131378844Y-122900500D01*
X131378845Y-122900499D01*
X131533497Y-122869737D01*
X131679179Y-122809394D01*
X131810289Y-122721789D01*
X131921789Y-122610289D01*
X132009394Y-122479179D01*
X132069737Y-122333497D01*
X132096510Y-122198901D01*
X132128895Y-122136990D01*
X132189610Y-122102416D01*
X132259380Y-122106155D01*
X132287018Y-122119990D01*
X132420814Y-122209390D01*
X132420827Y-122209397D01*
X132566498Y-122269735D01*
X132566503Y-122269737D01*
X132721153Y-122300499D01*
X132721156Y-122300500D01*
X132721158Y-122300500D01*
X132878844Y-122300500D01*
X132878845Y-122300499D01*
X133033497Y-122269737D01*
X133179179Y-122209394D01*
X133310289Y-122121789D01*
X133421789Y-122010289D01*
X133481348Y-121921153D01*
X213599500Y-121921153D01*
X213599500Y-122078846D01*
X213630261Y-122233489D01*
X213630264Y-122233501D01*
X213690602Y-122379172D01*
X213690609Y-122379185D01*
X213778210Y-122510288D01*
X213778213Y-122510292D01*
X213889707Y-122621786D01*
X213889711Y-122621789D01*
X214020814Y-122709390D01*
X214020827Y-122709397D01*
X214158683Y-122766498D01*
X214166503Y-122769737D01*
X214316131Y-122799500D01*
X214321153Y-122800499D01*
X214321156Y-122800500D01*
X214321158Y-122800500D01*
X214478844Y-122800500D01*
X214478845Y-122800499D01*
X214633497Y-122769737D01*
X214779179Y-122709394D01*
X214910289Y-122621789D01*
X215021789Y-122510289D01*
X215109394Y-122379179D01*
X215169737Y-122233497D01*
X215200500Y-122078842D01*
X215200500Y-121921158D01*
X215200500Y-121921155D01*
X215200499Y-121921153D01*
X215192371Y-121880287D01*
X215188250Y-121859568D01*
X227499500Y-121859568D01*
X227499500Y-122140431D01*
X227530942Y-122419494D01*
X227530945Y-122419512D01*
X227593439Y-122693317D01*
X227593443Y-122693329D01*
X227686200Y-122958411D01*
X227808053Y-123211442D01*
X227808055Y-123211445D01*
X227957477Y-123449248D01*
X228132584Y-123668825D01*
X228331175Y-123867416D01*
X228550752Y-124042523D01*
X228788555Y-124191945D01*
X229041592Y-124313801D01*
X229201448Y-124369737D01*
X229306670Y-124406556D01*
X229306682Y-124406560D01*
X229580491Y-124469055D01*
X229580497Y-124469055D01*
X229580505Y-124469057D01*
X229766547Y-124490018D01*
X229859569Y-124500499D01*
X229859572Y-124500500D01*
X229859575Y-124500500D01*
X230140428Y-124500500D01*
X230140429Y-124500499D01*
X230283055Y-124484429D01*
X230419494Y-124469057D01*
X230419499Y-124469056D01*
X230419509Y-124469055D01*
X230693318Y-124406560D01*
X230958408Y-124313801D01*
X231211445Y-124191945D01*
X231449248Y-124042523D01*
X231668825Y-123867416D01*
X231867416Y-123668825D01*
X232042523Y-123449248D01*
X232191945Y-123211445D01*
X232313801Y-122958408D01*
X232406560Y-122693318D01*
X232469055Y-122419509D01*
X232473599Y-122379185D01*
X232492729Y-122209394D01*
X232500500Y-122140425D01*
X232500500Y-121859575D01*
X232484866Y-121720821D01*
X232469057Y-121580505D01*
X232469054Y-121580487D01*
X232468679Y-121578846D01*
X232406560Y-121306682D01*
X232400933Y-121290602D01*
X232376854Y-121221786D01*
X232313801Y-121041592D01*
X232191945Y-120788555D01*
X232042523Y-120550752D01*
X231867416Y-120331175D01*
X231668825Y-120132584D01*
X231449248Y-119957477D01*
X231232298Y-119821158D01*
X231211442Y-119808053D01*
X230958411Y-119686200D01*
X230693329Y-119593443D01*
X230693317Y-119593439D01*
X230419512Y-119530945D01*
X230419494Y-119530942D01*
X230140431Y-119499500D01*
X230140425Y-119499500D01*
X229859575Y-119499500D01*
X229859568Y-119499500D01*
X229580505Y-119530942D01*
X229580487Y-119530945D01*
X229306682Y-119593439D01*
X229306670Y-119593443D01*
X229041588Y-119686200D01*
X228788557Y-119808053D01*
X228550753Y-119957476D01*
X228331175Y-120132583D01*
X228132583Y-120331175D01*
X227957476Y-120550753D01*
X227808053Y-120788557D01*
X227686200Y-121041588D01*
X227593443Y-121306670D01*
X227593439Y-121306682D01*
X227530945Y-121580487D01*
X227530942Y-121580505D01*
X227499500Y-121859568D01*
X215188250Y-121859568D01*
X215169738Y-121766508D01*
X215169737Y-121766507D01*
X215169737Y-121766503D01*
X215150812Y-121720814D01*
X215109397Y-121620827D01*
X215109390Y-121620814D01*
X215021789Y-121489711D01*
X215021786Y-121489707D01*
X214910292Y-121378213D01*
X214910288Y-121378210D01*
X214779185Y-121290609D01*
X214779172Y-121290602D01*
X214633501Y-121230264D01*
X214633489Y-121230261D01*
X214478845Y-121199500D01*
X214478842Y-121199500D01*
X214321158Y-121199500D01*
X214321155Y-121199500D01*
X214166510Y-121230261D01*
X214166498Y-121230264D01*
X214020827Y-121290602D01*
X214020814Y-121290609D01*
X213889711Y-121378210D01*
X213889707Y-121378213D01*
X213778213Y-121489707D01*
X213778210Y-121489711D01*
X213690609Y-121620814D01*
X213690602Y-121620827D01*
X213630264Y-121766498D01*
X213630261Y-121766510D01*
X213599500Y-121921153D01*
X133481348Y-121921153D01*
X133509394Y-121879179D01*
X133569737Y-121733497D01*
X133600500Y-121578842D01*
X133600500Y-121421158D01*
X133600500Y-121421155D01*
X133600499Y-121421153D01*
X133578269Y-121309397D01*
X133569737Y-121266503D01*
X133569735Y-121266498D01*
X133509397Y-121120827D01*
X133509390Y-121120814D01*
X133421789Y-120989711D01*
X133421786Y-120989707D01*
X133310292Y-120878213D01*
X133310288Y-120878210D01*
X133179185Y-120790609D01*
X133179172Y-120790602D01*
X133033501Y-120730264D01*
X133033489Y-120730261D01*
X132878845Y-120699500D01*
X132878842Y-120699500D01*
X132721158Y-120699500D01*
X132721155Y-120699500D01*
X132566510Y-120730261D01*
X132566498Y-120730264D01*
X132420827Y-120790602D01*
X132420814Y-120790609D01*
X132289711Y-120878210D01*
X132289707Y-120878213D01*
X132178213Y-120989707D01*
X132178210Y-120989711D01*
X132090609Y-121120814D01*
X132090602Y-121120827D01*
X132030264Y-121266498D01*
X132030261Y-121266508D01*
X132003489Y-121401099D01*
X131971104Y-121463010D01*
X131910388Y-121497584D01*
X131840618Y-121493843D01*
X131812981Y-121480009D01*
X131679185Y-121390609D01*
X131679172Y-121390602D01*
X131533501Y-121330264D01*
X131533489Y-121330261D01*
X131378845Y-121299500D01*
X131378842Y-121299500D01*
X131221158Y-121299500D01*
X131221155Y-121299500D01*
X131066510Y-121330261D01*
X131066498Y-121330264D01*
X130920827Y-121390602D01*
X130920814Y-121390609D01*
X130789711Y-121478210D01*
X130789707Y-121478213D01*
X130678213Y-121589707D01*
X130678210Y-121589711D01*
X130590609Y-121720814D01*
X130590602Y-121720827D01*
X130530264Y-121866498D01*
X130530261Y-121866510D01*
X130499500Y-122021153D01*
X74700500Y-122021153D01*
X74700500Y-121859575D01*
X74684866Y-121720821D01*
X74669057Y-121580505D01*
X74669054Y-121580487D01*
X74668679Y-121578846D01*
X74606560Y-121306682D01*
X74600933Y-121290602D01*
X74576854Y-121221786D01*
X74513801Y-121041592D01*
X74391945Y-120788555D01*
X74242523Y-120550752D01*
X74067416Y-120331175D01*
X74057392Y-120321151D01*
X76199502Y-120321151D01*
X76199502Y-120478844D01*
X76230263Y-120633487D01*
X76230266Y-120633499D01*
X76290604Y-120779170D01*
X76290611Y-120779183D01*
X76378212Y-120910286D01*
X76378215Y-120910290D01*
X76489709Y-121021784D01*
X76489713Y-121021787D01*
X76620816Y-121109388D01*
X76620829Y-121109395D01*
X76766500Y-121169733D01*
X76766505Y-121169735D01*
X76916143Y-121199500D01*
X76921155Y-121200497D01*
X76921158Y-121200498D01*
X76921160Y-121200498D01*
X77078846Y-121200498D01*
X77078847Y-121200497D01*
X77233499Y-121169735D01*
X77377008Y-121110292D01*
X77379174Y-121109395D01*
X77379174Y-121109394D01*
X77379181Y-121109392D01*
X77510291Y-121021787D01*
X77621791Y-120910287D01*
X77709396Y-120779177D01*
X77769739Y-120633495D01*
X77791959Y-120521789D01*
X77792086Y-120521153D01*
X124999500Y-120521153D01*
X124999500Y-120678846D01*
X125030261Y-120833489D01*
X125030264Y-120833501D01*
X125090602Y-120979172D01*
X125090609Y-120979185D01*
X125178210Y-121110288D01*
X125178213Y-121110292D01*
X125289707Y-121221786D01*
X125289711Y-121221789D01*
X125420814Y-121309390D01*
X125420827Y-121309397D01*
X125566498Y-121369735D01*
X125566503Y-121369737D01*
X125721153Y-121400499D01*
X125721156Y-121400500D01*
X125721158Y-121400500D01*
X125878844Y-121400500D01*
X125878845Y-121400499D01*
X126033497Y-121369737D01*
X126179179Y-121309394D01*
X126310289Y-121221789D01*
X126421789Y-121110289D01*
X126509394Y-120979179D01*
X126569737Y-120833497D01*
X126600500Y-120678842D01*
X126600500Y-120521158D01*
X126600500Y-120521155D01*
X126600499Y-120521153D01*
X126578447Y-120410292D01*
X126569737Y-120366503D01*
X126533569Y-120279185D01*
X126509397Y-120220827D01*
X126509390Y-120220814D01*
X126421789Y-120089711D01*
X126421786Y-120089707D01*
X126310292Y-119978213D01*
X126310288Y-119978210D01*
X126224897Y-119921153D01*
X130699500Y-119921153D01*
X130699500Y-120078846D01*
X130730261Y-120233489D01*
X130730264Y-120233501D01*
X130790602Y-120379172D01*
X130790609Y-120379185D01*
X130878210Y-120510288D01*
X130878213Y-120510292D01*
X130989707Y-120621786D01*
X130989711Y-120621789D01*
X131120814Y-120709390D01*
X131120827Y-120709397D01*
X131266498Y-120769735D01*
X131266503Y-120769737D01*
X131421153Y-120800499D01*
X131421156Y-120800500D01*
X131421158Y-120800500D01*
X131578844Y-120800500D01*
X131578845Y-120800499D01*
X131733497Y-120769737D01*
X131879179Y-120709394D01*
X132010289Y-120621789D01*
X132121789Y-120510289D01*
X132209394Y-120379179D01*
X132269737Y-120233497D01*
X132300500Y-120078842D01*
X132300500Y-119921158D01*
X132300500Y-119921155D01*
X132284209Y-119839258D01*
X132284209Y-119839257D01*
X132280608Y-119821153D01*
X196499500Y-119821153D01*
X196499500Y-119978846D01*
X196530261Y-120133489D01*
X196530264Y-120133501D01*
X196590602Y-120279172D01*
X196590609Y-120279185D01*
X196678210Y-120410288D01*
X196678213Y-120410292D01*
X196789707Y-120521786D01*
X196789711Y-120521789D01*
X196920814Y-120609390D01*
X196920827Y-120609397D01*
X197066498Y-120669735D01*
X197066503Y-120669737D01*
X197216131Y-120699500D01*
X197221153Y-120700499D01*
X197221156Y-120700500D01*
X197221158Y-120700500D01*
X197378844Y-120700500D01*
X197378845Y-120700499D01*
X197533497Y-120669737D01*
X197679179Y-120609394D01*
X197810289Y-120521789D01*
X197810925Y-120521153D01*
X222899502Y-120521153D01*
X222899502Y-120678846D01*
X222930263Y-120833489D01*
X222930266Y-120833501D01*
X222990604Y-120979172D01*
X222990611Y-120979185D01*
X223078212Y-121110288D01*
X223078215Y-121110292D01*
X223189709Y-121221786D01*
X223189713Y-121221789D01*
X223320816Y-121309390D01*
X223320829Y-121309397D01*
X223466500Y-121369735D01*
X223466505Y-121369737D01*
X223621155Y-121400499D01*
X223621158Y-121400500D01*
X223621160Y-121400500D01*
X223778846Y-121400500D01*
X223778847Y-121400499D01*
X223933499Y-121369737D01*
X224079181Y-121309394D01*
X224210291Y-121221789D01*
X224321791Y-121110289D01*
X224409396Y-120979179D01*
X224469739Y-120833497D01*
X224500502Y-120678842D01*
X224500502Y-120521158D01*
X224500502Y-120521155D01*
X224500501Y-120521153D01*
X224478449Y-120410292D01*
X224469739Y-120366503D01*
X224433571Y-120279185D01*
X224409399Y-120220827D01*
X224409392Y-120220814D01*
X224321791Y-120089711D01*
X224321788Y-120089707D01*
X224210294Y-119978213D01*
X224210290Y-119978210D01*
X224079187Y-119890609D01*
X224079174Y-119890602D01*
X223933503Y-119830264D01*
X223933491Y-119830261D01*
X223778847Y-119799500D01*
X223778844Y-119799500D01*
X223621160Y-119799500D01*
X223621157Y-119799500D01*
X223466512Y-119830261D01*
X223466500Y-119830264D01*
X223320829Y-119890602D01*
X223320816Y-119890609D01*
X223189713Y-119978210D01*
X223189709Y-119978213D01*
X223078215Y-120089707D01*
X223078212Y-120089711D01*
X222990611Y-120220814D01*
X222990604Y-120220827D01*
X222930266Y-120366498D01*
X222930263Y-120366510D01*
X222899502Y-120521153D01*
X197810925Y-120521153D01*
X197853239Y-120478839D01*
X197904694Y-120427385D01*
X197921786Y-120410292D01*
X197921789Y-120410289D01*
X198009394Y-120279179D01*
X198069737Y-120133497D01*
X198100500Y-119978842D01*
X198100500Y-119821158D01*
X198100500Y-119821155D01*
X198100499Y-119821153D01*
X198089627Y-119766498D01*
X198069737Y-119666503D01*
X198054725Y-119630261D01*
X198009397Y-119520827D01*
X198009390Y-119520814D01*
X197921789Y-119389711D01*
X197921786Y-119389707D01*
X197810292Y-119278213D01*
X197810288Y-119278210D01*
X197679185Y-119190609D01*
X197679172Y-119190602D01*
X197533501Y-119130264D01*
X197533489Y-119130261D01*
X197378845Y-119099500D01*
X197378842Y-119099500D01*
X197221158Y-119099500D01*
X197221155Y-119099500D01*
X197066510Y-119130261D01*
X197066498Y-119130264D01*
X196920827Y-119190602D01*
X196920814Y-119190609D01*
X196789711Y-119278210D01*
X196789707Y-119278213D01*
X196678213Y-119389707D01*
X196678210Y-119389711D01*
X196590609Y-119520814D01*
X196590602Y-119520827D01*
X196530264Y-119666498D01*
X196530261Y-119666510D01*
X196499500Y-119821153D01*
X132280608Y-119821153D01*
X132278002Y-119808053D01*
X132269737Y-119766503D01*
X132236475Y-119686200D01*
X132209397Y-119620827D01*
X132209390Y-119620814D01*
X132121789Y-119489711D01*
X132121786Y-119489707D01*
X132010292Y-119378213D01*
X132010288Y-119378210D01*
X131879185Y-119290609D01*
X131879172Y-119290602D01*
X131733501Y-119230264D01*
X131733489Y-119230261D01*
X131578845Y-119199500D01*
X131578842Y-119199500D01*
X131421158Y-119199500D01*
X131421155Y-119199500D01*
X131266510Y-119230261D01*
X131266498Y-119230264D01*
X131120827Y-119290602D01*
X131120814Y-119290609D01*
X130989711Y-119378210D01*
X130989707Y-119378213D01*
X130878213Y-119489707D01*
X130878210Y-119489711D01*
X130790609Y-119620814D01*
X130790602Y-119620827D01*
X130730264Y-119766498D01*
X130730261Y-119766510D01*
X130699500Y-119921153D01*
X126224897Y-119921153D01*
X126179185Y-119890609D01*
X126179172Y-119890602D01*
X126033501Y-119830264D01*
X126033489Y-119830261D01*
X125878845Y-119799500D01*
X125878842Y-119799500D01*
X125721158Y-119799500D01*
X125721155Y-119799500D01*
X125566510Y-119830261D01*
X125566498Y-119830264D01*
X125420827Y-119890602D01*
X125420814Y-119890609D01*
X125289711Y-119978210D01*
X125289707Y-119978213D01*
X125178213Y-120089707D01*
X125178210Y-120089711D01*
X125090609Y-120220814D01*
X125090602Y-120220827D01*
X125030264Y-120366498D01*
X125030261Y-120366510D01*
X124999500Y-120521153D01*
X77792086Y-120521153D01*
X77798104Y-120490897D01*
X77798108Y-120490876D01*
X77800502Y-120478839D01*
X77800502Y-120321153D01*
X77800501Y-120321151D01*
X77780544Y-120220821D01*
X77769739Y-120166501D01*
X77756070Y-120133501D01*
X77709399Y-120020825D01*
X77709392Y-120020812D01*
X77621791Y-119889709D01*
X77621788Y-119889705D01*
X77510294Y-119778211D01*
X77510290Y-119778208D01*
X77379187Y-119690607D01*
X77379174Y-119690600D01*
X77233503Y-119630262D01*
X77233491Y-119630259D01*
X77078847Y-119599498D01*
X77078844Y-119599498D01*
X76921160Y-119599498D01*
X76921157Y-119599498D01*
X76766512Y-119630259D01*
X76766500Y-119630262D01*
X76620829Y-119690600D01*
X76620816Y-119690607D01*
X76489713Y-119778208D01*
X76489709Y-119778211D01*
X76378215Y-119889705D01*
X76378212Y-119889709D01*
X76290611Y-120020812D01*
X76290604Y-120020825D01*
X76230266Y-120166496D01*
X76230263Y-120166508D01*
X76199502Y-120321151D01*
X74057392Y-120321151D01*
X73868825Y-120132584D01*
X73649248Y-119957477D01*
X73432298Y-119821158D01*
X73411442Y-119808053D01*
X73158411Y-119686200D01*
X72893329Y-119593443D01*
X72893317Y-119593439D01*
X72619512Y-119530945D01*
X72619494Y-119530942D01*
X72340431Y-119499500D01*
X72340425Y-119499500D01*
X72059575Y-119499500D01*
X72059568Y-119499500D01*
X71780505Y-119530942D01*
X71780487Y-119530945D01*
X71506682Y-119593439D01*
X71506670Y-119593443D01*
X71241588Y-119686200D01*
X70988557Y-119808053D01*
X70750753Y-119957476D01*
X70531175Y-120132583D01*
X70332583Y-120331175D01*
X70157476Y-120550753D01*
X70008053Y-120788557D01*
X69886200Y-121041588D01*
X69793443Y-121306670D01*
X69793439Y-121306682D01*
X69730945Y-121580487D01*
X69730942Y-121580505D01*
X69699500Y-121859568D01*
X67500500Y-121859568D01*
X67500500Y-113724500D01*
X67520185Y-113657461D01*
X67572989Y-113611706D01*
X67624500Y-113600500D01*
X236375500Y-113600500D01*
X236442539Y-113620185D01*
G37*
%TD.AperFunction*%
%TD*%
M02*
