%TF.GenerationSoftware,KiCad,Pcbnew,9.0.6*%
%TF.CreationDate,2026-04-06T15:53:31+01:00*%
%TF.ProjectId,active label,61637469-7665-4206-9c61-62656c2e6b69,rev?*%
%TF.SameCoordinates,Original*%
%TF.FileFunction,Copper,L2,Inr*%
%TF.FilePolarity,Positive*%
%FSLAX46Y46*%
G04 Gerber Fmt 4.6, Leading zero omitted, Abs format (unit mm)*
G04 Created by KiCad (PCBNEW 9.0.6) date 2026-04-06 15:53:31*
%MOMM*%
%LPD*%
G01*
G04 APERTURE LIST*
%TA.AperFunction,WasherPad*%
%ADD10O,0.990600X1.803400*%
%TD*%
%TA.AperFunction,WasherPad*%
%ADD11O,0.990600X2.108200*%
%TD*%
%TA.AperFunction,HeatsinkPad*%
%ADD12C,0.600000*%
%TD*%
%TA.AperFunction,ViaPad*%
%ADD13C,0.600000*%
%TD*%
G04 APERTURE END LIST*
D10*
%TO.N,*%
%TO.C,J2*%
X178579998Y-146469200D03*
X187220002Y-146469200D03*
D11*
X178579998Y-142289200D03*
X187220002Y-142289200D03*
%TD*%
D12*
%TO.N,GND*%
%TO.C,U1*%
X122255000Y-139580000D03*
X122255000Y-138180000D03*
X121555000Y-140280000D03*
X121555000Y-138880000D03*
X121555000Y-137480000D03*
X120855000Y-139580000D03*
X120855000Y-138180000D03*
X120155000Y-140280000D03*
X120155000Y-138880000D03*
X120155000Y-137480000D03*
X119455000Y-139580000D03*
X119455000Y-138180000D03*
%TD*%
D13*
%TO.N,VBAT_SENSE*%
X198900000Y-140100000D03*
X198900000Y-135800000D03*
%TO.N,GND*%
X134600000Y-139200000D03*
%TO.N,SWITCH_R*%
X125100000Y-132700000D03*
X222800000Y-132600000D03*
%TO.N,RESET_N*%
X125800000Y-141400000D03*
X125800000Y-120600000D03*
%TO.N,BUSY_N*%
X126000000Y-143000000D03*
X131500000Y-120000000D03*
%TO.N,DATA_COMMAND_N*%
X129550000Y-140250000D03*
X132800000Y-121500000D03*
%TO.N,SPI_CS*%
X129500000Y-139100000D03*
X131300000Y-122100000D03*
%TO.N,GND*%
X212712500Y-132500000D03*
%TO.N,+3V3*%
X78700000Y-139500000D03*
%TO.N,GND*%
X82900000Y-139500000D03*
X214400000Y-122000000D03*
X197300000Y-119900000D03*
%TO.N,+3V3*%
X209700000Y-122000000D03*
%TO.N,GND*%
X204500000Y-123000000D03*
X200800000Y-123600000D03*
%TO.N,Net-(U2-\u002AEN)*%
X200500000Y-130300000D03*
X195100000Y-130300000D03*
%TO.N,GND*%
X223700002Y-120600000D03*
X233100000Y-128900000D03*
X225700000Y-126300000D03*
%TO.N,+3V3*%
X233900000Y-126300000D03*
%TO.N,GND*%
X226400000Y-139300000D03*
%TO.N,+3V3*%
X234900000Y-139300000D03*
%TO.N,GND*%
X233299998Y-142100002D03*
X205324150Y-132305000D03*
X206700000Y-139400000D03*
%TO.N,CHIP_PU*%
X135100000Y-144100000D03*
X175201000Y-144499000D03*
%TO.N,VUSB*%
X184700000Y-143300000D03*
X180600000Y-143300000D03*
%TO.N,CHIP_PU*%
X189300000Y-144300000D03*
X199900000Y-145700000D03*
%TO.N,+3V3*%
X150400000Y-130600000D03*
%TO.N,USBD-*%
X182900000Y-139900000D03*
%TO.N,USBD+*%
X183400000Y-139200000D03*
%TO.N,USBD-*%
X172400000Y-145000000D03*
%TO.N,USBD+*%
X173100000Y-143300000D03*
%TO.N,GND*%
X170500000Y-135600000D03*
%TO.N,+3V3*%
X159200000Y-142500000D03*
%TO.N,GND*%
X163600000Y-142500000D03*
X163600000Y-140100000D03*
%TO.N,Net-(Q1-D)*%
X150300000Y-136200000D03*
X161125000Y-137375000D03*
%TO.N,GND*%
X154650000Y-137050000D03*
%TO.N,+3V3*%
X152900000Y-134700000D03*
X156900000Y-136800000D03*
%TO.N,GND*%
X158500000Y-136900000D03*
%TO.N,VSH1*%
X149000000Y-130800000D03*
X150000000Y-139000000D03*
%TO.N,GND*%
X156900000Y-142300000D03*
%TO.N,VSL*%
X148500000Y-129800000D03*
X148300000Y-143900000D03*
%TO.N,GND*%
X151600000Y-145000000D03*
X157000000Y-140100000D03*
X141800000Y-143600000D03*
%TO.N,Net-(C17-Pad1)*%
X143850000Y-133450000D03*
X143650000Y-138600000D03*
%TO.N,GND*%
X139200000Y-139400000D03*
X139200000Y-135100000D03*
%TO.N,Net-(Q1-D)*%
X147400000Y-136000000D03*
X146900000Y-125200000D03*
X147400000Y-125200000D03*
%TO.N,GND*%
X142700000Y-127500000D03*
X154300000Y-131700000D03*
X149700000Y-131700000D03*
%TO.N,+3V3*%
X147300000Y-141700000D03*
%TO.N,GND*%
X190100000Y-143800000D03*
X186300000Y-140400000D03*
X179687500Y-140287500D03*
%TO.N,VUSB*%
X193900000Y-138800000D03*
%TO.N,GND*%
X195400000Y-142500000D03*
%TO.N,VUSB_SENSE*%
X192200000Y-144100000D03*
X113800000Y-146300000D03*
%TO.N,GND*%
X77000002Y-120399998D03*
%TO.N,+3V3*%
X113800000Y-124475000D03*
%TO.N,SDA0*%
X107200000Y-132100000D03*
X114910000Y-131700000D03*
%TO.N,SCL0*%
X113600000Y-131300000D03*
X106400000Y-131400000D03*
%TO.N,SWITCH_L*%
X123800000Y-132800000D03*
X104000000Y-132800000D03*
%TO.N,GND*%
X81800000Y-127600000D03*
%TO.N,+3V3*%
X75900000Y-133600000D03*
%TO.N,GND*%
X80300000Y-133600000D03*
%TO.N,+3V3*%
X84800000Y-141200000D03*
%TO.N,GND*%
X83800000Y-141200000D03*
X74599997Y-141200003D03*
%TO.N,+3V3*%
X75599998Y-141200002D03*
%TO.N,SDA1*%
X108100000Y-136500000D03*
X108100000Y-143300000D03*
%TO.N,GND*%
X129750000Y-146650000D03*
%TO.N,+3V3*%
X106087500Y-139100000D03*
%TO.N,GND*%
X108700000Y-146600000D03*
X134300000Y-145600000D03*
%TO.N,+3V3*%
X129700000Y-145330000D03*
%TD*%
%TA.AperFunction,Conductor*%
%TO.N,GND*%
G36*
X236442539Y-113620185D02*
G01*
X236488294Y-113672989D01*
X236499500Y-113724500D01*
X236499500Y-147475500D01*
X236479815Y-147542539D01*
X236427011Y-147588294D01*
X236375500Y-147599500D01*
X188165933Y-147599500D01*
X188098894Y-147579815D01*
X188053139Y-147527011D01*
X188043195Y-147457853D01*
X188062831Y-147406609D01*
X188065623Y-147402429D01*
X188102468Y-147347288D01*
X188177534Y-147166064D01*
X188215802Y-146973678D01*
X188215802Y-145964722D01*
X188215802Y-145964719D01*
X188215801Y-145964717D01*
X188207071Y-145920827D01*
X188177534Y-145772336D01*
X188114911Y-145621153D01*
X199099500Y-145621153D01*
X199099500Y-145778846D01*
X199130261Y-145933489D01*
X199130264Y-145933501D01*
X199190602Y-146079172D01*
X199190609Y-146079185D01*
X199278210Y-146210288D01*
X199278213Y-146210292D01*
X199389707Y-146321786D01*
X199389711Y-146321789D01*
X199520814Y-146409390D01*
X199520827Y-146409397D01*
X199666498Y-146469735D01*
X199666503Y-146469737D01*
X199821153Y-146500499D01*
X199821156Y-146500500D01*
X199821158Y-146500500D01*
X199978844Y-146500500D01*
X199978845Y-146500499D01*
X200133497Y-146469737D01*
X200279179Y-146409394D01*
X200410289Y-146321789D01*
X200521789Y-146210289D01*
X200609394Y-146079179D01*
X200669737Y-145933497D01*
X200700500Y-145778842D01*
X200700500Y-145621158D01*
X200700500Y-145621155D01*
X200700499Y-145621153D01*
X200678447Y-145510292D01*
X200669737Y-145466503D01*
X200633569Y-145379185D01*
X200609397Y-145320827D01*
X200609390Y-145320814D01*
X200521789Y-145189711D01*
X200521786Y-145189707D01*
X200410292Y-145078213D01*
X200410288Y-145078210D01*
X200279185Y-144990609D01*
X200279172Y-144990602D01*
X200133501Y-144930264D01*
X200133489Y-144930261D01*
X199978845Y-144899500D01*
X199978842Y-144899500D01*
X199821158Y-144899500D01*
X199821155Y-144899500D01*
X199666510Y-144930261D01*
X199666498Y-144930264D01*
X199520827Y-144990602D01*
X199520814Y-144990609D01*
X199389711Y-145078210D01*
X199389707Y-145078213D01*
X199278213Y-145189707D01*
X199278210Y-145189711D01*
X199190609Y-145320814D01*
X199190602Y-145320827D01*
X199130264Y-145466498D01*
X199130261Y-145466510D01*
X199099500Y-145621153D01*
X188114911Y-145621153D01*
X188102468Y-145591112D01*
X188102466Y-145591109D01*
X188102464Y-145591105D01*
X187993490Y-145428015D01*
X187993487Y-145428011D01*
X187854790Y-145289314D01*
X187854786Y-145289311D01*
X187691696Y-145180337D01*
X187691686Y-145180332D01*
X187510466Y-145105268D01*
X187510458Y-145105266D01*
X187318083Y-145067000D01*
X187318080Y-145067000D01*
X187121924Y-145067000D01*
X187121921Y-145067000D01*
X186929545Y-145105266D01*
X186929537Y-145105268D01*
X186748317Y-145180332D01*
X186748307Y-145180337D01*
X186585217Y-145289311D01*
X186585213Y-145289314D01*
X186446516Y-145428011D01*
X186446513Y-145428015D01*
X186337539Y-145591105D01*
X186337534Y-145591115D01*
X186262470Y-145772335D01*
X186262468Y-145772343D01*
X186224202Y-145964717D01*
X186224202Y-146973682D01*
X186262468Y-147166056D01*
X186262470Y-147166064D01*
X186337534Y-147347284D01*
X186337539Y-147347293D01*
X186377173Y-147406609D01*
X186398051Y-147473286D01*
X186379567Y-147540666D01*
X186327588Y-147587357D01*
X186274071Y-147599500D01*
X179525929Y-147599500D01*
X179458890Y-147579815D01*
X179413135Y-147527011D01*
X179403191Y-147457853D01*
X179422827Y-147406609D01*
X179425619Y-147402429D01*
X179462464Y-147347288D01*
X179537530Y-147166064D01*
X179575798Y-146973678D01*
X179575798Y-145964722D01*
X179575798Y-145964719D01*
X179575797Y-145964717D01*
X179567067Y-145920827D01*
X179537530Y-145772336D01*
X179462464Y-145591112D01*
X179462462Y-145591109D01*
X179462460Y-145591105D01*
X179353486Y-145428015D01*
X179353483Y-145428011D01*
X179214786Y-145289314D01*
X179214782Y-145289311D01*
X179051692Y-145180337D01*
X179051682Y-145180332D01*
X178870462Y-145105268D01*
X178870454Y-145105266D01*
X178678079Y-145067000D01*
X178678076Y-145067000D01*
X178481920Y-145067000D01*
X178481917Y-145067000D01*
X178289541Y-145105266D01*
X178289533Y-145105268D01*
X178108313Y-145180332D01*
X178108303Y-145180337D01*
X177945213Y-145289311D01*
X177945209Y-145289314D01*
X177806512Y-145428011D01*
X177806509Y-145428015D01*
X177697535Y-145591105D01*
X177697530Y-145591115D01*
X177622466Y-145772335D01*
X177622464Y-145772343D01*
X177584198Y-145964717D01*
X177584198Y-146973682D01*
X177622464Y-147166056D01*
X177622466Y-147166064D01*
X177697530Y-147347284D01*
X177697535Y-147347293D01*
X177737169Y-147406609D01*
X177758047Y-147473286D01*
X177739563Y-147540666D01*
X177687584Y-147587357D01*
X177634067Y-147599500D01*
X67624500Y-147599500D01*
X67557461Y-147579815D01*
X67511706Y-147527011D01*
X67500500Y-147475500D01*
X67500500Y-146221153D01*
X112999500Y-146221153D01*
X112999500Y-146378846D01*
X113030261Y-146533489D01*
X113030264Y-146533501D01*
X113090602Y-146679172D01*
X113090609Y-146679185D01*
X113178210Y-146810288D01*
X113178213Y-146810292D01*
X113289707Y-146921786D01*
X113289711Y-146921789D01*
X113420814Y-147009390D01*
X113420827Y-147009397D01*
X113566498Y-147069735D01*
X113566503Y-147069737D01*
X113721153Y-147100499D01*
X113721156Y-147100500D01*
X113721158Y-147100500D01*
X113878844Y-147100500D01*
X113878845Y-147100499D01*
X114033497Y-147069737D01*
X114179179Y-147009394D01*
X114310289Y-146921789D01*
X114421789Y-146810289D01*
X114509394Y-146679179D01*
X114569737Y-146533497D01*
X114600500Y-146378842D01*
X114600500Y-146221158D01*
X114600500Y-146221155D01*
X114600499Y-146221153D01*
X114582467Y-146130500D01*
X114569737Y-146066503D01*
X114569735Y-146066498D01*
X114509397Y-145920827D01*
X114509390Y-145920814D01*
X114421789Y-145789711D01*
X114421786Y-145789707D01*
X114310292Y-145678213D01*
X114310288Y-145678210D01*
X114179185Y-145590609D01*
X114179172Y-145590602D01*
X114033501Y-145530264D01*
X114033489Y-145530261D01*
X113878845Y-145499500D01*
X113878842Y-145499500D01*
X113721158Y-145499500D01*
X113721155Y-145499500D01*
X113566510Y-145530261D01*
X113566498Y-145530264D01*
X113420827Y-145590602D01*
X113420814Y-145590609D01*
X113289711Y-145678210D01*
X113289707Y-145678213D01*
X113178213Y-145789707D01*
X113178210Y-145789711D01*
X113090609Y-145920814D01*
X113090602Y-145920827D01*
X113030264Y-146066498D01*
X113030261Y-146066510D01*
X112999500Y-146221153D01*
X67500500Y-146221153D01*
X67500500Y-145251153D01*
X128899500Y-145251153D01*
X128899500Y-145408846D01*
X128930261Y-145563489D01*
X128930264Y-145563501D01*
X128990602Y-145709172D01*
X128990609Y-145709185D01*
X129078210Y-145840288D01*
X129078213Y-145840292D01*
X129189707Y-145951786D01*
X129189711Y-145951789D01*
X129320814Y-146039390D01*
X129320827Y-146039397D01*
X129466498Y-146099735D01*
X129466503Y-146099737D01*
X129621153Y-146130499D01*
X129621156Y-146130500D01*
X129621158Y-146130500D01*
X129778844Y-146130500D01*
X129778845Y-146130499D01*
X129933497Y-146099737D01*
X130079179Y-146039394D01*
X130210289Y-145951789D01*
X130321789Y-145840289D01*
X130409394Y-145709179D01*
X130469737Y-145563497D01*
X130500500Y-145408842D01*
X130500500Y-145251158D01*
X130500500Y-145251155D01*
X130500499Y-145251153D01*
X130488277Y-145189711D01*
X130469737Y-145096503D01*
X130462423Y-145078846D01*
X130409397Y-144950827D01*
X130409390Y-144950814D01*
X130389571Y-144921153D01*
X171599500Y-144921153D01*
X171599500Y-145078846D01*
X171630261Y-145233489D01*
X171630264Y-145233501D01*
X171690602Y-145379172D01*
X171690609Y-145379185D01*
X171778210Y-145510288D01*
X171778213Y-145510292D01*
X171889707Y-145621786D01*
X171889711Y-145621789D01*
X172020814Y-145709390D01*
X172020827Y-145709397D01*
X172166498Y-145769735D01*
X172166503Y-145769737D01*
X172321153Y-145800499D01*
X172321156Y-145800500D01*
X172321158Y-145800500D01*
X172478844Y-145800500D01*
X172478845Y-145800499D01*
X172633497Y-145769737D01*
X172779179Y-145709394D01*
X172910289Y-145621789D01*
X173021789Y-145510289D01*
X173109394Y-145379179D01*
X173169737Y-145233497D01*
X173200500Y-145078842D01*
X173200500Y-144921158D01*
X173200500Y-144921155D01*
X173200499Y-144921153D01*
X173178447Y-144810292D01*
X173169737Y-144766503D01*
X173155653Y-144732501D01*
X173109397Y-144620827D01*
X173109390Y-144620814D01*
X173021788Y-144489709D01*
X172952232Y-144420153D01*
X174400500Y-144420153D01*
X174400500Y-144577846D01*
X174431261Y-144732489D01*
X174431264Y-144732501D01*
X174491602Y-144878172D01*
X174491609Y-144878185D01*
X174579210Y-145009288D01*
X174579213Y-145009292D01*
X174690707Y-145120786D01*
X174690711Y-145120789D01*
X174821814Y-145208390D01*
X174821827Y-145208397D01*
X174925063Y-145251158D01*
X174967503Y-145268737D01*
X175122153Y-145299499D01*
X175122156Y-145299500D01*
X175122158Y-145299500D01*
X175279844Y-145299500D01*
X175279845Y-145299499D01*
X175434497Y-145268737D01*
X175580179Y-145208394D01*
X175711289Y-145120789D01*
X175822789Y-145009289D01*
X175910394Y-144878179D01*
X175970737Y-144732497D01*
X176001500Y-144577842D01*
X176001500Y-144420158D01*
X176001500Y-144420155D01*
X176001499Y-144420153D01*
X175970737Y-144265503D01*
X175956140Y-144230263D01*
X175952367Y-144221153D01*
X188499500Y-144221153D01*
X188499500Y-144378846D01*
X188530261Y-144533489D01*
X188530264Y-144533501D01*
X188590602Y-144679172D01*
X188590609Y-144679185D01*
X188678210Y-144810288D01*
X188678213Y-144810292D01*
X188789707Y-144921786D01*
X188789711Y-144921789D01*
X188920814Y-145009390D01*
X188920827Y-145009397D01*
X189059895Y-145067000D01*
X189066503Y-145069737D01*
X189201039Y-145096498D01*
X189221153Y-145100499D01*
X189221156Y-145100500D01*
X189221158Y-145100500D01*
X189378844Y-145100500D01*
X189378845Y-145100499D01*
X189533497Y-145069737D01*
X189679179Y-145009394D01*
X189810289Y-144921789D01*
X189921789Y-144810289D01*
X190009394Y-144679179D01*
X190069737Y-144533497D01*
X190100500Y-144378842D01*
X190100500Y-144221158D01*
X190100500Y-144221155D01*
X190100499Y-144221153D01*
X190096192Y-144199500D01*
X190069737Y-144066503D01*
X190050955Y-144021158D01*
X190050953Y-144021153D01*
X191399500Y-144021153D01*
X191399500Y-144178846D01*
X191430261Y-144333489D01*
X191430264Y-144333501D01*
X191490602Y-144479172D01*
X191490609Y-144479185D01*
X191578210Y-144610288D01*
X191578213Y-144610292D01*
X191689707Y-144721786D01*
X191689711Y-144721789D01*
X191820814Y-144809390D01*
X191820827Y-144809397D01*
X191966498Y-144869735D01*
X191966503Y-144869737D01*
X192116131Y-144899500D01*
X192121153Y-144900499D01*
X192121156Y-144900500D01*
X192121158Y-144900500D01*
X192278844Y-144900500D01*
X192278845Y-144900499D01*
X192433497Y-144869737D01*
X192579179Y-144809394D01*
X192710289Y-144721789D01*
X192821789Y-144610289D01*
X192909394Y-144479179D01*
X192969737Y-144333497D01*
X193000500Y-144178842D01*
X193000500Y-144021158D01*
X193000500Y-144021155D01*
X193000499Y-144021153D01*
X192994045Y-143988707D01*
X192969737Y-143866503D01*
X192950955Y-143821158D01*
X192909397Y-143720827D01*
X192909390Y-143720814D01*
X192821789Y-143589711D01*
X192821786Y-143589707D01*
X192710292Y-143478213D01*
X192710288Y-143478210D01*
X192579185Y-143390609D01*
X192579172Y-143390602D01*
X192433501Y-143330264D01*
X192433489Y-143330261D01*
X192278845Y-143299500D01*
X192278842Y-143299500D01*
X192121158Y-143299500D01*
X192121155Y-143299500D01*
X191966510Y-143330261D01*
X191966498Y-143330264D01*
X191820827Y-143390602D01*
X191820814Y-143390609D01*
X191689711Y-143478210D01*
X191689707Y-143478213D01*
X191578213Y-143589707D01*
X191578210Y-143589711D01*
X191490609Y-143720814D01*
X191490602Y-143720827D01*
X191430264Y-143866498D01*
X191430261Y-143866510D01*
X191399500Y-144021153D01*
X190050953Y-144021153D01*
X190009397Y-143920827D01*
X190009390Y-143920814D01*
X189921789Y-143789711D01*
X189921786Y-143789707D01*
X189810292Y-143678213D01*
X189810288Y-143678210D01*
X189679185Y-143590609D01*
X189679172Y-143590602D01*
X189533501Y-143530264D01*
X189533489Y-143530261D01*
X189378845Y-143499500D01*
X189378842Y-143499500D01*
X189221158Y-143499500D01*
X189221155Y-143499500D01*
X189066510Y-143530261D01*
X189066498Y-143530264D01*
X188920827Y-143590602D01*
X188920814Y-143590609D01*
X188789711Y-143678210D01*
X188789707Y-143678213D01*
X188678213Y-143789707D01*
X188678210Y-143789711D01*
X188590609Y-143920814D01*
X188590602Y-143920827D01*
X188530264Y-144066498D01*
X188530261Y-144066510D01*
X188499500Y-144221153D01*
X175952367Y-144221153D01*
X175910397Y-144119827D01*
X175910390Y-144119814D01*
X175822789Y-143988711D01*
X175822786Y-143988707D01*
X175711292Y-143877213D01*
X175711288Y-143877210D01*
X175580185Y-143789609D01*
X175580172Y-143789602D01*
X175434501Y-143729264D01*
X175434489Y-143729261D01*
X175279845Y-143698500D01*
X175279842Y-143698500D01*
X175122158Y-143698500D01*
X175122155Y-143698500D01*
X174967510Y-143729261D01*
X174967498Y-143729264D01*
X174821827Y-143789602D01*
X174821814Y-143789609D01*
X174690711Y-143877210D01*
X174690707Y-143877213D01*
X174579213Y-143988707D01*
X174579210Y-143988711D01*
X174491609Y-144119814D01*
X174491602Y-144119827D01*
X174431264Y-144265498D01*
X174431261Y-144265510D01*
X174400500Y-144420153D01*
X172952232Y-144420153D01*
X172910292Y-144378213D01*
X172910288Y-144378210D01*
X172800149Y-144304617D01*
X172800146Y-144304615D01*
X172779179Y-144290606D01*
X172633497Y-144230263D01*
X172605317Y-144224657D01*
X172605311Y-144224655D01*
X172478845Y-144199500D01*
X172478842Y-144199500D01*
X172321158Y-144199500D01*
X172321155Y-144199500D01*
X172166510Y-144230261D01*
X172166498Y-144230264D01*
X172020827Y-144290602D01*
X172020814Y-144290609D01*
X171889711Y-144378210D01*
X171889707Y-144378213D01*
X171778213Y-144489707D01*
X171778210Y-144489711D01*
X171690609Y-144620814D01*
X171690602Y-144620827D01*
X171630264Y-144766498D01*
X171630261Y-144766510D01*
X171599500Y-144921153D01*
X130389571Y-144921153D01*
X130321789Y-144819711D01*
X130321786Y-144819707D01*
X130210292Y-144708213D01*
X130210288Y-144708210D01*
X130079185Y-144620609D01*
X130079172Y-144620602D01*
X129933501Y-144560264D01*
X129933489Y-144560261D01*
X129778845Y-144529500D01*
X129778842Y-144529500D01*
X129621158Y-144529500D01*
X129621155Y-144529500D01*
X129466510Y-144560261D01*
X129466498Y-144560264D01*
X129320827Y-144620602D01*
X129320814Y-144620609D01*
X129189711Y-144708210D01*
X129189707Y-144708213D01*
X129078213Y-144819707D01*
X129078210Y-144819711D01*
X128990609Y-144950814D01*
X128990602Y-144950827D01*
X128930264Y-145096498D01*
X128930261Y-145096510D01*
X128899500Y-145251153D01*
X67500500Y-145251153D01*
X67500500Y-143221153D01*
X107299500Y-143221153D01*
X107299500Y-143378846D01*
X107330261Y-143533489D01*
X107330264Y-143533501D01*
X107390602Y-143679172D01*
X107390609Y-143679185D01*
X107478210Y-143810288D01*
X107478213Y-143810292D01*
X107589707Y-143921786D01*
X107589711Y-143921789D01*
X107720814Y-144009390D01*
X107720827Y-144009397D01*
X107858695Y-144066503D01*
X107866503Y-144069737D01*
X108021153Y-144100499D01*
X108021156Y-144100500D01*
X108021158Y-144100500D01*
X108178844Y-144100500D01*
X108178845Y-144100499D01*
X108333497Y-144069737D01*
X108450790Y-144021153D01*
X134299500Y-144021153D01*
X134299500Y-144178846D01*
X134330261Y-144333489D01*
X134330264Y-144333501D01*
X134390602Y-144479172D01*
X134390609Y-144479185D01*
X134478210Y-144610288D01*
X134478213Y-144610292D01*
X134589707Y-144721786D01*
X134589711Y-144721789D01*
X134720814Y-144809390D01*
X134720827Y-144809397D01*
X134866498Y-144869735D01*
X134866503Y-144869737D01*
X135016131Y-144899500D01*
X135021153Y-144900499D01*
X135021156Y-144900500D01*
X135021158Y-144900500D01*
X135178844Y-144900500D01*
X135178845Y-144900499D01*
X135333497Y-144869737D01*
X135479179Y-144809394D01*
X135610289Y-144721789D01*
X135721789Y-144610289D01*
X135809394Y-144479179D01*
X135869737Y-144333497D01*
X135900500Y-144178842D01*
X135900500Y-144021158D01*
X135900500Y-144021155D01*
X135900499Y-144021153D01*
X135894045Y-143988707D01*
X135869737Y-143866503D01*
X135850955Y-143821158D01*
X135850953Y-143821153D01*
X147499500Y-143821153D01*
X147499500Y-143978846D01*
X147530261Y-144133489D01*
X147530264Y-144133501D01*
X147590602Y-144279172D01*
X147590609Y-144279185D01*
X147678210Y-144410288D01*
X147678213Y-144410292D01*
X147789707Y-144521786D01*
X147789711Y-144521789D01*
X147920814Y-144609390D01*
X147920827Y-144609397D01*
X148066498Y-144669735D01*
X148066503Y-144669737D01*
X148221153Y-144700499D01*
X148221156Y-144700500D01*
X148221158Y-144700500D01*
X148378844Y-144700500D01*
X148378845Y-144700499D01*
X148533497Y-144669737D01*
X148651592Y-144620821D01*
X148679172Y-144609397D01*
X148679172Y-144609396D01*
X148679179Y-144609394D01*
X148810289Y-144521789D01*
X148921789Y-144410289D01*
X149009394Y-144279179D01*
X149069737Y-144133497D01*
X149100500Y-143978842D01*
X149100500Y-143821158D01*
X149100500Y-143821155D01*
X149100499Y-143821153D01*
X149080543Y-143720827D01*
X149069737Y-143666503D01*
X149051215Y-143621786D01*
X149009397Y-143520827D01*
X149009390Y-143520814D01*
X148921789Y-143389711D01*
X148921786Y-143389707D01*
X148810292Y-143278213D01*
X148810288Y-143278210D01*
X148679185Y-143190609D01*
X148679172Y-143190602D01*
X148533501Y-143130264D01*
X148533489Y-143130261D01*
X148378845Y-143099500D01*
X148378842Y-143099500D01*
X148221158Y-143099500D01*
X148221155Y-143099500D01*
X148066510Y-143130261D01*
X148066498Y-143130264D01*
X147920827Y-143190602D01*
X147920814Y-143190609D01*
X147789711Y-143278210D01*
X147789707Y-143278213D01*
X147678213Y-143389707D01*
X147678210Y-143389711D01*
X147590609Y-143520814D01*
X147590602Y-143520827D01*
X147530264Y-143666498D01*
X147530261Y-143666510D01*
X147499500Y-143821153D01*
X135850953Y-143821153D01*
X135809397Y-143720827D01*
X135809390Y-143720814D01*
X135721789Y-143589711D01*
X135721786Y-143589707D01*
X135610292Y-143478213D01*
X135610288Y-143478210D01*
X135479185Y-143390609D01*
X135479172Y-143390602D01*
X135333501Y-143330264D01*
X135333489Y-143330261D01*
X135178845Y-143299500D01*
X135178842Y-143299500D01*
X135021158Y-143299500D01*
X135021155Y-143299500D01*
X134866510Y-143330261D01*
X134866498Y-143330264D01*
X134720827Y-143390602D01*
X134720814Y-143390609D01*
X134589711Y-143478210D01*
X134589707Y-143478213D01*
X134478213Y-143589707D01*
X134478210Y-143589711D01*
X134390609Y-143720814D01*
X134390602Y-143720827D01*
X134330264Y-143866498D01*
X134330261Y-143866510D01*
X134299500Y-144021153D01*
X108450790Y-144021153D01*
X108479179Y-144009394D01*
X108610289Y-143921789D01*
X108721789Y-143810289D01*
X108809394Y-143679179D01*
X108869737Y-143533497D01*
X108900500Y-143378842D01*
X108900500Y-143221158D01*
X108900500Y-143221155D01*
X108900499Y-143221153D01*
X108892226Y-143179561D01*
X108869737Y-143066503D01*
X108846452Y-143010288D01*
X108809397Y-142920827D01*
X108809390Y-142920814D01*
X108721789Y-142789711D01*
X108721786Y-142789707D01*
X108610292Y-142678213D01*
X108610288Y-142678210D01*
X108479185Y-142590609D01*
X108479172Y-142590602D01*
X108333501Y-142530264D01*
X108333489Y-142530261D01*
X108178845Y-142499500D01*
X108178842Y-142499500D01*
X108021158Y-142499500D01*
X108021155Y-142499500D01*
X107866510Y-142530261D01*
X107866498Y-142530264D01*
X107720827Y-142590602D01*
X107720814Y-142590609D01*
X107589711Y-142678210D01*
X107589707Y-142678213D01*
X107478213Y-142789707D01*
X107478210Y-142789711D01*
X107390609Y-142920814D01*
X107390602Y-142920827D01*
X107330264Y-143066498D01*
X107330261Y-143066510D01*
X107299500Y-143221153D01*
X67500500Y-143221153D01*
X67500500Y-141121155D01*
X74799498Y-141121155D01*
X74799498Y-141278848D01*
X74830259Y-141433491D01*
X74830262Y-141433503D01*
X74890600Y-141579174D01*
X74890607Y-141579187D01*
X74978208Y-141710290D01*
X74978211Y-141710294D01*
X75089705Y-141821788D01*
X75089709Y-141821791D01*
X75220812Y-141909392D01*
X75220825Y-141909399D01*
X75366491Y-141969735D01*
X75366501Y-141969739D01*
X75521141Y-142000499D01*
X75521151Y-142000501D01*
X75521154Y-142000502D01*
X75521156Y-142000502D01*
X75678842Y-142000502D01*
X75678843Y-142000501D01*
X75833495Y-141969739D01*
X75979177Y-141909396D01*
X76110287Y-141821791D01*
X76221787Y-141710291D01*
X76309392Y-141579181D01*
X76369735Y-141433499D01*
X76400498Y-141278844D01*
X76400498Y-141121160D01*
X76400497Y-141121153D01*
X83999500Y-141121153D01*
X83999500Y-141278846D01*
X84030261Y-141433489D01*
X84030264Y-141433501D01*
X84090602Y-141579172D01*
X84090609Y-141579185D01*
X84178210Y-141710288D01*
X84178213Y-141710292D01*
X84289707Y-141821786D01*
X84289711Y-141821789D01*
X84420814Y-141909390D01*
X84420827Y-141909397D01*
X84566498Y-141969735D01*
X84566503Y-141969737D01*
X84721153Y-142000499D01*
X84721156Y-142000500D01*
X84721158Y-142000500D01*
X84878844Y-142000500D01*
X84878845Y-142000499D01*
X85033497Y-141969737D01*
X85179179Y-141909394D01*
X85310289Y-141821789D01*
X85421789Y-141710289D01*
X85509394Y-141579179D01*
X85569737Y-141433497D01*
X85592083Y-141321158D01*
X85592084Y-141321153D01*
X124999500Y-141321153D01*
X124999500Y-141478846D01*
X125030261Y-141633489D01*
X125030264Y-141633501D01*
X125090602Y-141779172D01*
X125090609Y-141779185D01*
X125178210Y-141910288D01*
X125178213Y-141910292D01*
X125289707Y-142021786D01*
X125289711Y-142021789D01*
X125420814Y-142109390D01*
X125420821Y-142109394D01*
X125497373Y-142141102D01*
X125551775Y-142184942D01*
X125573841Y-142251236D01*
X125556562Y-142318935D01*
X125518814Y-142358763D01*
X125489712Y-142378209D01*
X125489707Y-142378213D01*
X125378213Y-142489707D01*
X125378210Y-142489711D01*
X125290609Y-142620814D01*
X125290602Y-142620827D01*
X125230264Y-142766498D01*
X125230261Y-142766510D01*
X125199500Y-142921153D01*
X125199500Y-143078846D01*
X125230261Y-143233489D01*
X125230264Y-143233501D01*
X125290602Y-143379172D01*
X125290609Y-143379185D01*
X125378210Y-143510288D01*
X125378213Y-143510292D01*
X125489707Y-143621786D01*
X125489711Y-143621789D01*
X125620814Y-143709390D01*
X125620827Y-143709397D01*
X125766498Y-143769735D01*
X125766503Y-143769737D01*
X125921153Y-143800499D01*
X125921156Y-143800500D01*
X125921158Y-143800500D01*
X126078844Y-143800500D01*
X126078845Y-143800499D01*
X126233497Y-143769737D01*
X126351592Y-143720821D01*
X126379172Y-143709397D01*
X126379172Y-143709396D01*
X126379179Y-143709394D01*
X126510289Y-143621789D01*
X126621789Y-143510289D01*
X126709394Y-143379179D01*
X126769737Y-143233497D01*
X126800500Y-143078842D01*
X126800500Y-142921158D01*
X126800500Y-142921155D01*
X126800499Y-142921153D01*
X126774353Y-142789711D01*
X126769737Y-142766503D01*
X126756062Y-142733489D01*
X126709397Y-142620827D01*
X126709390Y-142620814D01*
X126621789Y-142489711D01*
X126621786Y-142489707D01*
X126510292Y-142378213D01*
X126510288Y-142378210D01*
X126379185Y-142290609D01*
X126379172Y-142290602D01*
X126302627Y-142258897D01*
X126248223Y-142215057D01*
X126226158Y-142148762D01*
X126243437Y-142081063D01*
X126281188Y-142041234D01*
X126290441Y-142035050D01*
X126310289Y-142021789D01*
X126421789Y-141910289D01*
X126509394Y-141779179D01*
X126569737Y-141633497D01*
X126572192Y-141621153D01*
X146499500Y-141621153D01*
X146499500Y-141778846D01*
X146530261Y-141933489D01*
X146530264Y-141933501D01*
X146590602Y-142079172D01*
X146590609Y-142079185D01*
X146678210Y-142210288D01*
X146678213Y-142210292D01*
X146789707Y-142321786D01*
X146789711Y-142321789D01*
X146920814Y-142409390D01*
X146920827Y-142409397D01*
X147066498Y-142469735D01*
X147066503Y-142469737D01*
X147216131Y-142499500D01*
X147221153Y-142500499D01*
X147221156Y-142500500D01*
X147221158Y-142500500D01*
X147378844Y-142500500D01*
X147378845Y-142500499D01*
X147533497Y-142469737D01*
X147650790Y-142421153D01*
X158399500Y-142421153D01*
X158399500Y-142578846D01*
X158430261Y-142733489D01*
X158430264Y-142733501D01*
X158490602Y-142879172D01*
X158490609Y-142879185D01*
X158578210Y-143010288D01*
X158578213Y-143010292D01*
X158689707Y-143121786D01*
X158689711Y-143121789D01*
X158820814Y-143209390D01*
X158820827Y-143209397D01*
X158942225Y-143259681D01*
X158966503Y-143269737D01*
X159116131Y-143299500D01*
X159121153Y-143300499D01*
X159121156Y-143300500D01*
X159121158Y-143300500D01*
X159278844Y-143300500D01*
X159278845Y-143300499D01*
X159433497Y-143269737D01*
X159550790Y-143221153D01*
X172299500Y-143221153D01*
X172299500Y-143378846D01*
X172330261Y-143533489D01*
X172330264Y-143533501D01*
X172390602Y-143679172D01*
X172390609Y-143679185D01*
X172478210Y-143810288D01*
X172478213Y-143810292D01*
X172589707Y-143921786D01*
X172589711Y-143921789D01*
X172699848Y-143995381D01*
X172699850Y-143995382D01*
X172720821Y-144009394D01*
X172866503Y-144069737D01*
X172973445Y-144091009D01*
X173021155Y-144100500D01*
X173021158Y-144100500D01*
X173178844Y-144100500D01*
X173178845Y-144100499D01*
X173333497Y-144069737D01*
X173479179Y-144009394D01*
X173610289Y-143921789D01*
X173721789Y-143810289D01*
X173809394Y-143679179D01*
X173869737Y-143533497D01*
X173900500Y-143378842D01*
X173900500Y-143221158D01*
X173900500Y-143221155D01*
X173900499Y-143221153D01*
X173892226Y-143179561D01*
X173869737Y-143066503D01*
X173846452Y-143010288D01*
X173809397Y-142920827D01*
X173809390Y-142920814D01*
X173721789Y-142789711D01*
X173721786Y-142789707D01*
X173610292Y-142678213D01*
X173610288Y-142678210D01*
X173479185Y-142590609D01*
X173479172Y-142590602D01*
X173333501Y-142530264D01*
X173333489Y-142530261D01*
X173178845Y-142499500D01*
X173178842Y-142499500D01*
X173021158Y-142499500D01*
X173021155Y-142499500D01*
X172866510Y-142530261D01*
X172866498Y-142530264D01*
X172720827Y-142590602D01*
X172720814Y-142590609D01*
X172589711Y-142678210D01*
X172589707Y-142678213D01*
X172478213Y-142789707D01*
X172478210Y-142789711D01*
X172390609Y-142920814D01*
X172390602Y-142920827D01*
X172330264Y-143066498D01*
X172330261Y-143066510D01*
X172299500Y-143221153D01*
X159550790Y-143221153D01*
X159579179Y-143209394D01*
X159710289Y-143121789D01*
X159821789Y-143010289D01*
X159909394Y-142879179D01*
X159969737Y-142733497D01*
X160000500Y-142578842D01*
X160000500Y-142421158D01*
X160000500Y-142421155D01*
X160000499Y-142421153D01*
X159990168Y-142369217D01*
X159969737Y-142266503D01*
X159929656Y-142169737D01*
X159909397Y-142120827D01*
X159909390Y-142120814D01*
X159821789Y-141989711D01*
X159821786Y-141989707D01*
X159710292Y-141878213D01*
X159710288Y-141878210D01*
X159579185Y-141790609D01*
X159579172Y-141790602D01*
X159458915Y-141740791D01*
X159433501Y-141730264D01*
X159433489Y-141730261D01*
X159278845Y-141699500D01*
X159278842Y-141699500D01*
X159121158Y-141699500D01*
X159121155Y-141699500D01*
X158966510Y-141730261D01*
X158966498Y-141730264D01*
X158820827Y-141790602D01*
X158820814Y-141790609D01*
X158689711Y-141878210D01*
X158689707Y-141878213D01*
X158578213Y-141989707D01*
X158578210Y-141989711D01*
X158490609Y-142120814D01*
X158490602Y-142120827D01*
X158430264Y-142266498D01*
X158430261Y-142266510D01*
X158399500Y-142421153D01*
X147650790Y-142421153D01*
X147679179Y-142409394D01*
X147810289Y-142321789D01*
X147921789Y-142210289D01*
X148009394Y-142079179D01*
X148069737Y-141933497D01*
X148100500Y-141778842D01*
X148100500Y-141632317D01*
X177584198Y-141632317D01*
X177584198Y-142946082D01*
X177622464Y-143138456D01*
X177622466Y-143138464D01*
X177697530Y-143319684D01*
X177697535Y-143319694D01*
X177806509Y-143482784D01*
X177806512Y-143482788D01*
X177945209Y-143621485D01*
X177945213Y-143621488D01*
X178108303Y-143730462D01*
X178108307Y-143730464D01*
X178108310Y-143730466D01*
X178289534Y-143805532D01*
X178481915Y-143843799D01*
X178481918Y-143843800D01*
X178481920Y-143843800D01*
X178678078Y-143843800D01*
X178678079Y-143843799D01*
X178870462Y-143805532D01*
X179051686Y-143730466D01*
X179214783Y-143621488D01*
X179353486Y-143482785D01*
X179462464Y-143319688D01*
X179520507Y-143179558D01*
X179537135Y-143158924D01*
X179550687Y-143136151D01*
X179558714Y-143132145D01*
X179564346Y-143125157D01*
X179589494Y-143116786D01*
X179613206Y-143104955D01*
X179622126Y-143105925D01*
X179630640Y-143103092D01*
X179656315Y-143109645D01*
X179682666Y-143112512D01*
X179691988Y-143118749D01*
X179698340Y-143120371D01*
X179712996Y-143130561D01*
X179718104Y-143134688D01*
X179733265Y-143149849D01*
X179745890Y-143157137D01*
X179753429Y-143163229D01*
X179768020Y-143184301D01*
X179785714Y-143202857D01*
X179788327Y-143213629D01*
X179793204Y-143220672D01*
X179793728Y-143235890D01*
X179799500Y-143259681D01*
X179799500Y-143378846D01*
X179830261Y-143533489D01*
X179830264Y-143533501D01*
X179890602Y-143679172D01*
X179890609Y-143679185D01*
X179978210Y-143810288D01*
X179978213Y-143810292D01*
X180089707Y-143921786D01*
X180089711Y-143921789D01*
X180220814Y-144009390D01*
X180220827Y-144009397D01*
X180358695Y-144066503D01*
X180366503Y-144069737D01*
X180521153Y-144100499D01*
X180521156Y-144100500D01*
X180521158Y-144100500D01*
X180678844Y-144100500D01*
X180678845Y-144100499D01*
X180833497Y-144069737D01*
X180979179Y-144009394D01*
X181110289Y-143921789D01*
X181221789Y-143810289D01*
X181309394Y-143679179D01*
X181369737Y-143533497D01*
X181400500Y-143378842D01*
X181400500Y-143221158D01*
X181400500Y-143221155D01*
X181400499Y-143221153D01*
X183899500Y-143221153D01*
X183899500Y-143378846D01*
X183930261Y-143533489D01*
X183930264Y-143533501D01*
X183990602Y-143679172D01*
X183990609Y-143679185D01*
X184078210Y-143810288D01*
X184078213Y-143810292D01*
X184189707Y-143921786D01*
X184189711Y-143921789D01*
X184320814Y-144009390D01*
X184320827Y-144009397D01*
X184458695Y-144066503D01*
X184466503Y-144069737D01*
X184621153Y-144100499D01*
X184621156Y-144100500D01*
X184621158Y-144100500D01*
X184778844Y-144100500D01*
X184778845Y-144100499D01*
X184789179Y-144098443D01*
X184814287Y-144093450D01*
X184814292Y-144093449D01*
X184905319Y-144075342D01*
X184933497Y-144069737D01*
X185079179Y-144009394D01*
X185210289Y-143921789D01*
X185321789Y-143810289D01*
X185409394Y-143679179D01*
X185469737Y-143533497D01*
X185500500Y-143378842D01*
X185500500Y-143339826D01*
X185520185Y-143272787D01*
X185572989Y-143227032D01*
X185642147Y-143217088D01*
X185656579Y-143220047D01*
X185730663Y-143239899D01*
X185730666Y-143239899D01*
X185849332Y-143239899D01*
X185849335Y-143239899D01*
X185963963Y-143209184D01*
X186066735Y-143149849D01*
X186077252Y-143139331D01*
X186138570Y-143105848D01*
X186208262Y-143110830D01*
X186264197Y-143152700D01*
X186279491Y-143179557D01*
X186291852Y-143209397D01*
X186337534Y-143319685D01*
X186337539Y-143319694D01*
X186446513Y-143482784D01*
X186446516Y-143482788D01*
X186585213Y-143621485D01*
X186585217Y-143621488D01*
X186748307Y-143730462D01*
X186748311Y-143730464D01*
X186748314Y-143730466D01*
X186929538Y-143805532D01*
X187121919Y-143843799D01*
X187121922Y-143843800D01*
X187121924Y-143843800D01*
X187318082Y-143843800D01*
X187318083Y-143843799D01*
X187510466Y-143805532D01*
X187691690Y-143730466D01*
X187854787Y-143621488D01*
X187993490Y-143482785D01*
X188102468Y-143319688D01*
X188177534Y-143138464D01*
X188215802Y-142946078D01*
X188215802Y-141632322D01*
X188215802Y-141632319D01*
X188215801Y-141632317D01*
X188205232Y-141579185D01*
X188177534Y-141439936D01*
X188102468Y-141258712D01*
X188102466Y-141258709D01*
X188102464Y-141258705D01*
X187993490Y-141095615D01*
X187993487Y-141095611D01*
X187854790Y-140956914D01*
X187854786Y-140956911D01*
X187691696Y-140847937D01*
X187691686Y-140847932D01*
X187510466Y-140772868D01*
X187510458Y-140772866D01*
X187318083Y-140734600D01*
X187318080Y-140734600D01*
X187121924Y-140734600D01*
X187121921Y-140734600D01*
X186929545Y-140772866D01*
X186929537Y-140772868D01*
X186748317Y-140847932D01*
X186748307Y-140847937D01*
X186585217Y-140956911D01*
X186585213Y-140956914D01*
X186446516Y-141095611D01*
X186446513Y-141095615D01*
X186337539Y-141258705D01*
X186337534Y-141258715D01*
X186262470Y-141439935D01*
X186262468Y-141439943D01*
X186224202Y-141632317D01*
X186224202Y-142304688D01*
X186204517Y-142371727D01*
X186151713Y-142417482D01*
X186082555Y-142427426D01*
X186038203Y-142412076D01*
X185963963Y-142369214D01*
X185963964Y-142369214D01*
X185924960Y-142358763D01*
X185849335Y-142338499D01*
X185730663Y-142338499D01*
X185661886Y-142356928D01*
X185616033Y-142369214D01*
X185616028Y-142369217D01*
X185513269Y-142428544D01*
X185513261Y-142428550D01*
X185429350Y-142512461D01*
X185429344Y-142512469D01*
X185365950Y-142622273D01*
X185363077Y-142620614D01*
X185328874Y-142663004D01*
X185262566Y-142685027D01*
X185194878Y-142667705D01*
X185189328Y-142664205D01*
X185079185Y-142590609D01*
X185079172Y-142590602D01*
X184933501Y-142530264D01*
X184933489Y-142530261D01*
X184778845Y-142499500D01*
X184778842Y-142499500D01*
X184621158Y-142499500D01*
X184621155Y-142499500D01*
X184466510Y-142530261D01*
X184466498Y-142530264D01*
X184320827Y-142590602D01*
X184320814Y-142590609D01*
X184189711Y-142678210D01*
X184189707Y-142678213D01*
X184078213Y-142789707D01*
X184078210Y-142789711D01*
X183990609Y-142920814D01*
X183990602Y-142920827D01*
X183930264Y-143066498D01*
X183930261Y-143066510D01*
X183899500Y-143221153D01*
X181400499Y-143221153D01*
X181392226Y-143179561D01*
X181369737Y-143066503D01*
X181346452Y-143010288D01*
X181309397Y-142920827D01*
X181309390Y-142920814D01*
X181221789Y-142789711D01*
X181221786Y-142789707D01*
X181110292Y-142678213D01*
X181110288Y-142678210D01*
X180979185Y-142590609D01*
X180979172Y-142590602D01*
X180833501Y-142530264D01*
X180833489Y-142530261D01*
X180678845Y-142499500D01*
X180678842Y-142499500D01*
X180521158Y-142499500D01*
X180449814Y-142513691D01*
X180380223Y-142507463D01*
X180337944Y-142479755D01*
X180286738Y-142428550D01*
X180286730Y-142428544D01*
X180183971Y-142369217D01*
X180183966Y-142369214D01*
X180144962Y-142358763D01*
X180069337Y-142338499D01*
X179950665Y-142338499D01*
X179875040Y-142358763D01*
X179836036Y-142369214D01*
X179761797Y-142412076D01*
X179693897Y-142428548D01*
X179627870Y-142405695D01*
X179584680Y-142350773D01*
X179575798Y-142304688D01*
X179575798Y-141632319D01*
X179575797Y-141632317D01*
X179565228Y-141579185D01*
X179537530Y-141439936D01*
X179462464Y-141258712D01*
X179462462Y-141258709D01*
X179462460Y-141258705D01*
X179353486Y-141095615D01*
X179353483Y-141095611D01*
X179214786Y-140956914D01*
X179214782Y-140956911D01*
X179051692Y-140847937D01*
X179051682Y-140847932D01*
X178870462Y-140772868D01*
X178870454Y-140772866D01*
X178678079Y-140734600D01*
X178678076Y-140734600D01*
X178481920Y-140734600D01*
X178481917Y-140734600D01*
X178289541Y-140772866D01*
X178289533Y-140772868D01*
X178108313Y-140847932D01*
X178108303Y-140847937D01*
X177945213Y-140956911D01*
X177945209Y-140956914D01*
X177806512Y-141095611D01*
X177806509Y-141095615D01*
X177697535Y-141258705D01*
X177697530Y-141258715D01*
X177622466Y-141439935D01*
X177622464Y-141439943D01*
X177584198Y-141632317D01*
X148100500Y-141632317D01*
X148100500Y-141621158D01*
X148100500Y-141621155D01*
X148100499Y-141621153D01*
X148072192Y-141478846D01*
X148069737Y-141466503D01*
X148056067Y-141433501D01*
X148009397Y-141320827D01*
X148009390Y-141320814D01*
X147921789Y-141189711D01*
X147921786Y-141189707D01*
X147810292Y-141078213D01*
X147810288Y-141078210D01*
X147679185Y-140990609D01*
X147679172Y-140990602D01*
X147533501Y-140930264D01*
X147533489Y-140930261D01*
X147378845Y-140899500D01*
X147378842Y-140899500D01*
X147221158Y-140899500D01*
X147221155Y-140899500D01*
X147066510Y-140930261D01*
X147066498Y-140930264D01*
X146920827Y-140990602D01*
X146920814Y-140990609D01*
X146789711Y-141078210D01*
X146789707Y-141078213D01*
X146678213Y-141189707D01*
X146678210Y-141189711D01*
X146590609Y-141320814D01*
X146590602Y-141320827D01*
X146530264Y-141466498D01*
X146530261Y-141466510D01*
X146499500Y-141621153D01*
X126572192Y-141621153D01*
X126578216Y-141590874D01*
X126578216Y-141590873D01*
X126600499Y-141478846D01*
X126600500Y-141478844D01*
X126600500Y-141321155D01*
X126600499Y-141321153D01*
X126592084Y-141278848D01*
X126569737Y-141166503D01*
X126569735Y-141166498D01*
X126509397Y-141020827D01*
X126509390Y-141020814D01*
X126421789Y-140889711D01*
X126421786Y-140889707D01*
X126310292Y-140778213D01*
X126310288Y-140778210D01*
X126179185Y-140690609D01*
X126179172Y-140690602D01*
X126033501Y-140630264D01*
X126033489Y-140630261D01*
X125878845Y-140599500D01*
X125878842Y-140599500D01*
X125721158Y-140599500D01*
X125721155Y-140599500D01*
X125566510Y-140630261D01*
X125566498Y-140630264D01*
X125420827Y-140690602D01*
X125420814Y-140690609D01*
X125289711Y-140778210D01*
X125289707Y-140778213D01*
X125178213Y-140889707D01*
X125178210Y-140889711D01*
X125090609Y-141020814D01*
X125090602Y-141020827D01*
X125030264Y-141166498D01*
X125030261Y-141166510D01*
X124999500Y-141321153D01*
X85592084Y-141321153D01*
X85598107Y-141290875D01*
X85598107Y-141290874D01*
X85600500Y-141278844D01*
X85600500Y-141121155D01*
X85600499Y-141121153D01*
X85580543Y-141020827D01*
X85569737Y-140966503D01*
X85565764Y-140956911D01*
X85509397Y-140820827D01*
X85509390Y-140820814D01*
X85421789Y-140689711D01*
X85421786Y-140689707D01*
X85310292Y-140578213D01*
X85310288Y-140578210D01*
X85179185Y-140490609D01*
X85179172Y-140490602D01*
X85033501Y-140430264D01*
X85033489Y-140430261D01*
X84878845Y-140399500D01*
X84878842Y-140399500D01*
X84721158Y-140399500D01*
X84721155Y-140399500D01*
X84566510Y-140430261D01*
X84566498Y-140430264D01*
X84420827Y-140490602D01*
X84420814Y-140490609D01*
X84289711Y-140578210D01*
X84289707Y-140578213D01*
X84178213Y-140689707D01*
X84178210Y-140689711D01*
X84090609Y-140820814D01*
X84090602Y-140820827D01*
X84030264Y-140966498D01*
X84030261Y-140966510D01*
X83999500Y-141121153D01*
X76400497Y-141121153D01*
X76369735Y-140966505D01*
X76365762Y-140956914D01*
X76309395Y-140820829D01*
X76309388Y-140820816D01*
X76221787Y-140689713D01*
X76221784Y-140689709D01*
X76110290Y-140578215D01*
X76110286Y-140578212D01*
X75979183Y-140490611D01*
X75979170Y-140490604D01*
X75833499Y-140430266D01*
X75833487Y-140430263D01*
X75678843Y-140399502D01*
X75678840Y-140399502D01*
X75521156Y-140399502D01*
X75521153Y-140399502D01*
X75366508Y-140430263D01*
X75366496Y-140430266D01*
X75220825Y-140490604D01*
X75220812Y-140490611D01*
X75089709Y-140578212D01*
X75089705Y-140578215D01*
X74978211Y-140689709D01*
X74978208Y-140689713D01*
X74890607Y-140820816D01*
X74890600Y-140820829D01*
X74830262Y-140966500D01*
X74830259Y-140966512D01*
X74799498Y-141121155D01*
X67500500Y-141121155D01*
X67500500Y-139421153D01*
X77899500Y-139421153D01*
X77899500Y-139578846D01*
X77930261Y-139733489D01*
X77930264Y-139733501D01*
X77990602Y-139879172D01*
X77990609Y-139879185D01*
X78078210Y-140010288D01*
X78078213Y-140010292D01*
X78189707Y-140121786D01*
X78189711Y-140121789D01*
X78320814Y-140209390D01*
X78320827Y-140209397D01*
X78466498Y-140269735D01*
X78466503Y-140269737D01*
X78621153Y-140300499D01*
X78621156Y-140300500D01*
X78621158Y-140300500D01*
X78778844Y-140300500D01*
X78778845Y-140300499D01*
X78933497Y-140269737D01*
X79079179Y-140209394D01*
X79210289Y-140121789D01*
X79321789Y-140010289D01*
X79409394Y-139879179D01*
X79412854Y-139870827D01*
X79423067Y-139846166D01*
X79469737Y-139733497D01*
X79500500Y-139578842D01*
X79500500Y-139421158D01*
X79500500Y-139421155D01*
X79500499Y-139421153D01*
X79492148Y-139379172D01*
X79469737Y-139266503D01*
X79450955Y-139221158D01*
X79409397Y-139120827D01*
X79409390Y-139120814D01*
X79384763Y-139083957D01*
X79342798Y-139021153D01*
X105287000Y-139021153D01*
X105287000Y-139178846D01*
X105317761Y-139333489D01*
X105317764Y-139333501D01*
X105378102Y-139479172D01*
X105378109Y-139479185D01*
X105465710Y-139610288D01*
X105465713Y-139610292D01*
X105577207Y-139721786D01*
X105577211Y-139721789D01*
X105708314Y-139809390D01*
X105708327Y-139809397D01*
X105846183Y-139866498D01*
X105854003Y-139869737D01*
X106008653Y-139900499D01*
X106008656Y-139900500D01*
X106008658Y-139900500D01*
X106166344Y-139900500D01*
X106166345Y-139900499D01*
X106320997Y-139869737D01*
X106466679Y-139809394D01*
X106597789Y-139721789D01*
X106709289Y-139610289D01*
X106796894Y-139479179D01*
X106857237Y-139333497D01*
X106888000Y-139178842D01*
X106888000Y-139021158D01*
X106888000Y-139021155D01*
X106887999Y-139021153D01*
X128699500Y-139021153D01*
X128699500Y-139178846D01*
X128730261Y-139333489D01*
X128730264Y-139333501D01*
X128790602Y-139479172D01*
X128790609Y-139479185D01*
X128878210Y-139610288D01*
X128878213Y-139610292D01*
X128888064Y-139620143D01*
X128921549Y-139681466D01*
X128916565Y-139751158D01*
X128903485Y-139776715D01*
X128840609Y-139870814D01*
X128840602Y-139870827D01*
X128780264Y-140016498D01*
X128780261Y-140016510D01*
X128749500Y-140171153D01*
X128749500Y-140328846D01*
X128780261Y-140483489D01*
X128780264Y-140483501D01*
X128840602Y-140629172D01*
X128840609Y-140629185D01*
X128928210Y-140760288D01*
X128928213Y-140760292D01*
X129039707Y-140871786D01*
X129039711Y-140871789D01*
X129170814Y-140959390D01*
X129170827Y-140959397D01*
X129246181Y-140990609D01*
X129316503Y-141019737D01*
X129471153Y-141050499D01*
X129471156Y-141050500D01*
X129471158Y-141050500D01*
X129628844Y-141050500D01*
X129628845Y-141050499D01*
X129783497Y-141019737D01*
X129896166Y-140973067D01*
X129929172Y-140959397D01*
X129929172Y-140959396D01*
X129929179Y-140959394D01*
X130060289Y-140871789D01*
X130171789Y-140760289D01*
X130259394Y-140629179D01*
X130319737Y-140483497D01*
X130350500Y-140328842D01*
X130350500Y-140171158D01*
X130350500Y-140171155D01*
X130350499Y-140171153D01*
X130319737Y-140016503D01*
X130314426Y-140003680D01*
X130259397Y-139870827D01*
X130259390Y-139870814D01*
X130226207Y-139821153D01*
X182099500Y-139821153D01*
X182099500Y-139978846D01*
X182130261Y-140133489D01*
X182130264Y-140133501D01*
X182190602Y-140279172D01*
X182190609Y-140279185D01*
X182278210Y-140410288D01*
X182278213Y-140410292D01*
X182389707Y-140521786D01*
X182389711Y-140521789D01*
X182520814Y-140609390D01*
X182520827Y-140609397D01*
X182666498Y-140669735D01*
X182666503Y-140669737D01*
X182821153Y-140700499D01*
X182821156Y-140700500D01*
X182821158Y-140700500D01*
X182978844Y-140700500D01*
X182978845Y-140700499D01*
X183133497Y-140669737D01*
X183279179Y-140609394D01*
X183410289Y-140521789D01*
X183521789Y-140410289D01*
X183609394Y-140279179D01*
X183669737Y-140133497D01*
X183692083Y-140021158D01*
X183692084Y-140021153D01*
X198099500Y-140021153D01*
X198099500Y-140178846D01*
X198130261Y-140333489D01*
X198130264Y-140333501D01*
X198190602Y-140479172D01*
X198190609Y-140479185D01*
X198278210Y-140610288D01*
X198278213Y-140610292D01*
X198389707Y-140721786D01*
X198389711Y-140721789D01*
X198520814Y-140809390D01*
X198520827Y-140809397D01*
X198666498Y-140869735D01*
X198666503Y-140869737D01*
X198816131Y-140899500D01*
X198821153Y-140900499D01*
X198821156Y-140900500D01*
X198821158Y-140900500D01*
X198978844Y-140900500D01*
X198978845Y-140900499D01*
X199133497Y-140869737D01*
X199251604Y-140820816D01*
X199279172Y-140809397D01*
X199279172Y-140809396D01*
X199279179Y-140809394D01*
X199410289Y-140721789D01*
X199521789Y-140610289D01*
X199609394Y-140479179D01*
X199669737Y-140333497D01*
X199700500Y-140178842D01*
X199700500Y-140021158D01*
X199700500Y-140021155D01*
X199700499Y-140021153D01*
X199695213Y-139994578D01*
X199669737Y-139866503D01*
X199642398Y-139800500D01*
X199609397Y-139720827D01*
X199609390Y-139720814D01*
X199521789Y-139589711D01*
X199521786Y-139589707D01*
X199410292Y-139478213D01*
X199410288Y-139478210D01*
X199279185Y-139390609D01*
X199279172Y-139390602D01*
X199133501Y-139330264D01*
X199133489Y-139330261D01*
X198978845Y-139299500D01*
X198978842Y-139299500D01*
X198821158Y-139299500D01*
X198821155Y-139299500D01*
X198666510Y-139330261D01*
X198666498Y-139330264D01*
X198520827Y-139390602D01*
X198520814Y-139390609D01*
X198389711Y-139478210D01*
X198389707Y-139478213D01*
X198278213Y-139589707D01*
X198278210Y-139589711D01*
X198190609Y-139720814D01*
X198190602Y-139720827D01*
X198130264Y-139866498D01*
X198130261Y-139866510D01*
X198099500Y-140021153D01*
X183692084Y-140021153D01*
X183695560Y-140003680D01*
X183697796Y-139999404D01*
X183697730Y-139994578D01*
X183713838Y-139968736D01*
X183727945Y-139941769D01*
X183732840Y-139938254D01*
X183734691Y-139935285D01*
X183752768Y-139923945D01*
X183764117Y-139915797D01*
X183766889Y-139914484D01*
X183779179Y-139909394D01*
X183910289Y-139821789D01*
X184021789Y-139710289D01*
X184109394Y-139579179D01*
X184169737Y-139433497D01*
X184200500Y-139278842D01*
X184200500Y-139121158D01*
X184200500Y-139121155D01*
X184200499Y-139121153D01*
X184193100Y-139083957D01*
X184169737Y-138966503D01*
X184150955Y-138921158D01*
X184109397Y-138820827D01*
X184109390Y-138820814D01*
X184084763Y-138783957D01*
X184042798Y-138721153D01*
X193099500Y-138721153D01*
X193099500Y-138878846D01*
X193130261Y-139033489D01*
X193130264Y-139033501D01*
X193190602Y-139179172D01*
X193190609Y-139179185D01*
X193278210Y-139310288D01*
X193278213Y-139310292D01*
X193389707Y-139421786D01*
X193389711Y-139421789D01*
X193520814Y-139509390D01*
X193520827Y-139509397D01*
X193666498Y-139569735D01*
X193666503Y-139569737D01*
X193812818Y-139598841D01*
X193821153Y-139600499D01*
X193821156Y-139600500D01*
X193821158Y-139600500D01*
X193978844Y-139600500D01*
X193978845Y-139600499D01*
X194133497Y-139569737D01*
X194251592Y-139520821D01*
X194279172Y-139509397D01*
X194279172Y-139509396D01*
X194279179Y-139509394D01*
X194410289Y-139421789D01*
X194521789Y-139310289D01*
X194581348Y-139221153D01*
X234099500Y-139221153D01*
X234099500Y-139378846D01*
X234130261Y-139533489D01*
X234130264Y-139533501D01*
X234190602Y-139679172D01*
X234190609Y-139679185D01*
X234278210Y-139810288D01*
X234278213Y-139810292D01*
X234389707Y-139921786D01*
X234389711Y-139921789D01*
X234520814Y-140009390D01*
X234520827Y-140009397D01*
X234666498Y-140069735D01*
X234666503Y-140069737D01*
X234821153Y-140100499D01*
X234821156Y-140100500D01*
X234821158Y-140100500D01*
X234978844Y-140100500D01*
X234978845Y-140100499D01*
X235133497Y-140069737D01*
X235279179Y-140009394D01*
X235410289Y-139921789D01*
X235521789Y-139810289D01*
X235609394Y-139679179D01*
X235669737Y-139533497D01*
X235700500Y-139378842D01*
X235700500Y-139221158D01*
X235700500Y-139221155D01*
X235700499Y-139221153D01*
X235692148Y-139179172D01*
X235669737Y-139066503D01*
X235650955Y-139021158D01*
X235609397Y-138920827D01*
X235609390Y-138920814D01*
X235521789Y-138789711D01*
X235521786Y-138789707D01*
X235410292Y-138678213D01*
X235410288Y-138678210D01*
X235279185Y-138590609D01*
X235279172Y-138590602D01*
X235133501Y-138530264D01*
X235133489Y-138530261D01*
X234978845Y-138499500D01*
X234978842Y-138499500D01*
X234821158Y-138499500D01*
X234821155Y-138499500D01*
X234666510Y-138530261D01*
X234666498Y-138530264D01*
X234520827Y-138590602D01*
X234520814Y-138590609D01*
X234389711Y-138678210D01*
X234389707Y-138678213D01*
X234278213Y-138789707D01*
X234278210Y-138789711D01*
X234190609Y-138920814D01*
X234190602Y-138920827D01*
X234130264Y-139066498D01*
X234130261Y-139066510D01*
X234099500Y-139221153D01*
X194581348Y-139221153D01*
X194609394Y-139179179D01*
X194669737Y-139033497D01*
X194700500Y-138878842D01*
X194700500Y-138721158D01*
X194700500Y-138721155D01*
X194700499Y-138721153D01*
X194694244Y-138689707D01*
X194669737Y-138566503D01*
X194669735Y-138566498D01*
X194609397Y-138420827D01*
X194609390Y-138420814D01*
X194521789Y-138289711D01*
X194521786Y-138289707D01*
X194410292Y-138178213D01*
X194410288Y-138178210D01*
X194279185Y-138090609D01*
X194279172Y-138090602D01*
X194133501Y-138030264D01*
X194133489Y-138030261D01*
X193978845Y-137999500D01*
X193978842Y-137999500D01*
X193821158Y-137999500D01*
X193821155Y-137999500D01*
X193666510Y-138030261D01*
X193666498Y-138030264D01*
X193520827Y-138090602D01*
X193520814Y-138090609D01*
X193389711Y-138178210D01*
X193389707Y-138178213D01*
X193278213Y-138289707D01*
X193278210Y-138289711D01*
X193190609Y-138420814D01*
X193190602Y-138420827D01*
X193130264Y-138566498D01*
X193130261Y-138566510D01*
X193099500Y-138721153D01*
X184042798Y-138721153D01*
X184021789Y-138689711D01*
X184021786Y-138689707D01*
X183910292Y-138578213D01*
X183910288Y-138578210D01*
X183779185Y-138490609D01*
X183779172Y-138490602D01*
X183633501Y-138430264D01*
X183633489Y-138430261D01*
X183478845Y-138399500D01*
X183478842Y-138399500D01*
X183321158Y-138399500D01*
X183321155Y-138399500D01*
X183166510Y-138430261D01*
X183166498Y-138430264D01*
X183020827Y-138490602D01*
X183020814Y-138490609D01*
X182889711Y-138578210D01*
X182889707Y-138578213D01*
X182778213Y-138689707D01*
X182778210Y-138689711D01*
X182690609Y-138820814D01*
X182690602Y-138820827D01*
X182630264Y-138966498D01*
X182630261Y-138966508D01*
X182604440Y-139096320D01*
X182572055Y-139158231D01*
X182530278Y-139186688D01*
X182520826Y-139190603D01*
X182520814Y-139190609D01*
X182389711Y-139278210D01*
X182389707Y-139278213D01*
X182278213Y-139389707D01*
X182278210Y-139389711D01*
X182190609Y-139520814D01*
X182190602Y-139520827D01*
X182130264Y-139666498D01*
X182130261Y-139666510D01*
X182099500Y-139821153D01*
X130226207Y-139821153D01*
X130171789Y-139739711D01*
X130171786Y-139739707D01*
X130161935Y-139729856D01*
X130128450Y-139668533D01*
X130133434Y-139598841D01*
X130146512Y-139573287D01*
X130209394Y-139479179D01*
X130269737Y-139333497D01*
X130300500Y-139178842D01*
X130300500Y-139021158D01*
X130300500Y-139021155D01*
X130300499Y-139021153D01*
X130289627Y-138966498D01*
X130269737Y-138866503D01*
X130237929Y-138789711D01*
X130209397Y-138720827D01*
X130209390Y-138720814D01*
X130121790Y-138589712D01*
X130121784Y-138589705D01*
X130053232Y-138521153D01*
X142849500Y-138521153D01*
X142849500Y-138678846D01*
X142880261Y-138833489D01*
X142880264Y-138833501D01*
X142940602Y-138979172D01*
X142940609Y-138979185D01*
X143028210Y-139110288D01*
X143028213Y-139110292D01*
X143139707Y-139221786D01*
X143139711Y-139221789D01*
X143270814Y-139309390D01*
X143270827Y-139309397D01*
X143416498Y-139369735D01*
X143416503Y-139369737D01*
X143571153Y-139400499D01*
X143571156Y-139400500D01*
X143571158Y-139400500D01*
X143728844Y-139400500D01*
X143728845Y-139400499D01*
X143883497Y-139369737D01*
X144029179Y-139309394D01*
X144160289Y-139221789D01*
X144271789Y-139110289D01*
X144359394Y-138979179D01*
X144364642Y-138966510D01*
X144383429Y-138921153D01*
X149199500Y-138921153D01*
X149199500Y-139078846D01*
X149230261Y-139233489D01*
X149230264Y-139233501D01*
X149290602Y-139379172D01*
X149290609Y-139379185D01*
X149378210Y-139510288D01*
X149378213Y-139510292D01*
X149489707Y-139621786D01*
X149489711Y-139621789D01*
X149620814Y-139709390D01*
X149620827Y-139709397D01*
X149766498Y-139769735D01*
X149766503Y-139769737D01*
X149921153Y-139800499D01*
X149921156Y-139800500D01*
X149921158Y-139800500D01*
X150078844Y-139800500D01*
X150078845Y-139800499D01*
X150233497Y-139769737D01*
X150351592Y-139720821D01*
X150379172Y-139709397D01*
X150379172Y-139709396D01*
X150379179Y-139709394D01*
X150510289Y-139621789D01*
X150621789Y-139510289D01*
X150709394Y-139379179D01*
X150769737Y-139233497D01*
X150800500Y-139078842D01*
X150800500Y-138921158D01*
X150800500Y-138921155D01*
X150800499Y-138921153D01*
X150800432Y-138920814D01*
X150769737Y-138766503D01*
X150769735Y-138766498D01*
X150709397Y-138620827D01*
X150709390Y-138620814D01*
X150621789Y-138489711D01*
X150621786Y-138489707D01*
X150510292Y-138378213D01*
X150510288Y-138378210D01*
X150379185Y-138290609D01*
X150379172Y-138290602D01*
X150233501Y-138230264D01*
X150233489Y-138230261D01*
X150078845Y-138199500D01*
X150078842Y-138199500D01*
X149921158Y-138199500D01*
X149921155Y-138199500D01*
X149766510Y-138230261D01*
X149766498Y-138230264D01*
X149620827Y-138290602D01*
X149620814Y-138290609D01*
X149489711Y-138378210D01*
X149489707Y-138378213D01*
X149378213Y-138489707D01*
X149378210Y-138489711D01*
X149290609Y-138620814D01*
X149290602Y-138620827D01*
X149230264Y-138766498D01*
X149230261Y-138766510D01*
X149199500Y-138921153D01*
X144383429Y-138921153D01*
X144405603Y-138867621D01*
X144405605Y-138867614D01*
X144419737Y-138833497D01*
X144450500Y-138678842D01*
X144450500Y-138521158D01*
X144450500Y-138521155D01*
X144450499Y-138521153D01*
X144430543Y-138420827D01*
X144419737Y-138366503D01*
X144419735Y-138366498D01*
X144359397Y-138220827D01*
X144359390Y-138220814D01*
X144271789Y-138089711D01*
X144271786Y-138089707D01*
X144160292Y-137978213D01*
X144160288Y-137978210D01*
X144029185Y-137890609D01*
X144029172Y-137890602D01*
X143883501Y-137830264D01*
X143883489Y-137830261D01*
X143728845Y-137799500D01*
X143728842Y-137799500D01*
X143571158Y-137799500D01*
X143571155Y-137799500D01*
X143416510Y-137830261D01*
X143416498Y-137830264D01*
X143270827Y-137890602D01*
X143270814Y-137890609D01*
X143139711Y-137978210D01*
X143139707Y-137978213D01*
X143028213Y-138089707D01*
X143028210Y-138089711D01*
X142940609Y-138220814D01*
X142940602Y-138220827D01*
X142880264Y-138366498D01*
X142880261Y-138366510D01*
X142849500Y-138521153D01*
X130053232Y-138521153D01*
X130010292Y-138478213D01*
X130010288Y-138478210D01*
X129879185Y-138390609D01*
X129879172Y-138390602D01*
X129733501Y-138330264D01*
X129733489Y-138330261D01*
X129578845Y-138299500D01*
X129578842Y-138299500D01*
X129421158Y-138299500D01*
X129421155Y-138299500D01*
X129266510Y-138330261D01*
X129266498Y-138330264D01*
X129120827Y-138390602D01*
X129120814Y-138390609D01*
X128989711Y-138478210D01*
X128989707Y-138478213D01*
X128878213Y-138589707D01*
X128878210Y-138589711D01*
X128790609Y-138720814D01*
X128790602Y-138720827D01*
X128730264Y-138866498D01*
X128730261Y-138866510D01*
X128699500Y-139021153D01*
X106887999Y-139021153D01*
X106877127Y-138966498D01*
X106857237Y-138866503D01*
X106825429Y-138789711D01*
X106796897Y-138720827D01*
X106796890Y-138720814D01*
X106709289Y-138589711D01*
X106709286Y-138589707D01*
X106597792Y-138478213D01*
X106597788Y-138478210D01*
X106466685Y-138390609D01*
X106466672Y-138390602D01*
X106321001Y-138330264D01*
X106320989Y-138330261D01*
X106166345Y-138299500D01*
X106166342Y-138299500D01*
X106008658Y-138299500D01*
X106008655Y-138299500D01*
X105854010Y-138330261D01*
X105853998Y-138330264D01*
X105708327Y-138390602D01*
X105708314Y-138390609D01*
X105577211Y-138478210D01*
X105577207Y-138478213D01*
X105465713Y-138589707D01*
X105465710Y-138589711D01*
X105378109Y-138720814D01*
X105378102Y-138720827D01*
X105317764Y-138866498D01*
X105317761Y-138866510D01*
X105287000Y-139021153D01*
X79342798Y-139021153D01*
X79321789Y-138989711D01*
X79321786Y-138989707D01*
X79210292Y-138878213D01*
X79210288Y-138878210D01*
X79079185Y-138790609D01*
X79079172Y-138790602D01*
X78933501Y-138730264D01*
X78933489Y-138730261D01*
X78778845Y-138699500D01*
X78778842Y-138699500D01*
X78621158Y-138699500D01*
X78621155Y-138699500D01*
X78466510Y-138730261D01*
X78466498Y-138730264D01*
X78320827Y-138790602D01*
X78320814Y-138790609D01*
X78189711Y-138878210D01*
X78189707Y-138878213D01*
X78078213Y-138989707D01*
X78078210Y-138989711D01*
X77990609Y-139120814D01*
X77990602Y-139120827D01*
X77930264Y-139266498D01*
X77930261Y-139266510D01*
X77899500Y-139421153D01*
X67500500Y-139421153D01*
X67500500Y-136421153D01*
X107299500Y-136421153D01*
X107299500Y-136578846D01*
X107330261Y-136733489D01*
X107330264Y-136733501D01*
X107390602Y-136879172D01*
X107390609Y-136879185D01*
X107478210Y-137010288D01*
X107478213Y-137010292D01*
X107589707Y-137121786D01*
X107589711Y-137121789D01*
X107720814Y-137209390D01*
X107720827Y-137209397D01*
X107866498Y-137269735D01*
X107866503Y-137269737D01*
X108021153Y-137300499D01*
X108021156Y-137300500D01*
X108021158Y-137300500D01*
X108178844Y-137300500D01*
X108178845Y-137300499D01*
X108333497Y-137269737D01*
X108479179Y-137209394D01*
X108610289Y-137121789D01*
X108721789Y-137010289D01*
X108809394Y-136879179D01*
X108815389Y-136864707D01*
X108823067Y-136846166D01*
X108869737Y-136733497D01*
X108900500Y-136578842D01*
X108900500Y-136421158D01*
X108900500Y-136421155D01*
X108900499Y-136421153D01*
X108878447Y-136310292D01*
X108869737Y-136266503D01*
X108833569Y-136179185D01*
X108809397Y-136120827D01*
X108809390Y-136120814D01*
X108721790Y-135989712D01*
X108721784Y-135989705D01*
X108653232Y-135921153D01*
X146599500Y-135921153D01*
X146599500Y-136078846D01*
X146630261Y-136233489D01*
X146630264Y-136233501D01*
X146690602Y-136379172D01*
X146690609Y-136379185D01*
X146778210Y-136510288D01*
X146778213Y-136510292D01*
X146889707Y-136621786D01*
X146889711Y-136621789D01*
X147020814Y-136709390D01*
X147020827Y-136709397D01*
X147126603Y-136753210D01*
X147166503Y-136769737D01*
X147321153Y-136800499D01*
X147321156Y-136800500D01*
X147321158Y-136800500D01*
X147478844Y-136800500D01*
X147478845Y-136800499D01*
X147633497Y-136769737D01*
X147779179Y-136709394D01*
X147910289Y-136621789D01*
X148021789Y-136510289D01*
X148109394Y-136379179D01*
X148169737Y-136233497D01*
X148192083Y-136121158D01*
X148192084Y-136121153D01*
X149499500Y-136121153D01*
X149499500Y-136278846D01*
X149530261Y-136433489D01*
X149530264Y-136433501D01*
X149590602Y-136579172D01*
X149590609Y-136579185D01*
X149678210Y-136710288D01*
X149678213Y-136710292D01*
X149789707Y-136821786D01*
X149789711Y-136821789D01*
X149920814Y-136909390D01*
X149920827Y-136909397D01*
X150066498Y-136969735D01*
X150066503Y-136969737D01*
X150221153Y-137000499D01*
X150221156Y-137000500D01*
X150221158Y-137000500D01*
X150378844Y-137000500D01*
X150378845Y-137000499D01*
X150533497Y-136969737D01*
X150679179Y-136909394D01*
X150810289Y-136821789D01*
X150910925Y-136721153D01*
X156099500Y-136721153D01*
X156099500Y-136878846D01*
X156130261Y-137033489D01*
X156130264Y-137033501D01*
X156190602Y-137179172D01*
X156190609Y-137179185D01*
X156278210Y-137310288D01*
X156278213Y-137310292D01*
X156389707Y-137421786D01*
X156389711Y-137421789D01*
X156520814Y-137509390D01*
X156520827Y-137509397D01*
X156666498Y-137569735D01*
X156666503Y-137569737D01*
X156821153Y-137600499D01*
X156821156Y-137600500D01*
X156821158Y-137600500D01*
X156978844Y-137600500D01*
X156978845Y-137600499D01*
X157133497Y-137569737D01*
X157279179Y-137509394D01*
X157410289Y-137421789D01*
X157521789Y-137310289D01*
X157531234Y-137296153D01*
X160324500Y-137296153D01*
X160324500Y-137453846D01*
X160355261Y-137608489D01*
X160355264Y-137608501D01*
X160415602Y-137754172D01*
X160415609Y-137754185D01*
X160503210Y-137885288D01*
X160503213Y-137885292D01*
X160614707Y-137996786D01*
X160614711Y-137996789D01*
X160745814Y-138084390D01*
X160745827Y-138084397D01*
X160891498Y-138144735D01*
X160891503Y-138144737D01*
X161046153Y-138175499D01*
X161046156Y-138175500D01*
X161046158Y-138175500D01*
X161203844Y-138175500D01*
X161203845Y-138175499D01*
X161358497Y-138144737D01*
X161489182Y-138090606D01*
X161504172Y-138084397D01*
X161504172Y-138084396D01*
X161504179Y-138084394D01*
X161635289Y-137996789D01*
X161746789Y-137885289D01*
X161834394Y-137754179D01*
X161894737Y-137608497D01*
X161925500Y-137453842D01*
X161925500Y-137296158D01*
X161925500Y-137296155D01*
X161925499Y-137296153D01*
X161920245Y-137269738D01*
X161894737Y-137141503D01*
X161886570Y-137121786D01*
X161834397Y-136995827D01*
X161834390Y-136995814D01*
X161746789Y-136864711D01*
X161746786Y-136864707D01*
X161635292Y-136753213D01*
X161635288Y-136753210D01*
X161504185Y-136665609D01*
X161504172Y-136665602D01*
X161358501Y-136605264D01*
X161358489Y-136605261D01*
X161203845Y-136574500D01*
X161203842Y-136574500D01*
X161046158Y-136574500D01*
X161046155Y-136574500D01*
X160891510Y-136605261D01*
X160891498Y-136605264D01*
X160745827Y-136665602D01*
X160745814Y-136665609D01*
X160614711Y-136753210D01*
X160614707Y-136753213D01*
X160503213Y-136864707D01*
X160503210Y-136864711D01*
X160415609Y-136995814D01*
X160415602Y-136995827D01*
X160355264Y-137141498D01*
X160355261Y-137141510D01*
X160324500Y-137296153D01*
X157531234Y-137296153D01*
X157548886Y-137269735D01*
X157581334Y-137221175D01*
X157581335Y-137221173D01*
X157609387Y-137179190D01*
X157609390Y-137179185D01*
X157609394Y-137179179D01*
X157669737Y-137033497D01*
X157700500Y-136878842D01*
X157700500Y-136721158D01*
X157700500Y-136721155D01*
X157700499Y-136721153D01*
X157698159Y-136709390D01*
X157669737Y-136566503D01*
X157646080Y-136509390D01*
X157609397Y-136420827D01*
X157609390Y-136420814D01*
X157521789Y-136289711D01*
X157521786Y-136289707D01*
X157410292Y-136178213D01*
X157410288Y-136178210D01*
X157279185Y-136090609D01*
X157279172Y-136090602D01*
X157133501Y-136030264D01*
X157133489Y-136030261D01*
X156978845Y-135999500D01*
X156978842Y-135999500D01*
X156821158Y-135999500D01*
X156821155Y-135999500D01*
X156666510Y-136030261D01*
X156666498Y-136030264D01*
X156520827Y-136090602D01*
X156520814Y-136090609D01*
X156389711Y-136178210D01*
X156389707Y-136178213D01*
X156278213Y-136289707D01*
X156278210Y-136289711D01*
X156190609Y-136420814D01*
X156190602Y-136420827D01*
X156130264Y-136566498D01*
X156130261Y-136566510D01*
X156099500Y-136721153D01*
X150910925Y-136721153D01*
X150921789Y-136710289D01*
X150995149Y-136600499D01*
X151009390Y-136579185D01*
X151009390Y-136579184D01*
X151009394Y-136579179D01*
X151069737Y-136433497D01*
X151100500Y-136278842D01*
X151100500Y-136121158D01*
X151100500Y-136121155D01*
X151100499Y-136121153D01*
X151094422Y-136090602D01*
X151069737Y-135966503D01*
X151050955Y-135921158D01*
X151009397Y-135820827D01*
X151009390Y-135820814D01*
X150984763Y-135783957D01*
X150942798Y-135721153D01*
X198099500Y-135721153D01*
X198099500Y-135878846D01*
X198130261Y-136033489D01*
X198130264Y-136033501D01*
X198190602Y-136179172D01*
X198190609Y-136179185D01*
X198278210Y-136310288D01*
X198278213Y-136310292D01*
X198389707Y-136421786D01*
X198389711Y-136421789D01*
X198520814Y-136509390D01*
X198520827Y-136509397D01*
X198658683Y-136566498D01*
X198666503Y-136569737D01*
X198821153Y-136600499D01*
X198821156Y-136600500D01*
X198821158Y-136600500D01*
X198978844Y-136600500D01*
X198978845Y-136600499D01*
X199133497Y-136569737D01*
X199279179Y-136509394D01*
X199410289Y-136421789D01*
X199521789Y-136310289D01*
X199609394Y-136179179D01*
X199669737Y-136033497D01*
X199700500Y-135878842D01*
X199700500Y-135721158D01*
X199700500Y-135721155D01*
X199700499Y-135721153D01*
X199680543Y-135620827D01*
X199669737Y-135566503D01*
X199642398Y-135500500D01*
X199609397Y-135420827D01*
X199609390Y-135420814D01*
X199521789Y-135289711D01*
X199521786Y-135289707D01*
X199410292Y-135178213D01*
X199410288Y-135178210D01*
X199279185Y-135090609D01*
X199279172Y-135090602D01*
X199133501Y-135030264D01*
X199133489Y-135030261D01*
X198978845Y-134999500D01*
X198978842Y-134999500D01*
X198821158Y-134999500D01*
X198821155Y-134999500D01*
X198666510Y-135030261D01*
X198666498Y-135030264D01*
X198520827Y-135090602D01*
X198520814Y-135090609D01*
X198389711Y-135178210D01*
X198389707Y-135178213D01*
X198278213Y-135289707D01*
X198278210Y-135289711D01*
X198190609Y-135420814D01*
X198190602Y-135420827D01*
X198130264Y-135566498D01*
X198130261Y-135566510D01*
X198099500Y-135721153D01*
X150942798Y-135721153D01*
X150921789Y-135689711D01*
X150921786Y-135689707D01*
X150810292Y-135578213D01*
X150810288Y-135578210D01*
X150679185Y-135490609D01*
X150679172Y-135490602D01*
X150533501Y-135430264D01*
X150533489Y-135430261D01*
X150378845Y-135399500D01*
X150378842Y-135399500D01*
X150221158Y-135399500D01*
X150221155Y-135399500D01*
X150066510Y-135430261D01*
X150066498Y-135430264D01*
X149920827Y-135490602D01*
X149920814Y-135490609D01*
X149789711Y-135578210D01*
X149789707Y-135578213D01*
X149678213Y-135689707D01*
X149678210Y-135689711D01*
X149590609Y-135820814D01*
X149590602Y-135820827D01*
X149530264Y-135966498D01*
X149530261Y-135966510D01*
X149499500Y-136121153D01*
X148192084Y-136121153D01*
X148198107Y-136090875D01*
X148198107Y-136090874D01*
X148200500Y-136078844D01*
X148200500Y-135921155D01*
X148200499Y-135921153D01*
X148169737Y-135766503D01*
X148169735Y-135766498D01*
X148109397Y-135620827D01*
X148109390Y-135620814D01*
X148021789Y-135489711D01*
X148021786Y-135489707D01*
X147910292Y-135378213D01*
X147910288Y-135378210D01*
X147779185Y-135290609D01*
X147779172Y-135290602D01*
X147633501Y-135230264D01*
X147633489Y-135230261D01*
X147478845Y-135199500D01*
X147478842Y-135199500D01*
X147321158Y-135199500D01*
X147321155Y-135199500D01*
X147166510Y-135230261D01*
X147166498Y-135230264D01*
X147020827Y-135290602D01*
X147020814Y-135290609D01*
X146889711Y-135378210D01*
X146889707Y-135378213D01*
X146778213Y-135489707D01*
X146778210Y-135489711D01*
X146690609Y-135620814D01*
X146690602Y-135620827D01*
X146630264Y-135766498D01*
X146630261Y-135766510D01*
X146599500Y-135921153D01*
X108653232Y-135921153D01*
X108610292Y-135878213D01*
X108610288Y-135878210D01*
X108479185Y-135790609D01*
X108479172Y-135790602D01*
X108333501Y-135730264D01*
X108333489Y-135730261D01*
X108178845Y-135699500D01*
X108178842Y-135699500D01*
X108021158Y-135699500D01*
X108021155Y-135699500D01*
X107866510Y-135730261D01*
X107866498Y-135730264D01*
X107720827Y-135790602D01*
X107720814Y-135790609D01*
X107589711Y-135878210D01*
X107589707Y-135878213D01*
X107478213Y-135989707D01*
X107478210Y-135989711D01*
X107390609Y-136120814D01*
X107390602Y-136120827D01*
X107330264Y-136266498D01*
X107330261Y-136266510D01*
X107299500Y-136421153D01*
X67500500Y-136421153D01*
X67500500Y-134621153D01*
X152099500Y-134621153D01*
X152099500Y-134778846D01*
X152130261Y-134933489D01*
X152130264Y-134933501D01*
X152190602Y-135079172D01*
X152190609Y-135079185D01*
X152278210Y-135210288D01*
X152278213Y-135210292D01*
X152389707Y-135321786D01*
X152389711Y-135321789D01*
X152520814Y-135409390D01*
X152520827Y-135409397D01*
X152666498Y-135469735D01*
X152666503Y-135469737D01*
X152821153Y-135500499D01*
X152821156Y-135500500D01*
X152821158Y-135500500D01*
X152978844Y-135500500D01*
X152978845Y-135500499D01*
X153133497Y-135469737D01*
X153251592Y-135420821D01*
X153279172Y-135409397D01*
X153279172Y-135409396D01*
X153279179Y-135409394D01*
X153410289Y-135321789D01*
X153521789Y-135210289D01*
X153609394Y-135079179D01*
X153669737Y-134933497D01*
X153700500Y-134778842D01*
X153700500Y-134621158D01*
X153700500Y-134621155D01*
X153700499Y-134621153D01*
X153669738Y-134466510D01*
X153669737Y-134466503D01*
X153642398Y-134400500D01*
X153609397Y-134320827D01*
X153609390Y-134320814D01*
X153521789Y-134189711D01*
X153521786Y-134189707D01*
X153410292Y-134078213D01*
X153410288Y-134078210D01*
X153279185Y-133990609D01*
X153279172Y-133990602D01*
X153133501Y-133930264D01*
X153133489Y-133930261D01*
X152978845Y-133899500D01*
X152978842Y-133899500D01*
X152821158Y-133899500D01*
X152821155Y-133899500D01*
X152666510Y-133930261D01*
X152666498Y-133930264D01*
X152520827Y-133990602D01*
X152520814Y-133990609D01*
X152389711Y-134078210D01*
X152389707Y-134078213D01*
X152278213Y-134189707D01*
X152278210Y-134189711D01*
X152190609Y-134320814D01*
X152190602Y-134320827D01*
X152130264Y-134466498D01*
X152130261Y-134466510D01*
X152099500Y-134621153D01*
X67500500Y-134621153D01*
X67500500Y-133521153D01*
X75099500Y-133521153D01*
X75099500Y-133678846D01*
X75130261Y-133833489D01*
X75130264Y-133833501D01*
X75190602Y-133979172D01*
X75190609Y-133979185D01*
X75278210Y-134110288D01*
X75278213Y-134110292D01*
X75389707Y-134221786D01*
X75389711Y-134221789D01*
X75520814Y-134309390D01*
X75520827Y-134309397D01*
X75666498Y-134369735D01*
X75666503Y-134369737D01*
X75821153Y-134400499D01*
X75821156Y-134400500D01*
X75821158Y-134400500D01*
X75978844Y-134400500D01*
X75978845Y-134400499D01*
X76133497Y-134369737D01*
X76251592Y-134320821D01*
X76279172Y-134309397D01*
X76279172Y-134309396D01*
X76279179Y-134309394D01*
X76410289Y-134221789D01*
X76521789Y-134110289D01*
X76609394Y-133979179D01*
X76669737Y-133833497D01*
X76700500Y-133678842D01*
X76700500Y-133521158D01*
X76700500Y-133521155D01*
X76700499Y-133521153D01*
X76680734Y-133421789D01*
X76669737Y-133366503D01*
X76638570Y-133291258D01*
X76609397Y-133220827D01*
X76609390Y-133220814D01*
X76521789Y-133089711D01*
X76521786Y-133089707D01*
X76410292Y-132978213D01*
X76410288Y-132978210D01*
X76279185Y-132890609D01*
X76279172Y-132890602D01*
X76133501Y-132830264D01*
X76133489Y-132830261D01*
X75978845Y-132799500D01*
X75978842Y-132799500D01*
X75821158Y-132799500D01*
X75821155Y-132799500D01*
X75666510Y-132830261D01*
X75666498Y-132830264D01*
X75520827Y-132890602D01*
X75520814Y-132890609D01*
X75389711Y-132978210D01*
X75389707Y-132978213D01*
X75278213Y-133089707D01*
X75278210Y-133089711D01*
X75190609Y-133220814D01*
X75190602Y-133220827D01*
X75130264Y-133366498D01*
X75130261Y-133366510D01*
X75099500Y-133521153D01*
X67500500Y-133521153D01*
X67500500Y-132721153D01*
X103199500Y-132721153D01*
X103199500Y-132878846D01*
X103230261Y-133033489D01*
X103230264Y-133033501D01*
X103290602Y-133179172D01*
X103290609Y-133179185D01*
X103378210Y-133310288D01*
X103378213Y-133310292D01*
X103489707Y-133421786D01*
X103489711Y-133421789D01*
X103620814Y-133509390D01*
X103620827Y-133509397D01*
X103766498Y-133569735D01*
X103766503Y-133569737D01*
X103921153Y-133600499D01*
X103921156Y-133600500D01*
X103921158Y-133600500D01*
X104078844Y-133600500D01*
X104078845Y-133600499D01*
X104233497Y-133569737D01*
X104379179Y-133509394D01*
X104510289Y-133421789D01*
X104621789Y-133310289D01*
X104709394Y-133179179D01*
X104769737Y-133033497D01*
X104800500Y-132878842D01*
X104800500Y-132721158D01*
X104800500Y-132721155D01*
X104800499Y-132721153D01*
X104792365Y-132680261D01*
X104769737Y-132566503D01*
X104758452Y-132539258D01*
X104709397Y-132420827D01*
X104709390Y-132420814D01*
X104621789Y-132289711D01*
X104621786Y-132289707D01*
X104510292Y-132178213D01*
X104510288Y-132178210D01*
X104379185Y-132090609D01*
X104379172Y-132090602D01*
X104233501Y-132030264D01*
X104233489Y-132030261D01*
X104078845Y-131999500D01*
X104078842Y-131999500D01*
X103921158Y-131999500D01*
X103921155Y-131999500D01*
X103766510Y-132030261D01*
X103766498Y-132030264D01*
X103620827Y-132090602D01*
X103620814Y-132090609D01*
X103489711Y-132178210D01*
X103489707Y-132178213D01*
X103378213Y-132289707D01*
X103378210Y-132289711D01*
X103290609Y-132420814D01*
X103290602Y-132420827D01*
X103230264Y-132566498D01*
X103230261Y-132566510D01*
X103199500Y-132721153D01*
X67500500Y-132721153D01*
X67500500Y-131321153D01*
X105599500Y-131321153D01*
X105599500Y-131478846D01*
X105630261Y-131633489D01*
X105630264Y-131633501D01*
X105690602Y-131779172D01*
X105690609Y-131779185D01*
X105778210Y-131910288D01*
X105778213Y-131910292D01*
X105889707Y-132021786D01*
X105889711Y-132021789D01*
X106020814Y-132109390D01*
X106020827Y-132109397D01*
X106166498Y-132169735D01*
X106166503Y-132169737D01*
X106166507Y-132169737D01*
X106166508Y-132169738D01*
X106325951Y-132201454D01*
X106387862Y-132233839D01*
X106422436Y-132294555D01*
X106423376Y-132298878D01*
X106430261Y-132333492D01*
X106430264Y-132333501D01*
X106490602Y-132479172D01*
X106490609Y-132479185D01*
X106578210Y-132610288D01*
X106578213Y-132610292D01*
X106689707Y-132721786D01*
X106689711Y-132721789D01*
X106820814Y-132809390D01*
X106820827Y-132809397D01*
X106966498Y-132869735D01*
X106966503Y-132869737D01*
X107121153Y-132900499D01*
X107121156Y-132900500D01*
X107121158Y-132900500D01*
X107278844Y-132900500D01*
X107278845Y-132900499D01*
X107433497Y-132869737D01*
X107579179Y-132809394D01*
X107710289Y-132721789D01*
X107710925Y-132721153D01*
X122999500Y-132721153D01*
X122999500Y-132878846D01*
X123030261Y-133033489D01*
X123030264Y-133033501D01*
X123090602Y-133179172D01*
X123090609Y-133179185D01*
X123178210Y-133310288D01*
X123178213Y-133310292D01*
X123289707Y-133421786D01*
X123289711Y-133421789D01*
X123420814Y-133509390D01*
X123420827Y-133509397D01*
X123566498Y-133569735D01*
X123566503Y-133569737D01*
X123721153Y-133600499D01*
X123721156Y-133600500D01*
X123721158Y-133600500D01*
X123878844Y-133600500D01*
X123878845Y-133600499D01*
X124033497Y-133569737D01*
X124179179Y-133509394D01*
X124310289Y-133421789D01*
X124412320Y-133319757D01*
X124473641Y-133286274D01*
X124543333Y-133291258D01*
X124584939Y-133317999D01*
X124585001Y-133317924D01*
X124585647Y-133318454D01*
X124587688Y-133319766D01*
X124589711Y-133321789D01*
X124720814Y-133409390D01*
X124720827Y-133409397D01*
X124866498Y-133469735D01*
X124866503Y-133469737D01*
X125021153Y-133500499D01*
X125021156Y-133500500D01*
X125021158Y-133500500D01*
X125178844Y-133500500D01*
X125178845Y-133500499D01*
X125333497Y-133469737D01*
X125479179Y-133409394D01*
X125536411Y-133371153D01*
X143049500Y-133371153D01*
X143049500Y-133528846D01*
X143080261Y-133683489D01*
X143080264Y-133683501D01*
X143140602Y-133829172D01*
X143140609Y-133829185D01*
X143228210Y-133960288D01*
X143228213Y-133960292D01*
X143339707Y-134071786D01*
X143339711Y-134071789D01*
X143470814Y-134159390D01*
X143470827Y-134159397D01*
X143544013Y-134189711D01*
X143616503Y-134219737D01*
X143771153Y-134250499D01*
X143771156Y-134250500D01*
X143771158Y-134250500D01*
X143928844Y-134250500D01*
X143928845Y-134250499D01*
X144083497Y-134219737D01*
X144229179Y-134159394D01*
X144360289Y-134071789D01*
X144471789Y-133960289D01*
X144559394Y-133829179D01*
X144619737Y-133683497D01*
X144650500Y-133528842D01*
X144650500Y-133371158D01*
X144650500Y-133371155D01*
X144650499Y-133371153D01*
X144620788Y-133221789D01*
X144619737Y-133216503D01*
X144617163Y-133210288D01*
X144559397Y-133070827D01*
X144559390Y-133070814D01*
X144471789Y-132939711D01*
X144471786Y-132939707D01*
X144360292Y-132828213D01*
X144360288Y-132828210D01*
X144229185Y-132740609D01*
X144229172Y-132740602D01*
X144083501Y-132680264D01*
X144083489Y-132680261D01*
X143928845Y-132649500D01*
X143928842Y-132649500D01*
X143771158Y-132649500D01*
X143771155Y-132649500D01*
X143616510Y-132680261D01*
X143616498Y-132680264D01*
X143470827Y-132740602D01*
X143470814Y-132740609D01*
X143339711Y-132828210D01*
X143339707Y-132828213D01*
X143228213Y-132939707D01*
X143228210Y-132939711D01*
X143140609Y-133070814D01*
X143140602Y-133070827D01*
X143080264Y-133216498D01*
X143080261Y-133216510D01*
X143049500Y-133371153D01*
X125536411Y-133371153D01*
X125610289Y-133321789D01*
X125622688Y-133309390D01*
X125654694Y-133277385D01*
X125721786Y-133210292D01*
X125721789Y-133210289D01*
X125809394Y-133079179D01*
X125812854Y-133070827D01*
X125828319Y-133033489D01*
X125869737Y-132933497D01*
X125900500Y-132778842D01*
X125900500Y-132621158D01*
X125900500Y-132621155D01*
X125884209Y-132539258D01*
X125884209Y-132539257D01*
X125880608Y-132521153D01*
X221999500Y-132521153D01*
X221999500Y-132678846D01*
X222030261Y-132833489D01*
X222030264Y-132833501D01*
X222090602Y-132979172D01*
X222090609Y-132979185D01*
X222178210Y-133110288D01*
X222178213Y-133110292D01*
X222289707Y-133221786D01*
X222289711Y-133221789D01*
X222420814Y-133309390D01*
X222420827Y-133309397D01*
X222558683Y-133366498D01*
X222566503Y-133369737D01*
X222721153Y-133400499D01*
X222721156Y-133400500D01*
X222721158Y-133400500D01*
X222878844Y-133400500D01*
X222878845Y-133400499D01*
X223033497Y-133369737D01*
X223154139Y-133319766D01*
X223179172Y-133309397D01*
X223179172Y-133309396D01*
X223179179Y-133309394D01*
X223310289Y-133221789D01*
X223421789Y-133110289D01*
X223509394Y-132979179D01*
X223569737Y-132833497D01*
X223600500Y-132678842D01*
X223600500Y-132521158D01*
X223600500Y-132521155D01*
X223600499Y-132521153D01*
X223580543Y-132420827D01*
X223569737Y-132366503D01*
X223541726Y-132298878D01*
X223509397Y-132220827D01*
X223509390Y-132220814D01*
X223421789Y-132089711D01*
X223421786Y-132089707D01*
X223310292Y-131978213D01*
X223310288Y-131978210D01*
X223179185Y-131890609D01*
X223179172Y-131890602D01*
X223033501Y-131830264D01*
X223033489Y-131830261D01*
X222878845Y-131799500D01*
X222878842Y-131799500D01*
X222721158Y-131799500D01*
X222721155Y-131799500D01*
X222566510Y-131830261D01*
X222566498Y-131830264D01*
X222420827Y-131890602D01*
X222420814Y-131890609D01*
X222289711Y-131978210D01*
X222289707Y-131978213D01*
X222178213Y-132089707D01*
X222178210Y-132089711D01*
X222090609Y-132220814D01*
X222090602Y-132220827D01*
X222030264Y-132366498D01*
X222030261Y-132366510D01*
X221999500Y-132521153D01*
X125880608Y-132521153D01*
X125876499Y-132500499D01*
X125869737Y-132466503D01*
X125828314Y-132366498D01*
X125809397Y-132320827D01*
X125809390Y-132320814D01*
X125721789Y-132189711D01*
X125721786Y-132189707D01*
X125610292Y-132078213D01*
X125610288Y-132078210D01*
X125479185Y-131990609D01*
X125479172Y-131990602D01*
X125333501Y-131930264D01*
X125333489Y-131930261D01*
X125178845Y-131899500D01*
X125178842Y-131899500D01*
X125021158Y-131899500D01*
X125021155Y-131899500D01*
X124866510Y-131930261D01*
X124866498Y-131930264D01*
X124720827Y-131990602D01*
X124720814Y-131990609D01*
X124589711Y-132078210D01*
X124487680Y-132180241D01*
X124426357Y-132213725D01*
X124356665Y-132208741D01*
X124315060Y-132182000D01*
X124314999Y-132182076D01*
X124314350Y-132181544D01*
X124312311Y-132180233D01*
X124310288Y-132178210D01*
X124179185Y-132090609D01*
X124179172Y-132090602D01*
X124033501Y-132030264D01*
X124033489Y-132030261D01*
X123878845Y-131999500D01*
X123878842Y-131999500D01*
X123721158Y-131999500D01*
X123721155Y-131999500D01*
X123566510Y-132030261D01*
X123566498Y-132030264D01*
X123420827Y-132090602D01*
X123420814Y-132090609D01*
X123289711Y-132178210D01*
X123289707Y-132178213D01*
X123178213Y-132289707D01*
X123178210Y-132289711D01*
X123090609Y-132420814D01*
X123090602Y-132420827D01*
X123030264Y-132566498D01*
X123030261Y-132566510D01*
X122999500Y-132721153D01*
X107710925Y-132721153D01*
X107753236Y-132678842D01*
X107804694Y-132627385D01*
X107821786Y-132610292D01*
X107821789Y-132610289D01*
X107909394Y-132479179D01*
X107969737Y-132333497D01*
X108000500Y-132178842D01*
X108000500Y-132021158D01*
X108000500Y-132021155D01*
X108000499Y-132021153D01*
X107980734Y-131921789D01*
X107969737Y-131866503D01*
X107969735Y-131866498D01*
X107909397Y-131720827D01*
X107909390Y-131720814D01*
X107821789Y-131589711D01*
X107821786Y-131589707D01*
X107710292Y-131478213D01*
X107710288Y-131478210D01*
X107579185Y-131390609D01*
X107579172Y-131390602D01*
X107442605Y-131334035D01*
X107442601Y-131334034D01*
X107433497Y-131330263D01*
X107278842Y-131299500D01*
X107278545Y-131299500D01*
X107272697Y-131298269D01*
X107242485Y-131282034D01*
X107212137Y-131266160D01*
X107211782Y-131265536D01*
X107211150Y-131265197D01*
X107194537Y-131235252D01*
X107186508Y-131221153D01*
X112799500Y-131221153D01*
X112799500Y-131378846D01*
X112830261Y-131533489D01*
X112830264Y-131533501D01*
X112890602Y-131679172D01*
X112890609Y-131679185D01*
X112978210Y-131810288D01*
X112978213Y-131810292D01*
X113089707Y-131921786D01*
X113089711Y-131921789D01*
X113220814Y-132009390D01*
X113220827Y-132009397D01*
X113366498Y-132069735D01*
X113366503Y-132069737D01*
X113521153Y-132100499D01*
X113521156Y-132100500D01*
X113521158Y-132100500D01*
X113678844Y-132100500D01*
X113678845Y-132100499D01*
X113833497Y-132069737D01*
X113979179Y-132009394D01*
X114004334Y-131992585D01*
X114071010Y-131971706D01*
X114138391Y-131990189D01*
X114185082Y-132042166D01*
X114187778Y-132048210D01*
X114200205Y-132078210D01*
X114200607Y-132079181D01*
X114200609Y-132079185D01*
X114288210Y-132210288D01*
X114288213Y-132210292D01*
X114399707Y-132321786D01*
X114399711Y-132321789D01*
X114530814Y-132409390D01*
X114530827Y-132409397D01*
X114668683Y-132466498D01*
X114676503Y-132469737D01*
X114831153Y-132500499D01*
X114831156Y-132500500D01*
X114831158Y-132500500D01*
X114988844Y-132500500D01*
X114988845Y-132500499D01*
X115143497Y-132469737D01*
X115261592Y-132420821D01*
X115289172Y-132409397D01*
X115289172Y-132409396D01*
X115289179Y-132409394D01*
X115420289Y-132321789D01*
X115531789Y-132210289D01*
X115619394Y-132079179D01*
X115679737Y-131933497D01*
X115710500Y-131778842D01*
X115710500Y-131621158D01*
X115710500Y-131621155D01*
X115710499Y-131621153D01*
X115688269Y-131509397D01*
X115679737Y-131466503D01*
X115652398Y-131400500D01*
X115619397Y-131320827D01*
X115619390Y-131320814D01*
X115531789Y-131189711D01*
X115531786Y-131189707D01*
X115420292Y-131078213D01*
X115420288Y-131078210D01*
X115289185Y-130990609D01*
X115289172Y-130990602D01*
X115143501Y-130930264D01*
X115143489Y-130930261D01*
X114988845Y-130899500D01*
X114988842Y-130899500D01*
X114831158Y-130899500D01*
X114831155Y-130899500D01*
X114676510Y-130930261D01*
X114676498Y-130930264D01*
X114530827Y-130990602D01*
X114530816Y-130990608D01*
X114505662Y-131007416D01*
X114438984Y-131028293D01*
X114371604Y-131009808D01*
X114324915Y-130957829D01*
X114322210Y-130951763D01*
X114309793Y-130921786D01*
X114309394Y-130920821D01*
X114309392Y-130920818D01*
X114309390Y-130920814D01*
X114221789Y-130789711D01*
X114221786Y-130789707D01*
X114110292Y-130678213D01*
X114110288Y-130678210D01*
X113979185Y-130590609D01*
X113979172Y-130590602D01*
X113833501Y-130530264D01*
X113833489Y-130530261D01*
X113678845Y-130499500D01*
X113678842Y-130499500D01*
X113521158Y-130499500D01*
X113521155Y-130499500D01*
X113366510Y-130530261D01*
X113366498Y-130530264D01*
X113220827Y-130590602D01*
X113220814Y-130590609D01*
X113089711Y-130678210D01*
X113089707Y-130678213D01*
X112978213Y-130789707D01*
X112978210Y-130789711D01*
X112890609Y-130920814D01*
X112890602Y-130920827D01*
X112830264Y-131066498D01*
X112830261Y-131066510D01*
X112799500Y-131221153D01*
X107186508Y-131221153D01*
X107177563Y-131205444D01*
X107177281Y-131204150D01*
X107177254Y-131204100D01*
X107177257Y-131204040D01*
X107176623Y-131201119D01*
X107172257Y-131179172D01*
X107169737Y-131166503D01*
X107146452Y-131110288D01*
X107109397Y-131020827D01*
X107109390Y-131020814D01*
X107021789Y-130889711D01*
X107021786Y-130889707D01*
X106910292Y-130778213D01*
X106910288Y-130778210D01*
X106779185Y-130690609D01*
X106779172Y-130690602D01*
X106633501Y-130630264D01*
X106633489Y-130630261D01*
X106478845Y-130599500D01*
X106478842Y-130599500D01*
X106321158Y-130599500D01*
X106321155Y-130599500D01*
X106166510Y-130630261D01*
X106166498Y-130630264D01*
X106020827Y-130690602D01*
X106020814Y-130690609D01*
X105889711Y-130778210D01*
X105889707Y-130778213D01*
X105778213Y-130889707D01*
X105778210Y-130889711D01*
X105690609Y-131020814D01*
X105690602Y-131020827D01*
X105630264Y-131166498D01*
X105630261Y-131166510D01*
X105599500Y-131321153D01*
X67500500Y-131321153D01*
X67500500Y-129721153D01*
X147699500Y-129721153D01*
X147699500Y-129878846D01*
X147730261Y-130033489D01*
X147730264Y-130033501D01*
X147790602Y-130179172D01*
X147790609Y-130179185D01*
X147878210Y-130310288D01*
X147878213Y-130310292D01*
X147989707Y-130421786D01*
X147989711Y-130421789D01*
X148120817Y-130509392D01*
X148120819Y-130509393D01*
X148120821Y-130509394D01*
X148138409Y-130516679D01*
X148192812Y-130560520D01*
X148214877Y-130626814D01*
X148212573Y-130655431D01*
X148199500Y-130721153D01*
X148199500Y-130878846D01*
X148230261Y-131033489D01*
X148230264Y-131033501D01*
X148290602Y-131179172D01*
X148290609Y-131179185D01*
X148378210Y-131310288D01*
X148378213Y-131310292D01*
X148489707Y-131421786D01*
X148489711Y-131421789D01*
X148620814Y-131509390D01*
X148620827Y-131509397D01*
X148766498Y-131569735D01*
X148766503Y-131569737D01*
X148921153Y-131600499D01*
X148921156Y-131600500D01*
X148921158Y-131600500D01*
X149078844Y-131600500D01*
X149078845Y-131600499D01*
X149233497Y-131569737D01*
X149379179Y-131509394D01*
X149510289Y-131421789D01*
X149621789Y-131310289D01*
X149651919Y-131265197D01*
X149680608Y-131222261D01*
X149734220Y-131177455D01*
X149803545Y-131168748D01*
X149866572Y-131198902D01*
X149871391Y-131203470D01*
X149889707Y-131221786D01*
X149889711Y-131221789D01*
X150020814Y-131309390D01*
X150020827Y-131309397D01*
X150166498Y-131369735D01*
X150166503Y-131369737D01*
X150321153Y-131400499D01*
X150321156Y-131400500D01*
X150321158Y-131400500D01*
X150478844Y-131400500D01*
X150478845Y-131400499D01*
X150633497Y-131369737D01*
X150751592Y-131320821D01*
X150779172Y-131309397D01*
X150779172Y-131309396D01*
X150779179Y-131309394D01*
X150910289Y-131221789D01*
X151021789Y-131110289D01*
X151109394Y-130979179D01*
X151169737Y-130833497D01*
X151200500Y-130678842D01*
X151200500Y-130521158D01*
X151200500Y-130521155D01*
X151200499Y-130521153D01*
X151180734Y-130421789D01*
X151169737Y-130366503D01*
X151146453Y-130310289D01*
X151126666Y-130262518D01*
X151109532Y-130221153D01*
X194299500Y-130221153D01*
X194299500Y-130378846D01*
X194330261Y-130533489D01*
X194330264Y-130533501D01*
X194390602Y-130679172D01*
X194390609Y-130679185D01*
X194478210Y-130810288D01*
X194478213Y-130810292D01*
X194589707Y-130921786D01*
X194589711Y-130921789D01*
X194720814Y-131009390D01*
X194720827Y-131009397D01*
X194858683Y-131066498D01*
X194866503Y-131069737D01*
X195021153Y-131100499D01*
X195021156Y-131100500D01*
X195021158Y-131100500D01*
X195178844Y-131100500D01*
X195178845Y-131100499D01*
X195333497Y-131069737D01*
X195451592Y-131020821D01*
X195479172Y-131009397D01*
X195479172Y-131009396D01*
X195479179Y-131009394D01*
X195610289Y-130921789D01*
X195721789Y-130810289D01*
X195809394Y-130679179D01*
X195869737Y-130533497D01*
X195900500Y-130378842D01*
X195900500Y-130221158D01*
X195900500Y-130221155D01*
X195900499Y-130221153D01*
X199699500Y-130221153D01*
X199699500Y-130378846D01*
X199730261Y-130533489D01*
X199730264Y-130533501D01*
X199790602Y-130679172D01*
X199790609Y-130679185D01*
X199878210Y-130810288D01*
X199878213Y-130810292D01*
X199989707Y-130921786D01*
X199989711Y-130921789D01*
X200120814Y-131009390D01*
X200120827Y-131009397D01*
X200258683Y-131066498D01*
X200266503Y-131069737D01*
X200421153Y-131100499D01*
X200421156Y-131100500D01*
X200421158Y-131100500D01*
X200578844Y-131100500D01*
X200578845Y-131100499D01*
X200733497Y-131069737D01*
X200851592Y-131020821D01*
X200879172Y-131009397D01*
X200879172Y-131009396D01*
X200879179Y-131009394D01*
X201010289Y-130921789D01*
X201121789Y-130810289D01*
X201209394Y-130679179D01*
X201269737Y-130533497D01*
X201300500Y-130378842D01*
X201300500Y-130221158D01*
X201300500Y-130221155D01*
X201300499Y-130221153D01*
X201291957Y-130178210D01*
X201269737Y-130066503D01*
X201256062Y-130033489D01*
X201209397Y-129920827D01*
X201209390Y-129920814D01*
X201121789Y-129789711D01*
X201121786Y-129789707D01*
X201010292Y-129678213D01*
X201010288Y-129678210D01*
X200879185Y-129590609D01*
X200879172Y-129590602D01*
X200733501Y-129530264D01*
X200733489Y-129530261D01*
X200578845Y-129499500D01*
X200578842Y-129499500D01*
X200421158Y-129499500D01*
X200421155Y-129499500D01*
X200266510Y-129530261D01*
X200266498Y-129530264D01*
X200120827Y-129590602D01*
X200120814Y-129590609D01*
X199989711Y-129678210D01*
X199989707Y-129678213D01*
X199878213Y-129789707D01*
X199878210Y-129789711D01*
X199790609Y-129920814D01*
X199790602Y-129920827D01*
X199730264Y-130066498D01*
X199730261Y-130066510D01*
X199699500Y-130221153D01*
X195900499Y-130221153D01*
X195891957Y-130178210D01*
X195869737Y-130066503D01*
X195856062Y-130033489D01*
X195809397Y-129920827D01*
X195809390Y-129920814D01*
X195721789Y-129789711D01*
X195721786Y-129789707D01*
X195610292Y-129678213D01*
X195610288Y-129678210D01*
X195479185Y-129590609D01*
X195479172Y-129590602D01*
X195333501Y-129530264D01*
X195333489Y-129530261D01*
X195178845Y-129499500D01*
X195178842Y-129499500D01*
X195021158Y-129499500D01*
X195021155Y-129499500D01*
X194866510Y-129530261D01*
X194866498Y-129530264D01*
X194720827Y-129590602D01*
X194720814Y-129590609D01*
X194589711Y-129678210D01*
X194589707Y-129678213D01*
X194478213Y-129789707D01*
X194478210Y-129789711D01*
X194390609Y-129920814D01*
X194390602Y-129920827D01*
X194330264Y-130066498D01*
X194330261Y-130066510D01*
X194299500Y-130221153D01*
X151109532Y-130221153D01*
X151109395Y-130220823D01*
X151109390Y-130220814D01*
X151021789Y-130089711D01*
X151021786Y-130089707D01*
X150910292Y-129978213D01*
X150910288Y-129978210D01*
X150779185Y-129890609D01*
X150779172Y-129890602D01*
X150633501Y-129830264D01*
X150633489Y-129830261D01*
X150478845Y-129799500D01*
X150478842Y-129799500D01*
X150321158Y-129799500D01*
X150321155Y-129799500D01*
X150166510Y-129830261D01*
X150166498Y-129830264D01*
X150020827Y-129890602D01*
X150020814Y-129890609D01*
X149889711Y-129978210D01*
X149889707Y-129978213D01*
X149778213Y-130089707D01*
X149719391Y-130177740D01*
X149665778Y-130222544D01*
X149596453Y-130231251D01*
X149533426Y-130201096D01*
X149528608Y-130196529D01*
X149510292Y-130178213D01*
X149510288Y-130178210D01*
X149379185Y-130090609D01*
X149379179Y-130090606D01*
X149361589Y-130083320D01*
X149307186Y-130039478D01*
X149285122Y-129973184D01*
X149287425Y-129944571D01*
X149300500Y-129878842D01*
X149300500Y-129721158D01*
X149300500Y-129721155D01*
X149300499Y-129721153D01*
X149274531Y-129590606D01*
X149269737Y-129566503D01*
X149269735Y-129566498D01*
X149209397Y-129420827D01*
X149209390Y-129420814D01*
X149121789Y-129289711D01*
X149121786Y-129289707D01*
X149010292Y-129178213D01*
X149010288Y-129178210D01*
X148879185Y-129090609D01*
X148879172Y-129090602D01*
X148733501Y-129030264D01*
X148733489Y-129030261D01*
X148578845Y-128999500D01*
X148578842Y-128999500D01*
X148421158Y-128999500D01*
X148421155Y-128999500D01*
X148266510Y-129030261D01*
X148266498Y-129030264D01*
X148120827Y-129090602D01*
X148120814Y-129090609D01*
X147989711Y-129178210D01*
X147989707Y-129178213D01*
X147878213Y-129289707D01*
X147878210Y-129289711D01*
X147790609Y-129420814D01*
X147790602Y-129420827D01*
X147730264Y-129566498D01*
X147730261Y-129566510D01*
X147699500Y-129721153D01*
X67500500Y-129721153D01*
X67500500Y-126221153D01*
X233099500Y-126221153D01*
X233099500Y-126378846D01*
X233130261Y-126533489D01*
X233130264Y-126533501D01*
X233190602Y-126679172D01*
X233190609Y-126679185D01*
X233278210Y-126810288D01*
X233278213Y-126810292D01*
X233389707Y-126921786D01*
X233389711Y-126921789D01*
X233520814Y-127009390D01*
X233520827Y-127009397D01*
X233666498Y-127069735D01*
X233666503Y-127069737D01*
X233821153Y-127100499D01*
X233821156Y-127100500D01*
X233821158Y-127100500D01*
X233978844Y-127100500D01*
X233978845Y-127100499D01*
X234133497Y-127069737D01*
X234279179Y-127009394D01*
X234410289Y-126921789D01*
X234521789Y-126810289D01*
X234609394Y-126679179D01*
X234669737Y-126533497D01*
X234700500Y-126378842D01*
X234700500Y-126221158D01*
X234700500Y-126221155D01*
X234700499Y-126221153D01*
X234669738Y-126066510D01*
X234669737Y-126066503D01*
X234642398Y-126000500D01*
X234609397Y-125920827D01*
X234609390Y-125920814D01*
X234521789Y-125789711D01*
X234521786Y-125789707D01*
X234410292Y-125678213D01*
X234410288Y-125678210D01*
X234279185Y-125590609D01*
X234279172Y-125590602D01*
X234133501Y-125530264D01*
X234133489Y-125530261D01*
X233978845Y-125499500D01*
X233978842Y-125499500D01*
X233821158Y-125499500D01*
X233821155Y-125499500D01*
X233666510Y-125530261D01*
X233666498Y-125530264D01*
X233520827Y-125590602D01*
X233520814Y-125590609D01*
X233389711Y-125678210D01*
X233389707Y-125678213D01*
X233278213Y-125789707D01*
X233278210Y-125789711D01*
X233190609Y-125920814D01*
X233190602Y-125920827D01*
X233130264Y-126066498D01*
X233130261Y-126066510D01*
X233099500Y-126221153D01*
X67500500Y-126221153D01*
X67500500Y-121859568D01*
X69699500Y-121859568D01*
X69699500Y-122140431D01*
X69730942Y-122419494D01*
X69730945Y-122419512D01*
X69793439Y-122693317D01*
X69793443Y-122693329D01*
X69886200Y-122958411D01*
X70008053Y-123211442D01*
X70008055Y-123211445D01*
X70157477Y-123449248D01*
X70332584Y-123668825D01*
X70531175Y-123867416D01*
X70750752Y-124042523D01*
X70988555Y-124191945D01*
X71241592Y-124313801D01*
X71440680Y-124383465D01*
X71506670Y-124406556D01*
X71506682Y-124406560D01*
X71780491Y-124469055D01*
X71780497Y-124469055D01*
X71780505Y-124469057D01*
X71966547Y-124490018D01*
X72059569Y-124500499D01*
X72059572Y-124500500D01*
X72059575Y-124500500D01*
X72340428Y-124500500D01*
X72340429Y-124500499D01*
X72483055Y-124484429D01*
X72619494Y-124469057D01*
X72619499Y-124469056D01*
X72619509Y-124469055D01*
X72893318Y-124406560D01*
X72923059Y-124396153D01*
X112999500Y-124396153D01*
X112999500Y-124553846D01*
X113030261Y-124708489D01*
X113030264Y-124708501D01*
X113090602Y-124854172D01*
X113090609Y-124854185D01*
X113178210Y-124985288D01*
X113178213Y-124985292D01*
X113289707Y-125096786D01*
X113289711Y-125096789D01*
X113420814Y-125184390D01*
X113420827Y-125184397D01*
X113566498Y-125244735D01*
X113566503Y-125244737D01*
X113721153Y-125275499D01*
X113721156Y-125275500D01*
X113721158Y-125275500D01*
X113878844Y-125275500D01*
X113878845Y-125275499D01*
X114033497Y-125244737D01*
X114179179Y-125184394D01*
X114273826Y-125121153D01*
X146099500Y-125121153D01*
X146099500Y-125278846D01*
X146130261Y-125433489D01*
X146130264Y-125433501D01*
X146190602Y-125579172D01*
X146190609Y-125579185D01*
X146278210Y-125710288D01*
X146278213Y-125710292D01*
X146389707Y-125821786D01*
X146389711Y-125821789D01*
X146520814Y-125909390D01*
X146520827Y-125909397D01*
X146649999Y-125962901D01*
X146666503Y-125969737D01*
X146821153Y-126000499D01*
X146821156Y-126000500D01*
X146821158Y-126000500D01*
X146978844Y-126000500D01*
X147048006Y-125986742D01*
X147125810Y-125971266D01*
X147174190Y-125971266D01*
X147237173Y-125983794D01*
X147321155Y-126000500D01*
X147321158Y-126000500D01*
X147478844Y-126000500D01*
X147478845Y-126000499D01*
X147633497Y-125969737D01*
X147751592Y-125920821D01*
X147779172Y-125909397D01*
X147779172Y-125909396D01*
X147779179Y-125909394D01*
X147910289Y-125821789D01*
X148021789Y-125710289D01*
X148109394Y-125579179D01*
X148169737Y-125433497D01*
X148200500Y-125278842D01*
X148200500Y-125121158D01*
X148200500Y-125121155D01*
X148200499Y-125121153D01*
X148173474Y-124985292D01*
X148169737Y-124966503D01*
X148123214Y-124854185D01*
X148109397Y-124820827D01*
X148109390Y-124820814D01*
X148021789Y-124689711D01*
X148021786Y-124689707D01*
X147910292Y-124578213D01*
X147910288Y-124578210D01*
X147779185Y-124490609D01*
X147779172Y-124490602D01*
X147633501Y-124430264D01*
X147633489Y-124430261D01*
X147478845Y-124399500D01*
X147478842Y-124399500D01*
X147321158Y-124399500D01*
X147321155Y-124399500D01*
X147174191Y-124428733D01*
X147125809Y-124428733D01*
X146978845Y-124399500D01*
X146978842Y-124399500D01*
X146821158Y-124399500D01*
X146821155Y-124399500D01*
X146666510Y-124430261D01*
X146666498Y-124430264D01*
X146520827Y-124490602D01*
X146520814Y-124490609D01*
X146389711Y-124578210D01*
X146389707Y-124578213D01*
X146278213Y-124689707D01*
X146278210Y-124689711D01*
X146190609Y-124820814D01*
X146190602Y-124820827D01*
X146130264Y-124966498D01*
X146130261Y-124966510D01*
X146099500Y-125121153D01*
X114273826Y-125121153D01*
X114310289Y-125096789D01*
X114310292Y-125096786D01*
X114379694Y-125027385D01*
X114421786Y-124985292D01*
X114421789Y-124985289D01*
X114509394Y-124854179D01*
X114569737Y-124708497D01*
X114600500Y-124553842D01*
X114600500Y-124396158D01*
X114600500Y-124396155D01*
X114600499Y-124396153D01*
X114584118Y-124313801D01*
X114569737Y-124241503D01*
X114549210Y-124191945D01*
X114509397Y-124095827D01*
X114509390Y-124095814D01*
X114421789Y-123964711D01*
X114421786Y-123964707D01*
X114310292Y-123853213D01*
X114310288Y-123853210D01*
X114179185Y-123765609D01*
X114179172Y-123765602D01*
X114033501Y-123705264D01*
X114033489Y-123705261D01*
X113878845Y-123674500D01*
X113878842Y-123674500D01*
X113721158Y-123674500D01*
X113721155Y-123674500D01*
X113566510Y-123705261D01*
X113566498Y-123705264D01*
X113420827Y-123765602D01*
X113420814Y-123765609D01*
X113289711Y-123853210D01*
X113289707Y-123853213D01*
X113178213Y-123964707D01*
X113178210Y-123964711D01*
X113090609Y-124095814D01*
X113090602Y-124095827D01*
X113030264Y-124241498D01*
X113030261Y-124241510D01*
X112999500Y-124396153D01*
X72923059Y-124396153D01*
X73158408Y-124313801D01*
X73158416Y-124313797D01*
X73158419Y-124313796D01*
X73232030Y-124278347D01*
X73232032Y-124278346D01*
X73316138Y-124237842D01*
X73411445Y-124191945D01*
X73649248Y-124042523D01*
X73868825Y-123867416D01*
X74067416Y-123668825D01*
X74242523Y-123449248D01*
X74391945Y-123211445D01*
X74513801Y-122958408D01*
X74606560Y-122693318D01*
X74669055Y-122419509D01*
X74673599Y-122379185D01*
X74692729Y-122209394D01*
X74700500Y-122140425D01*
X74700500Y-122021153D01*
X130499500Y-122021153D01*
X130499500Y-122178846D01*
X130530261Y-122333489D01*
X130530264Y-122333501D01*
X130590602Y-122479172D01*
X130590609Y-122479185D01*
X130678210Y-122610288D01*
X130678213Y-122610292D01*
X130789707Y-122721786D01*
X130789711Y-122721789D01*
X130920814Y-122809390D01*
X130920827Y-122809397D01*
X131066498Y-122869735D01*
X131066503Y-122869737D01*
X131221153Y-122900499D01*
X131221156Y-122900500D01*
X131221158Y-122900500D01*
X131378844Y-122900500D01*
X131378845Y-122900499D01*
X131533497Y-122869737D01*
X131679179Y-122809394D01*
X131810289Y-122721789D01*
X131921789Y-122610289D01*
X132009394Y-122479179D01*
X132069737Y-122333497D01*
X132096510Y-122198901D01*
X132128895Y-122136990D01*
X132189610Y-122102416D01*
X132259380Y-122106155D01*
X132287018Y-122119990D01*
X132420814Y-122209390D01*
X132420827Y-122209397D01*
X132566498Y-122269735D01*
X132566503Y-122269737D01*
X132721153Y-122300499D01*
X132721156Y-122300500D01*
X132721158Y-122300500D01*
X132878844Y-122300500D01*
X132878845Y-122300499D01*
X133033497Y-122269737D01*
X133179179Y-122209394D01*
X133310289Y-122121789D01*
X133421789Y-122010289D01*
X133481348Y-121921153D01*
X208899500Y-121921153D01*
X208899500Y-122078846D01*
X208930261Y-122233489D01*
X208930264Y-122233501D01*
X208990602Y-122379172D01*
X208990609Y-122379185D01*
X209078210Y-122510288D01*
X209078213Y-122510292D01*
X209189707Y-122621786D01*
X209189711Y-122621789D01*
X209320814Y-122709390D01*
X209320827Y-122709397D01*
X209466498Y-122769735D01*
X209466503Y-122769737D01*
X209621153Y-122800499D01*
X209621156Y-122800500D01*
X209621158Y-122800500D01*
X209778844Y-122800500D01*
X209778845Y-122800499D01*
X209933497Y-122769737D01*
X210079179Y-122709394D01*
X210210289Y-122621789D01*
X210321789Y-122510289D01*
X210409394Y-122379179D01*
X210469737Y-122233497D01*
X210500500Y-122078842D01*
X210500500Y-121921158D01*
X210500500Y-121921155D01*
X210500499Y-121921153D01*
X210492371Y-121880287D01*
X210488250Y-121859568D01*
X227499500Y-121859568D01*
X227499500Y-122140431D01*
X227530942Y-122419494D01*
X227530945Y-122419512D01*
X227593439Y-122693317D01*
X227593443Y-122693329D01*
X227686200Y-122958411D01*
X227808053Y-123211442D01*
X227808055Y-123211445D01*
X227957477Y-123449248D01*
X228132584Y-123668825D01*
X228331175Y-123867416D01*
X228550752Y-124042523D01*
X228788555Y-124191945D01*
X229041592Y-124313801D01*
X229240680Y-124383465D01*
X229306670Y-124406556D01*
X229306682Y-124406560D01*
X229580491Y-124469055D01*
X229580497Y-124469055D01*
X229580505Y-124469057D01*
X229766547Y-124490018D01*
X229859569Y-124500499D01*
X229859572Y-124500500D01*
X229859575Y-124500500D01*
X230140428Y-124500500D01*
X230140429Y-124500499D01*
X230283055Y-124484429D01*
X230419494Y-124469057D01*
X230419499Y-124469056D01*
X230419509Y-124469055D01*
X230693318Y-124406560D01*
X230958408Y-124313801D01*
X231211445Y-124191945D01*
X231449248Y-124042523D01*
X231668825Y-123867416D01*
X231867416Y-123668825D01*
X232042523Y-123449248D01*
X232191945Y-123211445D01*
X232313801Y-122958408D01*
X232406560Y-122693318D01*
X232469055Y-122419509D01*
X232473599Y-122379185D01*
X232492729Y-122209394D01*
X232500500Y-122140425D01*
X232500500Y-121859575D01*
X232484866Y-121720821D01*
X232469057Y-121580505D01*
X232469054Y-121580487D01*
X232468679Y-121578846D01*
X232406560Y-121306682D01*
X232400933Y-121290602D01*
X232376854Y-121221786D01*
X232313801Y-121041592D01*
X232191945Y-120788555D01*
X232042523Y-120550752D01*
X231867416Y-120331175D01*
X231668825Y-120132584D01*
X231449248Y-119957477D01*
X231211445Y-119808055D01*
X231211442Y-119808053D01*
X230958411Y-119686200D01*
X230693329Y-119593443D01*
X230693317Y-119593439D01*
X230419512Y-119530945D01*
X230419494Y-119530942D01*
X230140431Y-119499500D01*
X230140425Y-119499500D01*
X229859575Y-119499500D01*
X229859568Y-119499500D01*
X229580505Y-119530942D01*
X229580487Y-119530945D01*
X229306682Y-119593439D01*
X229306670Y-119593443D01*
X229041588Y-119686200D01*
X228788557Y-119808053D01*
X228550753Y-119957476D01*
X228331175Y-120132583D01*
X228132583Y-120331175D01*
X227957476Y-120550753D01*
X227808053Y-120788557D01*
X227686200Y-121041588D01*
X227593443Y-121306670D01*
X227593439Y-121306682D01*
X227530945Y-121580487D01*
X227530942Y-121580505D01*
X227499500Y-121859568D01*
X210488250Y-121859568D01*
X210469738Y-121766508D01*
X210469737Y-121766507D01*
X210469737Y-121766503D01*
X210450812Y-121720814D01*
X210409397Y-121620827D01*
X210409390Y-121620814D01*
X210321789Y-121489711D01*
X210321786Y-121489707D01*
X210210292Y-121378213D01*
X210210288Y-121378210D01*
X210079185Y-121290609D01*
X210079172Y-121290602D01*
X209933501Y-121230264D01*
X209933489Y-121230261D01*
X209778845Y-121199500D01*
X209778842Y-121199500D01*
X209621158Y-121199500D01*
X209621155Y-121199500D01*
X209466510Y-121230261D01*
X209466498Y-121230264D01*
X209320827Y-121290602D01*
X209320814Y-121290609D01*
X209189711Y-121378210D01*
X209189707Y-121378213D01*
X209078213Y-121489707D01*
X209078210Y-121489711D01*
X208990609Y-121620814D01*
X208990602Y-121620827D01*
X208930264Y-121766498D01*
X208930261Y-121766510D01*
X208899500Y-121921153D01*
X133481348Y-121921153D01*
X133509394Y-121879179D01*
X133569737Y-121733497D01*
X133600500Y-121578842D01*
X133600500Y-121421158D01*
X133600500Y-121421155D01*
X133600499Y-121421153D01*
X133578269Y-121309397D01*
X133569737Y-121266503D01*
X133569735Y-121266498D01*
X133509397Y-121120827D01*
X133509390Y-121120814D01*
X133421789Y-120989711D01*
X133421786Y-120989707D01*
X133310292Y-120878213D01*
X133310288Y-120878210D01*
X133179185Y-120790609D01*
X133179172Y-120790602D01*
X133033501Y-120730264D01*
X133033489Y-120730261D01*
X132878845Y-120699500D01*
X132878842Y-120699500D01*
X132721158Y-120699500D01*
X132721155Y-120699500D01*
X132566510Y-120730261D01*
X132566498Y-120730264D01*
X132420827Y-120790602D01*
X132420814Y-120790609D01*
X132289711Y-120878210D01*
X132289707Y-120878213D01*
X132178213Y-120989707D01*
X132178210Y-120989711D01*
X132090609Y-121120814D01*
X132090602Y-121120827D01*
X132030264Y-121266498D01*
X132030261Y-121266508D01*
X132003489Y-121401099D01*
X131971104Y-121463010D01*
X131910388Y-121497584D01*
X131840618Y-121493843D01*
X131812981Y-121480009D01*
X131679185Y-121390609D01*
X131679172Y-121390602D01*
X131533501Y-121330264D01*
X131533489Y-121330261D01*
X131378845Y-121299500D01*
X131378842Y-121299500D01*
X131221158Y-121299500D01*
X131221155Y-121299500D01*
X131066510Y-121330261D01*
X131066498Y-121330264D01*
X130920827Y-121390602D01*
X130920814Y-121390609D01*
X130789711Y-121478210D01*
X130789707Y-121478213D01*
X130678213Y-121589707D01*
X130678210Y-121589711D01*
X130590609Y-121720814D01*
X130590602Y-121720827D01*
X130530264Y-121866498D01*
X130530261Y-121866510D01*
X130499500Y-122021153D01*
X74700500Y-122021153D01*
X74700500Y-121859575D01*
X74684866Y-121720821D01*
X74669057Y-121580505D01*
X74669054Y-121580487D01*
X74668679Y-121578846D01*
X74606560Y-121306682D01*
X74600933Y-121290602D01*
X74576854Y-121221786D01*
X74513801Y-121041592D01*
X74391945Y-120788555D01*
X74242523Y-120550752D01*
X74218919Y-120521153D01*
X124999500Y-120521153D01*
X124999500Y-120678846D01*
X125030261Y-120833489D01*
X125030264Y-120833501D01*
X125090602Y-120979172D01*
X125090609Y-120979185D01*
X125178210Y-121110288D01*
X125178213Y-121110292D01*
X125289707Y-121221786D01*
X125289711Y-121221789D01*
X125420814Y-121309390D01*
X125420827Y-121309397D01*
X125566498Y-121369735D01*
X125566503Y-121369737D01*
X125721153Y-121400499D01*
X125721156Y-121400500D01*
X125721158Y-121400500D01*
X125878844Y-121400500D01*
X125878845Y-121400499D01*
X126033497Y-121369737D01*
X126179179Y-121309394D01*
X126310289Y-121221789D01*
X126421789Y-121110289D01*
X126509394Y-120979179D01*
X126569737Y-120833497D01*
X126600500Y-120678842D01*
X126600500Y-120521158D01*
X126600500Y-120521155D01*
X126600499Y-120521153D01*
X126597310Y-120505122D01*
X126569737Y-120366503D01*
X126555104Y-120331175D01*
X126509397Y-120220827D01*
X126509390Y-120220814D01*
X126421789Y-120089711D01*
X126421786Y-120089707D01*
X126310292Y-119978213D01*
X126310288Y-119978210D01*
X126224897Y-119921153D01*
X130699500Y-119921153D01*
X130699500Y-120078846D01*
X130730261Y-120233489D01*
X130730264Y-120233501D01*
X130790602Y-120379172D01*
X130790609Y-120379185D01*
X130878210Y-120510288D01*
X130878213Y-120510292D01*
X130989707Y-120621786D01*
X130989711Y-120621789D01*
X131120814Y-120709390D01*
X131120827Y-120709397D01*
X131266498Y-120769735D01*
X131266503Y-120769737D01*
X131421153Y-120800499D01*
X131421156Y-120800500D01*
X131421158Y-120800500D01*
X131578844Y-120800500D01*
X131578845Y-120800499D01*
X131733497Y-120769737D01*
X131879179Y-120709394D01*
X132010289Y-120621789D01*
X132121789Y-120510289D01*
X132209394Y-120379179D01*
X132269737Y-120233497D01*
X132300500Y-120078842D01*
X132300500Y-119921158D01*
X132300500Y-119921155D01*
X132300499Y-119921153D01*
X132278002Y-119808053D01*
X132269737Y-119766503D01*
X132236475Y-119686200D01*
X132209397Y-119620827D01*
X132209390Y-119620814D01*
X132121789Y-119489711D01*
X132121786Y-119489707D01*
X132010292Y-119378213D01*
X132010288Y-119378210D01*
X131879185Y-119290609D01*
X131879172Y-119290602D01*
X131733501Y-119230264D01*
X131733489Y-119230261D01*
X131578845Y-119199500D01*
X131578842Y-119199500D01*
X131421158Y-119199500D01*
X131421155Y-119199500D01*
X131266510Y-119230261D01*
X131266498Y-119230264D01*
X131120827Y-119290602D01*
X131120814Y-119290609D01*
X130989711Y-119378210D01*
X130989707Y-119378213D01*
X130878213Y-119489707D01*
X130878210Y-119489711D01*
X130790609Y-119620814D01*
X130790602Y-119620827D01*
X130730264Y-119766498D01*
X130730261Y-119766510D01*
X130699500Y-119921153D01*
X126224897Y-119921153D01*
X126179185Y-119890609D01*
X126179172Y-119890602D01*
X126033501Y-119830264D01*
X126033489Y-119830261D01*
X125878845Y-119799500D01*
X125878842Y-119799500D01*
X125721158Y-119799500D01*
X125721155Y-119799500D01*
X125566510Y-119830261D01*
X125566498Y-119830264D01*
X125420827Y-119890602D01*
X125420814Y-119890609D01*
X125289711Y-119978210D01*
X125289707Y-119978213D01*
X125178213Y-120089707D01*
X125178210Y-120089711D01*
X125090609Y-120220814D01*
X125090602Y-120220827D01*
X125030264Y-120366498D01*
X125030261Y-120366510D01*
X124999500Y-120521153D01*
X74218919Y-120521153D01*
X74067416Y-120331175D01*
X73868825Y-120132584D01*
X73649248Y-119957477D01*
X73411445Y-119808055D01*
X73411442Y-119808053D01*
X73158411Y-119686200D01*
X72893329Y-119593443D01*
X72893317Y-119593439D01*
X72619512Y-119530945D01*
X72619494Y-119530942D01*
X72340431Y-119499500D01*
X72340425Y-119499500D01*
X72059575Y-119499500D01*
X72059568Y-119499500D01*
X71780505Y-119530942D01*
X71780487Y-119530945D01*
X71506682Y-119593439D01*
X71506670Y-119593443D01*
X71241588Y-119686200D01*
X70988557Y-119808053D01*
X70750753Y-119957476D01*
X70531175Y-120132583D01*
X70332583Y-120331175D01*
X70157476Y-120550753D01*
X70008053Y-120788557D01*
X69886200Y-121041588D01*
X69793443Y-121306670D01*
X69793439Y-121306682D01*
X69730945Y-121580487D01*
X69730942Y-121580505D01*
X69699500Y-121859568D01*
X67500500Y-121859568D01*
X67500500Y-113724500D01*
X67520185Y-113657461D01*
X67572989Y-113611706D01*
X67624500Y-113600500D01*
X236375500Y-113600500D01*
X236442539Y-113620185D01*
G37*
%TD.AperFunction*%
%TD*%
M02*
