%TF.GenerationSoftware,KiCad,Pcbnew,9.0.6*%
%TF.CreationDate,2026-04-06T15:53:31+01:00*%
%TF.ProjectId,active label,61637469-7665-4206-9c61-62656c2e6b69,rev?*%
%TF.SameCoordinates,Original*%
%TF.FileFunction,Soldermask,Top*%
%TF.FilePolarity,Negative*%
%FSLAX46Y46*%
G04 Gerber Fmt 4.6, Leading zero omitted, Abs format (unit mm)*
G04 Created by KiCad (PCBNEW 9.0.6) date 2026-04-06 15:53:31*
%MOMM*%
%LPD*%
G01*
G04 APERTURE LIST*
G04 Aperture macros list*
%AMRoundRect*
0 Rectangle with rounded corners*
0 $1 Rounding radius*
0 $2 $3 $4 $5 $6 $7 $8 $9 X,Y pos of 4 corners*
0 Add a 4 corners polygon primitive as box body*
4,1,4,$2,$3,$4,$5,$6,$7,$8,$9,$2,$3,0*
0 Add four circle primitives for the rounded corners*
1,1,$1+$1,$2,$3*
1,1,$1+$1,$4,$5*
1,1,$1+$1,$6,$7*
1,1,$1+$1,$8,$9*
0 Add four rect primitives between the rounded corners*
20,1,$1+$1,$2,$3,$4,$5,0*
20,1,$1+$1,$4,$5,$6,$7,0*
20,1,$1+$1,$6,$7,$8,$9,0*
20,1,$1+$1,$8,$9,$2,$3,0*%
G04 Aperture macros list end*
%ADD10R,0.500000X1.000000*%
%ADD11R,1.460500X0.558800*%
%ADD12R,2.362200X3.352800*%
%ADD13R,0.609600X1.549400*%
%ADD14R,1.193800X1.803400*%
%ADD15R,0.660400X1.549400*%
%ADD16R,1.295400X1.905000*%
%ADD17R,0.584200X1.143000*%
%ADD18R,0.304800X1.143000*%
%ADD19O,0.990600X1.803400*%
%ADD20O,0.990600X2.108200*%
%ADD21C,0.660400*%
%ADD22R,0.952500X0.889000*%
%ADD23R,0.889000X0.952500*%
%ADD24RoundRect,0.250000X-0.250000X-0.475000X0.250000X-0.475000X0.250000X0.475000X-0.250000X0.475000X0*%
%ADD25RoundRect,0.250000X0.262500X0.450000X-0.262500X0.450000X-0.262500X-0.450000X0.262500X-0.450000X0*%
%ADD26RoundRect,0.250000X-0.262500X-0.450000X0.262500X-0.450000X0.262500X0.450000X-0.262500X0.450000X0*%
%ADD27R,1.155700X0.558800*%
%ADD28RoundRect,0.250000X-0.450000X0.262500X-0.450000X-0.262500X0.450000X-0.262500X0.450000X0.262500X0*%
%ADD29RoundRect,0.250000X-0.475000X0.250000X-0.475000X-0.250000X0.475000X-0.250000X0.475000X0.250000X0*%
%ADD30R,2.794000X2.032000*%
%ADD31R,0.355600X1.447800*%
%ADD32RoundRect,0.250000X0.250000X0.475000X-0.250000X0.475000X-0.250000X-0.475000X0.250000X-0.475000X0*%
%ADD33RoundRect,0.112500X-0.112500X-0.237500X0.112500X-0.237500X0.112500X0.237500X-0.112500X0.237500X0*%
%ADD34RoundRect,0.060300X-0.716700X-0.341700X0.716700X-0.341700X0.716700X0.341700X-0.716700X0.341700X0*%
%ADD35RoundRect,0.150000X-0.150000X0.587500X-0.150000X-0.587500X0.150000X-0.587500X0.150000X0.587500X0*%
%ADD36RoundRect,0.250000X0.450000X-0.262500X0.450000X0.262500X-0.450000X0.262500X-0.450000X-0.262500X0*%
%ADD37R,8.001000X2.209800*%
%ADD38R,1.500000X0.900000*%
%ADD39R,0.900000X1.500000*%
%ADD40C,0.600000*%
%ADD41R,3.900000X3.900000*%
G04 APERTURE END LIST*
D10*
%TO.C,Y1*%
X132900000Y-135600000D03*
X132900000Y-129200000D03*
X131500000Y-129200000D03*
X131500000Y-135600000D03*
%TD*%
D11*
%TO.C,U2*%
X202600000Y-130400000D03*
X202600000Y-131670000D03*
X202600000Y-132940000D03*
X202600000Y-134210000D03*
X208048300Y-134210000D03*
X208048300Y-132940000D03*
X208048300Y-131670000D03*
X208048300Y-130400000D03*
D12*
X205324150Y-132305000D03*
%TD*%
D13*
%TO.C,J8*%
X213900001Y-118800000D03*
X212900000Y-118800000D03*
X211899999Y-118800000D03*
D14*
X215200000Y-114924999D03*
X210600000Y-114924999D03*
%TD*%
D15*
%TO.C,J4*%
X224700000Y-118675001D03*
X223700002Y-118675001D03*
D16*
X222400002Y-114800000D03*
X226000000Y-114800000D03*
%TD*%
D15*
%TO.C,J3*%
X78000000Y-118875001D03*
X77000002Y-118875001D03*
D16*
X75700002Y-115000000D03*
X79300000Y-115000000D03*
%TD*%
D17*
%TO.C,J2*%
X179700000Y-141714200D03*
X180499999Y-141714200D03*
D18*
X181150001Y-141714200D03*
X181650000Y-141714200D03*
X182149999Y-141714200D03*
X182650000Y-141714200D03*
X183150000Y-141714200D03*
X183650001Y-141714200D03*
X184150000Y-141714200D03*
X184649999Y-141714200D03*
D17*
X185300001Y-141714200D03*
X186100000Y-141714200D03*
D19*
X178579998Y-146469200D03*
X187220002Y-146469200D03*
D20*
X178579998Y-142289200D03*
X187220002Y-142289200D03*
D21*
X180010001Y-142789199D03*
X185789999Y-142789199D03*
%TD*%
D22*
%TO.C,D5*%
X199900000Y-138200000D03*
X197956900Y-138200000D03*
%TD*%
D23*
%TO.C,D4*%
X141500000Y-134744450D03*
X141500000Y-136687550D03*
%TD*%
D22*
%TO.C,D3*%
X139628450Y-129900000D03*
X141571550Y-129900000D03*
%TD*%
%TO.C,D2*%
X141571550Y-127500000D03*
X139628450Y-127500000D03*
%TD*%
D24*
%TO.C,C1*%
X205450000Y-137000000D03*
X203550000Y-137000000D03*
%TD*%
D25*
%TO.C,R6*%
X167487500Y-135600000D03*
X169312500Y-135600000D03*
%TD*%
D26*
%TO.C,R2*%
X186512500Y-138900000D03*
X184687500Y-138900000D03*
%TD*%
D27*
%TO.C,SW1*%
X231500000Y-145800000D03*
X225340500Y-145800000D03*
X231500000Y-142100002D03*
X225340500Y-142100002D03*
%TD*%
D16*
%TO.C,J6*%
X82500001Y-146475001D03*
X88099999Y-146475001D03*
D15*
X86800000Y-142600000D03*
X85799999Y-142600000D03*
X84800001Y-142600000D03*
X83800000Y-142600000D03*
%TD*%
D28*
%TO.C,R10*%
X114900000Y-126325000D03*
X114900000Y-124500000D03*
%TD*%
D24*
%TO.C,C6*%
X81700000Y-139500000D03*
X79800000Y-139500000D03*
%TD*%
%TO.C,C18*%
X155700000Y-140100000D03*
X153800000Y-140100000D03*
%TD*%
D26*
%TO.C,R7*%
X233700000Y-139300000D03*
X231875000Y-139300000D03*
%TD*%
D29*
%TO.C,C17*%
X141800000Y-142350000D03*
X141800000Y-140450000D03*
%TD*%
D30*
%TO.C,J1*%
X144524998Y-131907902D03*
X159575000Y-131907902D03*
D31*
X146300000Y-133000000D03*
X146799999Y-133000000D03*
X147299998Y-133000000D03*
X147800000Y-133000000D03*
X148299999Y-133000000D03*
X148799998Y-133000000D03*
X149299999Y-133000000D03*
X149799998Y-133000000D03*
X150300000Y-133000000D03*
X150799999Y-133000000D03*
X151299998Y-133000000D03*
X151799999Y-133000000D03*
X152299999Y-133000000D03*
X152800000Y-133000000D03*
X153299999Y-133000000D03*
X153799998Y-133000000D03*
X154300000Y-133000000D03*
X154799999Y-133000000D03*
X155300000Y-133000000D03*
X155799999Y-133000000D03*
X156299998Y-133000000D03*
X156800000Y-133000000D03*
X157299999Y-133000000D03*
X157800000Y-133000000D03*
%TD*%
D32*
%TO.C,C13*%
X227700000Y-139300000D03*
X229600000Y-139300000D03*
%TD*%
D26*
%TO.C,R14*%
X193900000Y-140100000D03*
X192075000Y-140100000D03*
%TD*%
%TO.C,R8*%
X75900000Y-135000000D03*
X74075000Y-135000000D03*
%TD*%
D24*
%TO.C,C10*%
X141550000Y-125200000D03*
X139650000Y-125200000D03*
%TD*%
D26*
%TO.C,R12*%
X107912500Y-137900000D03*
X106087500Y-137900000D03*
%TD*%
D27*
%TO.C,SW2*%
X80459500Y-131299998D03*
X74300000Y-131299998D03*
X80459500Y-127600000D03*
X74300000Y-127600000D03*
%TD*%
D28*
%TO.C,R13*%
X112700000Y-126300000D03*
X112700000Y-124475000D03*
%TD*%
D32*
%TO.C,C15*%
X227000000Y-126300000D03*
X228900000Y-126300000D03*
%TD*%
D33*
%TO.C,D1*%
X195100000Y-114700000D03*
X195750000Y-116700000D03*
X194450000Y-116700000D03*
%TD*%
D26*
%TO.C,R1*%
X181512500Y-139000000D03*
X179687500Y-139000000D03*
%TD*%
D24*
%TO.C,C25*%
X200800000Y-122300000D03*
X198900000Y-122300000D03*
%TD*%
D29*
%TO.C,C23*%
X133000000Y-139200000D03*
X133000000Y-137300000D03*
%TD*%
D16*
%TO.C,J7*%
X73299998Y-146524999D03*
X78899996Y-146524999D03*
D15*
X77599997Y-142649998D03*
X76599996Y-142649998D03*
X75599998Y-142649998D03*
X74599997Y-142649998D03*
%TD*%
D26*
%TO.C,R9*%
X232600000Y-126300000D03*
X230775000Y-126300000D03*
%TD*%
D27*
%TO.C,SW3*%
X231459500Y-132599998D03*
X225300000Y-132599998D03*
X231459500Y-128900000D03*
X225300000Y-128900000D03*
%TD*%
D34*
%TO.C,U3*%
X208270000Y-122000000D03*
X208270000Y-123900000D03*
X205900000Y-123900000D03*
X205900000Y-122950000D03*
X205900000Y-122000000D03*
%TD*%
D32*
%TO.C,C4*%
X198850000Y-119900000D03*
X200750000Y-119900000D03*
%TD*%
D29*
%TO.C,C22*%
X130900000Y-139200000D03*
X130900000Y-137300000D03*
%TD*%
D26*
%TO.C,R11*%
X107900000Y-140300000D03*
X106075000Y-140300000D03*
%TD*%
D24*
%TO.C,C8*%
X132750000Y-145300000D03*
X130850000Y-145300000D03*
%TD*%
%TO.C,C2*%
X205400000Y-139300000D03*
X203500000Y-139300000D03*
%TD*%
%TO.C,C3*%
X205400000Y-141600000D03*
X203500000Y-141600000D03*
%TD*%
D35*
%TO.C,Q1*%
X162950000Y-137375000D03*
X162000000Y-135500000D03*
X163900000Y-135500000D03*
%TD*%
D24*
%TO.C,C20*%
X155650000Y-142300000D03*
X153750000Y-142300000D03*
%TD*%
D29*
%TO.C,C12*%
X139200000Y-138300000D03*
X139200000Y-136400000D03*
%TD*%
D24*
%TO.C,C9*%
X158450000Y-135700000D03*
X156550000Y-135700000D03*
%TD*%
D36*
%TO.C,R15*%
X190100000Y-140000000D03*
X190100000Y-141825000D03*
%TD*%
D37*
%TO.C,L1*%
X147400000Y-136600000D03*
X147400000Y-142315000D03*
%TD*%
D24*
%TO.C,C21*%
X155700000Y-137900000D03*
X153800000Y-137900000D03*
%TD*%
%TO.C,C7*%
X154800000Y-135700000D03*
X152900000Y-135700000D03*
%TD*%
D26*
%TO.C,R4*%
X212700000Y-133500000D03*
X210875000Y-133500000D03*
%TD*%
%TO.C,R3*%
X212712500Y-131400000D03*
X210887500Y-131400000D03*
%TD*%
D25*
%TO.C,R17*%
X198900000Y-124800000D03*
X200725000Y-124800000D03*
%TD*%
D24*
%TO.C,C24*%
X194000000Y-142500000D03*
X192100000Y-142500000D03*
%TD*%
%TO.C,C19*%
X150250000Y-145000000D03*
X148350000Y-145000000D03*
%TD*%
%TO.C,C14*%
X80300000Y-135100000D03*
X78400000Y-135100000D03*
%TD*%
D25*
%TO.C,R5*%
X160475000Y-140100000D03*
X162300000Y-140100000D03*
%TD*%
D24*
%TO.C,C5*%
X213100000Y-122000000D03*
X211200000Y-122000000D03*
%TD*%
D29*
%TO.C,C16*%
X139200000Y-134150000D03*
X139200000Y-132250000D03*
%TD*%
D24*
%TO.C,C11*%
X162250000Y-142500000D03*
X160350000Y-142500000D03*
%TD*%
D26*
%TO.C,R16*%
X200725000Y-127300000D03*
X198900000Y-127300000D03*
%TD*%
D38*
%TO.C,U1*%
X128105000Y-146600000D03*
X128105000Y-145330000D03*
X128105000Y-144060000D03*
X128105000Y-142790000D03*
X128105000Y-141520000D03*
X128105000Y-140250000D03*
X128105000Y-138980000D03*
X128105000Y-137710000D03*
X128105000Y-136440000D03*
X128105000Y-135170000D03*
X128105000Y-133900000D03*
X128105000Y-132630000D03*
X128105000Y-131360000D03*
X128105000Y-130090000D03*
D39*
X126340000Y-128840000D03*
X125070000Y-128840000D03*
X123800000Y-128840000D03*
X122530000Y-128840000D03*
X121260000Y-128840000D03*
X119990000Y-128840000D03*
X118720000Y-128840000D03*
X117450000Y-128840000D03*
X116180000Y-128840000D03*
X114910000Y-128840000D03*
X113640000Y-128840000D03*
X112370000Y-128840000D03*
D38*
X110605000Y-130090000D03*
X110605000Y-131360000D03*
X110605000Y-132630000D03*
X110605000Y-133900000D03*
X110605000Y-135170000D03*
X110605000Y-136440000D03*
X110605000Y-137710000D03*
X110605000Y-138980000D03*
X110605000Y-140250000D03*
X110605000Y-141520000D03*
X110605000Y-142790000D03*
X110605000Y-144060000D03*
X110605000Y-145330000D03*
X110605000Y-146600000D03*
D40*
X122255000Y-139580000D03*
X122255000Y-138180000D03*
X121555000Y-140280000D03*
X121555000Y-138880000D03*
X121555000Y-137480000D03*
X120855000Y-139580000D03*
D41*
X120855000Y-138880000D03*
D40*
X120855000Y-138180000D03*
X120155000Y-140280000D03*
X120155000Y-138880000D03*
X120155000Y-137480000D03*
X119455000Y-139580000D03*
X119455000Y-138180000D03*
%TD*%
M02*
