%TF.GenerationSoftware,KiCad,Pcbnew,9.0.6*%
%TF.CreationDate,2026-04-06T15:53:31+01:00*%
%TF.ProjectId,active label,61637469-7665-4206-9c61-62656c2e6b69,rev?*%
%TF.SameCoordinates,Original*%
%TF.FileFunction,Copper,L1,Top*%
%TF.FilePolarity,Positive*%
%FSLAX46Y46*%
G04 Gerber Fmt 4.6, Leading zero omitted, Abs format (unit mm)*
G04 Created by KiCad (PCBNEW 9.0.6) date 2026-04-06 15:53:31*
%MOMM*%
%LPD*%
G01*
G04 APERTURE LIST*
G04 Aperture macros list*
%AMRoundRect*
0 Rectangle with rounded corners*
0 $1 Rounding radius*
0 $2 $3 $4 $5 $6 $7 $8 $9 X,Y pos of 4 corners*
0 Add a 4 corners polygon primitive as box body*
4,1,4,$2,$3,$4,$5,$6,$7,$8,$9,$2,$3,0*
0 Add four circle primitives for the rounded corners*
1,1,$1+$1,$2,$3*
1,1,$1+$1,$4,$5*
1,1,$1+$1,$6,$7*
1,1,$1+$1,$8,$9*
0 Add four rect primitives between the rounded corners*
20,1,$1+$1,$2,$3,$4,$5,0*
20,1,$1+$1,$4,$5,$6,$7,0*
20,1,$1+$1,$6,$7,$8,$9,0*
20,1,$1+$1,$8,$9,$2,$3,0*%
G04 Aperture macros list end*
%TA.AperFunction,SMDPad,CuDef*%
%ADD10R,0.500000X1.000000*%
%TD*%
%TA.AperFunction,SMDPad,CuDef*%
%ADD11R,1.460500X0.558800*%
%TD*%
%TA.AperFunction,SMDPad,CuDef*%
%ADD12R,2.362200X3.352800*%
%TD*%
%TA.AperFunction,SMDPad,CuDef*%
%ADD13R,0.609600X1.549400*%
%TD*%
%TA.AperFunction,SMDPad,CuDef*%
%ADD14R,1.193800X1.803400*%
%TD*%
%TA.AperFunction,SMDPad,CuDef*%
%ADD15R,0.660400X1.549400*%
%TD*%
%TA.AperFunction,SMDPad,CuDef*%
%ADD16R,1.295400X1.905000*%
%TD*%
%TA.AperFunction,SMDPad,CuDef*%
%ADD17R,0.584200X1.143000*%
%TD*%
%TA.AperFunction,SMDPad,CuDef*%
%ADD18R,0.304800X1.143000*%
%TD*%
%TA.AperFunction,WasherPad*%
%ADD19O,0.990600X1.803400*%
%TD*%
%TA.AperFunction,WasherPad*%
%ADD20O,0.990600X2.108200*%
%TD*%
%TA.AperFunction,SMDPad,CuDef*%
%ADD21R,0.952500X0.889000*%
%TD*%
%TA.AperFunction,SMDPad,CuDef*%
%ADD22R,0.889000X0.952500*%
%TD*%
%TA.AperFunction,SMDPad,CuDef*%
%ADD23RoundRect,0.250000X-0.250000X-0.475000X0.250000X-0.475000X0.250000X0.475000X-0.250000X0.475000X0*%
%TD*%
%TA.AperFunction,SMDPad,CuDef*%
%ADD24RoundRect,0.250000X0.262500X0.450000X-0.262500X0.450000X-0.262500X-0.450000X0.262500X-0.450000X0*%
%TD*%
%TA.AperFunction,SMDPad,CuDef*%
%ADD25RoundRect,0.250000X-0.262500X-0.450000X0.262500X-0.450000X0.262500X0.450000X-0.262500X0.450000X0*%
%TD*%
%TA.AperFunction,SMDPad,CuDef*%
%ADD26R,1.155700X0.558800*%
%TD*%
%TA.AperFunction,SMDPad,CuDef*%
%ADD27RoundRect,0.250000X-0.450000X0.262500X-0.450000X-0.262500X0.450000X-0.262500X0.450000X0.262500X0*%
%TD*%
%TA.AperFunction,SMDPad,CuDef*%
%ADD28RoundRect,0.250000X-0.475000X0.250000X-0.475000X-0.250000X0.475000X-0.250000X0.475000X0.250000X0*%
%TD*%
%TA.AperFunction,SMDPad,CuDef*%
%ADD29R,2.794000X2.032000*%
%TD*%
%TA.AperFunction,SMDPad,CuDef*%
%ADD30R,0.355600X1.447800*%
%TD*%
%TA.AperFunction,SMDPad,CuDef*%
%ADD31RoundRect,0.250000X0.250000X0.475000X-0.250000X0.475000X-0.250000X-0.475000X0.250000X-0.475000X0*%
%TD*%
%TA.AperFunction,SMDPad,CuDef*%
%ADD32RoundRect,0.112500X-0.112500X-0.237500X0.112500X-0.237500X0.112500X0.237500X-0.112500X0.237500X0*%
%TD*%
%TA.AperFunction,SMDPad,CuDef*%
%ADD33RoundRect,0.045000X-0.630000X-0.255000X0.630000X-0.255000X0.630000X0.255000X-0.630000X0.255000X0*%
%TD*%
%TA.AperFunction,SMDPad,CuDef*%
%ADD34RoundRect,0.150000X-0.150000X0.587500X-0.150000X-0.587500X0.150000X-0.587500X0.150000X0.587500X0*%
%TD*%
%TA.AperFunction,SMDPad,CuDef*%
%ADD35RoundRect,0.250000X0.450000X-0.262500X0.450000X0.262500X-0.450000X0.262500X-0.450000X-0.262500X0*%
%TD*%
%TA.AperFunction,SMDPad,CuDef*%
%ADD36R,8.001000X2.209800*%
%TD*%
%TA.AperFunction,SMDPad,CuDef*%
%ADD37R,1.500000X0.900000*%
%TD*%
%TA.AperFunction,SMDPad,CuDef*%
%ADD38R,0.900000X1.500000*%
%TD*%
%TA.AperFunction,HeatsinkPad*%
%ADD39C,0.600000*%
%TD*%
%TA.AperFunction,HeatsinkPad*%
%ADD40R,3.900000X3.900000*%
%TD*%
%TA.AperFunction,ViaPad*%
%ADD41C,0.600000*%
%TD*%
%TA.AperFunction,Conductor*%
%ADD42C,0.200000*%
%TD*%
%TA.AperFunction,Conductor*%
%ADD43C,0.500000*%
%TD*%
%TA.AperFunction,Conductor*%
%ADD44C,0.700000*%
%TD*%
%TA.AperFunction,Conductor*%
%ADD45C,0.300000*%
%TD*%
G04 APERTURE END LIST*
D10*
%TO.P,Y1,1,1*%
%TO.N,Net-(U1-IO15)*%
X132900000Y-135600000D03*
%TO.P,Y1,2*%
%TO.N,N/C*%
X132900000Y-129200000D03*
%TO.P,Y1,3*%
X131500000Y-129200000D03*
%TO.P,Y1,4,4*%
%TO.N,Net-(U1-IO16)*%
X131500000Y-135600000D03*
%TD*%
D11*
%TO.P,U2,1,VIN*%
%TO.N,Net-(U2-\u002AEN)*%
X202600000Y-130400000D03*
%TO.P,U2,2,\u002APPR*%
%TO.N,unconnected-(U2-\u002APPR-Pad2)*%
X202600000Y-131670000D03*
%TO.P,U2,3,\u002ACHG*%
%TO.N,unconnected-(U2-\u002ACHG-Pad3)*%
X202600000Y-132940000D03*
%TO.P,U2,4,\u002AEN*%
%TO.N,Net-(U2-\u002AEN)*%
X202600000Y-134210000D03*
%TO.P,U2,5,GND*%
%TO.N,GND*%
X208048300Y-134210000D03*
%TO.P,U2,6,IMIN*%
%TO.N,Net-(U2-IMIN)*%
X208048300Y-132940000D03*
%TO.P,U2,7,IREF*%
%TO.N,Net-(U2-IREF)*%
X208048300Y-131670000D03*
%TO.P,U2,8,BAT*%
%TO.N,VBAT*%
X208048300Y-130400000D03*
D12*
%TO.P,U2,9,GND*%
%TO.N,GND*%
X205324150Y-132305000D03*
%TD*%
D13*
%TO.P,J8,1,1*%
%TO.N,GND*%
X213900001Y-118800000D03*
%TO.P,J8,2,2*%
%TO.N,unconnected-(J8-Pad2)*%
X212900000Y-118800000D03*
%TO.P,J8,3,3*%
%TO.N,VBAT*%
X211899999Y-118800000D03*
D14*
%TO.P,J8,4*%
%TO.N,N/C*%
X215200000Y-114924999D03*
%TO.P,J8,5*%
X210600000Y-114924999D03*
%TD*%
D15*
%TO.P,J4,1,1*%
%TO.N,Net-(D1-Pad2)*%
X224700000Y-118675001D03*
%TO.P,J4,2,2*%
%TO.N,GND*%
X223700002Y-118675001D03*
D16*
%TO.P,J4,3*%
%TO.N,N/C*%
X222400002Y-114800000D03*
%TO.P,J4,4*%
X226000000Y-114800000D03*
%TD*%
D15*
%TO.P,J3,1,1*%
%TO.N,Net-(D1-Pad1)*%
X78000000Y-118875001D03*
%TO.P,J3,2,2*%
%TO.N,GND*%
X77000002Y-118875001D03*
D16*
%TO.P,J3,3*%
%TO.N,N/C*%
X75700002Y-115000000D03*
%TO.P,J3,4*%
X79300000Y-115000000D03*
%TD*%
D17*
%TO.P,J2,A1-B12,GND*%
%TO.N,GND*%
X179700000Y-141714200D03*
%TO.P,J2,A4-B9,VBUS*%
%TO.N,VUSB*%
X180499999Y-141714200D03*
D18*
%TO.P,J2,B8,SBU2*%
%TO.N,unconnected-(J2-SBU2-PadB8)*%
X181150001Y-141714200D03*
%TO.P,J2,A5,CC1*%
%TO.N,Net-(J2-CC1)*%
X181650000Y-141714200D03*
%TO.P,J2,B7,DN2*%
%TO.N,USBD-*%
X182149999Y-141714200D03*
%TO.P,J2,A6,DP1*%
%TO.N,USBD+*%
X182650000Y-141714200D03*
%TO.P,J2,A7,DN1*%
%TO.N,USBD-*%
X183150000Y-141714200D03*
%TO.P,J2,B6,DP2*%
%TO.N,USBD+*%
X183650001Y-141714200D03*
%TO.P,J2,A8,SBU1*%
%TO.N,unconnected-(J2-SBU1-PadA8)*%
X184150000Y-141714200D03*
%TO.P,J2,B5,CC2*%
%TO.N,Net-(J2-CC2)*%
X184649999Y-141714200D03*
D17*
%TO.P,J2,B4-A9,VBUS*%
%TO.N,VUSB*%
X185300001Y-141714200D03*
%TO.P,J2,B1-A12,GND*%
%TO.N,GND*%
X186100000Y-141714200D03*
D19*
%TO.P,J2,*%
%TO.N,*%
X178579998Y-146469200D03*
X187220002Y-146469200D03*
D20*
X178579998Y-142289200D03*
X187220002Y-142289200D03*
%TD*%
D21*
%TO.P,D5,1*%
%TO.N,Net-(U2-\u002AEN)*%
X199900000Y-138200000D03*
%TO.P,D5,2*%
%TO.N,VUSB*%
X197956900Y-138200000D03*
%TD*%
D22*
%TO.P,D4,1*%
%TO.N,PREVGH*%
X141500000Y-134744450D03*
%TO.P,D4,2*%
%TO.N,Net-(Q1-D)*%
X141500000Y-136687550D03*
%TD*%
D21*
%TO.P,D3,1*%
%TO.N,Net-(C10-Pad1)*%
X139628450Y-129900000D03*
%TO.P,D3,2*%
%TO.N,PREVGL*%
X141571550Y-129900000D03*
%TD*%
%TO.P,D2,1*%
%TO.N,GND*%
X141571550Y-127500000D03*
%TO.P,D2,2*%
%TO.N,Net-(C10-Pad1)*%
X139628450Y-127500000D03*
%TD*%
D23*
%TO.P,C1,2*%
%TO.N,GND*%
X205450000Y-137000000D03*
%TO.P,C1,1*%
%TO.N,Net-(U2-\u002AEN)*%
X203550000Y-137000000D03*
%TD*%
D24*
%TO.P,R6,2*%
%TO.N,GDR*%
X167487500Y-135600000D03*
%TO.P,R6,1*%
%TO.N,GND*%
X169312500Y-135600000D03*
%TD*%
D25*
%TO.P,R2,2*%
%TO.N,GND*%
X186512500Y-138900000D03*
%TO.P,R2,1*%
%TO.N,Net-(J2-CC2)*%
X184687500Y-138900000D03*
%TD*%
D26*
%TO.P,SW1,4,A*%
%TO.N,unconnected-(SW1-A-Pad4)*%
X231500000Y-145800000D03*
%TO.P,SW1,3,K*%
%TO.N,CHIP_PU*%
X225340500Y-145800000D03*
%TO.P,SW1,2,2*%
%TO.N,GND*%
X231500000Y-142100002D03*
%TO.P,SW1,1,1*%
%TO.N,unconnected-(SW1-Pad1)*%
X225340500Y-142100002D03*
%TD*%
D16*
%TO.P,J6,6*%
%TO.N,N/C*%
X82500001Y-146475001D03*
%TO.P,J6,5*%
X88099999Y-146475001D03*
D15*
%TO.P,J6,4,4*%
%TO.N,SCL0*%
X86800000Y-142600000D03*
%TO.P,J6,3,3*%
%TO.N,SDA0*%
X85799999Y-142600000D03*
%TO.P,J6,2,2*%
%TO.N,+3V3*%
X84800001Y-142600000D03*
%TO.P,J6,1,1*%
%TO.N,GND*%
X83800000Y-142600000D03*
%TD*%
D27*
%TO.P,R10,2*%
%TO.N,SDA0*%
X114900000Y-126325000D03*
%TO.P,R10,1*%
%TO.N,+3V3*%
X114900000Y-124500000D03*
%TD*%
D23*
%TO.P,C6,2*%
%TO.N,GND*%
X81700000Y-139500000D03*
%TO.P,C6,1*%
%TO.N,+3V3*%
X79800000Y-139500000D03*
%TD*%
%TO.P,C18,2*%
%TO.N,GND*%
X155700000Y-140100000D03*
%TO.P,C18,1*%
%TO.N,DVDD*%
X153800000Y-140100000D03*
%TD*%
D25*
%TO.P,R7,2*%
%TO.N,+3V3*%
X233700000Y-139300000D03*
%TO.P,R7,1*%
%TO.N,CHIP_PU*%
X231875000Y-139300000D03*
%TD*%
D28*
%TO.P,C17,2*%
%TO.N,GND*%
X141800000Y-142350000D03*
%TO.P,C17,1*%
%TO.N,Net-(C17-Pad1)*%
X141800000Y-140450000D03*
%TD*%
D29*
%TO.P,J1,26*%
%TO.N,N/C*%
X144524998Y-131907902D03*
%TO.P,J1,25*%
X159575000Y-131907902D03*
D30*
%TO.P,J1,24,24*%
%TO.N,Net-(C17-Pad1)*%
X146300000Y-133000000D03*
%TO.P,J1,23,23*%
%TO.N,PREVGL*%
X146799999Y-133000000D03*
%TO.P,J1,22,22*%
%TO.N,VSL*%
X147299998Y-133000000D03*
%TO.P,J1,21,21*%
%TO.N,PREVGH*%
X147800000Y-133000000D03*
%TO.P,J1,20,20*%
%TO.N,VSH1*%
X148299999Y-133000000D03*
%TO.P,J1,19,19*%
%TO.N,unconnected-(J1-Pad19)*%
X148799998Y-133000000D03*
%TO.P,J1,18,18*%
%TO.N,DVDD*%
X149299999Y-133000000D03*
%TO.P,J1,17,17*%
%TO.N,GND*%
X149799998Y-133000000D03*
%TO.P,J1,16,16*%
%TO.N,+3V3*%
X150300000Y-133000000D03*
%TO.P,J1,15,15*%
X150799999Y-133000000D03*
%TO.P,J1,14,14*%
%TO.N,SPI_MOSI*%
X151299998Y-133000000D03*
%TO.P,J1,13,13*%
%TO.N,SPI_SCK*%
X151799999Y-133000000D03*
%TO.P,J1,12,12*%
%TO.N,SPI_CS*%
X152299999Y-133000000D03*
%TO.P,J1,11,11*%
%TO.N,DATA_COMMAND_N*%
X152800000Y-133000000D03*
%TO.P,J1,10,10*%
%TO.N,RESET_N*%
X153299999Y-133000000D03*
%TO.P,J1,9,9*%
%TO.N,BUSY_N*%
X153799998Y-133000000D03*
%TO.P,J1,8,8*%
%TO.N,GND*%
X154300000Y-133000000D03*
%TO.P,J1,7,7*%
%TO.N,unconnected-(J1-Pad7)*%
X154799999Y-133000000D03*
%TO.P,J1,6,6*%
%TO.N,unconnected-(J1-Pad6)*%
X155300000Y-133000000D03*
%TO.P,J1,5,5*%
%TO.N,Net-(C21-Pad2)*%
X155799999Y-133000000D03*
%TO.P,J1,4,4*%
%TO.N,unconnected-(J1-Pad4)*%
X156299998Y-133000000D03*
%TO.P,J1,3,3*%
%TO.N,RESE*%
X156800000Y-133000000D03*
%TO.P,J1,2,2*%
%TO.N,GDR*%
X157299999Y-133000000D03*
%TO.P,J1,1,1*%
%TO.N,unconnected-(J1-Pad1)*%
X157800000Y-133000000D03*
%TD*%
D31*
%TO.P,C13,2*%
%TO.N,GND*%
X227700000Y-139300000D03*
%TO.P,C13,1*%
%TO.N,CHIP_PU*%
X229600000Y-139300000D03*
%TD*%
D25*
%TO.P,R14,2*%
%TO.N,VUSB*%
X193900000Y-140100000D03*
%TO.P,R14,1*%
%TO.N,VUSB_SENSE*%
X192075000Y-140100000D03*
%TD*%
%TO.P,R8,2*%
%TO.N,+3V3*%
X75900000Y-135000000D03*
%TO.P,R8,1*%
%TO.N,SWITCH_L*%
X74075000Y-135000000D03*
%TD*%
D23*
%TO.P,C10,2*%
%TO.N,Net-(Q1-D)*%
X141550000Y-125200000D03*
%TO.P,C10,1*%
%TO.N,Net-(C10-Pad1)*%
X139650000Y-125200000D03*
%TD*%
D25*
%TO.P,R12,2*%
%TO.N,SDA1*%
X107912500Y-137900000D03*
%TO.P,R12,1*%
%TO.N,+3V3*%
X106087500Y-137900000D03*
%TD*%
D26*
%TO.P,SW2,4,A*%
%TO.N,unconnected-(SW2-A-Pad4)*%
X80459500Y-131299998D03*
%TO.P,SW2,3,K*%
%TO.N,SWITCH_L*%
X74300000Y-131299998D03*
%TO.P,SW2,2,2*%
%TO.N,GND*%
X80459500Y-127600000D03*
%TO.P,SW2,1,1*%
%TO.N,unconnected-(SW2-Pad1)*%
X74300000Y-127600000D03*
%TD*%
D27*
%TO.P,R13,2*%
%TO.N,SCL0*%
X112700000Y-126300000D03*
%TO.P,R13,1*%
%TO.N,+3V3*%
X112700000Y-124475000D03*
%TD*%
D31*
%TO.P,C15,2*%
%TO.N,GND*%
X227000000Y-126300000D03*
%TO.P,C15,1*%
%TO.N,SWITCH_R*%
X228900000Y-126300000D03*
%TD*%
D32*
%TO.P,D1,3*%
%TO.N,Net-(U2-\u002AEN)*%
X195100000Y-114700000D03*
%TO.P,D1,2*%
%TO.N,Net-(D1-Pad2)*%
X195750000Y-116700000D03*
%TO.P,D1,1*%
%TO.N,Net-(D1-Pad1)*%
X194450000Y-116700000D03*
%TD*%
D25*
%TO.P,R1,2*%
%TO.N,Net-(J2-CC1)*%
X181512500Y-139000000D03*
%TO.P,R1,1*%
%TO.N,GND*%
X179687500Y-139000000D03*
%TD*%
D23*
%TO.P,C25,2*%
%TO.N,GND*%
X200800000Y-122300000D03*
%TO.P,C25,1*%
%TO.N,VBAT_SENSE*%
X198900000Y-122300000D03*
%TD*%
D28*
%TO.P,C23,2*%
%TO.N,GND*%
X133000000Y-139200000D03*
%TO.P,C23,1*%
%TO.N,Net-(U1-IO15)*%
X133000000Y-137300000D03*
%TD*%
D16*
%TO.P,J7,6*%
%TO.N,N/C*%
X73299998Y-146524999D03*
%TO.P,J7,5*%
X78899996Y-146524999D03*
D15*
%TO.P,J7,4,4*%
%TO.N,SCL1*%
X77599997Y-142649998D03*
%TO.P,J7,3,3*%
%TO.N,SDA1*%
X76599996Y-142649998D03*
%TO.P,J7,2,2*%
%TO.N,+3V3*%
X75599998Y-142649998D03*
%TO.P,J7,1,1*%
%TO.N,GND*%
X74599997Y-142649998D03*
%TD*%
D25*
%TO.P,R9,2*%
%TO.N,+3V3*%
X232600000Y-126300000D03*
%TO.P,R9,1*%
%TO.N,SWITCH_R*%
X230775000Y-126300000D03*
%TD*%
D26*
%TO.P,SW3,4,A*%
%TO.N,unconnected-(SW3-A-Pad4)*%
X231459500Y-132599998D03*
%TO.P,SW3,3,K*%
%TO.N,SWITCH_R*%
X225300000Y-132599998D03*
%TO.P,SW3,2,2*%
%TO.N,GND*%
X231459500Y-128900000D03*
%TO.P,SW3,1,1*%
%TO.N,unconnected-(SW3-Pad1)*%
X225300000Y-128900000D03*
%TD*%
D33*
%TO.P,U3,5,VOUT*%
%TO.N,+3V3*%
X208270000Y-122000000D03*
%TO.P,U3,4*%
%TO.N,N/C*%
X208270000Y-123900000D03*
%TO.P,U3,3,EN*%
%TO.N,VBAT*%
X205900000Y-123900000D03*
%TO.P,U3,2,GND*%
%TO.N,GND*%
X205900000Y-122950000D03*
%TO.P,U3,1,VIN*%
%TO.N,VBAT*%
X205900000Y-122000000D03*
%TD*%
D31*
%TO.P,C4,2*%
%TO.N,GND*%
X198850000Y-119900000D03*
%TO.P,C4,1*%
%TO.N,VBAT*%
X200750000Y-119900000D03*
%TD*%
D28*
%TO.P,C22,2*%
%TO.N,GND*%
X130900000Y-139200000D03*
%TO.P,C22,1*%
%TO.N,Net-(U1-IO16)*%
X130900000Y-137300000D03*
%TD*%
D25*
%TO.P,R11,2*%
%TO.N,SCL1*%
X107900000Y-140300000D03*
%TO.P,R11,1*%
%TO.N,+3V3*%
X106075000Y-140300000D03*
%TD*%
D23*
%TO.P,C8,2*%
%TO.N,GND*%
X132750000Y-145300000D03*
%TO.P,C8,1*%
%TO.N,+3V3*%
X130850000Y-145300000D03*
%TD*%
%TO.P,C2,2*%
%TO.N,GND*%
X205400000Y-139300000D03*
%TO.P,C2,1*%
%TO.N,Net-(U2-\u002AEN)*%
X203500000Y-139300000D03*
%TD*%
%TO.P,C3,2*%
%TO.N,GND*%
X205400000Y-141600000D03*
%TO.P,C3,1*%
%TO.N,Net-(U2-\u002AEN)*%
X203500000Y-141600000D03*
%TD*%
D34*
%TO.P,Q1,3,D*%
%TO.N,Net-(Q1-D)*%
X162950000Y-137375000D03*
%TO.P,Q1,2,S*%
%TO.N,RESE*%
X162000000Y-135500000D03*
%TO.P,Q1,1,G*%
%TO.N,GDR*%
X163900000Y-135500000D03*
%TD*%
D23*
%TO.P,C20,2*%
%TO.N,GND*%
X155650000Y-142300000D03*
%TO.P,C20,1*%
%TO.N,VSH1*%
X153750000Y-142300000D03*
%TD*%
D28*
%TO.P,C12,2*%
%TO.N,GND*%
X139200000Y-138300000D03*
%TO.P,C12,1*%
%TO.N,PREVGH*%
X139200000Y-136400000D03*
%TD*%
D23*
%TO.P,C9,2*%
%TO.N,GND*%
X158450000Y-135700000D03*
%TO.P,C9,1*%
%TO.N,+3V3*%
X156550000Y-135700000D03*
%TD*%
D35*
%TO.P,R15,2*%
%TO.N,VUSB_SENSE*%
X190100000Y-140000000D03*
%TO.P,R15,1*%
%TO.N,GND*%
X190100000Y-141825000D03*
%TD*%
D36*
%TO.P,L1,2*%
%TO.N,Net-(Q1-D)*%
X147400000Y-136600000D03*
%TO.P,L1,1*%
%TO.N,+3V3*%
X147400000Y-142315000D03*
%TD*%
D23*
%TO.P,C21,2*%
%TO.N,Net-(C21-Pad2)*%
X155700000Y-137900000D03*
%TO.P,C21,1*%
%TO.N,GND*%
X153800000Y-137900000D03*
%TD*%
%TO.P,C7,2*%
%TO.N,GND*%
X154800000Y-135700000D03*
%TO.P,C7,1*%
%TO.N,+3V3*%
X152900000Y-135700000D03*
%TD*%
D25*
%TO.P,R4,2*%
%TO.N,GND*%
X212700000Y-133500000D03*
%TO.P,R4,1*%
%TO.N,Net-(U2-IMIN)*%
X210875000Y-133500000D03*
%TD*%
%TO.P,R3,2*%
%TO.N,GND*%
X212712500Y-131400000D03*
%TO.P,R3,1*%
%TO.N,Net-(U2-IREF)*%
X210887500Y-131400000D03*
%TD*%
D24*
%TO.P,R17,2*%
%TO.N,VBAT_SENSE*%
X198900000Y-124800000D03*
%TO.P,R17,1*%
%TO.N,GND*%
X200725000Y-124800000D03*
%TD*%
D23*
%TO.P,C24,2*%
%TO.N,GND*%
X194000000Y-142500000D03*
%TO.P,C24,1*%
%TO.N,VUSB_SENSE*%
X192100000Y-142500000D03*
%TD*%
%TO.P,C19,2*%
%TO.N,GND*%
X150250000Y-145000000D03*
%TO.P,C19,1*%
%TO.N,VSL*%
X148350000Y-145000000D03*
%TD*%
%TO.P,C14,2*%
%TO.N,GND*%
X80300000Y-135100000D03*
%TO.P,C14,1*%
%TO.N,SWITCH_L*%
X78400000Y-135100000D03*
%TD*%
D24*
%TO.P,R5,2*%
%TO.N,RESE*%
X160475000Y-140100000D03*
%TO.P,R5,1*%
%TO.N,GND*%
X162300000Y-140100000D03*
%TD*%
D23*
%TO.P,C5,2*%
%TO.N,GND*%
X213100000Y-122000000D03*
%TO.P,C5,1*%
%TO.N,+3V3*%
X211200000Y-122000000D03*
%TD*%
D28*
%TO.P,C16,2*%
%TO.N,GND*%
X139200000Y-134150000D03*
%TO.P,C16,1*%
%TO.N,PREVGL*%
X139200000Y-132250000D03*
%TD*%
D23*
%TO.P,C11,2*%
%TO.N,GND*%
X162250000Y-142500000D03*
%TO.P,C11,1*%
%TO.N,+3V3*%
X160350000Y-142500000D03*
%TD*%
D25*
%TO.P,R16,2*%
%TO.N,VBAT*%
X200725000Y-127300000D03*
%TO.P,R16,1*%
%TO.N,VBAT_SENSE*%
X198900000Y-127300000D03*
%TD*%
D37*
%TO.P,U1,1,GND*%
%TO.N,GND*%
X128105000Y-146600000D03*
%TO.P,U1,2,3V3*%
%TO.N,+3V3*%
X128105000Y-145330000D03*
%TO.P,U1,3,EN*%
%TO.N,CHIP_PU*%
X128105000Y-144060000D03*
%TO.P,U1,4,IO4*%
%TO.N,BUSY_N*%
X128105000Y-142790000D03*
%TO.P,U1,5,IO5*%
%TO.N,RESET_N*%
X128105000Y-141520000D03*
%TO.P,U1,6,IO6*%
%TO.N,DATA_COMMAND_N*%
X128105000Y-140250000D03*
%TO.P,U1,7,IO7*%
%TO.N,SPI_CS*%
X128105000Y-138980000D03*
%TO.P,U1,8,IO15*%
%TO.N,Net-(U1-IO15)*%
X128105000Y-137710000D03*
%TO.P,U1,9,IO16*%
%TO.N,Net-(U1-IO16)*%
X128105000Y-136440000D03*
%TO.P,U1,10,IO17*%
%TO.N,unconnected-(U1-IO17-Pad10)*%
X128105000Y-135170000D03*
%TO.P,U1,11,IO18*%
%TO.N,unconnected-(U1-IO18-Pad11)*%
X128105000Y-133900000D03*
%TO.P,U1,12,IO8*%
%TO.N,SWITCH_R*%
X128105000Y-132630000D03*
%TO.P,U1,13,USB_D-*%
%TO.N,USBD-*%
X128105000Y-131360000D03*
%TO.P,U1,14,USB_D+*%
%TO.N,USBD+*%
X128105000Y-130090000D03*
D38*
%TO.P,U1,15,IO3*%
%TO.N,unconnected-(U1-IO3-Pad15)*%
X126340000Y-128840000D03*
%TO.P,U1,16,IO46*%
%TO.N,unconnected-(U1-IO46-Pad16)*%
X125070000Y-128840000D03*
%TO.P,U1,17,IO9*%
%TO.N,SWITCH_L*%
X123800000Y-128840000D03*
%TO.P,U1,18,IO10*%
%TO.N,unconnected-(U1-IO10-Pad18)*%
X122530000Y-128840000D03*
%TO.P,U1,19,IO11*%
%TO.N,SPI_MOSI*%
X121260000Y-128840000D03*
%TO.P,U1,20,IO12*%
%TO.N,SPI_SCK*%
X119990000Y-128840000D03*
%TO.P,U1,21,IO13*%
%TO.N,unconnected-(U1-IO13-Pad21)*%
X118720000Y-128840000D03*
%TO.P,U1,22,IO14*%
%TO.N,unconnected-(U1-IO14-Pad22)*%
X117450000Y-128840000D03*
%TO.P,U1,23,IO21*%
%TO.N,unconnected-(U1-IO21-Pad23)*%
X116180000Y-128840000D03*
%TO.P,U1,24,IO47*%
%TO.N,SDA0*%
X114910000Y-128840000D03*
%TO.P,U1,25,IO48*%
%TO.N,SCL0*%
X113640000Y-128840000D03*
%TO.P,U1,26,IO45*%
%TO.N,unconnected-(U1-IO45-Pad26)*%
X112370000Y-128840000D03*
D37*
%TO.P,U1,27,IO0*%
%TO.N,unconnected-(U1-IO0-Pad27)*%
X110605000Y-130090000D03*
%TO.P,U1,28,IO35*%
%TO.N,unconnected-(U1-IO35-Pad28)*%
X110605000Y-131360000D03*
%TO.P,U1,29,IO36*%
%TO.N,unconnected-(U1-IO36-Pad29)*%
X110605000Y-132630000D03*
%TO.P,U1,30,IO37*%
%TO.N,unconnected-(U1-IO37-Pad30)*%
X110605000Y-133900000D03*
%TO.P,U1,31,IO38*%
%TO.N,unconnected-(U1-IO38-Pad31)*%
X110605000Y-135170000D03*
%TO.P,U1,32,IO39*%
%TO.N,unconnected-(U1-IO39-Pad32)*%
X110605000Y-136440000D03*
%TO.P,U1,33,IO40*%
%TO.N,unconnected-(U1-IO40-Pad33)*%
X110605000Y-137710000D03*
%TO.P,U1,34,IO41*%
%TO.N,SDA1*%
X110605000Y-138980000D03*
%TO.P,U1,35,IO42*%
%TO.N,SCL1*%
X110605000Y-140250000D03*
%TO.P,U1,36,RXD0*%
%TO.N,unconnected-(U1-RXD0-Pad36)*%
X110605000Y-141520000D03*
%TO.P,U1,37,TXD0*%
%TO.N,unconnected-(U1-TXD0-Pad37)*%
X110605000Y-142790000D03*
%TO.P,U1,38,IO2*%
%TO.N,VUSB_SENSE*%
X110605000Y-144060000D03*
%TO.P,U1,39,IO1*%
%TO.N,VBAT_SENSE*%
X110605000Y-145330000D03*
%TO.P,U1,40,GND*%
%TO.N,GND*%
X110605000Y-146600000D03*
D39*
%TO.P,U1,41,GND*%
X122255000Y-139580000D03*
X122255000Y-138180000D03*
X121555000Y-140280000D03*
X121555000Y-138880000D03*
X121555000Y-137480000D03*
X120855000Y-139580000D03*
D40*
X120855000Y-138880000D03*
D39*
X120855000Y-138180000D03*
X120155000Y-140280000D03*
X120155000Y-138880000D03*
X120155000Y-137480000D03*
X119455000Y-139580000D03*
X119455000Y-138180000D03*
%TD*%
D41*
%TO.N,VBAT_SENSE*%
X198900000Y-140100000D03*
X198900000Y-135800000D03*
%TO.N,GND*%
X134600000Y-139200000D03*
%TO.N,SWITCH_R*%
X125100000Y-132700000D03*
X222800000Y-132600000D03*
%TO.N,RESET_N*%
X125800000Y-141400000D03*
X125800000Y-120600000D03*
%TO.N,BUSY_N*%
X126000000Y-143000000D03*
X131500000Y-120000000D03*
%TO.N,DATA_COMMAND_N*%
X129550000Y-140250000D03*
X132800000Y-121500000D03*
%TO.N,SPI_CS*%
X129500000Y-139100000D03*
X131300000Y-122100000D03*
%TO.N,GND*%
X212712500Y-132500000D03*
%TO.N,+3V3*%
X78700000Y-139500000D03*
%TO.N,GND*%
X82900000Y-139500000D03*
X214400000Y-122000000D03*
X197300000Y-119900000D03*
%TO.N,+3V3*%
X209700000Y-122000000D03*
%TO.N,GND*%
X204500000Y-123000000D03*
X200800000Y-123600000D03*
%TO.N,Net-(U2-\u002AEN)*%
X200500000Y-130300000D03*
X195100000Y-130300000D03*
%TO.N,GND*%
X223700002Y-120600000D03*
X233100000Y-128900000D03*
X225700000Y-126300000D03*
%TO.N,+3V3*%
X233900000Y-126300000D03*
%TO.N,GND*%
X226400000Y-139300000D03*
%TO.N,+3V3*%
X234900000Y-139300000D03*
%TO.N,GND*%
X233299998Y-142100002D03*
X205324150Y-132305000D03*
X206700000Y-139400000D03*
%TO.N,CHIP_PU*%
X135100000Y-144100000D03*
X175201000Y-144499000D03*
%TO.N,VUSB*%
X184700000Y-143300000D03*
X180600000Y-143300000D03*
%TO.N,CHIP_PU*%
X189300000Y-144300000D03*
X199900000Y-145700000D03*
%TO.N,+3V3*%
X150400000Y-130600000D03*
%TO.N,USBD-*%
X182900000Y-139900000D03*
%TO.N,USBD+*%
X183400000Y-139200000D03*
%TO.N,USBD-*%
X172400000Y-145000000D03*
%TO.N,USBD+*%
X173100000Y-143300000D03*
%TO.N,GND*%
X170500000Y-135600000D03*
%TO.N,+3V3*%
X159200000Y-142500000D03*
%TO.N,GND*%
X163600000Y-142500000D03*
X163600000Y-140100000D03*
%TO.N,Net-(Q1-D)*%
X150300000Y-136200000D03*
X161125000Y-137375000D03*
%TO.N,GND*%
X154650000Y-137050000D03*
%TO.N,+3V3*%
X152900000Y-134700000D03*
X156900000Y-136800000D03*
%TO.N,GND*%
X158500000Y-136900000D03*
%TO.N,VSH1*%
X149000000Y-130800000D03*
X150000000Y-139000000D03*
%TO.N,GND*%
X156900000Y-142300000D03*
%TO.N,VSL*%
X148500000Y-129800000D03*
X148300000Y-143900000D03*
%TO.N,GND*%
X151600000Y-145000000D03*
X157000000Y-140100000D03*
X141800000Y-143600000D03*
%TO.N,Net-(C17-Pad1)*%
X143850000Y-133450000D03*
X143650000Y-138600000D03*
%TO.N,GND*%
X139200000Y-139400000D03*
X139200000Y-135100000D03*
%TO.N,Net-(Q1-D)*%
X147400000Y-136000000D03*
X146900000Y-125200000D03*
X147400000Y-125200000D03*
%TO.N,GND*%
X142700000Y-127500000D03*
X154300000Y-131700000D03*
X149700000Y-131700000D03*
%TO.N,+3V3*%
X147300000Y-141700000D03*
%TO.N,GND*%
X190100000Y-143800000D03*
X186300000Y-140400000D03*
X179687500Y-140287500D03*
%TO.N,VUSB*%
X193900000Y-138800000D03*
%TO.N,GND*%
X195400000Y-142500000D03*
%TO.N,VUSB_SENSE*%
X192200000Y-144100000D03*
X113800000Y-146300000D03*
%TO.N,GND*%
X77000002Y-120399998D03*
%TO.N,+3V3*%
X113800000Y-124475000D03*
%TO.N,SDA0*%
X107200000Y-132100000D03*
X114910000Y-131700000D03*
%TO.N,SCL0*%
X113600000Y-131300000D03*
X106400000Y-131400000D03*
%TO.N,SWITCH_L*%
X123800000Y-132800000D03*
X104000000Y-132800000D03*
%TO.N,GND*%
X81800000Y-127600000D03*
%TO.N,+3V3*%
X75900000Y-133600000D03*
%TO.N,GND*%
X80300000Y-133600000D03*
%TO.N,+3V3*%
X84800000Y-141200000D03*
%TO.N,GND*%
X83800000Y-141200000D03*
X74599997Y-141200003D03*
%TO.N,+3V3*%
X75599998Y-141200002D03*
%TO.N,SDA1*%
X108100000Y-136500000D03*
X108100000Y-143300000D03*
%TO.N,GND*%
X129750000Y-146650000D03*
%TO.N,+3V3*%
X106087500Y-139100000D03*
%TO.N,GND*%
X108700000Y-146600000D03*
X134300000Y-145600000D03*
%TO.N,+3V3*%
X129700000Y-145330000D03*
%TD*%
D42*
%TO.N,Net-(U2-\u002AEN)*%
X200500000Y-130300000D02*
X200500000Y-134000000D01*
X200500000Y-134000000D02*
X200710000Y-134210000D01*
X200710000Y-134210000D02*
X202600000Y-134210000D01*
%TO.N,RESET_N*%
X153300000Y-125400000D02*
X153300000Y-131900000D01*
X153300000Y-131900000D02*
X153299999Y-133000000D01*
%TO.N,VBAT_SENSE*%
X198900000Y-135800000D02*
X198900000Y-127300000D01*
%TO.N,GND*%
X133000000Y-139200000D02*
X134600000Y-139200000D01*
X130900000Y-139200000D02*
X133000000Y-139200000D01*
%TO.N,Net-(U1-IO15)*%
X133000000Y-137300000D02*
X132199000Y-138101000D01*
X132199000Y-138101000D02*
X128496000Y-138101000D01*
X128496000Y-138101000D02*
X128105000Y-137710000D01*
%TO.N,Net-(U1-IO16)*%
X130900000Y-137300000D02*
X130040000Y-136440000D01*
X130040000Y-136440000D02*
X128105000Y-136440000D01*
X131500000Y-135600000D02*
X131500000Y-136700000D01*
X131500000Y-136700000D02*
X130900000Y-137300000D01*
%TO.N,Net-(U1-IO15)*%
X132900000Y-135600000D02*
X132900000Y-137200000D01*
X132900000Y-137200000D02*
X133000000Y-137300000D01*
%TO.N,BUSY_N*%
X153700000Y-131949943D02*
X153700000Y-125200000D01*
X153700000Y-125200000D02*
X148500000Y-120000000D01*
X153799998Y-133000000D02*
X153799998Y-132049941D01*
X153799998Y-132049941D02*
X153700000Y-131949943D01*
X148500000Y-120000000D02*
X131500000Y-120000000D01*
%TO.N,SWITCH_R*%
X125100000Y-132700000D02*
X125170000Y-132630000D01*
X125170000Y-132630000D02*
X128105000Y-132630000D01*
X225300000Y-132599998D02*
X222800002Y-132599998D01*
X222800002Y-132599998D02*
X222800000Y-132600000D01*
%TO.N,RESET_N*%
X125800000Y-141400000D02*
X125920000Y-141520000D01*
X125920000Y-141520000D02*
X128105000Y-141520000D01*
%TO.N,DATA_COMMAND_N*%
X152800000Y-125465686D02*
X149234314Y-121900000D01*
%TO.N,SPI_MOSI*%
X122100000Y-124100000D02*
X149737256Y-124100000D01*
%TO.N,SPI_SCK*%
X149602942Y-123400000D02*
X151799999Y-125597057D01*
%TO.N,SPI_MOSI*%
X149737256Y-124100000D02*
X151299998Y-125662742D01*
X121260000Y-124940000D02*
X122100000Y-124100000D01*
X151299998Y-125662742D02*
X151299998Y-133000000D01*
%TO.N,SPI_SCK*%
X120700000Y-123400000D02*
X149602942Y-123400000D01*
X151799999Y-125597057D02*
X151799999Y-133000000D01*
%TO.N,SPI_CS*%
X152299999Y-133000000D02*
X152300000Y-125531372D01*
%TO.N,SPI_MOSI*%
X121260000Y-128840000D02*
X121260000Y-124940000D01*
%TO.N,RESET_N*%
X133800000Y-121100000D02*
X133300000Y-120600000D01*
X153300000Y-125400000D02*
X149000000Y-121100000D01*
%TO.N,SPI_CS*%
X152300000Y-125531372D02*
X149368628Y-122600000D01*
%TO.N,DATA_COMMAND_N*%
X133000000Y-121900000D02*
X132800000Y-121700000D01*
%TO.N,RESET_N*%
X133300000Y-120600000D02*
X125800000Y-120600000D01*
%TO.N,SPI_SCK*%
X119990000Y-124110000D02*
X120700000Y-123400000D01*
%TO.N,SPI_CS*%
X149368628Y-122600000D02*
X131800000Y-122600000D01*
X131800000Y-122600000D02*
X131300000Y-122100000D01*
%TO.N,DATA_COMMAND_N*%
X132800000Y-121700000D02*
X132800000Y-121500000D01*
%TO.N,SPI_SCK*%
X119990000Y-128840000D02*
X119990000Y-124110000D01*
%TO.N,RESET_N*%
X149000000Y-121100000D02*
X133800000Y-121100000D01*
%TO.N,DATA_COMMAND_N*%
X149234314Y-121900000D02*
X133000000Y-121900000D01*
X152800000Y-133000000D02*
X152800000Y-125465686D01*
%TO.N,BUSY_N*%
X128105000Y-142790000D02*
X126210000Y-142790000D01*
X126210000Y-142790000D02*
X126000000Y-143000000D01*
%TO.N,DATA_COMMAND_N*%
X129550000Y-140250000D02*
X128105000Y-140250000D01*
%TO.N,SPI_CS*%
X128105000Y-138980000D02*
X129380000Y-138980000D01*
X129380000Y-138980000D02*
X129500000Y-139100000D01*
%TO.N,GND*%
X212712500Y-132500000D02*
X212712500Y-133487500D01*
X212712500Y-131400000D02*
X212712500Y-132500000D01*
X212712500Y-133487500D02*
X212700000Y-133500000D01*
%TO.N,Net-(U2-IREF)*%
X208048300Y-131670000D02*
X210617500Y-131670000D01*
X210617500Y-131670000D02*
X210887500Y-131400000D01*
%TO.N,Net-(U2-IMIN)*%
X208048300Y-132940000D02*
X210315000Y-132940000D01*
X210315000Y-132940000D02*
X210875000Y-133500000D01*
%TO.N,+3V3*%
X79800000Y-139500000D02*
X78700000Y-139500000D01*
%TO.N,GND*%
X81700000Y-139500000D02*
X82900000Y-139500000D01*
X213900001Y-118800000D02*
X214700000Y-119599999D01*
X214700000Y-119599999D02*
X214700000Y-121700000D01*
X214700000Y-121700000D02*
X214400000Y-122000000D01*
%TO.N,+3V3*%
X211200000Y-122000000D02*
X209700000Y-122000000D01*
%TO.N,GND*%
X213100000Y-122000000D02*
X214400000Y-122000000D01*
%TO.N,VBAT*%
X211899999Y-118800000D02*
X209100000Y-118800000D01*
X209100000Y-118800000D02*
X205900000Y-122000000D01*
%TO.N,GND*%
X198850000Y-119900000D02*
X197300000Y-119900000D01*
%TO.N,VBAT*%
X203600000Y-122400000D02*
X203600000Y-123100000D01*
X200750000Y-119900000D02*
X202100000Y-121250000D01*
X202900000Y-123100000D02*
X203600000Y-123100000D01*
X202100000Y-121250000D02*
X202100000Y-122300000D01*
X202100000Y-122300000D02*
X202900000Y-123100000D01*
%TO.N,+3V3*%
X208270000Y-122000000D02*
X209700000Y-122000000D01*
%TO.N,VBAT*%
X205900000Y-123900000D02*
X205900000Y-126700000D01*
X205900000Y-126700000D02*
X205300000Y-127300000D01*
X205300000Y-127300000D02*
X200725000Y-127300000D01*
X208048300Y-130400000D02*
X208048300Y-130048300D01*
X208048300Y-130048300D02*
X206700000Y-128700000D01*
X206700000Y-128700000D02*
X200800000Y-128700000D01*
X200800000Y-128700000D02*
X200725000Y-128625000D01*
X200725000Y-128625000D02*
X200725000Y-127300000D01*
X205900000Y-122000000D02*
X204000000Y-122000000D01*
X204000000Y-122000000D02*
X203600000Y-122400000D01*
X203600000Y-123100000D02*
X203600000Y-123700000D01*
X203600000Y-123700000D02*
X203800000Y-123900000D01*
X203800000Y-123900000D02*
X205900000Y-123900000D01*
%TO.N,GND*%
X204550000Y-122950000D02*
X204500000Y-123000000D01*
X205900000Y-122950000D02*
X204550000Y-122950000D01*
%TO.N,VBAT_SENSE*%
X198900000Y-127300000D02*
X198900000Y-124800000D01*
X198900000Y-122300000D02*
X198900000Y-124800000D01*
%TO.N,GND*%
X200800000Y-123600000D02*
X200800000Y-124725000D01*
X200800000Y-122300000D02*
X200800000Y-123600000D01*
X200800000Y-124725000D02*
X200725000Y-124800000D01*
%TO.N,Net-(U2-\u002AEN)*%
X202600000Y-130400000D02*
X200600000Y-130400000D01*
X200600000Y-130400000D02*
X200500000Y-130300000D01*
X195100000Y-114700000D02*
X195100000Y-130300000D01*
%TO.N,GND*%
X223700002Y-118675001D02*
X223700002Y-120599998D01*
%TO.N,Net-(D1-Pad2)*%
X195750000Y-116700000D02*
X197950000Y-114500000D01*
X197950000Y-114500000D02*
X208100000Y-114500000D01*
X208600000Y-116100000D02*
X209400000Y-116900000D01*
X208100000Y-114500000D02*
X208500000Y-114900000D01*
X208500000Y-114900000D02*
X208600000Y-114900000D01*
X208600000Y-114900000D02*
X208600000Y-116100000D01*
X209400000Y-116900000D02*
X224300000Y-116900000D01*
X224300000Y-116900000D02*
X224700000Y-117300000D01*
X224700000Y-117300000D02*
X224700000Y-118675001D01*
%TO.N,Net-(D1-Pad1)*%
X78000000Y-118875001D02*
X78424999Y-118875001D01*
X78424999Y-118875001D02*
X83000000Y-114300000D01*
X83000000Y-114300000D02*
X192050000Y-114300000D01*
X192050000Y-114300000D02*
X194450000Y-116700000D01*
%TO.N,GND*%
X231459500Y-128900000D02*
X233100000Y-128900000D01*
X227000000Y-126300000D02*
X225700000Y-126300000D01*
%TO.N,+3V3*%
X232600000Y-126300000D02*
X233900000Y-126300000D01*
%TO.N,SWITCH_R*%
X228900000Y-130300000D02*
X226600000Y-132600000D01*
X228900000Y-126300000D02*
X228900000Y-130300000D01*
X226600000Y-132600000D02*
X226599998Y-132599998D01*
X226599998Y-132599998D02*
X225300000Y-132599998D01*
X228900000Y-126300000D02*
X230775000Y-126300000D01*
%TO.N,CHIP_PU*%
X229600000Y-142700000D02*
X226500000Y-145800000D01*
X229600000Y-139300000D02*
X229600000Y-142700000D01*
X226500000Y-145800000D02*
X225340500Y-145800000D01*
%TO.N,+3V3*%
X233700000Y-139300000D02*
X234900000Y-139300000D01*
%TO.N,GND*%
X227700000Y-139300000D02*
X226400000Y-139300000D01*
%TO.N,CHIP_PU*%
X229600000Y-139300000D02*
X231875000Y-139300000D01*
%TO.N,GND*%
X233299998Y-142100002D02*
X233300000Y-142100000D01*
X231500000Y-142100002D02*
X233299998Y-142100002D01*
%TO.N,Net-(U2-\u002AEN)*%
X202600000Y-134210000D02*
X202600000Y-136700000D01*
X202600000Y-136700000D02*
X202900000Y-137000000D01*
X202900000Y-137000000D02*
X203550000Y-137000000D01*
%TO.N,GND*%
X208048300Y-134210000D02*
X208048300Y-135751700D01*
X208048300Y-135751700D02*
X206800000Y-137000000D01*
X206800000Y-137000000D02*
X205450000Y-137000000D01*
X205400000Y-139300000D02*
X206600000Y-139300000D01*
X206600000Y-139300000D02*
X206700000Y-139400000D01*
%TO.N,Net-(U2-\u002AEN)*%
X199900000Y-138200000D02*
X201100000Y-138200000D01*
X201100000Y-138200000D02*
X202200000Y-139300000D01*
X202200000Y-139300000D02*
X203500000Y-139300000D01*
%TO.N,VUSB*%
X193900000Y-138800000D02*
X194500000Y-138200000D01*
X194500000Y-138200000D02*
X197956900Y-138200000D01*
%TO.N,Net-(U2-\u002AEN)*%
X203500000Y-139300000D02*
X203500000Y-137050000D01*
X203500000Y-137050000D02*
X203550000Y-137000000D01*
X203500000Y-141600000D02*
X203500000Y-139300000D01*
%TO.N,GND*%
X205400000Y-139300000D02*
X205400000Y-137050000D01*
X205400000Y-137050000D02*
X205450000Y-137000000D01*
X205400000Y-141600000D02*
X205400000Y-139300000D01*
%TO.N,CHIP_PU*%
X128105000Y-144060000D02*
X135060000Y-144060000D01*
X135060000Y-144060000D02*
X135100000Y-144100000D01*
X186800000Y-144499000D02*
X175201000Y-144499000D01*
%TO.N,VUSB*%
X180499999Y-141714200D02*
X180691201Y-141905402D01*
X180691201Y-141905402D02*
X180691201Y-143208799D01*
X180691201Y-143208799D02*
X180600000Y-143300000D01*
X185300001Y-141714200D02*
X185108799Y-141905402D01*
X185108799Y-141905402D02*
X185108799Y-142891201D01*
X185108799Y-142891201D02*
X184700000Y-143300000D01*
%TO.N,CHIP_PU*%
X189101000Y-144499000D02*
X186800000Y-144499000D01*
X189300000Y-144300000D02*
X189101000Y-144499000D01*
X200000000Y-145800000D02*
X199900000Y-145700000D01*
X225340500Y-145800000D02*
X200000000Y-145800000D01*
%TO.N,+3V3*%
X150400000Y-130600000D02*
X150500000Y-130500000D01*
X150300000Y-133000000D02*
X150300000Y-130700000D01*
X150300000Y-130700000D02*
X150400000Y-130600000D01*
X150799999Y-130799999D02*
X150500000Y-130500000D01*
X150799999Y-133000000D02*
X150799999Y-130799999D01*
%TO.N,USBD+*%
X183650001Y-141714200D02*
X183650001Y-139450001D01*
X183650001Y-139450001D02*
X183400000Y-139200000D01*
%TO.N,USBD-*%
X182900000Y-139900000D02*
X182900000Y-140800000D01*
X128105000Y-131360000D02*
X129240000Y-131360000D01*
X129240000Y-131360000D02*
X130100000Y-130500000D01*
X130100000Y-130500000D02*
X135432900Y-130500000D01*
X135432900Y-130500000D02*
X137199000Y-132266100D01*
X137199000Y-132266100D02*
X137199000Y-146466100D01*
X137199000Y-146466100D02*
X137633900Y-146901000D01*
X137633900Y-146901000D02*
X170299000Y-146901000D01*
X170299000Y-146901000D02*
X172200000Y-145000000D01*
X172200000Y-145000000D02*
X172400000Y-145000000D01*
%TO.N,USBD+*%
X169900000Y-146500000D02*
X173100000Y-143300000D01*
X146000000Y-146500000D02*
X169900000Y-146500000D01*
%TO.N,GND*%
X169312500Y-135600000D02*
X170500000Y-135600000D01*
%TO.N,GDR*%
X167487500Y-135600000D02*
X164000000Y-135600000D01*
X164000000Y-135600000D02*
X163900000Y-135500000D01*
%TO.N,+3V3*%
X160350000Y-142500000D02*
X159200000Y-142500000D01*
%TO.N,GND*%
X162250000Y-142500000D02*
X163600000Y-142500000D01*
X162300000Y-140100000D02*
X163600000Y-140100000D01*
%TO.N,RESE*%
X160475000Y-140100000D02*
X160475000Y-135525000D01*
X160475000Y-135525000D02*
X160500000Y-135500000D01*
D43*
%TO.N,Net-(Q1-D)*%
X162950000Y-137375000D02*
X161125000Y-137375000D01*
D42*
%TO.N,GDR*%
X157299999Y-134172999D02*
X157400000Y-134273000D01*
X157299999Y-133000000D02*
X157299999Y-134172999D01*
X157400000Y-134273000D02*
X162673000Y-134273000D01*
X162673000Y-134273000D02*
X163900000Y-135500000D01*
%TO.N,RESE*%
X156800000Y-133000000D02*
X156800000Y-134400000D01*
X156800000Y-134400000D02*
X157100000Y-134700000D01*
X157100000Y-134700000D02*
X157126000Y-134674000D01*
X157126000Y-134674000D02*
X159674000Y-134674000D01*
X159674000Y-134674000D02*
X160500000Y-135500000D01*
X160500000Y-135500000D02*
X162000000Y-135500000D01*
%TO.N,GND*%
X154650000Y-137050000D02*
X153800000Y-137900000D01*
%TO.N,+3V3*%
X152900000Y-134700000D02*
X152900000Y-134500000D01*
X156550000Y-136450000D02*
X156900000Y-136800000D01*
X156550000Y-135700000D02*
X156550000Y-136450000D01*
%TO.N,GND*%
X158450000Y-136850000D02*
X158500000Y-136900000D01*
X158450000Y-135700000D02*
X158450000Y-136850000D01*
X154800000Y-135700000D02*
X154800000Y-136900000D01*
X154800000Y-136900000D02*
X154650000Y-137050000D01*
%TO.N,+3V3*%
X152900000Y-135700000D02*
X152900000Y-134700000D01*
%TO.N,VSH1*%
X148600000Y-131000000D02*
X148800000Y-131000000D01*
X148800000Y-131000000D02*
X149000000Y-130800000D01*
X151700000Y-139000000D02*
X150000000Y-139000000D01*
X152400000Y-139700000D02*
X151700000Y-139000000D01*
X153750000Y-142300000D02*
X152400000Y-140950000D01*
X152400000Y-140950000D02*
X152400000Y-139700000D01*
%TO.N,GND*%
X155650000Y-142300000D02*
X156900000Y-142300000D01*
%TO.N,VSL*%
X148500000Y-129800000D02*
X147299998Y-131000002D01*
X147299998Y-131000002D02*
X147299998Y-133000000D01*
X148350000Y-143950000D02*
X148300000Y-143900000D01*
X148350000Y-145000000D02*
X148350000Y-143950000D01*
%TO.N,GND*%
X150250000Y-145000000D02*
X151600000Y-145000000D01*
%TO.N,VSH1*%
X148299999Y-131300001D02*
X148600000Y-131000000D01*
X148299999Y-133000000D02*
X148299999Y-131300001D01*
%TO.N,DVDD*%
X151500000Y-134200000D02*
X149400000Y-134200000D01*
X151800000Y-134500000D02*
X151500000Y-134200000D01*
X153800000Y-140100000D02*
X151800000Y-138100000D01*
X151800000Y-138100000D02*
X151800000Y-134500000D01*
X149400000Y-134200000D02*
X149299999Y-134099999D01*
X149299999Y-134099999D02*
X149299999Y-133000000D01*
%TO.N,GND*%
X155700000Y-140100000D02*
X157000000Y-140100000D01*
X141800000Y-142350000D02*
X141800000Y-143600000D01*
%TO.N,Net-(C17-Pad1)*%
X143850000Y-133450000D02*
X145850000Y-133450000D01*
X145850000Y-133450000D02*
X146300000Y-133000000D01*
X141800000Y-140450000D02*
X143650000Y-138600000D01*
%TO.N,Net-(C21-Pad2)*%
X155700000Y-137900000D02*
X155700000Y-134024900D01*
X155700000Y-134024900D02*
X155799999Y-133924901D01*
X155799999Y-133924901D02*
X155799999Y-133000000D01*
%TO.N,GND*%
X139200000Y-139400000D02*
X139200000Y-138300000D01*
D43*
%TO.N,PREVGH*%
X141500000Y-134744450D02*
X140855550Y-134744450D01*
X140855550Y-134744450D02*
X139200000Y-136400000D01*
D42*
%TO.N,GND*%
X139200000Y-134150000D02*
X139200000Y-135100000D01*
%TO.N,PREVGL*%
X141571550Y-129900000D02*
X141571550Y-130544500D01*
X141571550Y-130544500D02*
X139866050Y-132250000D01*
X139866050Y-132250000D02*
X139200000Y-132250000D01*
D44*
%TO.N,Net-(Q1-D)*%
X146900000Y-125200000D02*
X147400000Y-125200000D01*
X141550000Y-125200000D02*
X146900000Y-125200000D01*
D42*
%TO.N,Net-(C10-Pad1)*%
X139628450Y-127500000D02*
X139628450Y-125221550D01*
X139628450Y-125221550D02*
X139650000Y-125200000D01*
%TO.N,GND*%
X141571550Y-127500000D02*
X142700000Y-127500000D01*
%TO.N,Net-(C10-Pad1)*%
X139628450Y-129900000D02*
X139628450Y-127500000D01*
%TO.N,PREVGL*%
X145600000Y-129900000D02*
X146800000Y-131100000D01*
X141571550Y-129900000D02*
X145600000Y-129900000D01*
X146800000Y-131100000D02*
X146799999Y-133000000D01*
%TO.N,GND*%
X154300000Y-133000000D02*
X154300000Y-131700000D01*
X149700000Y-131900000D02*
X149700000Y-131700000D01*
X149799998Y-131999998D02*
X149700000Y-131900000D01*
X149799998Y-133000000D02*
X149799998Y-131999998D01*
D43*
%TO.N,PREVGH*%
X147600000Y-134500000D02*
X147800000Y-134300000D01*
X141500000Y-134744450D02*
X142055550Y-134744450D01*
X142300000Y-134500000D02*
X147600000Y-134500000D01*
X142055550Y-134744450D02*
X142300000Y-134500000D01*
D45*
X147800000Y-134300000D02*
X147800000Y-133000000D01*
D44*
%TO.N,Net-(Q1-D)*%
X141500000Y-136687550D02*
X146612450Y-136687550D01*
D42*
X146612450Y-136687550D02*
X147300000Y-136000000D01*
%TO.N,+3V3*%
X147300000Y-141715000D02*
X147300000Y-141700000D01*
%TO.N,USBD+*%
X135590000Y-130090000D02*
X137600000Y-132100000D01*
X137800000Y-146500000D02*
X146000000Y-146500000D01*
X128105000Y-130090000D02*
X135590000Y-130090000D01*
X137600000Y-132100000D02*
X137600000Y-146300000D01*
X137600000Y-146300000D02*
X137800000Y-146500000D01*
%TO.N,VUSB_SENSE*%
X192075000Y-140100000D02*
X191600000Y-140100000D01*
X191600000Y-140100000D02*
X191500000Y-140000000D01*
X191500000Y-140000000D02*
X190100000Y-140000000D01*
%TO.N,GND*%
X190100000Y-141825000D02*
X190100000Y-143800000D01*
%TO.N,USBD+*%
X182650000Y-141714200D02*
X182650000Y-142540100D01*
X182650000Y-142540100D02*
X182809900Y-142700000D01*
X182809900Y-142700000D02*
X183400000Y-142700000D01*
X183400000Y-142700000D02*
X183650001Y-142449999D01*
X183650001Y-142449999D02*
X183650001Y-141714200D01*
%TO.N,USBD-*%
X182400000Y-140800000D02*
X182900000Y-140800000D01*
X182149999Y-141714200D02*
X182149999Y-141050001D01*
X182149999Y-141050001D02*
X182400000Y-140800000D01*
X182900000Y-140800000D02*
X183150000Y-141050000D01*
X183150000Y-141050000D02*
X183150000Y-141714200D01*
%TO.N,GND*%
X186300000Y-140400000D02*
X186300000Y-139112500D01*
X186300000Y-139112500D02*
X186512500Y-138900000D01*
%TO.N,Net-(J2-CC2)*%
X184687500Y-138900000D02*
X184687500Y-141676699D01*
X184687500Y-141676699D02*
X184649999Y-141714200D01*
%TO.N,Net-(J2-CC1)*%
X181650000Y-141714200D02*
X181650000Y-139137500D01*
X181650000Y-139137500D02*
X181512500Y-139000000D01*
%TO.N,GND*%
X179687500Y-139000000D02*
X179687500Y-140287500D01*
X186100000Y-140600000D02*
X186300000Y-140400000D01*
X186100000Y-141714200D02*
X186100000Y-140600000D01*
X179687500Y-140287500D02*
X179700000Y-140300000D01*
X179700000Y-141714200D02*
X179700000Y-140300000D01*
%TO.N,VUSB*%
X193900000Y-140100000D02*
X193900000Y-138800000D01*
%TO.N,VUSB_SENSE*%
X192100000Y-142500000D02*
X192100000Y-140125000D01*
X192100000Y-140125000D02*
X192075000Y-140100000D01*
%TO.N,GND*%
X194000000Y-142500000D02*
X195400000Y-142500000D01*
%TO.N,VUSB_SENSE*%
X192200000Y-144100000D02*
X192200000Y-142600000D01*
X192200000Y-142600000D02*
X192100000Y-142500000D01*
X111560000Y-144060000D02*
X113800000Y-146300000D01*
X110605000Y-144060000D02*
X111560000Y-144060000D01*
%TO.N,VBAT_SENSE*%
X110605000Y-145330000D02*
X111630000Y-145330000D01*
X173949000Y-147351000D02*
X176400000Y-144900000D01*
X111630000Y-145330000D02*
X112900000Y-146600000D01*
X112900000Y-146900000D02*
X113351000Y-147351000D01*
X112900000Y-146600000D02*
X112900000Y-146900000D01*
X196000000Y-144900000D02*
X198900000Y-142000000D01*
X113351000Y-147351000D02*
X173949000Y-147351000D01*
X176400000Y-144900000D02*
X196000000Y-144900000D01*
X198900000Y-142000000D02*
X198900000Y-140100000D01*
%TO.N,GND*%
X77000002Y-118875001D02*
X77000002Y-120399998D01*
%TO.N,+3V3*%
X113800000Y-124475000D02*
X114875000Y-124475000D01*
X112700000Y-124475000D02*
X113800000Y-124475000D01*
X114875000Y-124475000D02*
X114900000Y-124500000D01*
%TO.N,SCL0*%
X113640000Y-128840000D02*
X113640000Y-127240000D01*
X113640000Y-127240000D02*
X112700000Y-126300000D01*
%TO.N,SDA0*%
X114910000Y-128840000D02*
X114910000Y-128790000D01*
X114910000Y-128790000D02*
X114900000Y-128780000D01*
X114900000Y-128780000D02*
X114900000Y-126325000D01*
X107200000Y-132100000D02*
X105201000Y-134099000D01*
X105201000Y-134099000D02*
X105201000Y-141666100D01*
X105201000Y-141666100D02*
X102966401Y-143900699D01*
X102966401Y-143900699D02*
X86168799Y-143900699D01*
X86168799Y-143900699D02*
X85799998Y-143531898D01*
X85799998Y-143531898D02*
X85799998Y-142824999D01*
X114910000Y-131700000D02*
X114910000Y-131790000D01*
X114910000Y-131790000D02*
X114900000Y-131800000D01*
X114910000Y-128840000D02*
X114910000Y-131700000D01*
%TO.N,SCL0*%
X113600000Y-131300000D02*
X113640000Y-131260000D01*
X113640000Y-131260000D02*
X113640000Y-128840000D01*
X104800000Y-133000000D02*
X106400000Y-131400000D01*
X104800000Y-134600000D02*
X104800000Y-133000000D01*
X103475001Y-142824999D02*
X104000000Y-142300000D01*
X86799999Y-142824999D02*
X103475001Y-142824999D01*
X104000000Y-142300000D02*
X104800000Y-141500000D01*
X104800000Y-141500000D02*
X104800000Y-134600000D01*
%TO.N,SWITCH_L*%
X123800000Y-132800000D02*
X123800000Y-128840000D01*
X103900000Y-132900000D02*
X104000000Y-132800000D01*
X78900000Y-132900000D02*
X103900000Y-132900000D01*
X78400000Y-135100000D02*
X78400000Y-133400000D01*
X78400000Y-133400000D02*
X78900000Y-132900000D01*
%TO.N,GND*%
X81800000Y-127600000D02*
X82000000Y-127600000D01*
X80459500Y-127600000D02*
X81800000Y-127600000D01*
%TO.N,SWITCH_L*%
X74300000Y-131299998D02*
X74300000Y-134775000D01*
X74300000Y-134775000D02*
X74075000Y-135000000D01*
X78300000Y-136200000D02*
X74500000Y-136200000D01*
X78400000Y-135100000D02*
X78400000Y-136100000D01*
X78400000Y-136100000D02*
X78300000Y-136200000D01*
X74500000Y-136200000D02*
X74075000Y-135775000D01*
X74075000Y-135775000D02*
X74075000Y-135000000D01*
%TO.N,GND*%
X80300000Y-135100000D02*
X80300000Y-133600000D01*
%TO.N,+3V3*%
X75900000Y-135000000D02*
X75900000Y-133600000D01*
X84800000Y-142824999D02*
X84800000Y-141200000D01*
%TO.N,GND*%
X83799999Y-142824999D02*
X83800000Y-141200000D01*
%TO.N,+3V3*%
X75599998Y-142649998D02*
X75599998Y-141200002D01*
%TO.N,GND*%
X74599997Y-141200003D02*
X74600000Y-141200000D01*
X74599997Y-142649998D02*
X74599997Y-141200003D01*
%TO.N,SDA1*%
X107912500Y-137900000D02*
X107912500Y-136687500D01*
X107912500Y-136687500D02*
X108100000Y-136500000D01*
X108100000Y-143300000D02*
X108200000Y-143300000D01*
X105600000Y-144800000D02*
X107100000Y-143300000D01*
X107100000Y-143300000D02*
X108100000Y-143300000D01*
X76599996Y-142649998D02*
X76599996Y-143599996D01*
X76599996Y-143599996D02*
X78001000Y-145001000D01*
X78001000Y-145001000D02*
X105399000Y-145001000D01*
X105399000Y-145001000D02*
X105600000Y-144800000D01*
%TO.N,SCL1*%
X107900000Y-140300000D02*
X107900000Y-141900000D01*
X107900000Y-141900000D02*
X105200000Y-144600000D01*
X105200000Y-144600000D02*
X79200000Y-144600000D01*
X79200000Y-144600000D02*
X77599997Y-142999997D01*
X77599997Y-142999997D02*
X77599997Y-142649998D01*
%TO.N,SDA1*%
X110605000Y-138980000D02*
X108992500Y-138980000D01*
X108992500Y-138980000D02*
X107912500Y-137900000D01*
%TO.N,SCL1*%
X107900000Y-140300000D02*
X110555000Y-140300000D01*
X110555000Y-140300000D02*
X110605000Y-140250000D01*
%TO.N,GND*%
X129750000Y-146650000D02*
X129800000Y-146700000D01*
X129700000Y-146600000D02*
X129750000Y-146650000D01*
X128105000Y-146600000D02*
X129700000Y-146600000D01*
%TO.N,+3V3*%
X106087500Y-139100000D02*
X106087500Y-140287500D01*
X106087500Y-137900000D02*
X106087500Y-139100000D01*
X106087500Y-140287500D02*
X106075000Y-140300000D01*
%TO.N,GND*%
X110605000Y-146600000D02*
X108700000Y-146600000D01*
%TO.N,+3V3*%
X129700000Y-145330000D02*
X130820000Y-145330000D01*
X128105000Y-145330000D02*
X129700000Y-145330000D01*
X130820000Y-145330000D02*
X130850000Y-145300000D01*
%TO.N,GND*%
X134000000Y-145300000D02*
X134300000Y-145600000D01*
X132750000Y-145300000D02*
X134000000Y-145300000D01*
%TD*%
M02*
