%TF.GenerationSoftware,KiCad,Pcbnew,9.0.6*%
%TF.CreationDate,2026-04-06T15:53:31+01:00*%
%TF.ProjectId,active label,61637469-7665-4206-9c61-62656c2e6b69,rev?*%
%TF.SameCoordinates,Original*%
%TF.FileFunction,Copper,L4,Bot*%
%TF.FilePolarity,Positive*%
%FSLAX46Y46*%
G04 Gerber Fmt 4.6, Leading zero omitted, Abs format (unit mm)*
G04 Created by KiCad (PCBNEW 9.0.6) date 2026-04-06 15:53:31*
%MOMM*%
%LPD*%
G01*
G04 APERTURE LIST*
%TA.AperFunction,WasherPad*%
%ADD10O,0.990600X1.803400*%
%TD*%
%TA.AperFunction,WasherPad*%
%ADD11O,0.990600X2.108200*%
%TD*%
%TA.AperFunction,HeatsinkPad*%
%ADD12C,0.600000*%
%TD*%
%TA.AperFunction,ViaPad*%
%ADD13C,0.600000*%
%TD*%
%TA.AperFunction,Conductor*%
%ADD14C,0.200000*%
%TD*%
%TA.AperFunction,Conductor*%
%ADD15C,0.500000*%
%TD*%
%TA.AperFunction,Conductor*%
%ADD16C,0.700000*%
%TD*%
G04 APERTURE END LIST*
D10*
%TO.P,J2,*%
%TO.N,*%
X178579998Y-146469200D03*
X187220002Y-146469200D03*
D11*
X178579998Y-142289200D03*
X187220002Y-142289200D03*
%TD*%
D12*
%TO.P,U1,41,GND*%
%TO.N,GND*%
X122255000Y-139580000D03*
X122255000Y-138180000D03*
X121555000Y-140280000D03*
X121555000Y-138880000D03*
X121555000Y-137480000D03*
X120855000Y-139580000D03*
X120855000Y-138180000D03*
X120155000Y-140280000D03*
X120155000Y-138880000D03*
X120155000Y-137480000D03*
X119455000Y-139580000D03*
X119455000Y-138180000D03*
%TD*%
D13*
%TO.N,VBAT_SENSE*%
X198900000Y-140100000D03*
X198900000Y-135800000D03*
%TO.N,GND*%
X134600000Y-139200000D03*
%TO.N,SWITCH_R*%
X125100000Y-132700000D03*
X222800000Y-132600000D03*
%TO.N,RESET_N*%
X125800000Y-141400000D03*
X125800000Y-120600000D03*
%TO.N,BUSY_N*%
X126000000Y-143000000D03*
X131500000Y-120000000D03*
%TO.N,DATA_COMMAND_N*%
X129550000Y-140250000D03*
X132800000Y-121500000D03*
%TO.N,SPI_CS*%
X129500000Y-139100000D03*
X131300000Y-122100000D03*
%TO.N,GND*%
X212712500Y-132500000D03*
%TO.N,+3V3*%
X78700000Y-139500000D03*
%TO.N,GND*%
X82900000Y-139500000D03*
X214400000Y-122000000D03*
X197300000Y-119900000D03*
%TO.N,+3V3*%
X209700000Y-122000000D03*
%TO.N,GND*%
X204500000Y-123000000D03*
X200800000Y-123600000D03*
%TO.N,Net-(U2-\u002AEN)*%
X200500000Y-130300000D03*
X195100000Y-130300000D03*
%TO.N,GND*%
X223700002Y-120600000D03*
X233100000Y-128900000D03*
X225700000Y-126300000D03*
%TO.N,+3V3*%
X233900000Y-126300000D03*
%TO.N,GND*%
X226400000Y-139300000D03*
%TO.N,+3V3*%
X234900000Y-139300000D03*
%TO.N,GND*%
X233299998Y-142100002D03*
X205324150Y-132305000D03*
X206700000Y-139400000D03*
%TO.N,CHIP_PU*%
X135100000Y-144100000D03*
X175201000Y-144499000D03*
%TO.N,VUSB*%
X184700000Y-143300000D03*
X180600000Y-143300000D03*
%TO.N,CHIP_PU*%
X189300000Y-144300000D03*
X199900000Y-145700000D03*
%TO.N,+3V3*%
X150400000Y-130600000D03*
%TO.N,USBD-*%
X182900000Y-139900000D03*
%TO.N,USBD+*%
X183400000Y-139200000D03*
%TO.N,USBD-*%
X172400000Y-145000000D03*
%TO.N,USBD+*%
X173100000Y-143300000D03*
%TO.N,GND*%
X170500000Y-135600000D03*
%TO.N,+3V3*%
X159200000Y-142500000D03*
%TO.N,GND*%
X163600000Y-142500000D03*
X163600000Y-140100000D03*
%TO.N,Net-(Q1-D)*%
X150300000Y-136200000D03*
X161125000Y-137375000D03*
%TO.N,GND*%
X154650000Y-137050000D03*
%TO.N,+3V3*%
X152900000Y-134700000D03*
X156900000Y-136800000D03*
%TO.N,GND*%
X158500000Y-136900000D03*
%TO.N,VSH1*%
X149000000Y-130800000D03*
X150000000Y-139000000D03*
%TO.N,GND*%
X156900000Y-142300000D03*
%TO.N,VSL*%
X148500000Y-129800000D03*
X148300000Y-143900000D03*
%TO.N,GND*%
X151600000Y-145000000D03*
X157000000Y-140100000D03*
X141800000Y-143600000D03*
%TO.N,Net-(C17-Pad1)*%
X143850000Y-133450000D03*
X143650000Y-138600000D03*
%TO.N,GND*%
X139200000Y-139400000D03*
X139200000Y-135100000D03*
%TO.N,Net-(Q1-D)*%
X147400000Y-136000000D03*
X146900000Y-125200000D03*
X147400000Y-125200000D03*
%TO.N,GND*%
X142700000Y-127500000D03*
X154300000Y-131700000D03*
X149700000Y-131700000D03*
%TO.N,+3V3*%
X147300000Y-141700000D03*
%TO.N,GND*%
X190100000Y-143800000D03*
X186300000Y-140400000D03*
X179687500Y-140287500D03*
%TO.N,VUSB*%
X193900000Y-138800000D03*
%TO.N,GND*%
X195400000Y-142500000D03*
%TO.N,VUSB_SENSE*%
X192200000Y-144100000D03*
X113800000Y-146300000D03*
%TO.N,GND*%
X77000002Y-120399998D03*
%TO.N,+3V3*%
X113800000Y-124475000D03*
%TO.N,SDA0*%
X107200000Y-132100000D03*
X114910000Y-131700000D03*
%TO.N,SCL0*%
X113600000Y-131300000D03*
X106400000Y-131400000D03*
%TO.N,SWITCH_L*%
X123800000Y-132800000D03*
X104000000Y-132800000D03*
%TO.N,GND*%
X81800000Y-127600000D03*
%TO.N,+3V3*%
X75900000Y-133600000D03*
%TO.N,GND*%
X80300000Y-133600000D03*
%TO.N,+3V3*%
X84800000Y-141200000D03*
%TO.N,GND*%
X83800000Y-141200000D03*
X74599997Y-141200003D03*
%TO.N,+3V3*%
X75599998Y-141200002D03*
%TO.N,SDA1*%
X108100000Y-136500000D03*
X108100000Y-143300000D03*
%TO.N,GND*%
X129750000Y-146650000D03*
%TO.N,+3V3*%
X106087500Y-139100000D03*
%TO.N,GND*%
X108700000Y-146600000D03*
X134300000Y-145600000D03*
%TO.N,+3V3*%
X129700000Y-145330000D03*
%TD*%
D14*
%TO.N,VBAT_SENSE*%
X198900000Y-135800000D02*
X198900000Y-140100000D01*
%TO.N,RESET_N*%
X125800000Y-120600000D02*
X125800000Y-141400000D01*
%TO.N,SWITCH_R*%
X222800000Y-132600000D02*
X205600000Y-115400000D01*
X205600000Y-115400000D02*
X129700000Y-115400000D01*
X129700000Y-115400000D02*
X123800000Y-121300000D01*
X123800000Y-121300000D02*
X123700000Y-121400000D01*
X123700000Y-121400000D02*
X123700000Y-128000000D01*
X123700000Y-128000000D02*
X123700000Y-131300000D01*
X123700000Y-131300000D02*
X125100000Y-132700000D01*
%TO.N,BUSY_N*%
X131500000Y-120000000D02*
X127100000Y-124400000D01*
X127100000Y-124400000D02*
X127100000Y-124700000D01*
X127100000Y-124700000D02*
X127100000Y-141900000D01*
X127100000Y-141900000D02*
X127000000Y-142000000D01*
X127000000Y-142000000D02*
X126000000Y-143000000D01*
%TO.N,DATA_COMMAND_N*%
X129550000Y-140250000D02*
X129500000Y-140300000D01*
X132800000Y-121500000D02*
X130300000Y-124000000D01*
X130300000Y-124000000D02*
X130300000Y-124100000D01*
X130300000Y-124100000D02*
X130300000Y-139500000D01*
X130300000Y-139500000D02*
X129550000Y-140250000D01*
%TO.N,SPI_CS*%
X131300000Y-122100000D02*
X129500000Y-123900000D01*
X129500000Y-123900000D02*
X129500000Y-139100000D01*
%TO.N,Net-(U2-\u002AEN)*%
X195100000Y-130300000D02*
X200500000Y-130300000D01*
%TO.N,CHIP_PU*%
X136600000Y-145600000D02*
X135100000Y-144100000D01*
X174100000Y-145600000D02*
X136600000Y-145600000D01*
X175201000Y-144499000D02*
X174100000Y-145600000D01*
%TO.N,VUSB*%
X184700000Y-143300000D02*
X180600000Y-143300000D01*
X188700000Y-144000000D02*
X187000000Y-144000000D01*
X193900000Y-138800000D02*
X188750000Y-143950000D01*
X184800000Y-143300000D02*
X184700000Y-143300000D01*
X187000000Y-144000000D02*
X185500000Y-144000000D01*
X185500000Y-144000000D02*
X184800000Y-143300000D01*
%TO.N,CHIP_PU*%
X189400000Y-144400000D02*
X189300000Y-144300000D01*
X190100000Y-144400000D02*
X189400000Y-144400000D01*
X197500000Y-143300000D02*
X191400000Y-143300000D01*
X199900000Y-145700000D02*
X197500000Y-143300000D01*
X191400000Y-143300000D02*
X191400000Y-143349943D01*
X191400000Y-143349943D02*
X190349943Y-144400000D01*
X190349943Y-144400000D02*
X190100000Y-144400000D01*
%TO.N,USBD-*%
X182800000Y-139900000D02*
X182900000Y-139900000D01*
X182586500Y-139686500D02*
X182800000Y-139900000D01*
X177713500Y-139686500D02*
X182586500Y-139686500D01*
X172400000Y-145000000D02*
X177713500Y-139686500D01*
%TO.N,USBD+*%
X177200000Y-139200000D02*
X183400000Y-139200000D01*
X174800000Y-141600000D02*
X177200000Y-139200000D01*
X173100000Y-143300000D02*
X174800000Y-141600000D01*
D15*
%TO.N,Net-(Q1-D)*%
X151901000Y-137801000D02*
X150300000Y-136200000D01*
X160699000Y-137801000D02*
X151901000Y-137801000D01*
X161125000Y-137375000D02*
X160699000Y-137801000D01*
D14*
%TO.N,VSH1*%
X149000000Y-138000000D02*
X149000000Y-130800000D01*
X150000000Y-139000000D02*
X149000000Y-138000000D01*
%TO.N,VSL*%
X148500000Y-129900000D02*
X148500000Y-129800000D01*
X148300000Y-130100000D02*
X148500000Y-129900000D01*
X148300000Y-130700000D02*
X148300000Y-130100000D01*
X148300000Y-143900000D02*
X148300000Y-130700000D01*
%TO.N,Net-(C17-Pad1)*%
X143850000Y-133450000D02*
X143900000Y-133400000D01*
X143650000Y-133650000D02*
X143850000Y-133450000D01*
X143650000Y-138600000D02*
X143650000Y-133650000D01*
D16*
%TO.N,Net-(Q1-D)*%
X147400000Y-136000000D02*
X147400000Y-136100000D01*
X147400000Y-125200000D02*
X147400000Y-136000000D01*
D14*
%TO.N,VUSB*%
X188750000Y-143950000D02*
X188700000Y-144000000D01*
%TO.N,VUSB_SENSE*%
X191400000Y-144900000D02*
X192200000Y-144100000D01*
X176500000Y-144900000D02*
X191400000Y-144900000D01*
X115000000Y-147500000D02*
X173900000Y-147500000D01*
X173900000Y-147500000D02*
X176500000Y-144900000D01*
X113800000Y-146300000D02*
X115000000Y-147500000D01*
%TO.N,SDA0*%
X114510000Y-132100000D02*
X107200000Y-132100000D01*
X114910000Y-131700000D02*
X114510000Y-132100000D01*
%TO.N,SCL0*%
X113500000Y-131400000D02*
X113600000Y-131300000D01*
X106400000Y-131400000D02*
X113500000Y-131400000D01*
%TO.N,SWITCH_L*%
X104000000Y-132800000D02*
X123800000Y-132800000D01*
%TO.N,SDA1*%
X108100000Y-143300000D02*
X108100000Y-136500000D01*
%TD*%
M02*
