M48
; DRILL file {KiCad 9.0.6} date 2026-04-06T15:54:23+0100
; FORMAT={-:-/ absolute / metric / decimal}
; #@! TF.CreationDate,2026-04-06T15:54:23+01:00
; #@! TF.GenerationSoftware,Kicad,Pcbnew,9.0.6
; #@! TF.FileFunction,Plated,1,4,PTH
FMAT,2
METRIC
; #@! TA.AperFunction,Plated,PTH,ComponentDrill
T1C0.200
; #@! TA.AperFunction,Plated,PTH,ViaDrill
T2C0.300
%
G90
G05
T1
X119.455Y-138.18
X119.455Y-139.58
X120.155Y-137.48
X120.155Y-138.88
X120.155Y-140.28
X120.855Y-138.18
X120.855Y-139.58
X121.555Y-137.48
X121.555Y-138.88
X121.555Y-140.28
X122.255Y-138.18
X122.255Y-139.58
T2
X74.6Y-141.2
X75.6Y-141.2
X75.9Y-133.6
X77.0Y-120.4
X78.7Y-139.5
X80.3Y-133.6
X81.8Y-127.6
X82.9Y-139.5
X83.8Y-141.2
X84.8Y-141.2
X104.0Y-132.8
X106.087Y-139.1
X106.4Y-131.4
X107.2Y-132.1
X108.1Y-136.5
X108.1Y-143.3
X108.7Y-146.6
X113.6Y-131.3
X113.8Y-124.475
X113.8Y-146.3
X114.91Y-131.7
X123.8Y-132.8
X125.1Y-132.7
X125.8Y-120.6
X125.8Y-141.4
X126.0Y-143.0
X129.5Y-139.1
X129.55Y-140.25
X129.7Y-145.33
X129.75Y-146.65
X131.3Y-122.1
X131.5Y-120.0
X132.8Y-121.5
X134.3Y-145.6
X134.6Y-139.2
X135.1Y-144.1
X139.2Y-135.1
X139.2Y-139.4
X141.8Y-143.6
X142.7Y-127.5
X143.65Y-138.6
X143.85Y-133.45
X146.9Y-125.2
X147.3Y-141.7
X147.4Y-125.2
X147.4Y-136.0
X148.3Y-143.9
X148.5Y-129.8
X149.0Y-130.8
X149.7Y-131.7
X150.0Y-139.0
X150.3Y-136.2
X150.4Y-130.6
X151.6Y-145.0
X152.9Y-134.7
X154.3Y-131.7
X154.65Y-137.05
X156.9Y-136.8
X156.9Y-142.3
X157.0Y-140.1
X158.5Y-136.9
X159.2Y-142.5
X161.125Y-137.375
X163.6Y-140.1
X163.6Y-142.5
X170.5Y-135.6
X172.4Y-145.0
X173.1Y-143.3
X175.201Y-144.499
X179.688Y-140.287
X180.6Y-143.3
X182.9Y-139.9
X183.4Y-139.2
X184.7Y-143.3
X186.3Y-140.4
X189.3Y-144.3
X190.1Y-143.8
X192.2Y-144.1
X193.9Y-138.8
X195.1Y-130.3
X195.4Y-142.5
X197.3Y-119.9
X198.9Y-135.8
X198.9Y-140.1
X199.9Y-145.7
X200.5Y-130.3
X200.8Y-123.6
X204.5Y-123.0
X205.324Y-132.305
X206.7Y-139.4
X209.7Y-122.0
X212.712Y-132.5
X214.4Y-122.0
X222.8Y-132.6
X223.7Y-120.6
X225.7Y-126.3
X226.4Y-139.3
X233.1Y-128.9
X233.3Y-142.1
X233.9Y-126.3
X234.9Y-139.3
M30
