%TF.GenerationSoftware,KiCad,Pcbnew,9.0.6*%
%TF.CreationDate,2026-04-06T15:53:31+01:00*%
%TF.ProjectId,active label,61637469-7665-4206-9c61-62656c2e6b69,rev?*%
%TF.SameCoordinates,Original*%
%TF.FileFunction,Legend,Top*%
%TF.FilePolarity,Positive*%
%FSLAX46Y46*%
G04 Gerber Fmt 4.6, Leading zero omitted, Abs format (unit mm)*
G04 Created by KiCad (PCBNEW 9.0.6) date 2026-04-06 15:53:31*
%MOMM*%
%LPD*%
G01*
G04 APERTURE LIST*
%ADD10C,0.254000*%
%ADD11C,0.150000*%
%ADD12C,0.100000*%
%ADD13C,0.152400*%
%ADD14C,0.508000*%
%ADD15C,0.120000*%
%ADD16C,0.200000*%
%ADD17C,0.127000*%
G04 APERTURE END LIST*
D10*
X131595238Y-127469556D02*
X131595238Y-128074318D01*
X131171905Y-126804318D02*
X131595238Y-127469556D01*
X131595238Y-127469556D02*
X132018572Y-126804318D01*
X133107143Y-128074318D02*
X132381428Y-128074318D01*
X132744285Y-128074318D02*
X132744285Y-126804318D01*
X132744285Y-126804318D02*
X132623333Y-126985746D01*
X132623333Y-126985746D02*
X132502381Y-127106699D01*
X132502381Y-127106699D02*
X132381428Y-127167175D01*
D11*
X207838095Y-128254819D02*
X207838095Y-129064342D01*
X207838095Y-129064342D02*
X207885714Y-129159580D01*
X207885714Y-129159580D02*
X207933333Y-129207200D01*
X207933333Y-129207200D02*
X208028571Y-129254819D01*
X208028571Y-129254819D02*
X208219047Y-129254819D01*
X208219047Y-129254819D02*
X208314285Y-129207200D01*
X208314285Y-129207200D02*
X208361904Y-129159580D01*
X208361904Y-129159580D02*
X208409523Y-129064342D01*
X208409523Y-129064342D02*
X208409523Y-128254819D01*
X208838095Y-128350057D02*
X208885714Y-128302438D01*
X208885714Y-128302438D02*
X208980952Y-128254819D01*
X208980952Y-128254819D02*
X209219047Y-128254819D01*
X209219047Y-128254819D02*
X209314285Y-128302438D01*
X209314285Y-128302438D02*
X209361904Y-128350057D01*
X209361904Y-128350057D02*
X209409523Y-128445295D01*
X209409523Y-128445295D02*
X209409523Y-128540533D01*
X209409523Y-128540533D02*
X209361904Y-128683390D01*
X209361904Y-128683390D02*
X208790476Y-129254819D01*
X208790476Y-129254819D02*
X209409523Y-129254819D01*
X202346000Y-128153019D02*
X202346000Y-128391114D01*
X202107905Y-128295876D02*
X202346000Y-128391114D01*
X202346000Y-128391114D02*
X202584095Y-128295876D01*
X202203143Y-128581590D02*
X202346000Y-128391114D01*
X202346000Y-128391114D02*
X202488857Y-128581590D01*
X202346000Y-128153019D02*
X202346000Y-128391114D01*
X202107905Y-128295876D02*
X202346000Y-128391114D01*
X202346000Y-128391114D02*
X202584095Y-128295876D01*
X202203143Y-128581590D02*
X202346000Y-128391114D01*
X202346000Y-128391114D02*
X202488857Y-128581590D01*
X213233333Y-119345180D02*
X213233333Y-118630895D01*
X213233333Y-118630895D02*
X213280952Y-118488038D01*
X213280952Y-118488038D02*
X213376190Y-118392800D01*
X213376190Y-118392800D02*
X213519047Y-118345180D01*
X213519047Y-118345180D02*
X213614285Y-118345180D01*
X212614285Y-118916609D02*
X212709523Y-118964228D01*
X212709523Y-118964228D02*
X212757142Y-119011847D01*
X212757142Y-119011847D02*
X212804761Y-119107085D01*
X212804761Y-119107085D02*
X212804761Y-119154704D01*
X212804761Y-119154704D02*
X212757142Y-119249942D01*
X212757142Y-119249942D02*
X212709523Y-119297561D01*
X212709523Y-119297561D02*
X212614285Y-119345180D01*
X212614285Y-119345180D02*
X212423809Y-119345180D01*
X212423809Y-119345180D02*
X212328571Y-119297561D01*
X212328571Y-119297561D02*
X212280952Y-119249942D01*
X212280952Y-119249942D02*
X212233333Y-119154704D01*
X212233333Y-119154704D02*
X212233333Y-119107085D01*
X212233333Y-119107085D02*
X212280952Y-119011847D01*
X212280952Y-119011847D02*
X212328571Y-118964228D01*
X212328571Y-118964228D02*
X212423809Y-118916609D01*
X212423809Y-118916609D02*
X212614285Y-118916609D01*
X212614285Y-118916609D02*
X212709523Y-118868990D01*
X212709523Y-118868990D02*
X212757142Y-118821371D01*
X212757142Y-118821371D02*
X212804761Y-118726133D01*
X212804761Y-118726133D02*
X212804761Y-118535657D01*
X212804761Y-118535657D02*
X212757142Y-118440419D01*
X212757142Y-118440419D02*
X212709523Y-118392800D01*
X212709523Y-118392800D02*
X212614285Y-118345180D01*
X212614285Y-118345180D02*
X212423809Y-118345180D01*
X212423809Y-118345180D02*
X212328571Y-118392800D01*
X212328571Y-118392800D02*
X212280952Y-118440419D01*
X212280952Y-118440419D02*
X212233333Y-118535657D01*
X212233333Y-118535657D02*
X212233333Y-118726133D01*
X212233333Y-118726133D02*
X212280952Y-118821371D01*
X212280952Y-118821371D02*
X212328571Y-118868990D01*
X212328571Y-118868990D02*
X212423809Y-118916609D01*
X223866667Y-118129820D02*
X223866667Y-118844105D01*
X223866667Y-118844105D02*
X223819048Y-118986962D01*
X223819048Y-118986962D02*
X223723810Y-119082201D01*
X223723810Y-119082201D02*
X223580953Y-119129820D01*
X223580953Y-119129820D02*
X223485715Y-119129820D01*
X224771429Y-118463153D02*
X224771429Y-119129820D01*
X224533334Y-118082201D02*
X224295239Y-118796486D01*
X224295239Y-118796486D02*
X224914286Y-118796486D01*
X77166667Y-118329820D02*
X77166667Y-119044105D01*
X77166667Y-119044105D02*
X77119048Y-119186962D01*
X77119048Y-119186962D02*
X77023810Y-119282201D01*
X77023810Y-119282201D02*
X76880953Y-119329820D01*
X76880953Y-119329820D02*
X76785715Y-119329820D01*
X77547620Y-118329820D02*
X78166667Y-118329820D01*
X78166667Y-118329820D02*
X77833334Y-118710772D01*
X77833334Y-118710772D02*
X77976191Y-118710772D01*
X77976191Y-118710772D02*
X78071429Y-118758391D01*
X78071429Y-118758391D02*
X78119048Y-118806010D01*
X78119048Y-118806010D02*
X78166667Y-118901248D01*
X78166667Y-118901248D02*
X78166667Y-119139343D01*
X78166667Y-119139343D02*
X78119048Y-119234581D01*
X78119048Y-119234581D02*
X78071429Y-119282201D01*
X78071429Y-119282201D02*
X77976191Y-119329820D01*
X77976191Y-119329820D02*
X77690477Y-119329820D01*
X77690477Y-119329820D02*
X77595239Y-119282201D01*
X77595239Y-119282201D02*
X77547620Y-119234581D01*
X182566666Y-144654819D02*
X182566666Y-145369104D01*
X182566666Y-145369104D02*
X182519047Y-145511961D01*
X182519047Y-145511961D02*
X182423809Y-145607200D01*
X182423809Y-145607200D02*
X182280952Y-145654819D01*
X182280952Y-145654819D02*
X182185714Y-145654819D01*
X182995238Y-144750057D02*
X183042857Y-144702438D01*
X183042857Y-144702438D02*
X183138095Y-144654819D01*
X183138095Y-144654819D02*
X183376190Y-144654819D01*
X183376190Y-144654819D02*
X183471428Y-144702438D01*
X183471428Y-144702438D02*
X183519047Y-144750057D01*
X183519047Y-144750057D02*
X183566666Y-144845295D01*
X183566666Y-144845295D02*
X183566666Y-144940533D01*
X183566666Y-144940533D02*
X183519047Y-145083390D01*
X183519047Y-145083390D02*
X182947619Y-145654819D01*
X182947619Y-145654819D02*
X183566666Y-145654819D01*
X199666544Y-137745180D02*
X199666544Y-138745180D01*
X199666544Y-138745180D02*
X199428449Y-138745180D01*
X199428449Y-138745180D02*
X199285592Y-138697561D01*
X199285592Y-138697561D02*
X199190354Y-138602323D01*
X199190354Y-138602323D02*
X199142735Y-138507085D01*
X199142735Y-138507085D02*
X199095116Y-138316609D01*
X199095116Y-138316609D02*
X199095116Y-138173752D01*
X199095116Y-138173752D02*
X199142735Y-137983276D01*
X199142735Y-137983276D02*
X199190354Y-137888038D01*
X199190354Y-137888038D02*
X199285592Y-137792800D01*
X199285592Y-137792800D02*
X199428449Y-137745180D01*
X199428449Y-137745180D02*
X199666544Y-137745180D01*
X198190354Y-138745180D02*
X198666544Y-138745180D01*
X198666544Y-138745180D02*
X198714163Y-138268990D01*
X198714163Y-138268990D02*
X198666544Y-138316609D01*
X198666544Y-138316609D02*
X198571306Y-138364228D01*
X198571306Y-138364228D02*
X198333211Y-138364228D01*
X198333211Y-138364228D02*
X198237973Y-138316609D01*
X198237973Y-138316609D02*
X198190354Y-138268990D01*
X198190354Y-138268990D02*
X198142735Y-138173752D01*
X198142735Y-138173752D02*
X198142735Y-137935657D01*
X198142735Y-137935657D02*
X198190354Y-137840419D01*
X198190354Y-137840419D02*
X198237973Y-137792800D01*
X198237973Y-137792800D02*
X198333211Y-137745180D01*
X198333211Y-137745180D02*
X198571306Y-137745180D01*
X198571306Y-137745180D02*
X198666544Y-137792800D01*
X198666544Y-137792800D02*
X198714163Y-137840419D01*
X141954819Y-139238094D02*
X140954819Y-139238094D01*
X140954819Y-139238094D02*
X140954819Y-138999999D01*
X140954819Y-138999999D02*
X141002438Y-138857142D01*
X141002438Y-138857142D02*
X141097676Y-138761904D01*
X141097676Y-138761904D02*
X141192914Y-138714285D01*
X141192914Y-138714285D02*
X141383390Y-138666666D01*
X141383390Y-138666666D02*
X141526247Y-138666666D01*
X141526247Y-138666666D02*
X141716723Y-138714285D01*
X141716723Y-138714285D02*
X141811961Y-138761904D01*
X141811961Y-138761904D02*
X141907200Y-138857142D01*
X141907200Y-138857142D02*
X141954819Y-138999999D01*
X141954819Y-138999999D02*
X141954819Y-139238094D01*
X141288152Y-137809523D02*
X141954819Y-137809523D01*
X140907200Y-138047618D02*
X141621485Y-138285713D01*
X141621485Y-138285713D02*
X141621485Y-137666666D01*
X134861905Y-130354819D02*
X134861905Y-129354819D01*
X134861905Y-129354819D02*
X135100000Y-129354819D01*
X135100000Y-129354819D02*
X135242857Y-129402438D01*
X135242857Y-129402438D02*
X135338095Y-129497676D01*
X135338095Y-129497676D02*
X135385714Y-129592914D01*
X135385714Y-129592914D02*
X135433333Y-129783390D01*
X135433333Y-129783390D02*
X135433333Y-129926247D01*
X135433333Y-129926247D02*
X135385714Y-130116723D01*
X135385714Y-130116723D02*
X135338095Y-130211961D01*
X135338095Y-130211961D02*
X135242857Y-130307200D01*
X135242857Y-130307200D02*
X135100000Y-130354819D01*
X135100000Y-130354819D02*
X134861905Y-130354819D01*
X135766667Y-129354819D02*
X136385714Y-129354819D01*
X136385714Y-129354819D02*
X136052381Y-129735771D01*
X136052381Y-129735771D02*
X136195238Y-129735771D01*
X136195238Y-129735771D02*
X136290476Y-129783390D01*
X136290476Y-129783390D02*
X136338095Y-129831009D01*
X136338095Y-129831009D02*
X136385714Y-129926247D01*
X136385714Y-129926247D02*
X136385714Y-130164342D01*
X136385714Y-130164342D02*
X136338095Y-130259580D01*
X136338095Y-130259580D02*
X136290476Y-130307200D01*
X136290476Y-130307200D02*
X136195238Y-130354819D01*
X136195238Y-130354819D02*
X135909524Y-130354819D01*
X135909524Y-130354819D02*
X135814286Y-130307200D01*
X135814286Y-130307200D02*
X135766667Y-130259580D01*
X136861905Y-127954819D02*
X136861905Y-126954819D01*
X136861905Y-126954819D02*
X137100000Y-126954819D01*
X137100000Y-126954819D02*
X137242857Y-127002438D01*
X137242857Y-127002438D02*
X137338095Y-127097676D01*
X137338095Y-127097676D02*
X137385714Y-127192914D01*
X137385714Y-127192914D02*
X137433333Y-127383390D01*
X137433333Y-127383390D02*
X137433333Y-127526247D01*
X137433333Y-127526247D02*
X137385714Y-127716723D01*
X137385714Y-127716723D02*
X137338095Y-127811961D01*
X137338095Y-127811961D02*
X137242857Y-127907200D01*
X137242857Y-127907200D02*
X137100000Y-127954819D01*
X137100000Y-127954819D02*
X136861905Y-127954819D01*
X137814286Y-127050057D02*
X137861905Y-127002438D01*
X137861905Y-127002438D02*
X137957143Y-126954819D01*
X137957143Y-126954819D02*
X138195238Y-126954819D01*
X138195238Y-126954819D02*
X138290476Y-127002438D01*
X138290476Y-127002438D02*
X138338095Y-127050057D01*
X138338095Y-127050057D02*
X138385714Y-127145295D01*
X138385714Y-127145295D02*
X138385714Y-127240533D01*
X138385714Y-127240533D02*
X138338095Y-127383390D01*
X138338095Y-127383390D02*
X137766667Y-127954819D01*
X137766667Y-127954819D02*
X138385714Y-127954819D01*
X207383333Y-137379580D02*
X207335714Y-137427200D01*
X207335714Y-137427200D02*
X207192857Y-137474819D01*
X207192857Y-137474819D02*
X207097619Y-137474819D01*
X207097619Y-137474819D02*
X206954762Y-137427200D01*
X206954762Y-137427200D02*
X206859524Y-137331961D01*
X206859524Y-137331961D02*
X206811905Y-137236723D01*
X206811905Y-137236723D02*
X206764286Y-137046247D01*
X206764286Y-137046247D02*
X206764286Y-136903390D01*
X206764286Y-136903390D02*
X206811905Y-136712914D01*
X206811905Y-136712914D02*
X206859524Y-136617676D01*
X206859524Y-136617676D02*
X206954762Y-136522438D01*
X206954762Y-136522438D02*
X207097619Y-136474819D01*
X207097619Y-136474819D02*
X207192857Y-136474819D01*
X207192857Y-136474819D02*
X207335714Y-136522438D01*
X207335714Y-136522438D02*
X207383333Y-136570057D01*
X208335714Y-137474819D02*
X207764286Y-137474819D01*
X208050000Y-137474819D02*
X208050000Y-136474819D01*
X208050000Y-136474819D02*
X207954762Y-136617676D01*
X207954762Y-136617676D02*
X207859524Y-136712914D01*
X207859524Y-136712914D02*
X207764286Y-136760533D01*
X171733333Y-136154819D02*
X171400000Y-135678628D01*
X171161905Y-136154819D02*
X171161905Y-135154819D01*
X171161905Y-135154819D02*
X171542857Y-135154819D01*
X171542857Y-135154819D02*
X171638095Y-135202438D01*
X171638095Y-135202438D02*
X171685714Y-135250057D01*
X171685714Y-135250057D02*
X171733333Y-135345295D01*
X171733333Y-135345295D02*
X171733333Y-135488152D01*
X171733333Y-135488152D02*
X171685714Y-135583390D01*
X171685714Y-135583390D02*
X171638095Y-135631009D01*
X171638095Y-135631009D02*
X171542857Y-135678628D01*
X171542857Y-135678628D02*
X171161905Y-135678628D01*
X172590476Y-135154819D02*
X172400000Y-135154819D01*
X172400000Y-135154819D02*
X172304762Y-135202438D01*
X172304762Y-135202438D02*
X172257143Y-135250057D01*
X172257143Y-135250057D02*
X172161905Y-135392914D01*
X172161905Y-135392914D02*
X172114286Y-135583390D01*
X172114286Y-135583390D02*
X172114286Y-135964342D01*
X172114286Y-135964342D02*
X172161905Y-136059580D01*
X172161905Y-136059580D02*
X172209524Y-136107200D01*
X172209524Y-136107200D02*
X172304762Y-136154819D01*
X172304762Y-136154819D02*
X172495238Y-136154819D01*
X172495238Y-136154819D02*
X172590476Y-136107200D01*
X172590476Y-136107200D02*
X172638095Y-136059580D01*
X172638095Y-136059580D02*
X172685714Y-135964342D01*
X172685714Y-135964342D02*
X172685714Y-135726247D01*
X172685714Y-135726247D02*
X172638095Y-135631009D01*
X172638095Y-135631009D02*
X172590476Y-135583390D01*
X172590476Y-135583390D02*
X172495238Y-135535771D01*
X172495238Y-135535771D02*
X172304762Y-135535771D01*
X172304762Y-135535771D02*
X172209524Y-135583390D01*
X172209524Y-135583390D02*
X172161905Y-135631009D01*
X172161905Y-135631009D02*
X172114286Y-135726247D01*
X188233333Y-139454819D02*
X187900000Y-138978628D01*
X187661905Y-139454819D02*
X187661905Y-138454819D01*
X187661905Y-138454819D02*
X188042857Y-138454819D01*
X188042857Y-138454819D02*
X188138095Y-138502438D01*
X188138095Y-138502438D02*
X188185714Y-138550057D01*
X188185714Y-138550057D02*
X188233333Y-138645295D01*
X188233333Y-138645295D02*
X188233333Y-138788152D01*
X188233333Y-138788152D02*
X188185714Y-138883390D01*
X188185714Y-138883390D02*
X188138095Y-138931009D01*
X188138095Y-138931009D02*
X188042857Y-138978628D01*
X188042857Y-138978628D02*
X187661905Y-138978628D01*
X188614286Y-138550057D02*
X188661905Y-138502438D01*
X188661905Y-138502438D02*
X188757143Y-138454819D01*
X188757143Y-138454819D02*
X188995238Y-138454819D01*
X188995238Y-138454819D02*
X189090476Y-138502438D01*
X189090476Y-138502438D02*
X189138095Y-138550057D01*
X189138095Y-138550057D02*
X189185714Y-138645295D01*
X189185714Y-138645295D02*
X189185714Y-138740533D01*
X189185714Y-138740533D02*
X189138095Y-138883390D01*
X189138095Y-138883390D02*
X188566667Y-139454819D01*
X188566667Y-139454819D02*
X189185714Y-139454819D01*
X232966667Y-144607200D02*
X233109524Y-144654819D01*
X233109524Y-144654819D02*
X233347619Y-144654819D01*
X233347619Y-144654819D02*
X233442857Y-144607200D01*
X233442857Y-144607200D02*
X233490476Y-144559580D01*
X233490476Y-144559580D02*
X233538095Y-144464342D01*
X233538095Y-144464342D02*
X233538095Y-144369104D01*
X233538095Y-144369104D02*
X233490476Y-144273866D01*
X233490476Y-144273866D02*
X233442857Y-144226247D01*
X233442857Y-144226247D02*
X233347619Y-144178628D01*
X233347619Y-144178628D02*
X233157143Y-144131009D01*
X233157143Y-144131009D02*
X233061905Y-144083390D01*
X233061905Y-144083390D02*
X233014286Y-144035771D01*
X233014286Y-144035771D02*
X232966667Y-143940533D01*
X232966667Y-143940533D02*
X232966667Y-143845295D01*
X232966667Y-143845295D02*
X233014286Y-143750057D01*
X233014286Y-143750057D02*
X233061905Y-143702438D01*
X233061905Y-143702438D02*
X233157143Y-143654819D01*
X233157143Y-143654819D02*
X233395238Y-143654819D01*
X233395238Y-143654819D02*
X233538095Y-143702438D01*
X233871429Y-143654819D02*
X234109524Y-144654819D01*
X234109524Y-144654819D02*
X234300000Y-143940533D01*
X234300000Y-143940533D02*
X234490476Y-144654819D01*
X234490476Y-144654819D02*
X234728572Y-143654819D01*
X235633333Y-144654819D02*
X235061905Y-144654819D01*
X235347619Y-144654819D02*
X235347619Y-143654819D01*
X235347619Y-143654819D02*
X235252381Y-143797676D01*
X235252381Y-143797676D02*
X235157143Y-143892914D01*
X235157143Y-143892914D02*
X235061905Y-143940533D01*
X225200000Y-140754819D02*
X225200000Y-140992914D01*
X224961905Y-140897676D02*
X225200000Y-140992914D01*
X225200000Y-140992914D02*
X225438095Y-140897676D01*
X225057143Y-141183390D02*
X225200000Y-140992914D01*
X225200000Y-140992914D02*
X225342857Y-141183390D01*
X225200000Y-140754819D02*
X225200000Y-140992914D01*
X224961905Y-140897676D02*
X225200000Y-140992914D01*
X225200000Y-140992914D02*
X225438095Y-140897676D01*
X225057143Y-141183390D02*
X225200000Y-140992914D01*
X225200000Y-140992914D02*
X225342857Y-141183390D01*
X90266667Y-144629820D02*
X90266667Y-145344105D01*
X90266667Y-145344105D02*
X90219048Y-145486962D01*
X90219048Y-145486962D02*
X90123810Y-145582201D01*
X90123810Y-145582201D02*
X89980953Y-145629820D01*
X89980953Y-145629820D02*
X89885715Y-145629820D01*
X91171429Y-144629820D02*
X90980953Y-144629820D01*
X90980953Y-144629820D02*
X90885715Y-144677439D01*
X90885715Y-144677439D02*
X90838096Y-144725058D01*
X90838096Y-144725058D02*
X90742858Y-144867915D01*
X90742858Y-144867915D02*
X90695239Y-145058391D01*
X90695239Y-145058391D02*
X90695239Y-145439343D01*
X90695239Y-145439343D02*
X90742858Y-145534581D01*
X90742858Y-145534581D02*
X90790477Y-145582201D01*
X90790477Y-145582201D02*
X90885715Y-145629820D01*
X90885715Y-145629820D02*
X91076191Y-145629820D01*
X91076191Y-145629820D02*
X91171429Y-145582201D01*
X91171429Y-145582201D02*
X91219048Y-145534581D01*
X91219048Y-145534581D02*
X91266667Y-145439343D01*
X91266667Y-145439343D02*
X91266667Y-145201248D01*
X91266667Y-145201248D02*
X91219048Y-145106010D01*
X91219048Y-145106010D02*
X91171429Y-145058391D01*
X91171429Y-145058391D02*
X91076191Y-145010772D01*
X91076191Y-145010772D02*
X90885715Y-145010772D01*
X90885715Y-145010772D02*
X90790477Y-145058391D01*
X90790477Y-145058391D02*
X90742858Y-145106010D01*
X90742858Y-145106010D02*
X90695239Y-145201248D01*
X117057142Y-125854819D02*
X116723809Y-125378628D01*
X116485714Y-125854819D02*
X116485714Y-124854819D01*
X116485714Y-124854819D02*
X116866666Y-124854819D01*
X116866666Y-124854819D02*
X116961904Y-124902438D01*
X116961904Y-124902438D02*
X117009523Y-124950057D01*
X117009523Y-124950057D02*
X117057142Y-125045295D01*
X117057142Y-125045295D02*
X117057142Y-125188152D01*
X117057142Y-125188152D02*
X117009523Y-125283390D01*
X117009523Y-125283390D02*
X116961904Y-125331009D01*
X116961904Y-125331009D02*
X116866666Y-125378628D01*
X116866666Y-125378628D02*
X116485714Y-125378628D01*
X118009523Y-125854819D02*
X117438095Y-125854819D01*
X117723809Y-125854819D02*
X117723809Y-124854819D01*
X117723809Y-124854819D02*
X117628571Y-124997676D01*
X117628571Y-124997676D02*
X117533333Y-125092914D01*
X117533333Y-125092914D02*
X117438095Y-125140533D01*
X118628571Y-124854819D02*
X118723809Y-124854819D01*
X118723809Y-124854819D02*
X118819047Y-124902438D01*
X118819047Y-124902438D02*
X118866666Y-124950057D01*
X118866666Y-124950057D02*
X118914285Y-125045295D01*
X118914285Y-125045295D02*
X118961904Y-125235771D01*
X118961904Y-125235771D02*
X118961904Y-125473866D01*
X118961904Y-125473866D02*
X118914285Y-125664342D01*
X118914285Y-125664342D02*
X118866666Y-125759580D01*
X118866666Y-125759580D02*
X118819047Y-125807200D01*
X118819047Y-125807200D02*
X118723809Y-125854819D01*
X118723809Y-125854819D02*
X118628571Y-125854819D01*
X118628571Y-125854819D02*
X118533333Y-125807200D01*
X118533333Y-125807200D02*
X118485714Y-125759580D01*
X118485714Y-125759580D02*
X118438095Y-125664342D01*
X118438095Y-125664342D02*
X118390476Y-125473866D01*
X118390476Y-125473866D02*
X118390476Y-125235771D01*
X118390476Y-125235771D02*
X118438095Y-125045295D01*
X118438095Y-125045295D02*
X118485714Y-124950057D01*
X118485714Y-124950057D02*
X118533333Y-124902438D01*
X118533333Y-124902438D02*
X118628571Y-124854819D01*
X83533333Y-139959580D02*
X83485714Y-140007200D01*
X83485714Y-140007200D02*
X83342857Y-140054819D01*
X83342857Y-140054819D02*
X83247619Y-140054819D01*
X83247619Y-140054819D02*
X83104762Y-140007200D01*
X83104762Y-140007200D02*
X83009524Y-139911961D01*
X83009524Y-139911961D02*
X82961905Y-139816723D01*
X82961905Y-139816723D02*
X82914286Y-139626247D01*
X82914286Y-139626247D02*
X82914286Y-139483390D01*
X82914286Y-139483390D02*
X82961905Y-139292914D01*
X82961905Y-139292914D02*
X83009524Y-139197676D01*
X83009524Y-139197676D02*
X83104762Y-139102438D01*
X83104762Y-139102438D02*
X83247619Y-139054819D01*
X83247619Y-139054819D02*
X83342857Y-139054819D01*
X83342857Y-139054819D02*
X83485714Y-139102438D01*
X83485714Y-139102438D02*
X83533333Y-139150057D01*
X84390476Y-139054819D02*
X84200000Y-139054819D01*
X84200000Y-139054819D02*
X84104762Y-139102438D01*
X84104762Y-139102438D02*
X84057143Y-139150057D01*
X84057143Y-139150057D02*
X83961905Y-139292914D01*
X83961905Y-139292914D02*
X83914286Y-139483390D01*
X83914286Y-139483390D02*
X83914286Y-139864342D01*
X83914286Y-139864342D02*
X83961905Y-139959580D01*
X83961905Y-139959580D02*
X84009524Y-140007200D01*
X84009524Y-140007200D02*
X84104762Y-140054819D01*
X84104762Y-140054819D02*
X84295238Y-140054819D01*
X84295238Y-140054819D02*
X84390476Y-140007200D01*
X84390476Y-140007200D02*
X84438095Y-139959580D01*
X84438095Y-139959580D02*
X84485714Y-139864342D01*
X84485714Y-139864342D02*
X84485714Y-139626247D01*
X84485714Y-139626247D02*
X84438095Y-139531009D01*
X84438095Y-139531009D02*
X84390476Y-139483390D01*
X84390476Y-139483390D02*
X84295238Y-139435771D01*
X84295238Y-139435771D02*
X84104762Y-139435771D01*
X84104762Y-139435771D02*
X84009524Y-139483390D01*
X84009524Y-139483390D02*
X83961905Y-139531009D01*
X83961905Y-139531009D02*
X83914286Y-139626247D01*
X157407142Y-140459580D02*
X157359523Y-140507200D01*
X157359523Y-140507200D02*
X157216666Y-140554819D01*
X157216666Y-140554819D02*
X157121428Y-140554819D01*
X157121428Y-140554819D02*
X156978571Y-140507200D01*
X156978571Y-140507200D02*
X156883333Y-140411961D01*
X156883333Y-140411961D02*
X156835714Y-140316723D01*
X156835714Y-140316723D02*
X156788095Y-140126247D01*
X156788095Y-140126247D02*
X156788095Y-139983390D01*
X156788095Y-139983390D02*
X156835714Y-139792914D01*
X156835714Y-139792914D02*
X156883333Y-139697676D01*
X156883333Y-139697676D02*
X156978571Y-139602438D01*
X156978571Y-139602438D02*
X157121428Y-139554819D01*
X157121428Y-139554819D02*
X157216666Y-139554819D01*
X157216666Y-139554819D02*
X157359523Y-139602438D01*
X157359523Y-139602438D02*
X157407142Y-139650057D01*
X158359523Y-140554819D02*
X157788095Y-140554819D01*
X158073809Y-140554819D02*
X158073809Y-139554819D01*
X158073809Y-139554819D02*
X157978571Y-139697676D01*
X157978571Y-139697676D02*
X157883333Y-139792914D01*
X157883333Y-139792914D02*
X157788095Y-139840533D01*
X158930952Y-139983390D02*
X158835714Y-139935771D01*
X158835714Y-139935771D02*
X158788095Y-139888152D01*
X158788095Y-139888152D02*
X158740476Y-139792914D01*
X158740476Y-139792914D02*
X158740476Y-139745295D01*
X158740476Y-139745295D02*
X158788095Y-139650057D01*
X158788095Y-139650057D02*
X158835714Y-139602438D01*
X158835714Y-139602438D02*
X158930952Y-139554819D01*
X158930952Y-139554819D02*
X159121428Y-139554819D01*
X159121428Y-139554819D02*
X159216666Y-139602438D01*
X159216666Y-139602438D02*
X159264285Y-139650057D01*
X159264285Y-139650057D02*
X159311904Y-139745295D01*
X159311904Y-139745295D02*
X159311904Y-139792914D01*
X159311904Y-139792914D02*
X159264285Y-139888152D01*
X159264285Y-139888152D02*
X159216666Y-139935771D01*
X159216666Y-139935771D02*
X159121428Y-139983390D01*
X159121428Y-139983390D02*
X158930952Y-139983390D01*
X158930952Y-139983390D02*
X158835714Y-140031009D01*
X158835714Y-140031009D02*
X158788095Y-140078628D01*
X158788095Y-140078628D02*
X158740476Y-140173866D01*
X158740476Y-140173866D02*
X158740476Y-140364342D01*
X158740476Y-140364342D02*
X158788095Y-140459580D01*
X158788095Y-140459580D02*
X158835714Y-140507200D01*
X158835714Y-140507200D02*
X158930952Y-140554819D01*
X158930952Y-140554819D02*
X159121428Y-140554819D01*
X159121428Y-140554819D02*
X159216666Y-140507200D01*
X159216666Y-140507200D02*
X159264285Y-140459580D01*
X159264285Y-140459580D02*
X159311904Y-140364342D01*
X159311904Y-140364342D02*
X159311904Y-140173866D01*
X159311904Y-140173866D02*
X159264285Y-140078628D01*
X159264285Y-140078628D02*
X159216666Y-140031009D01*
X159216666Y-140031009D02*
X159121428Y-139983390D01*
X232620833Y-138104819D02*
X232287500Y-137628628D01*
X232049405Y-138104819D02*
X232049405Y-137104819D01*
X232049405Y-137104819D02*
X232430357Y-137104819D01*
X232430357Y-137104819D02*
X232525595Y-137152438D01*
X232525595Y-137152438D02*
X232573214Y-137200057D01*
X232573214Y-137200057D02*
X232620833Y-137295295D01*
X232620833Y-137295295D02*
X232620833Y-137438152D01*
X232620833Y-137438152D02*
X232573214Y-137533390D01*
X232573214Y-137533390D02*
X232525595Y-137581009D01*
X232525595Y-137581009D02*
X232430357Y-137628628D01*
X232430357Y-137628628D02*
X232049405Y-137628628D01*
X232954167Y-137104819D02*
X233620833Y-137104819D01*
X233620833Y-137104819D02*
X233192262Y-138104819D01*
X140359580Y-144342857D02*
X140407200Y-144390476D01*
X140407200Y-144390476D02*
X140454819Y-144533333D01*
X140454819Y-144533333D02*
X140454819Y-144628571D01*
X140454819Y-144628571D02*
X140407200Y-144771428D01*
X140407200Y-144771428D02*
X140311961Y-144866666D01*
X140311961Y-144866666D02*
X140216723Y-144914285D01*
X140216723Y-144914285D02*
X140026247Y-144961904D01*
X140026247Y-144961904D02*
X139883390Y-144961904D01*
X139883390Y-144961904D02*
X139692914Y-144914285D01*
X139692914Y-144914285D02*
X139597676Y-144866666D01*
X139597676Y-144866666D02*
X139502438Y-144771428D01*
X139502438Y-144771428D02*
X139454819Y-144628571D01*
X139454819Y-144628571D02*
X139454819Y-144533333D01*
X139454819Y-144533333D02*
X139502438Y-144390476D01*
X139502438Y-144390476D02*
X139550057Y-144342857D01*
X140454819Y-143390476D02*
X140454819Y-143961904D01*
X140454819Y-143676190D02*
X139454819Y-143676190D01*
X139454819Y-143676190D02*
X139597676Y-143771428D01*
X139597676Y-143771428D02*
X139692914Y-143866666D01*
X139692914Y-143866666D02*
X139740533Y-143961904D01*
X139454819Y-143057142D02*
X139454819Y-142390476D01*
X139454819Y-142390476D02*
X140454819Y-142819047D01*
X152383332Y-133545180D02*
X152383332Y-132830895D01*
X152383332Y-132830895D02*
X152430951Y-132688038D01*
X152430951Y-132688038D02*
X152526189Y-132592800D01*
X152526189Y-132592800D02*
X152669046Y-132545180D01*
X152669046Y-132545180D02*
X152764284Y-132545180D01*
X151383332Y-132545180D02*
X151954760Y-132545180D01*
X151669046Y-132545180D02*
X151669046Y-133545180D01*
X151669046Y-133545180D02*
X151764284Y-133402323D01*
X151764284Y-133402323D02*
X151859522Y-133307085D01*
X151859522Y-133307085D02*
X151954760Y-133259466D01*
X228057142Y-137959580D02*
X228009523Y-138007200D01*
X228009523Y-138007200D02*
X227866666Y-138054819D01*
X227866666Y-138054819D02*
X227771428Y-138054819D01*
X227771428Y-138054819D02*
X227628571Y-138007200D01*
X227628571Y-138007200D02*
X227533333Y-137911961D01*
X227533333Y-137911961D02*
X227485714Y-137816723D01*
X227485714Y-137816723D02*
X227438095Y-137626247D01*
X227438095Y-137626247D02*
X227438095Y-137483390D01*
X227438095Y-137483390D02*
X227485714Y-137292914D01*
X227485714Y-137292914D02*
X227533333Y-137197676D01*
X227533333Y-137197676D02*
X227628571Y-137102438D01*
X227628571Y-137102438D02*
X227771428Y-137054819D01*
X227771428Y-137054819D02*
X227866666Y-137054819D01*
X227866666Y-137054819D02*
X228009523Y-137102438D01*
X228009523Y-137102438D02*
X228057142Y-137150057D01*
X229009523Y-138054819D02*
X228438095Y-138054819D01*
X228723809Y-138054819D02*
X228723809Y-137054819D01*
X228723809Y-137054819D02*
X228628571Y-137197676D01*
X228628571Y-137197676D02*
X228533333Y-137292914D01*
X228533333Y-137292914D02*
X228438095Y-137340533D01*
X229342857Y-137054819D02*
X229961904Y-137054819D01*
X229961904Y-137054819D02*
X229628571Y-137435771D01*
X229628571Y-137435771D02*
X229771428Y-137435771D01*
X229771428Y-137435771D02*
X229866666Y-137483390D01*
X229866666Y-137483390D02*
X229914285Y-137531009D01*
X229914285Y-137531009D02*
X229961904Y-137626247D01*
X229961904Y-137626247D02*
X229961904Y-137864342D01*
X229961904Y-137864342D02*
X229914285Y-137959580D01*
X229914285Y-137959580D02*
X229866666Y-138007200D01*
X229866666Y-138007200D02*
X229771428Y-138054819D01*
X229771428Y-138054819D02*
X229485714Y-138054819D01*
X229485714Y-138054819D02*
X229390476Y-138007200D01*
X229390476Y-138007200D02*
X229342857Y-137959580D01*
X195744642Y-140654819D02*
X195411309Y-140178628D01*
X195173214Y-140654819D02*
X195173214Y-139654819D01*
X195173214Y-139654819D02*
X195554166Y-139654819D01*
X195554166Y-139654819D02*
X195649404Y-139702438D01*
X195649404Y-139702438D02*
X195697023Y-139750057D01*
X195697023Y-139750057D02*
X195744642Y-139845295D01*
X195744642Y-139845295D02*
X195744642Y-139988152D01*
X195744642Y-139988152D02*
X195697023Y-140083390D01*
X195697023Y-140083390D02*
X195649404Y-140131009D01*
X195649404Y-140131009D02*
X195554166Y-140178628D01*
X195554166Y-140178628D02*
X195173214Y-140178628D01*
X196697023Y-140654819D02*
X196125595Y-140654819D01*
X196411309Y-140654819D02*
X196411309Y-139654819D01*
X196411309Y-139654819D02*
X196316071Y-139797676D01*
X196316071Y-139797676D02*
X196220833Y-139892914D01*
X196220833Y-139892914D02*
X196125595Y-139940533D01*
X197554166Y-139988152D02*
X197554166Y-140654819D01*
X197316071Y-139607200D02*
X197077976Y-140321485D01*
X197077976Y-140321485D02*
X197697023Y-140321485D01*
X72033333Y-135554819D02*
X71700000Y-135078628D01*
X71461905Y-135554819D02*
X71461905Y-134554819D01*
X71461905Y-134554819D02*
X71842857Y-134554819D01*
X71842857Y-134554819D02*
X71938095Y-134602438D01*
X71938095Y-134602438D02*
X71985714Y-134650057D01*
X71985714Y-134650057D02*
X72033333Y-134745295D01*
X72033333Y-134745295D02*
X72033333Y-134888152D01*
X72033333Y-134888152D02*
X71985714Y-134983390D01*
X71985714Y-134983390D02*
X71938095Y-135031009D01*
X71938095Y-135031009D02*
X71842857Y-135078628D01*
X71842857Y-135078628D02*
X71461905Y-135078628D01*
X72604762Y-134983390D02*
X72509524Y-134935771D01*
X72509524Y-134935771D02*
X72461905Y-134888152D01*
X72461905Y-134888152D02*
X72414286Y-134792914D01*
X72414286Y-134792914D02*
X72414286Y-134745295D01*
X72414286Y-134745295D02*
X72461905Y-134650057D01*
X72461905Y-134650057D02*
X72509524Y-134602438D01*
X72509524Y-134602438D02*
X72604762Y-134554819D01*
X72604762Y-134554819D02*
X72795238Y-134554819D01*
X72795238Y-134554819D02*
X72890476Y-134602438D01*
X72890476Y-134602438D02*
X72938095Y-134650057D01*
X72938095Y-134650057D02*
X72985714Y-134745295D01*
X72985714Y-134745295D02*
X72985714Y-134792914D01*
X72985714Y-134792914D02*
X72938095Y-134888152D01*
X72938095Y-134888152D02*
X72890476Y-134935771D01*
X72890476Y-134935771D02*
X72795238Y-134983390D01*
X72795238Y-134983390D02*
X72604762Y-134983390D01*
X72604762Y-134983390D02*
X72509524Y-135031009D01*
X72509524Y-135031009D02*
X72461905Y-135078628D01*
X72461905Y-135078628D02*
X72414286Y-135173866D01*
X72414286Y-135173866D02*
X72414286Y-135364342D01*
X72414286Y-135364342D02*
X72461905Y-135459580D01*
X72461905Y-135459580D02*
X72509524Y-135507200D01*
X72509524Y-135507200D02*
X72604762Y-135554819D01*
X72604762Y-135554819D02*
X72795238Y-135554819D01*
X72795238Y-135554819D02*
X72890476Y-135507200D01*
X72890476Y-135507200D02*
X72938095Y-135459580D01*
X72938095Y-135459580D02*
X72985714Y-135364342D01*
X72985714Y-135364342D02*
X72985714Y-135173866D01*
X72985714Y-135173866D02*
X72938095Y-135078628D01*
X72938095Y-135078628D02*
X72890476Y-135031009D01*
X72890476Y-135031009D02*
X72795238Y-134983390D01*
X136557142Y-125459580D02*
X136509523Y-125507200D01*
X136509523Y-125507200D02*
X136366666Y-125554819D01*
X136366666Y-125554819D02*
X136271428Y-125554819D01*
X136271428Y-125554819D02*
X136128571Y-125507200D01*
X136128571Y-125507200D02*
X136033333Y-125411961D01*
X136033333Y-125411961D02*
X135985714Y-125316723D01*
X135985714Y-125316723D02*
X135938095Y-125126247D01*
X135938095Y-125126247D02*
X135938095Y-124983390D01*
X135938095Y-124983390D02*
X135985714Y-124792914D01*
X135985714Y-124792914D02*
X136033333Y-124697676D01*
X136033333Y-124697676D02*
X136128571Y-124602438D01*
X136128571Y-124602438D02*
X136271428Y-124554819D01*
X136271428Y-124554819D02*
X136366666Y-124554819D01*
X136366666Y-124554819D02*
X136509523Y-124602438D01*
X136509523Y-124602438D02*
X136557142Y-124650057D01*
X137509523Y-125554819D02*
X136938095Y-125554819D01*
X137223809Y-125554819D02*
X137223809Y-124554819D01*
X137223809Y-124554819D02*
X137128571Y-124697676D01*
X137128571Y-124697676D02*
X137033333Y-124792914D01*
X137033333Y-124792914D02*
X136938095Y-124840533D01*
X138128571Y-124554819D02*
X138223809Y-124554819D01*
X138223809Y-124554819D02*
X138319047Y-124602438D01*
X138319047Y-124602438D02*
X138366666Y-124650057D01*
X138366666Y-124650057D02*
X138414285Y-124745295D01*
X138414285Y-124745295D02*
X138461904Y-124935771D01*
X138461904Y-124935771D02*
X138461904Y-125173866D01*
X138461904Y-125173866D02*
X138414285Y-125364342D01*
X138414285Y-125364342D02*
X138366666Y-125459580D01*
X138366666Y-125459580D02*
X138319047Y-125507200D01*
X138319047Y-125507200D02*
X138223809Y-125554819D01*
X138223809Y-125554819D02*
X138128571Y-125554819D01*
X138128571Y-125554819D02*
X138033333Y-125507200D01*
X138033333Y-125507200D02*
X137985714Y-125459580D01*
X137985714Y-125459580D02*
X137938095Y-125364342D01*
X137938095Y-125364342D02*
X137890476Y-125173866D01*
X137890476Y-125173866D02*
X137890476Y-124935771D01*
X137890476Y-124935771D02*
X137938095Y-124745295D01*
X137938095Y-124745295D02*
X137985714Y-124650057D01*
X137985714Y-124650057D02*
X138033333Y-124602438D01*
X138033333Y-124602438D02*
X138128571Y-124554819D01*
X102969642Y-138454819D02*
X102636309Y-137978628D01*
X102398214Y-138454819D02*
X102398214Y-137454819D01*
X102398214Y-137454819D02*
X102779166Y-137454819D01*
X102779166Y-137454819D02*
X102874404Y-137502438D01*
X102874404Y-137502438D02*
X102922023Y-137550057D01*
X102922023Y-137550057D02*
X102969642Y-137645295D01*
X102969642Y-137645295D02*
X102969642Y-137788152D01*
X102969642Y-137788152D02*
X102922023Y-137883390D01*
X102922023Y-137883390D02*
X102874404Y-137931009D01*
X102874404Y-137931009D02*
X102779166Y-137978628D01*
X102779166Y-137978628D02*
X102398214Y-137978628D01*
X103922023Y-138454819D02*
X103350595Y-138454819D01*
X103636309Y-138454819D02*
X103636309Y-137454819D01*
X103636309Y-137454819D02*
X103541071Y-137597676D01*
X103541071Y-137597676D02*
X103445833Y-137692914D01*
X103445833Y-137692914D02*
X103350595Y-137740533D01*
X104302976Y-137550057D02*
X104350595Y-137502438D01*
X104350595Y-137502438D02*
X104445833Y-137454819D01*
X104445833Y-137454819D02*
X104683928Y-137454819D01*
X104683928Y-137454819D02*
X104779166Y-137502438D01*
X104779166Y-137502438D02*
X104826785Y-137550057D01*
X104826785Y-137550057D02*
X104874404Y-137645295D01*
X104874404Y-137645295D02*
X104874404Y-137740533D01*
X104874404Y-137740533D02*
X104826785Y-137883390D01*
X104826785Y-137883390D02*
X104255357Y-138454819D01*
X104255357Y-138454819D02*
X104874404Y-138454819D01*
X70166667Y-130007200D02*
X70309524Y-130054819D01*
X70309524Y-130054819D02*
X70547619Y-130054819D01*
X70547619Y-130054819D02*
X70642857Y-130007200D01*
X70642857Y-130007200D02*
X70690476Y-129959580D01*
X70690476Y-129959580D02*
X70738095Y-129864342D01*
X70738095Y-129864342D02*
X70738095Y-129769104D01*
X70738095Y-129769104D02*
X70690476Y-129673866D01*
X70690476Y-129673866D02*
X70642857Y-129626247D01*
X70642857Y-129626247D02*
X70547619Y-129578628D01*
X70547619Y-129578628D02*
X70357143Y-129531009D01*
X70357143Y-129531009D02*
X70261905Y-129483390D01*
X70261905Y-129483390D02*
X70214286Y-129435771D01*
X70214286Y-129435771D02*
X70166667Y-129340533D01*
X70166667Y-129340533D02*
X70166667Y-129245295D01*
X70166667Y-129245295D02*
X70214286Y-129150057D01*
X70214286Y-129150057D02*
X70261905Y-129102438D01*
X70261905Y-129102438D02*
X70357143Y-129054819D01*
X70357143Y-129054819D02*
X70595238Y-129054819D01*
X70595238Y-129054819D02*
X70738095Y-129102438D01*
X71071429Y-129054819D02*
X71309524Y-130054819D01*
X71309524Y-130054819D02*
X71500000Y-129340533D01*
X71500000Y-129340533D02*
X71690476Y-130054819D01*
X71690476Y-130054819D02*
X71928572Y-129054819D01*
X72261905Y-129150057D02*
X72309524Y-129102438D01*
X72309524Y-129102438D02*
X72404762Y-129054819D01*
X72404762Y-129054819D02*
X72642857Y-129054819D01*
X72642857Y-129054819D02*
X72738095Y-129102438D01*
X72738095Y-129102438D02*
X72785714Y-129150057D01*
X72785714Y-129150057D02*
X72833333Y-129245295D01*
X72833333Y-129245295D02*
X72833333Y-129340533D01*
X72833333Y-129340533D02*
X72785714Y-129483390D01*
X72785714Y-129483390D02*
X72214286Y-130054819D01*
X72214286Y-130054819D02*
X72833333Y-130054819D01*
X74046000Y-125353018D02*
X74046000Y-125591113D01*
X73807905Y-125495875D02*
X74046000Y-125591113D01*
X74046000Y-125591113D02*
X74284095Y-125495875D01*
X73903143Y-125781589D02*
X74046000Y-125591113D01*
X74046000Y-125591113D02*
X74188857Y-125781589D01*
X74046000Y-125353018D02*
X74046000Y-125591113D01*
X73807905Y-125495875D02*
X74046000Y-125591113D01*
X74046000Y-125591113D02*
X74284095Y-125495875D01*
X73903143Y-125781589D02*
X74046000Y-125591113D01*
X74046000Y-125591113D02*
X74188857Y-125781589D01*
X109457142Y-126054819D02*
X109123809Y-125578628D01*
X108885714Y-126054819D02*
X108885714Y-125054819D01*
X108885714Y-125054819D02*
X109266666Y-125054819D01*
X109266666Y-125054819D02*
X109361904Y-125102438D01*
X109361904Y-125102438D02*
X109409523Y-125150057D01*
X109409523Y-125150057D02*
X109457142Y-125245295D01*
X109457142Y-125245295D02*
X109457142Y-125388152D01*
X109457142Y-125388152D02*
X109409523Y-125483390D01*
X109409523Y-125483390D02*
X109361904Y-125531009D01*
X109361904Y-125531009D02*
X109266666Y-125578628D01*
X109266666Y-125578628D02*
X108885714Y-125578628D01*
X110409523Y-126054819D02*
X109838095Y-126054819D01*
X110123809Y-126054819D02*
X110123809Y-125054819D01*
X110123809Y-125054819D02*
X110028571Y-125197676D01*
X110028571Y-125197676D02*
X109933333Y-125292914D01*
X109933333Y-125292914D02*
X109838095Y-125340533D01*
X110742857Y-125054819D02*
X111361904Y-125054819D01*
X111361904Y-125054819D02*
X111028571Y-125435771D01*
X111028571Y-125435771D02*
X111171428Y-125435771D01*
X111171428Y-125435771D02*
X111266666Y-125483390D01*
X111266666Y-125483390D02*
X111314285Y-125531009D01*
X111314285Y-125531009D02*
X111361904Y-125626247D01*
X111361904Y-125626247D02*
X111361904Y-125864342D01*
X111361904Y-125864342D02*
X111314285Y-125959580D01*
X111314285Y-125959580D02*
X111266666Y-126007200D01*
X111266666Y-126007200D02*
X111171428Y-126054819D01*
X111171428Y-126054819D02*
X110885714Y-126054819D01*
X110885714Y-126054819D02*
X110790476Y-126007200D01*
X110790476Y-126007200D02*
X110742857Y-125959580D01*
X223057142Y-126759580D02*
X223009523Y-126807200D01*
X223009523Y-126807200D02*
X222866666Y-126854819D01*
X222866666Y-126854819D02*
X222771428Y-126854819D01*
X222771428Y-126854819D02*
X222628571Y-126807200D01*
X222628571Y-126807200D02*
X222533333Y-126711961D01*
X222533333Y-126711961D02*
X222485714Y-126616723D01*
X222485714Y-126616723D02*
X222438095Y-126426247D01*
X222438095Y-126426247D02*
X222438095Y-126283390D01*
X222438095Y-126283390D02*
X222485714Y-126092914D01*
X222485714Y-126092914D02*
X222533333Y-125997676D01*
X222533333Y-125997676D02*
X222628571Y-125902438D01*
X222628571Y-125902438D02*
X222771428Y-125854819D01*
X222771428Y-125854819D02*
X222866666Y-125854819D01*
X222866666Y-125854819D02*
X223009523Y-125902438D01*
X223009523Y-125902438D02*
X223057142Y-125950057D01*
X224009523Y-126854819D02*
X223438095Y-126854819D01*
X223723809Y-126854819D02*
X223723809Y-125854819D01*
X223723809Y-125854819D02*
X223628571Y-125997676D01*
X223628571Y-125997676D02*
X223533333Y-126092914D01*
X223533333Y-126092914D02*
X223438095Y-126140533D01*
X224914285Y-125854819D02*
X224438095Y-125854819D01*
X224438095Y-125854819D02*
X224390476Y-126331009D01*
X224390476Y-126331009D02*
X224438095Y-126283390D01*
X224438095Y-126283390D02*
X224533333Y-126235771D01*
X224533333Y-126235771D02*
X224771428Y-126235771D01*
X224771428Y-126235771D02*
X224866666Y-126283390D01*
X224866666Y-126283390D02*
X224914285Y-126331009D01*
X224914285Y-126331009D02*
X224961904Y-126426247D01*
X224961904Y-126426247D02*
X224961904Y-126664342D01*
X224961904Y-126664342D02*
X224914285Y-126759580D01*
X224914285Y-126759580D02*
X224866666Y-126807200D01*
X224866666Y-126807200D02*
X224771428Y-126854819D01*
X224771428Y-126854819D02*
X224533333Y-126854819D01*
X224533333Y-126854819D02*
X224438095Y-126807200D01*
X224438095Y-126807200D02*
X224390476Y-126759580D01*
X191161905Y-117654819D02*
X191161905Y-116654819D01*
X191161905Y-116654819D02*
X191400000Y-116654819D01*
X191400000Y-116654819D02*
X191542857Y-116702438D01*
X191542857Y-116702438D02*
X191638095Y-116797676D01*
X191638095Y-116797676D02*
X191685714Y-116892914D01*
X191685714Y-116892914D02*
X191733333Y-117083390D01*
X191733333Y-117083390D02*
X191733333Y-117226247D01*
X191733333Y-117226247D02*
X191685714Y-117416723D01*
X191685714Y-117416723D02*
X191638095Y-117511961D01*
X191638095Y-117511961D02*
X191542857Y-117607200D01*
X191542857Y-117607200D02*
X191400000Y-117654819D01*
X191400000Y-117654819D02*
X191161905Y-117654819D01*
X192685714Y-117654819D02*
X192114286Y-117654819D01*
X192400000Y-117654819D02*
X192400000Y-116654819D01*
X192400000Y-116654819D02*
X192304762Y-116797676D01*
X192304762Y-116797676D02*
X192209524Y-116892914D01*
X192209524Y-116892914D02*
X192114286Y-116940533D01*
X180433333Y-137804819D02*
X180100000Y-137328628D01*
X179861905Y-137804819D02*
X179861905Y-136804819D01*
X179861905Y-136804819D02*
X180242857Y-136804819D01*
X180242857Y-136804819D02*
X180338095Y-136852438D01*
X180338095Y-136852438D02*
X180385714Y-136900057D01*
X180385714Y-136900057D02*
X180433333Y-136995295D01*
X180433333Y-136995295D02*
X180433333Y-137138152D01*
X180433333Y-137138152D02*
X180385714Y-137233390D01*
X180385714Y-137233390D02*
X180338095Y-137281009D01*
X180338095Y-137281009D02*
X180242857Y-137328628D01*
X180242857Y-137328628D02*
X179861905Y-137328628D01*
X181385714Y-137804819D02*
X180814286Y-137804819D01*
X181100000Y-137804819D02*
X181100000Y-136804819D01*
X181100000Y-136804819D02*
X181004762Y-136947676D01*
X181004762Y-136947676D02*
X180909524Y-137042914D01*
X180909524Y-137042914D02*
X180814286Y-137090533D01*
X195657142Y-122859580D02*
X195609523Y-122907200D01*
X195609523Y-122907200D02*
X195466666Y-122954819D01*
X195466666Y-122954819D02*
X195371428Y-122954819D01*
X195371428Y-122954819D02*
X195228571Y-122907200D01*
X195228571Y-122907200D02*
X195133333Y-122811961D01*
X195133333Y-122811961D02*
X195085714Y-122716723D01*
X195085714Y-122716723D02*
X195038095Y-122526247D01*
X195038095Y-122526247D02*
X195038095Y-122383390D01*
X195038095Y-122383390D02*
X195085714Y-122192914D01*
X195085714Y-122192914D02*
X195133333Y-122097676D01*
X195133333Y-122097676D02*
X195228571Y-122002438D01*
X195228571Y-122002438D02*
X195371428Y-121954819D01*
X195371428Y-121954819D02*
X195466666Y-121954819D01*
X195466666Y-121954819D02*
X195609523Y-122002438D01*
X195609523Y-122002438D02*
X195657142Y-122050057D01*
X196038095Y-122050057D02*
X196085714Y-122002438D01*
X196085714Y-122002438D02*
X196180952Y-121954819D01*
X196180952Y-121954819D02*
X196419047Y-121954819D01*
X196419047Y-121954819D02*
X196514285Y-122002438D01*
X196514285Y-122002438D02*
X196561904Y-122050057D01*
X196561904Y-122050057D02*
X196609523Y-122145295D01*
X196609523Y-122145295D02*
X196609523Y-122240533D01*
X196609523Y-122240533D02*
X196561904Y-122383390D01*
X196561904Y-122383390D02*
X195990476Y-122954819D01*
X195990476Y-122954819D02*
X196609523Y-122954819D01*
X197514285Y-121954819D02*
X197038095Y-121954819D01*
X197038095Y-121954819D02*
X196990476Y-122431009D01*
X196990476Y-122431009D02*
X197038095Y-122383390D01*
X197038095Y-122383390D02*
X197133333Y-122335771D01*
X197133333Y-122335771D02*
X197371428Y-122335771D01*
X197371428Y-122335771D02*
X197466666Y-122383390D01*
X197466666Y-122383390D02*
X197514285Y-122431009D01*
X197514285Y-122431009D02*
X197561904Y-122526247D01*
X197561904Y-122526247D02*
X197561904Y-122764342D01*
X197561904Y-122764342D02*
X197514285Y-122859580D01*
X197514285Y-122859580D02*
X197466666Y-122907200D01*
X197466666Y-122907200D02*
X197371428Y-122954819D01*
X197371428Y-122954819D02*
X197133333Y-122954819D01*
X197133333Y-122954819D02*
X197038095Y-122907200D01*
X197038095Y-122907200D02*
X196990476Y-122859580D01*
X133659580Y-142442857D02*
X133707200Y-142490476D01*
X133707200Y-142490476D02*
X133754819Y-142633333D01*
X133754819Y-142633333D02*
X133754819Y-142728571D01*
X133754819Y-142728571D02*
X133707200Y-142871428D01*
X133707200Y-142871428D02*
X133611961Y-142966666D01*
X133611961Y-142966666D02*
X133516723Y-143014285D01*
X133516723Y-143014285D02*
X133326247Y-143061904D01*
X133326247Y-143061904D02*
X133183390Y-143061904D01*
X133183390Y-143061904D02*
X132992914Y-143014285D01*
X132992914Y-143014285D02*
X132897676Y-142966666D01*
X132897676Y-142966666D02*
X132802438Y-142871428D01*
X132802438Y-142871428D02*
X132754819Y-142728571D01*
X132754819Y-142728571D02*
X132754819Y-142633333D01*
X132754819Y-142633333D02*
X132802438Y-142490476D01*
X132802438Y-142490476D02*
X132850057Y-142442857D01*
X132850057Y-142061904D02*
X132802438Y-142014285D01*
X132802438Y-142014285D02*
X132754819Y-141919047D01*
X132754819Y-141919047D02*
X132754819Y-141680952D01*
X132754819Y-141680952D02*
X132802438Y-141585714D01*
X132802438Y-141585714D02*
X132850057Y-141538095D01*
X132850057Y-141538095D02*
X132945295Y-141490476D01*
X132945295Y-141490476D02*
X133040533Y-141490476D01*
X133040533Y-141490476D02*
X133183390Y-141538095D01*
X133183390Y-141538095D02*
X133754819Y-142109523D01*
X133754819Y-142109523D02*
X133754819Y-141490476D01*
X132754819Y-141157142D02*
X132754819Y-140538095D01*
X132754819Y-140538095D02*
X133135771Y-140871428D01*
X133135771Y-140871428D02*
X133135771Y-140728571D01*
X133135771Y-140728571D02*
X133183390Y-140633333D01*
X133183390Y-140633333D02*
X133231009Y-140585714D01*
X133231009Y-140585714D02*
X133326247Y-140538095D01*
X133326247Y-140538095D02*
X133564342Y-140538095D01*
X133564342Y-140538095D02*
X133659580Y-140585714D01*
X133659580Y-140585714D02*
X133707200Y-140633333D01*
X133707200Y-140633333D02*
X133754819Y-140728571D01*
X133754819Y-140728571D02*
X133754819Y-141014285D01*
X133754819Y-141014285D02*
X133707200Y-141109523D01*
X133707200Y-141109523D02*
X133659580Y-141157142D01*
X70466666Y-144654819D02*
X70466666Y-145369104D01*
X70466666Y-145369104D02*
X70419047Y-145511961D01*
X70419047Y-145511961D02*
X70323809Y-145607200D01*
X70323809Y-145607200D02*
X70180952Y-145654819D01*
X70180952Y-145654819D02*
X70085714Y-145654819D01*
X70847619Y-144654819D02*
X71514285Y-144654819D01*
X71514285Y-144654819D02*
X71085714Y-145654819D01*
X234633333Y-126754819D02*
X234300000Y-126278628D01*
X234061905Y-126754819D02*
X234061905Y-125754819D01*
X234061905Y-125754819D02*
X234442857Y-125754819D01*
X234442857Y-125754819D02*
X234538095Y-125802438D01*
X234538095Y-125802438D02*
X234585714Y-125850057D01*
X234585714Y-125850057D02*
X234633333Y-125945295D01*
X234633333Y-125945295D02*
X234633333Y-126088152D01*
X234633333Y-126088152D02*
X234585714Y-126183390D01*
X234585714Y-126183390D02*
X234538095Y-126231009D01*
X234538095Y-126231009D02*
X234442857Y-126278628D01*
X234442857Y-126278628D02*
X234061905Y-126278628D01*
X235109524Y-126754819D02*
X235300000Y-126754819D01*
X235300000Y-126754819D02*
X235395238Y-126707200D01*
X235395238Y-126707200D02*
X235442857Y-126659580D01*
X235442857Y-126659580D02*
X235538095Y-126516723D01*
X235538095Y-126516723D02*
X235585714Y-126326247D01*
X235585714Y-126326247D02*
X235585714Y-125945295D01*
X235585714Y-125945295D02*
X235538095Y-125850057D01*
X235538095Y-125850057D02*
X235490476Y-125802438D01*
X235490476Y-125802438D02*
X235395238Y-125754819D01*
X235395238Y-125754819D02*
X235204762Y-125754819D01*
X235204762Y-125754819D02*
X235109524Y-125802438D01*
X235109524Y-125802438D02*
X235061905Y-125850057D01*
X235061905Y-125850057D02*
X235014286Y-125945295D01*
X235014286Y-125945295D02*
X235014286Y-126183390D01*
X235014286Y-126183390D02*
X235061905Y-126278628D01*
X235061905Y-126278628D02*
X235109524Y-126326247D01*
X235109524Y-126326247D02*
X235204762Y-126373866D01*
X235204762Y-126373866D02*
X235395238Y-126373866D01*
X235395238Y-126373866D02*
X235490476Y-126326247D01*
X235490476Y-126326247D02*
X235538095Y-126278628D01*
X235538095Y-126278628D02*
X235585714Y-126183390D01*
X232866667Y-131157199D02*
X233009524Y-131204818D01*
X233009524Y-131204818D02*
X233247619Y-131204818D01*
X233247619Y-131204818D02*
X233342857Y-131157199D01*
X233342857Y-131157199D02*
X233390476Y-131109579D01*
X233390476Y-131109579D02*
X233438095Y-131014341D01*
X233438095Y-131014341D02*
X233438095Y-130919103D01*
X233438095Y-130919103D02*
X233390476Y-130823865D01*
X233390476Y-130823865D02*
X233342857Y-130776246D01*
X233342857Y-130776246D02*
X233247619Y-130728627D01*
X233247619Y-130728627D02*
X233057143Y-130681008D01*
X233057143Y-130681008D02*
X232961905Y-130633389D01*
X232961905Y-130633389D02*
X232914286Y-130585770D01*
X232914286Y-130585770D02*
X232866667Y-130490532D01*
X232866667Y-130490532D02*
X232866667Y-130395294D01*
X232866667Y-130395294D02*
X232914286Y-130300056D01*
X232914286Y-130300056D02*
X232961905Y-130252437D01*
X232961905Y-130252437D02*
X233057143Y-130204818D01*
X233057143Y-130204818D02*
X233295238Y-130204818D01*
X233295238Y-130204818D02*
X233438095Y-130252437D01*
X233771429Y-130204818D02*
X234009524Y-131204818D01*
X234009524Y-131204818D02*
X234200000Y-130490532D01*
X234200000Y-130490532D02*
X234390476Y-131204818D01*
X234390476Y-131204818D02*
X234628572Y-130204818D01*
X234914286Y-130204818D02*
X235533333Y-130204818D01*
X235533333Y-130204818D02*
X235200000Y-130585770D01*
X235200000Y-130585770D02*
X235342857Y-130585770D01*
X235342857Y-130585770D02*
X235438095Y-130633389D01*
X235438095Y-130633389D02*
X235485714Y-130681008D01*
X235485714Y-130681008D02*
X235533333Y-130776246D01*
X235533333Y-130776246D02*
X235533333Y-131014341D01*
X235533333Y-131014341D02*
X235485714Y-131109579D01*
X235485714Y-131109579D02*
X235438095Y-131157199D01*
X235438095Y-131157199D02*
X235342857Y-131204818D01*
X235342857Y-131204818D02*
X235057143Y-131204818D01*
X235057143Y-131204818D02*
X234961905Y-131157199D01*
X234961905Y-131157199D02*
X234914286Y-131109579D01*
X225000000Y-127454819D02*
X225000000Y-127692914D01*
X224761905Y-127597676D02*
X225000000Y-127692914D01*
X225000000Y-127692914D02*
X225238095Y-127597676D01*
X224857143Y-127883390D02*
X225000000Y-127692914D01*
X225000000Y-127692914D02*
X225142857Y-127883390D01*
X225000000Y-127454819D02*
X225000000Y-127692914D01*
X224761905Y-127597676D02*
X225000000Y-127692914D01*
X225000000Y-127692914D02*
X225238095Y-127597676D01*
X224857143Y-127883390D02*
X225000000Y-127692914D01*
X225000000Y-127692914D02*
X225142857Y-127883390D01*
X207137892Y-119980592D02*
X207137892Y-120630340D01*
X207137892Y-120630340D02*
X207176112Y-120706781D01*
X207176112Y-120706781D02*
X207214333Y-120745002D01*
X207214333Y-120745002D02*
X207290774Y-120783222D01*
X207290774Y-120783222D02*
X207443656Y-120783222D01*
X207443656Y-120783222D02*
X207520097Y-120745002D01*
X207520097Y-120745002D02*
X207558317Y-120706781D01*
X207558317Y-120706781D02*
X207596538Y-120630340D01*
X207596538Y-120630340D02*
X207596538Y-119980592D01*
X207902301Y-119980592D02*
X208399167Y-119980592D01*
X208399167Y-119980592D02*
X208131624Y-120286356D01*
X208131624Y-120286356D02*
X208246285Y-120286356D01*
X208246285Y-120286356D02*
X208322726Y-120324576D01*
X208322726Y-120324576D02*
X208360947Y-120362797D01*
X208360947Y-120362797D02*
X208399167Y-120439238D01*
X208399167Y-120439238D02*
X208399167Y-120630340D01*
X208399167Y-120630340D02*
X208360947Y-120706781D01*
X208360947Y-120706781D02*
X208322726Y-120745002D01*
X208322726Y-120745002D02*
X208246285Y-120783222D01*
X208246285Y-120783222D02*
X208016962Y-120783222D01*
X208016962Y-120783222D02*
X207940521Y-120745002D01*
X207940521Y-120745002D02*
X207902301Y-120706781D01*
X195833333Y-120459580D02*
X195785714Y-120507200D01*
X195785714Y-120507200D02*
X195642857Y-120554819D01*
X195642857Y-120554819D02*
X195547619Y-120554819D01*
X195547619Y-120554819D02*
X195404762Y-120507200D01*
X195404762Y-120507200D02*
X195309524Y-120411961D01*
X195309524Y-120411961D02*
X195261905Y-120316723D01*
X195261905Y-120316723D02*
X195214286Y-120126247D01*
X195214286Y-120126247D02*
X195214286Y-119983390D01*
X195214286Y-119983390D02*
X195261905Y-119792914D01*
X195261905Y-119792914D02*
X195309524Y-119697676D01*
X195309524Y-119697676D02*
X195404762Y-119602438D01*
X195404762Y-119602438D02*
X195547619Y-119554819D01*
X195547619Y-119554819D02*
X195642857Y-119554819D01*
X195642857Y-119554819D02*
X195785714Y-119602438D01*
X195785714Y-119602438D02*
X195833333Y-119650057D01*
X196690476Y-119888152D02*
X196690476Y-120554819D01*
X196452381Y-119507200D02*
X196214286Y-120221485D01*
X196214286Y-120221485D02*
X196833333Y-120221485D01*
X131359580Y-142242857D02*
X131407200Y-142290476D01*
X131407200Y-142290476D02*
X131454819Y-142433333D01*
X131454819Y-142433333D02*
X131454819Y-142528571D01*
X131454819Y-142528571D02*
X131407200Y-142671428D01*
X131407200Y-142671428D02*
X131311961Y-142766666D01*
X131311961Y-142766666D02*
X131216723Y-142814285D01*
X131216723Y-142814285D02*
X131026247Y-142861904D01*
X131026247Y-142861904D02*
X130883390Y-142861904D01*
X130883390Y-142861904D02*
X130692914Y-142814285D01*
X130692914Y-142814285D02*
X130597676Y-142766666D01*
X130597676Y-142766666D02*
X130502438Y-142671428D01*
X130502438Y-142671428D02*
X130454819Y-142528571D01*
X130454819Y-142528571D02*
X130454819Y-142433333D01*
X130454819Y-142433333D02*
X130502438Y-142290476D01*
X130502438Y-142290476D02*
X130550057Y-142242857D01*
X130550057Y-141861904D02*
X130502438Y-141814285D01*
X130502438Y-141814285D02*
X130454819Y-141719047D01*
X130454819Y-141719047D02*
X130454819Y-141480952D01*
X130454819Y-141480952D02*
X130502438Y-141385714D01*
X130502438Y-141385714D02*
X130550057Y-141338095D01*
X130550057Y-141338095D02*
X130645295Y-141290476D01*
X130645295Y-141290476D02*
X130740533Y-141290476D01*
X130740533Y-141290476D02*
X130883390Y-141338095D01*
X130883390Y-141338095D02*
X131454819Y-141909523D01*
X131454819Y-141909523D02*
X131454819Y-141290476D01*
X130550057Y-140909523D02*
X130502438Y-140861904D01*
X130502438Y-140861904D02*
X130454819Y-140766666D01*
X130454819Y-140766666D02*
X130454819Y-140528571D01*
X130454819Y-140528571D02*
X130502438Y-140433333D01*
X130502438Y-140433333D02*
X130550057Y-140385714D01*
X130550057Y-140385714D02*
X130645295Y-140338095D01*
X130645295Y-140338095D02*
X130740533Y-140338095D01*
X130740533Y-140338095D02*
X130883390Y-140385714D01*
X130883390Y-140385714D02*
X131454819Y-140957142D01*
X131454819Y-140957142D02*
X131454819Y-140338095D01*
X103057142Y-140754819D02*
X102723809Y-140278628D01*
X102485714Y-140754819D02*
X102485714Y-139754819D01*
X102485714Y-139754819D02*
X102866666Y-139754819D01*
X102866666Y-139754819D02*
X102961904Y-139802438D01*
X102961904Y-139802438D02*
X103009523Y-139850057D01*
X103009523Y-139850057D02*
X103057142Y-139945295D01*
X103057142Y-139945295D02*
X103057142Y-140088152D01*
X103057142Y-140088152D02*
X103009523Y-140183390D01*
X103009523Y-140183390D02*
X102961904Y-140231009D01*
X102961904Y-140231009D02*
X102866666Y-140278628D01*
X102866666Y-140278628D02*
X102485714Y-140278628D01*
X104009523Y-140754819D02*
X103438095Y-140754819D01*
X103723809Y-140754819D02*
X103723809Y-139754819D01*
X103723809Y-139754819D02*
X103628571Y-139897676D01*
X103628571Y-139897676D02*
X103533333Y-139992914D01*
X103533333Y-139992914D02*
X103438095Y-140040533D01*
X104961904Y-140754819D02*
X104390476Y-140754819D01*
X104676190Y-140754819D02*
X104676190Y-139754819D01*
X104676190Y-139754819D02*
X104580952Y-139897676D01*
X104580952Y-139897676D02*
X104485714Y-139992914D01*
X104485714Y-139992914D02*
X104390476Y-140040533D01*
X134533333Y-145659580D02*
X134485714Y-145707200D01*
X134485714Y-145707200D02*
X134342857Y-145754819D01*
X134342857Y-145754819D02*
X134247619Y-145754819D01*
X134247619Y-145754819D02*
X134104762Y-145707200D01*
X134104762Y-145707200D02*
X134009524Y-145611961D01*
X134009524Y-145611961D02*
X133961905Y-145516723D01*
X133961905Y-145516723D02*
X133914286Y-145326247D01*
X133914286Y-145326247D02*
X133914286Y-145183390D01*
X133914286Y-145183390D02*
X133961905Y-144992914D01*
X133961905Y-144992914D02*
X134009524Y-144897676D01*
X134009524Y-144897676D02*
X134104762Y-144802438D01*
X134104762Y-144802438D02*
X134247619Y-144754819D01*
X134247619Y-144754819D02*
X134342857Y-144754819D01*
X134342857Y-144754819D02*
X134485714Y-144802438D01*
X134485714Y-144802438D02*
X134533333Y-144850057D01*
X135104762Y-145183390D02*
X135009524Y-145135771D01*
X135009524Y-145135771D02*
X134961905Y-145088152D01*
X134961905Y-145088152D02*
X134914286Y-144992914D01*
X134914286Y-144992914D02*
X134914286Y-144945295D01*
X134914286Y-144945295D02*
X134961905Y-144850057D01*
X134961905Y-144850057D02*
X135009524Y-144802438D01*
X135009524Y-144802438D02*
X135104762Y-144754819D01*
X135104762Y-144754819D02*
X135295238Y-144754819D01*
X135295238Y-144754819D02*
X135390476Y-144802438D01*
X135390476Y-144802438D02*
X135438095Y-144850057D01*
X135438095Y-144850057D02*
X135485714Y-144945295D01*
X135485714Y-144945295D02*
X135485714Y-144992914D01*
X135485714Y-144992914D02*
X135438095Y-145088152D01*
X135438095Y-145088152D02*
X135390476Y-145135771D01*
X135390476Y-145135771D02*
X135295238Y-145183390D01*
X135295238Y-145183390D02*
X135104762Y-145183390D01*
X135104762Y-145183390D02*
X135009524Y-145231009D01*
X135009524Y-145231009D02*
X134961905Y-145278628D01*
X134961905Y-145278628D02*
X134914286Y-145373866D01*
X134914286Y-145373866D02*
X134914286Y-145564342D01*
X134914286Y-145564342D02*
X134961905Y-145659580D01*
X134961905Y-145659580D02*
X135009524Y-145707200D01*
X135009524Y-145707200D02*
X135104762Y-145754819D01*
X135104762Y-145754819D02*
X135295238Y-145754819D01*
X135295238Y-145754819D02*
X135390476Y-145707200D01*
X135390476Y-145707200D02*
X135438095Y-145659580D01*
X135438095Y-145659580D02*
X135485714Y-145564342D01*
X135485714Y-145564342D02*
X135485714Y-145373866D01*
X135485714Y-145373866D02*
X135438095Y-145278628D01*
X135438095Y-145278628D02*
X135390476Y-145231009D01*
X135390476Y-145231009D02*
X135295238Y-145183390D01*
X207233333Y-139769580D02*
X207185714Y-139817200D01*
X207185714Y-139817200D02*
X207042857Y-139864819D01*
X207042857Y-139864819D02*
X206947619Y-139864819D01*
X206947619Y-139864819D02*
X206804762Y-139817200D01*
X206804762Y-139817200D02*
X206709524Y-139721961D01*
X206709524Y-139721961D02*
X206661905Y-139626723D01*
X206661905Y-139626723D02*
X206614286Y-139436247D01*
X206614286Y-139436247D02*
X206614286Y-139293390D01*
X206614286Y-139293390D02*
X206661905Y-139102914D01*
X206661905Y-139102914D02*
X206709524Y-139007676D01*
X206709524Y-139007676D02*
X206804762Y-138912438D01*
X206804762Y-138912438D02*
X206947619Y-138864819D01*
X206947619Y-138864819D02*
X207042857Y-138864819D01*
X207042857Y-138864819D02*
X207185714Y-138912438D01*
X207185714Y-138912438D02*
X207233333Y-138960057D01*
X207614286Y-138960057D02*
X207661905Y-138912438D01*
X207661905Y-138912438D02*
X207757143Y-138864819D01*
X207757143Y-138864819D02*
X207995238Y-138864819D01*
X207995238Y-138864819D02*
X208090476Y-138912438D01*
X208090476Y-138912438D02*
X208138095Y-138960057D01*
X208138095Y-138960057D02*
X208185714Y-139055295D01*
X208185714Y-139055295D02*
X208185714Y-139150533D01*
X208185714Y-139150533D02*
X208138095Y-139293390D01*
X208138095Y-139293390D02*
X207566667Y-139864819D01*
X207566667Y-139864819D02*
X208185714Y-139864819D01*
X207233333Y-141959580D02*
X207185714Y-142007200D01*
X207185714Y-142007200D02*
X207042857Y-142054819D01*
X207042857Y-142054819D02*
X206947619Y-142054819D01*
X206947619Y-142054819D02*
X206804762Y-142007200D01*
X206804762Y-142007200D02*
X206709524Y-141911961D01*
X206709524Y-141911961D02*
X206661905Y-141816723D01*
X206661905Y-141816723D02*
X206614286Y-141626247D01*
X206614286Y-141626247D02*
X206614286Y-141483390D01*
X206614286Y-141483390D02*
X206661905Y-141292914D01*
X206661905Y-141292914D02*
X206709524Y-141197676D01*
X206709524Y-141197676D02*
X206804762Y-141102438D01*
X206804762Y-141102438D02*
X206947619Y-141054819D01*
X206947619Y-141054819D02*
X207042857Y-141054819D01*
X207042857Y-141054819D02*
X207185714Y-141102438D01*
X207185714Y-141102438D02*
X207233333Y-141150057D01*
X207566667Y-141054819D02*
X208185714Y-141054819D01*
X208185714Y-141054819D02*
X207852381Y-141435771D01*
X207852381Y-141435771D02*
X207995238Y-141435771D01*
X207995238Y-141435771D02*
X208090476Y-141483390D01*
X208090476Y-141483390D02*
X208138095Y-141531009D01*
X208138095Y-141531009D02*
X208185714Y-141626247D01*
X208185714Y-141626247D02*
X208185714Y-141864342D01*
X208185714Y-141864342D02*
X208138095Y-141959580D01*
X208138095Y-141959580D02*
X208090476Y-142007200D01*
X208090476Y-142007200D02*
X207995238Y-142054819D01*
X207995238Y-142054819D02*
X207709524Y-142054819D01*
X207709524Y-142054819D02*
X207614286Y-142007200D01*
X207614286Y-142007200D02*
X207566667Y-141959580D01*
X165804761Y-137050057D02*
X165709523Y-137002438D01*
X165709523Y-137002438D02*
X165614285Y-136907200D01*
X165614285Y-136907200D02*
X165471428Y-136764342D01*
X165471428Y-136764342D02*
X165376190Y-136716723D01*
X165376190Y-136716723D02*
X165280952Y-136716723D01*
X165328571Y-136954819D02*
X165233333Y-136907200D01*
X165233333Y-136907200D02*
X165138095Y-136811961D01*
X165138095Y-136811961D02*
X165090476Y-136621485D01*
X165090476Y-136621485D02*
X165090476Y-136288152D01*
X165090476Y-136288152D02*
X165138095Y-136097676D01*
X165138095Y-136097676D02*
X165233333Y-136002438D01*
X165233333Y-136002438D02*
X165328571Y-135954819D01*
X165328571Y-135954819D02*
X165519047Y-135954819D01*
X165519047Y-135954819D02*
X165614285Y-136002438D01*
X165614285Y-136002438D02*
X165709523Y-136097676D01*
X165709523Y-136097676D02*
X165757142Y-136288152D01*
X165757142Y-136288152D02*
X165757142Y-136621485D01*
X165757142Y-136621485D02*
X165709523Y-136811961D01*
X165709523Y-136811961D02*
X165614285Y-136907200D01*
X165614285Y-136907200D02*
X165519047Y-136954819D01*
X165519047Y-136954819D02*
X165328571Y-136954819D01*
X166709523Y-136954819D02*
X166138095Y-136954819D01*
X166423809Y-136954819D02*
X166423809Y-135954819D01*
X166423809Y-135954819D02*
X166328571Y-136097676D01*
X166328571Y-136097676D02*
X166233333Y-136192914D01*
X166233333Y-136192914D02*
X166138095Y-136240533D01*
X157157142Y-142759580D02*
X157109523Y-142807200D01*
X157109523Y-142807200D02*
X156966666Y-142854819D01*
X156966666Y-142854819D02*
X156871428Y-142854819D01*
X156871428Y-142854819D02*
X156728571Y-142807200D01*
X156728571Y-142807200D02*
X156633333Y-142711961D01*
X156633333Y-142711961D02*
X156585714Y-142616723D01*
X156585714Y-142616723D02*
X156538095Y-142426247D01*
X156538095Y-142426247D02*
X156538095Y-142283390D01*
X156538095Y-142283390D02*
X156585714Y-142092914D01*
X156585714Y-142092914D02*
X156633333Y-141997676D01*
X156633333Y-141997676D02*
X156728571Y-141902438D01*
X156728571Y-141902438D02*
X156871428Y-141854819D01*
X156871428Y-141854819D02*
X156966666Y-141854819D01*
X156966666Y-141854819D02*
X157109523Y-141902438D01*
X157109523Y-141902438D02*
X157157142Y-141950057D01*
X157538095Y-141950057D02*
X157585714Y-141902438D01*
X157585714Y-141902438D02*
X157680952Y-141854819D01*
X157680952Y-141854819D02*
X157919047Y-141854819D01*
X157919047Y-141854819D02*
X158014285Y-141902438D01*
X158014285Y-141902438D02*
X158061904Y-141950057D01*
X158061904Y-141950057D02*
X158109523Y-142045295D01*
X158109523Y-142045295D02*
X158109523Y-142140533D01*
X158109523Y-142140533D02*
X158061904Y-142283390D01*
X158061904Y-142283390D02*
X157490476Y-142854819D01*
X157490476Y-142854819D02*
X158109523Y-142854819D01*
X158728571Y-141854819D02*
X158823809Y-141854819D01*
X158823809Y-141854819D02*
X158919047Y-141902438D01*
X158919047Y-141902438D02*
X158966666Y-141950057D01*
X158966666Y-141950057D02*
X159014285Y-142045295D01*
X159014285Y-142045295D02*
X159061904Y-142235771D01*
X159061904Y-142235771D02*
X159061904Y-142473866D01*
X159061904Y-142473866D02*
X159014285Y-142664342D01*
X159014285Y-142664342D02*
X158966666Y-142759580D01*
X158966666Y-142759580D02*
X158919047Y-142807200D01*
X158919047Y-142807200D02*
X158823809Y-142854819D01*
X158823809Y-142854819D02*
X158728571Y-142854819D01*
X158728571Y-142854819D02*
X158633333Y-142807200D01*
X158633333Y-142807200D02*
X158585714Y-142759580D01*
X158585714Y-142759580D02*
X158538095Y-142664342D01*
X158538095Y-142664342D02*
X158490476Y-142473866D01*
X158490476Y-142473866D02*
X158490476Y-142235771D01*
X158490476Y-142235771D02*
X158538095Y-142045295D01*
X158538095Y-142045295D02*
X158585714Y-141950057D01*
X158585714Y-141950057D02*
X158633333Y-141902438D01*
X158633333Y-141902438D02*
X158728571Y-141854819D01*
X139559580Y-141142857D02*
X139607200Y-141190476D01*
X139607200Y-141190476D02*
X139654819Y-141333333D01*
X139654819Y-141333333D02*
X139654819Y-141428571D01*
X139654819Y-141428571D02*
X139607200Y-141571428D01*
X139607200Y-141571428D02*
X139511961Y-141666666D01*
X139511961Y-141666666D02*
X139416723Y-141714285D01*
X139416723Y-141714285D02*
X139226247Y-141761904D01*
X139226247Y-141761904D02*
X139083390Y-141761904D01*
X139083390Y-141761904D02*
X138892914Y-141714285D01*
X138892914Y-141714285D02*
X138797676Y-141666666D01*
X138797676Y-141666666D02*
X138702438Y-141571428D01*
X138702438Y-141571428D02*
X138654819Y-141428571D01*
X138654819Y-141428571D02*
X138654819Y-141333333D01*
X138654819Y-141333333D02*
X138702438Y-141190476D01*
X138702438Y-141190476D02*
X138750057Y-141142857D01*
X139654819Y-140190476D02*
X139654819Y-140761904D01*
X139654819Y-140476190D02*
X138654819Y-140476190D01*
X138654819Y-140476190D02*
X138797676Y-140571428D01*
X138797676Y-140571428D02*
X138892914Y-140666666D01*
X138892914Y-140666666D02*
X138940533Y-140761904D01*
X138750057Y-139809523D02*
X138702438Y-139761904D01*
X138702438Y-139761904D02*
X138654819Y-139666666D01*
X138654819Y-139666666D02*
X138654819Y-139428571D01*
X138654819Y-139428571D02*
X138702438Y-139333333D01*
X138702438Y-139333333D02*
X138750057Y-139285714D01*
X138750057Y-139285714D02*
X138845295Y-139238095D01*
X138845295Y-139238095D02*
X138940533Y-139238095D01*
X138940533Y-139238095D02*
X139083390Y-139285714D01*
X139083390Y-139285714D02*
X139654819Y-139857142D01*
X139654819Y-139857142D02*
X139654819Y-139238095D01*
X160133333Y-136259580D02*
X160085714Y-136307200D01*
X160085714Y-136307200D02*
X159942857Y-136354819D01*
X159942857Y-136354819D02*
X159847619Y-136354819D01*
X159847619Y-136354819D02*
X159704762Y-136307200D01*
X159704762Y-136307200D02*
X159609524Y-136211961D01*
X159609524Y-136211961D02*
X159561905Y-136116723D01*
X159561905Y-136116723D02*
X159514286Y-135926247D01*
X159514286Y-135926247D02*
X159514286Y-135783390D01*
X159514286Y-135783390D02*
X159561905Y-135592914D01*
X159561905Y-135592914D02*
X159609524Y-135497676D01*
X159609524Y-135497676D02*
X159704762Y-135402438D01*
X159704762Y-135402438D02*
X159847619Y-135354819D01*
X159847619Y-135354819D02*
X159942857Y-135354819D01*
X159942857Y-135354819D02*
X160085714Y-135402438D01*
X160085714Y-135402438D02*
X160133333Y-135450057D01*
X160609524Y-136354819D02*
X160800000Y-136354819D01*
X160800000Y-136354819D02*
X160895238Y-136307200D01*
X160895238Y-136307200D02*
X160942857Y-136259580D01*
X160942857Y-136259580D02*
X161038095Y-136116723D01*
X161038095Y-136116723D02*
X161085714Y-135926247D01*
X161085714Y-135926247D02*
X161085714Y-135545295D01*
X161085714Y-135545295D02*
X161038095Y-135450057D01*
X161038095Y-135450057D02*
X160990476Y-135402438D01*
X160990476Y-135402438D02*
X160895238Y-135354819D01*
X160895238Y-135354819D02*
X160704762Y-135354819D01*
X160704762Y-135354819D02*
X160609524Y-135402438D01*
X160609524Y-135402438D02*
X160561905Y-135450057D01*
X160561905Y-135450057D02*
X160514286Y-135545295D01*
X160514286Y-135545295D02*
X160514286Y-135783390D01*
X160514286Y-135783390D02*
X160561905Y-135878628D01*
X160561905Y-135878628D02*
X160609524Y-135926247D01*
X160609524Y-135926247D02*
X160704762Y-135973866D01*
X160704762Y-135973866D02*
X160895238Y-135973866D01*
X160895238Y-135973866D02*
X160990476Y-135926247D01*
X160990476Y-135926247D02*
X161038095Y-135878628D01*
X161038095Y-135878628D02*
X161085714Y-135783390D01*
X190654819Y-144842857D02*
X190178628Y-145176190D01*
X190654819Y-145414285D02*
X189654819Y-145414285D01*
X189654819Y-145414285D02*
X189654819Y-145033333D01*
X189654819Y-145033333D02*
X189702438Y-144938095D01*
X189702438Y-144938095D02*
X189750057Y-144890476D01*
X189750057Y-144890476D02*
X189845295Y-144842857D01*
X189845295Y-144842857D02*
X189988152Y-144842857D01*
X189988152Y-144842857D02*
X190083390Y-144890476D01*
X190083390Y-144890476D02*
X190131009Y-144938095D01*
X190131009Y-144938095D02*
X190178628Y-145033333D01*
X190178628Y-145033333D02*
X190178628Y-145414285D01*
X190654819Y-143890476D02*
X190654819Y-144461904D01*
X190654819Y-144176190D02*
X189654819Y-144176190D01*
X189654819Y-144176190D02*
X189797676Y-144271428D01*
X189797676Y-144271428D02*
X189892914Y-144366666D01*
X189892914Y-144366666D02*
X189940533Y-144461904D01*
X189654819Y-142985714D02*
X189654819Y-143461904D01*
X189654819Y-143461904D02*
X190131009Y-143509523D01*
X190131009Y-143509523D02*
X190083390Y-143461904D01*
X190083390Y-143461904D02*
X190035771Y-143366666D01*
X190035771Y-143366666D02*
X190035771Y-143128571D01*
X190035771Y-143128571D02*
X190083390Y-143033333D01*
X190083390Y-143033333D02*
X190131009Y-142985714D01*
X190131009Y-142985714D02*
X190226247Y-142938095D01*
X190226247Y-142938095D02*
X190464342Y-142938095D01*
X190464342Y-142938095D02*
X190559580Y-142985714D01*
X190559580Y-142985714D02*
X190607200Y-143033333D01*
X190607200Y-143033333D02*
X190654819Y-143128571D01*
X190654819Y-143128571D02*
X190654819Y-143366666D01*
X190654819Y-143366666D02*
X190607200Y-143461904D01*
X190607200Y-143461904D02*
X190559580Y-143509523D01*
X147854819Y-139624166D02*
X147854819Y-140100356D01*
X147854819Y-140100356D02*
X146854819Y-140100356D01*
X147854819Y-138767023D02*
X147854819Y-139338451D01*
X147854819Y-139052737D02*
X146854819Y-139052737D01*
X146854819Y-139052737D02*
X146997676Y-139147975D01*
X146997676Y-139147975D02*
X147092914Y-139243213D01*
X147092914Y-139243213D02*
X147140533Y-139338451D01*
X146854819Y-144626399D02*
X147092914Y-144626399D01*
X146997676Y-144864494D02*
X147092914Y-144626399D01*
X147092914Y-144626399D02*
X146997676Y-144388304D01*
X147283390Y-144769256D02*
X147092914Y-144626399D01*
X147092914Y-144626399D02*
X147283390Y-144483542D01*
X146854819Y-144626399D02*
X147092914Y-144626399D01*
X146997676Y-144864494D02*
X147092914Y-144626399D01*
X147092914Y-144626399D02*
X146997676Y-144388304D01*
X147283390Y-144769256D02*
X147092914Y-144626399D01*
X147092914Y-144626399D02*
X147283390Y-144483542D01*
X157457142Y-138259580D02*
X157409523Y-138307200D01*
X157409523Y-138307200D02*
X157266666Y-138354819D01*
X157266666Y-138354819D02*
X157171428Y-138354819D01*
X157171428Y-138354819D02*
X157028571Y-138307200D01*
X157028571Y-138307200D02*
X156933333Y-138211961D01*
X156933333Y-138211961D02*
X156885714Y-138116723D01*
X156885714Y-138116723D02*
X156838095Y-137926247D01*
X156838095Y-137926247D02*
X156838095Y-137783390D01*
X156838095Y-137783390D02*
X156885714Y-137592914D01*
X156885714Y-137592914D02*
X156933333Y-137497676D01*
X156933333Y-137497676D02*
X157028571Y-137402438D01*
X157028571Y-137402438D02*
X157171428Y-137354819D01*
X157171428Y-137354819D02*
X157266666Y-137354819D01*
X157266666Y-137354819D02*
X157409523Y-137402438D01*
X157409523Y-137402438D02*
X157457142Y-137450057D01*
X157838095Y-137450057D02*
X157885714Y-137402438D01*
X157885714Y-137402438D02*
X157980952Y-137354819D01*
X157980952Y-137354819D02*
X158219047Y-137354819D01*
X158219047Y-137354819D02*
X158314285Y-137402438D01*
X158314285Y-137402438D02*
X158361904Y-137450057D01*
X158361904Y-137450057D02*
X158409523Y-137545295D01*
X158409523Y-137545295D02*
X158409523Y-137640533D01*
X158409523Y-137640533D02*
X158361904Y-137783390D01*
X158361904Y-137783390D02*
X157790476Y-138354819D01*
X157790476Y-138354819D02*
X158409523Y-138354819D01*
X159361904Y-138354819D02*
X158790476Y-138354819D01*
X159076190Y-138354819D02*
X159076190Y-137354819D01*
X159076190Y-137354819D02*
X158980952Y-137497676D01*
X158980952Y-137497676D02*
X158885714Y-137592914D01*
X158885714Y-137592914D02*
X158790476Y-137640533D01*
X152759580Y-137966666D02*
X152807200Y-138014285D01*
X152807200Y-138014285D02*
X152854819Y-138157142D01*
X152854819Y-138157142D02*
X152854819Y-138252380D01*
X152854819Y-138252380D02*
X152807200Y-138395237D01*
X152807200Y-138395237D02*
X152711961Y-138490475D01*
X152711961Y-138490475D02*
X152616723Y-138538094D01*
X152616723Y-138538094D02*
X152426247Y-138585713D01*
X152426247Y-138585713D02*
X152283390Y-138585713D01*
X152283390Y-138585713D02*
X152092914Y-138538094D01*
X152092914Y-138538094D02*
X151997676Y-138490475D01*
X151997676Y-138490475D02*
X151902438Y-138395237D01*
X151902438Y-138395237D02*
X151854819Y-138252380D01*
X151854819Y-138252380D02*
X151854819Y-138157142D01*
X151854819Y-138157142D02*
X151902438Y-138014285D01*
X151902438Y-138014285D02*
X151950057Y-137966666D01*
X151854819Y-137633332D02*
X151854819Y-136966666D01*
X151854819Y-136966666D02*
X152854819Y-137395237D01*
X214633333Y-133954819D02*
X214300000Y-133478628D01*
X214061905Y-133954819D02*
X214061905Y-132954819D01*
X214061905Y-132954819D02*
X214442857Y-132954819D01*
X214442857Y-132954819D02*
X214538095Y-133002438D01*
X214538095Y-133002438D02*
X214585714Y-133050057D01*
X214585714Y-133050057D02*
X214633333Y-133145295D01*
X214633333Y-133145295D02*
X214633333Y-133288152D01*
X214633333Y-133288152D02*
X214585714Y-133383390D01*
X214585714Y-133383390D02*
X214538095Y-133431009D01*
X214538095Y-133431009D02*
X214442857Y-133478628D01*
X214442857Y-133478628D02*
X214061905Y-133478628D01*
X215490476Y-133288152D02*
X215490476Y-133954819D01*
X215252381Y-132907200D02*
X215014286Y-133621485D01*
X215014286Y-133621485D02*
X215633333Y-133621485D01*
X214633333Y-131854819D02*
X214300000Y-131378628D01*
X214061905Y-131854819D02*
X214061905Y-130854819D01*
X214061905Y-130854819D02*
X214442857Y-130854819D01*
X214442857Y-130854819D02*
X214538095Y-130902438D01*
X214538095Y-130902438D02*
X214585714Y-130950057D01*
X214585714Y-130950057D02*
X214633333Y-131045295D01*
X214633333Y-131045295D02*
X214633333Y-131188152D01*
X214633333Y-131188152D02*
X214585714Y-131283390D01*
X214585714Y-131283390D02*
X214538095Y-131331009D01*
X214538095Y-131331009D02*
X214442857Y-131378628D01*
X214442857Y-131378628D02*
X214061905Y-131378628D01*
X214966667Y-130854819D02*
X215585714Y-130854819D01*
X215585714Y-130854819D02*
X215252381Y-131235771D01*
X215252381Y-131235771D02*
X215395238Y-131235771D01*
X215395238Y-131235771D02*
X215490476Y-131283390D01*
X215490476Y-131283390D02*
X215538095Y-131331009D01*
X215538095Y-131331009D02*
X215585714Y-131426247D01*
X215585714Y-131426247D02*
X215585714Y-131664342D01*
X215585714Y-131664342D02*
X215538095Y-131759580D01*
X215538095Y-131759580D02*
X215490476Y-131807200D01*
X215490476Y-131807200D02*
X215395238Y-131854819D01*
X215395238Y-131854819D02*
X215109524Y-131854819D01*
X215109524Y-131854819D02*
X215014286Y-131807200D01*
X215014286Y-131807200D02*
X214966667Y-131759580D01*
X195882142Y-125354819D02*
X195548809Y-124878628D01*
X195310714Y-125354819D02*
X195310714Y-124354819D01*
X195310714Y-124354819D02*
X195691666Y-124354819D01*
X195691666Y-124354819D02*
X195786904Y-124402438D01*
X195786904Y-124402438D02*
X195834523Y-124450057D01*
X195834523Y-124450057D02*
X195882142Y-124545295D01*
X195882142Y-124545295D02*
X195882142Y-124688152D01*
X195882142Y-124688152D02*
X195834523Y-124783390D01*
X195834523Y-124783390D02*
X195786904Y-124831009D01*
X195786904Y-124831009D02*
X195691666Y-124878628D01*
X195691666Y-124878628D02*
X195310714Y-124878628D01*
X196834523Y-125354819D02*
X196263095Y-125354819D01*
X196548809Y-125354819D02*
X196548809Y-124354819D01*
X196548809Y-124354819D02*
X196453571Y-124497676D01*
X196453571Y-124497676D02*
X196358333Y-124592914D01*
X196358333Y-124592914D02*
X196263095Y-124640533D01*
X197167857Y-124354819D02*
X197834523Y-124354819D01*
X197834523Y-124354819D02*
X197405952Y-125354819D01*
X193557142Y-144759580D02*
X193509523Y-144807200D01*
X193509523Y-144807200D02*
X193366666Y-144854819D01*
X193366666Y-144854819D02*
X193271428Y-144854819D01*
X193271428Y-144854819D02*
X193128571Y-144807200D01*
X193128571Y-144807200D02*
X193033333Y-144711961D01*
X193033333Y-144711961D02*
X192985714Y-144616723D01*
X192985714Y-144616723D02*
X192938095Y-144426247D01*
X192938095Y-144426247D02*
X192938095Y-144283390D01*
X192938095Y-144283390D02*
X192985714Y-144092914D01*
X192985714Y-144092914D02*
X193033333Y-143997676D01*
X193033333Y-143997676D02*
X193128571Y-143902438D01*
X193128571Y-143902438D02*
X193271428Y-143854819D01*
X193271428Y-143854819D02*
X193366666Y-143854819D01*
X193366666Y-143854819D02*
X193509523Y-143902438D01*
X193509523Y-143902438D02*
X193557142Y-143950057D01*
X193938095Y-143950057D02*
X193985714Y-143902438D01*
X193985714Y-143902438D02*
X194080952Y-143854819D01*
X194080952Y-143854819D02*
X194319047Y-143854819D01*
X194319047Y-143854819D02*
X194414285Y-143902438D01*
X194414285Y-143902438D02*
X194461904Y-143950057D01*
X194461904Y-143950057D02*
X194509523Y-144045295D01*
X194509523Y-144045295D02*
X194509523Y-144140533D01*
X194509523Y-144140533D02*
X194461904Y-144283390D01*
X194461904Y-144283390D02*
X193890476Y-144854819D01*
X193890476Y-144854819D02*
X194509523Y-144854819D01*
X195366666Y-144188152D02*
X195366666Y-144854819D01*
X195128571Y-143807200D02*
X194890476Y-144521485D01*
X194890476Y-144521485D02*
X195509523Y-144521485D01*
X152057142Y-145559580D02*
X152009523Y-145607200D01*
X152009523Y-145607200D02*
X151866666Y-145654819D01*
X151866666Y-145654819D02*
X151771428Y-145654819D01*
X151771428Y-145654819D02*
X151628571Y-145607200D01*
X151628571Y-145607200D02*
X151533333Y-145511961D01*
X151533333Y-145511961D02*
X151485714Y-145416723D01*
X151485714Y-145416723D02*
X151438095Y-145226247D01*
X151438095Y-145226247D02*
X151438095Y-145083390D01*
X151438095Y-145083390D02*
X151485714Y-144892914D01*
X151485714Y-144892914D02*
X151533333Y-144797676D01*
X151533333Y-144797676D02*
X151628571Y-144702438D01*
X151628571Y-144702438D02*
X151771428Y-144654819D01*
X151771428Y-144654819D02*
X151866666Y-144654819D01*
X151866666Y-144654819D02*
X152009523Y-144702438D01*
X152009523Y-144702438D02*
X152057142Y-144750057D01*
X153009523Y-145654819D02*
X152438095Y-145654819D01*
X152723809Y-145654819D02*
X152723809Y-144654819D01*
X152723809Y-144654819D02*
X152628571Y-144797676D01*
X152628571Y-144797676D02*
X152533333Y-144892914D01*
X152533333Y-144892914D02*
X152438095Y-144940533D01*
X153485714Y-145654819D02*
X153676190Y-145654819D01*
X153676190Y-145654819D02*
X153771428Y-145607200D01*
X153771428Y-145607200D02*
X153819047Y-145559580D01*
X153819047Y-145559580D02*
X153914285Y-145416723D01*
X153914285Y-145416723D02*
X153961904Y-145226247D01*
X153961904Y-145226247D02*
X153961904Y-144845295D01*
X153961904Y-144845295D02*
X153914285Y-144750057D01*
X153914285Y-144750057D02*
X153866666Y-144702438D01*
X153866666Y-144702438D02*
X153771428Y-144654819D01*
X153771428Y-144654819D02*
X153580952Y-144654819D01*
X153580952Y-144654819D02*
X153485714Y-144702438D01*
X153485714Y-144702438D02*
X153438095Y-144750057D01*
X153438095Y-144750057D02*
X153390476Y-144845295D01*
X153390476Y-144845295D02*
X153390476Y-145083390D01*
X153390476Y-145083390D02*
X153438095Y-145178628D01*
X153438095Y-145178628D02*
X153485714Y-145226247D01*
X153485714Y-145226247D02*
X153580952Y-145273866D01*
X153580952Y-145273866D02*
X153771428Y-145273866D01*
X153771428Y-145273866D02*
X153866666Y-145226247D01*
X153866666Y-145226247D02*
X153914285Y-145178628D01*
X153914285Y-145178628D02*
X153961904Y-145083390D01*
X82157142Y-135459580D02*
X82109523Y-135507200D01*
X82109523Y-135507200D02*
X81966666Y-135554819D01*
X81966666Y-135554819D02*
X81871428Y-135554819D01*
X81871428Y-135554819D02*
X81728571Y-135507200D01*
X81728571Y-135507200D02*
X81633333Y-135411961D01*
X81633333Y-135411961D02*
X81585714Y-135316723D01*
X81585714Y-135316723D02*
X81538095Y-135126247D01*
X81538095Y-135126247D02*
X81538095Y-134983390D01*
X81538095Y-134983390D02*
X81585714Y-134792914D01*
X81585714Y-134792914D02*
X81633333Y-134697676D01*
X81633333Y-134697676D02*
X81728571Y-134602438D01*
X81728571Y-134602438D02*
X81871428Y-134554819D01*
X81871428Y-134554819D02*
X81966666Y-134554819D01*
X81966666Y-134554819D02*
X82109523Y-134602438D01*
X82109523Y-134602438D02*
X82157142Y-134650057D01*
X83109523Y-135554819D02*
X82538095Y-135554819D01*
X82823809Y-135554819D02*
X82823809Y-134554819D01*
X82823809Y-134554819D02*
X82728571Y-134697676D01*
X82728571Y-134697676D02*
X82633333Y-134792914D01*
X82633333Y-134792914D02*
X82538095Y-134840533D01*
X83966666Y-134888152D02*
X83966666Y-135554819D01*
X83728571Y-134507200D02*
X83490476Y-135221485D01*
X83490476Y-135221485D02*
X84109523Y-135221485D01*
X164033333Y-140554819D02*
X163700000Y-140078628D01*
X163461905Y-140554819D02*
X163461905Y-139554819D01*
X163461905Y-139554819D02*
X163842857Y-139554819D01*
X163842857Y-139554819D02*
X163938095Y-139602438D01*
X163938095Y-139602438D02*
X163985714Y-139650057D01*
X163985714Y-139650057D02*
X164033333Y-139745295D01*
X164033333Y-139745295D02*
X164033333Y-139888152D01*
X164033333Y-139888152D02*
X163985714Y-139983390D01*
X163985714Y-139983390D02*
X163938095Y-140031009D01*
X163938095Y-140031009D02*
X163842857Y-140078628D01*
X163842857Y-140078628D02*
X163461905Y-140078628D01*
X164938095Y-139554819D02*
X164461905Y-139554819D01*
X164461905Y-139554819D02*
X164414286Y-140031009D01*
X164414286Y-140031009D02*
X164461905Y-139983390D01*
X164461905Y-139983390D02*
X164557143Y-139935771D01*
X164557143Y-139935771D02*
X164795238Y-139935771D01*
X164795238Y-139935771D02*
X164890476Y-139983390D01*
X164890476Y-139983390D02*
X164938095Y-140031009D01*
X164938095Y-140031009D02*
X164985714Y-140126247D01*
X164985714Y-140126247D02*
X164985714Y-140364342D01*
X164985714Y-140364342D02*
X164938095Y-140459580D01*
X164938095Y-140459580D02*
X164890476Y-140507200D01*
X164890476Y-140507200D02*
X164795238Y-140554819D01*
X164795238Y-140554819D02*
X164557143Y-140554819D01*
X164557143Y-140554819D02*
X164461905Y-140507200D01*
X164461905Y-140507200D02*
X164414286Y-140459580D01*
X215133333Y-122459580D02*
X215085714Y-122507200D01*
X215085714Y-122507200D02*
X214942857Y-122554819D01*
X214942857Y-122554819D02*
X214847619Y-122554819D01*
X214847619Y-122554819D02*
X214704762Y-122507200D01*
X214704762Y-122507200D02*
X214609524Y-122411961D01*
X214609524Y-122411961D02*
X214561905Y-122316723D01*
X214561905Y-122316723D02*
X214514286Y-122126247D01*
X214514286Y-122126247D02*
X214514286Y-121983390D01*
X214514286Y-121983390D02*
X214561905Y-121792914D01*
X214561905Y-121792914D02*
X214609524Y-121697676D01*
X214609524Y-121697676D02*
X214704762Y-121602438D01*
X214704762Y-121602438D02*
X214847619Y-121554819D01*
X214847619Y-121554819D02*
X214942857Y-121554819D01*
X214942857Y-121554819D02*
X215085714Y-121602438D01*
X215085714Y-121602438D02*
X215133333Y-121650057D01*
X216038095Y-121554819D02*
X215561905Y-121554819D01*
X215561905Y-121554819D02*
X215514286Y-122031009D01*
X215514286Y-122031009D02*
X215561905Y-121983390D01*
X215561905Y-121983390D02*
X215657143Y-121935771D01*
X215657143Y-121935771D02*
X215895238Y-121935771D01*
X215895238Y-121935771D02*
X215990476Y-121983390D01*
X215990476Y-121983390D02*
X216038095Y-122031009D01*
X216038095Y-122031009D02*
X216085714Y-122126247D01*
X216085714Y-122126247D02*
X216085714Y-122364342D01*
X216085714Y-122364342D02*
X216038095Y-122459580D01*
X216038095Y-122459580D02*
X215990476Y-122507200D01*
X215990476Y-122507200D02*
X215895238Y-122554819D01*
X215895238Y-122554819D02*
X215657143Y-122554819D01*
X215657143Y-122554819D02*
X215561905Y-122507200D01*
X215561905Y-122507200D02*
X215514286Y-122459580D01*
X137659580Y-134042857D02*
X137707200Y-134090476D01*
X137707200Y-134090476D02*
X137754819Y-134233333D01*
X137754819Y-134233333D02*
X137754819Y-134328571D01*
X137754819Y-134328571D02*
X137707200Y-134471428D01*
X137707200Y-134471428D02*
X137611961Y-134566666D01*
X137611961Y-134566666D02*
X137516723Y-134614285D01*
X137516723Y-134614285D02*
X137326247Y-134661904D01*
X137326247Y-134661904D02*
X137183390Y-134661904D01*
X137183390Y-134661904D02*
X136992914Y-134614285D01*
X136992914Y-134614285D02*
X136897676Y-134566666D01*
X136897676Y-134566666D02*
X136802438Y-134471428D01*
X136802438Y-134471428D02*
X136754819Y-134328571D01*
X136754819Y-134328571D02*
X136754819Y-134233333D01*
X136754819Y-134233333D02*
X136802438Y-134090476D01*
X136802438Y-134090476D02*
X136850057Y-134042857D01*
X137754819Y-133090476D02*
X137754819Y-133661904D01*
X137754819Y-133376190D02*
X136754819Y-133376190D01*
X136754819Y-133376190D02*
X136897676Y-133471428D01*
X136897676Y-133471428D02*
X136992914Y-133566666D01*
X136992914Y-133566666D02*
X137040533Y-133661904D01*
X136754819Y-132233333D02*
X136754819Y-132423809D01*
X136754819Y-132423809D02*
X136802438Y-132519047D01*
X136802438Y-132519047D02*
X136850057Y-132566666D01*
X136850057Y-132566666D02*
X136992914Y-132661904D01*
X136992914Y-132661904D02*
X137183390Y-132709523D01*
X137183390Y-132709523D02*
X137564342Y-132709523D01*
X137564342Y-132709523D02*
X137659580Y-132661904D01*
X137659580Y-132661904D02*
X137707200Y-132614285D01*
X137707200Y-132614285D02*
X137754819Y-132519047D01*
X137754819Y-132519047D02*
X137754819Y-132328571D01*
X137754819Y-132328571D02*
X137707200Y-132233333D01*
X137707200Y-132233333D02*
X137659580Y-132185714D01*
X137659580Y-132185714D02*
X137564342Y-132138095D01*
X137564342Y-132138095D02*
X137326247Y-132138095D01*
X137326247Y-132138095D02*
X137231009Y-132185714D01*
X137231009Y-132185714D02*
X137183390Y-132233333D01*
X137183390Y-132233333D02*
X137135771Y-132328571D01*
X137135771Y-132328571D02*
X137135771Y-132519047D01*
X137135771Y-132519047D02*
X137183390Y-132614285D01*
X137183390Y-132614285D02*
X137231009Y-132661904D01*
X137231009Y-132661904D02*
X137326247Y-132709523D01*
X163957142Y-142859580D02*
X163909523Y-142907200D01*
X163909523Y-142907200D02*
X163766666Y-142954819D01*
X163766666Y-142954819D02*
X163671428Y-142954819D01*
X163671428Y-142954819D02*
X163528571Y-142907200D01*
X163528571Y-142907200D02*
X163433333Y-142811961D01*
X163433333Y-142811961D02*
X163385714Y-142716723D01*
X163385714Y-142716723D02*
X163338095Y-142526247D01*
X163338095Y-142526247D02*
X163338095Y-142383390D01*
X163338095Y-142383390D02*
X163385714Y-142192914D01*
X163385714Y-142192914D02*
X163433333Y-142097676D01*
X163433333Y-142097676D02*
X163528571Y-142002438D01*
X163528571Y-142002438D02*
X163671428Y-141954819D01*
X163671428Y-141954819D02*
X163766666Y-141954819D01*
X163766666Y-141954819D02*
X163909523Y-142002438D01*
X163909523Y-142002438D02*
X163957142Y-142050057D01*
X164909523Y-142954819D02*
X164338095Y-142954819D01*
X164623809Y-142954819D02*
X164623809Y-141954819D01*
X164623809Y-141954819D02*
X164528571Y-142097676D01*
X164528571Y-142097676D02*
X164433333Y-142192914D01*
X164433333Y-142192914D02*
X164338095Y-142240533D01*
X165861904Y-142954819D02*
X165290476Y-142954819D01*
X165576190Y-142954819D02*
X165576190Y-141954819D01*
X165576190Y-141954819D02*
X165480952Y-142097676D01*
X165480952Y-142097676D02*
X165385714Y-142192914D01*
X165385714Y-142192914D02*
X165290476Y-142240533D01*
X195757142Y-127854819D02*
X195423809Y-127378628D01*
X195185714Y-127854819D02*
X195185714Y-126854819D01*
X195185714Y-126854819D02*
X195566666Y-126854819D01*
X195566666Y-126854819D02*
X195661904Y-126902438D01*
X195661904Y-126902438D02*
X195709523Y-126950057D01*
X195709523Y-126950057D02*
X195757142Y-127045295D01*
X195757142Y-127045295D02*
X195757142Y-127188152D01*
X195757142Y-127188152D02*
X195709523Y-127283390D01*
X195709523Y-127283390D02*
X195661904Y-127331009D01*
X195661904Y-127331009D02*
X195566666Y-127378628D01*
X195566666Y-127378628D02*
X195185714Y-127378628D01*
X196709523Y-127854819D02*
X196138095Y-127854819D01*
X196423809Y-127854819D02*
X196423809Y-126854819D01*
X196423809Y-126854819D02*
X196328571Y-126997676D01*
X196328571Y-126997676D02*
X196233333Y-127092914D01*
X196233333Y-127092914D02*
X196138095Y-127140533D01*
X197566666Y-126854819D02*
X197376190Y-126854819D01*
X197376190Y-126854819D02*
X197280952Y-126902438D01*
X197280952Y-126902438D02*
X197233333Y-126950057D01*
X197233333Y-126950057D02*
X197138095Y-127092914D01*
X197138095Y-127092914D02*
X197090476Y-127283390D01*
X197090476Y-127283390D02*
X197090476Y-127664342D01*
X197090476Y-127664342D02*
X197138095Y-127759580D01*
X197138095Y-127759580D02*
X197185714Y-127807200D01*
X197185714Y-127807200D02*
X197280952Y-127854819D01*
X197280952Y-127854819D02*
X197471428Y-127854819D01*
X197471428Y-127854819D02*
X197566666Y-127807200D01*
X197566666Y-127807200D02*
X197614285Y-127759580D01*
X197614285Y-127759580D02*
X197661904Y-127664342D01*
X197661904Y-127664342D02*
X197661904Y-127426247D01*
X197661904Y-127426247D02*
X197614285Y-127331009D01*
X197614285Y-127331009D02*
X197566666Y-127283390D01*
X197566666Y-127283390D02*
X197471428Y-127235771D01*
X197471428Y-127235771D02*
X197280952Y-127235771D01*
X197280952Y-127235771D02*
X197185714Y-127283390D01*
X197185714Y-127283390D02*
X197138095Y-127331009D01*
X197138095Y-127331009D02*
X197090476Y-127426247D01*
X122538095Y-126054819D02*
X122538095Y-126864342D01*
X122538095Y-126864342D02*
X122585714Y-126959580D01*
X122585714Y-126959580D02*
X122633333Y-127007200D01*
X122633333Y-127007200D02*
X122728571Y-127054819D01*
X122728571Y-127054819D02*
X122919047Y-127054819D01*
X122919047Y-127054819D02*
X123014285Y-127007200D01*
X123014285Y-127007200D02*
X123061904Y-126959580D01*
X123061904Y-126959580D02*
X123109523Y-126864342D01*
X123109523Y-126864342D02*
X123109523Y-126054819D01*
X124109523Y-127054819D02*
X123538095Y-127054819D01*
X123823809Y-127054819D02*
X123823809Y-126054819D01*
X123823809Y-126054819D02*
X123728571Y-126197676D01*
X123728571Y-126197676D02*
X123633333Y-126292914D01*
X123633333Y-126292914D02*
X123538095Y-126340533D01*
D12*
%TO.C,Y1*%
X131450000Y-133400000D02*
X131450000Y-131400000D01*
X132950000Y-133400000D02*
X132950000Y-131400000D01*
D13*
%TO.C,U2*%
X203203250Y-134984700D02*
X207445050Y-134984700D01*
X207445050Y-129625300D02*
X203203250Y-129625300D01*
D14*
%TO.C,J8*%
X217686000Y-118800000D02*
G75*
G02*
X216924000Y-118800000I-381000J0D01*
G01*
X216924000Y-118800000D02*
G75*
G02*
X217686000Y-118800000I381000J0D01*
G01*
D13*
X214270360Y-114098000D02*
X211529640Y-114098000D01*
X210273000Y-116159439D02*
X210273000Y-119302000D01*
X210273000Y-119302000D02*
X211262459Y-119302000D01*
X215527000Y-119302000D02*
X215527000Y-116159439D01*
X214537541Y-119302000D02*
X215527000Y-119302000D01*
D14*
%TO.C,J4*%
X227336901Y-118675001D02*
G75*
G02*
X226574901Y-118675001I-381000J0D01*
G01*
X226574901Y-118675001D02*
G75*
G02*
X227336901Y-118675001I381000J0D01*
G01*
D13*
X222079101Y-119180001D02*
X223037062Y-119180001D01*
X226320901Y-119180001D02*
X226320901Y-116085240D01*
X225019560Y-113973001D02*
X223380442Y-113973001D01*
X222079101Y-116085240D02*
X222079101Y-119180001D01*
X225362940Y-119180001D02*
X226320901Y-119180001D01*
D14*
%TO.C,J3*%
X80636901Y-118875001D02*
G75*
G02*
X79874901Y-118875001I-381000J0D01*
G01*
X79874901Y-118875001D02*
G75*
G02*
X80636901Y-118875001I381000J0D01*
G01*
D13*
X75379101Y-119380001D02*
X76337062Y-119380001D01*
X79620901Y-119380001D02*
X79620901Y-116285240D01*
X78319560Y-114173001D02*
X76680442Y-114173001D01*
X75379101Y-116285240D02*
X75379101Y-119380001D01*
X78662940Y-119380001D02*
X79620901Y-119380001D01*
%TO.C,J2*%
X177985100Y-147451574D02*
X177985100Y-149187800D01*
X187814900Y-145486826D02*
X187814900Y-143423974D01*
D14*
X176588100Y-141714200D02*
G75*
G02*
X175826100Y-141714200I-381000J0D01*
G01*
X175826100Y-141714200D02*
G75*
G02*
X176588100Y-141714200I381000J0D01*
G01*
D13*
X177985100Y-149187800D02*
X187814900Y-149187800D01*
X187814900Y-149187800D02*
X187814900Y-147451574D01*
X177985100Y-143423974D02*
X177985100Y-145486826D01*
%TO.C,D5*%
X201392250Y-138200000D02*
X202662250Y-138200000D01*
X202408250Y-138835000D02*
X202408250Y-137565000D01*
X202408250Y-138200000D02*
X201646250Y-138835000D01*
X202408250Y-138200000D02*
X201646250Y-138708000D01*
X202408250Y-138200000D02*
X201646250Y-138581000D01*
X202408250Y-138200000D02*
X201646250Y-138454000D01*
X202408250Y-138200000D02*
X201646250Y-138327000D01*
X202408250Y-138200000D02*
X201646250Y-137565000D01*
X202408250Y-138200000D02*
X201646250Y-137692000D01*
X202408250Y-138200000D02*
X201646250Y-137819000D01*
X202408250Y-138200000D02*
X201646250Y-137946000D01*
X202408250Y-138200000D02*
X201646250Y-138073000D01*
X201646250Y-138835000D02*
X201646250Y-137565000D01*
X200109550Y-137374500D02*
X197747350Y-137374500D01*
X197747350Y-139025500D02*
X200109550Y-139025500D01*
%TO.C,D4*%
X141500000Y-133252200D02*
X141500000Y-131982200D01*
X142135000Y-132236200D02*
X140865000Y-132236200D01*
X141500000Y-132236200D02*
X142135000Y-132998200D01*
X141500000Y-132236200D02*
X142008000Y-132998200D01*
X141500000Y-132236200D02*
X141881000Y-132998200D01*
X141500000Y-132236200D02*
X141754000Y-132998200D01*
X141500000Y-132236200D02*
X141627000Y-132998200D01*
X141500000Y-132236200D02*
X140865000Y-132998200D01*
X141500000Y-132236200D02*
X140992000Y-132998200D01*
X141500000Y-132236200D02*
X141119000Y-132998200D01*
X141500000Y-132236200D02*
X141246000Y-132998200D01*
X141500000Y-132236200D02*
X141373000Y-132998200D01*
X142135000Y-132998200D02*
X140865000Y-132998200D01*
X140674500Y-134534900D02*
X140674500Y-136897100D01*
X142325500Y-136897100D02*
X142325500Y-134534900D01*
%TO.C,D3*%
X138136200Y-129900000D02*
X136866200Y-129900000D01*
X137120200Y-129265000D02*
X137120200Y-130535000D01*
X137120200Y-129900000D02*
X137882200Y-129265000D01*
X137120200Y-129900000D02*
X137882200Y-129392000D01*
X137120200Y-129900000D02*
X137882200Y-129519000D01*
X137120200Y-129900000D02*
X137882200Y-129646000D01*
X137120200Y-129900000D02*
X137882200Y-129773000D01*
X137120200Y-129900000D02*
X137882200Y-130535000D01*
X137120200Y-129900000D02*
X137882200Y-130408000D01*
X137120200Y-129900000D02*
X137882200Y-130281000D01*
X137120200Y-129900000D02*
X137882200Y-130154000D01*
X137120200Y-129900000D02*
X137882200Y-130027000D01*
X137882200Y-129265000D02*
X137882200Y-130535000D01*
X139418900Y-130725500D02*
X141781100Y-130725500D01*
X141781100Y-129074500D02*
X139418900Y-129074500D01*
%TO.C,D2*%
X143063800Y-127500000D02*
X144333800Y-127500000D01*
X144079800Y-128135000D02*
X144079800Y-126865000D01*
X144079800Y-127500000D02*
X143317800Y-128135000D01*
X144079800Y-127500000D02*
X143317800Y-128008000D01*
X144079800Y-127500000D02*
X143317800Y-127881000D01*
X144079800Y-127500000D02*
X143317800Y-127754000D01*
X144079800Y-127500000D02*
X143317800Y-127627000D01*
X144079800Y-127500000D02*
X143317800Y-126865000D01*
X144079800Y-127500000D02*
X143317800Y-126992000D01*
X144079800Y-127500000D02*
X143317800Y-127119000D01*
X144079800Y-127500000D02*
X143317800Y-127246000D01*
X144079800Y-127500000D02*
X143317800Y-127373000D01*
X143317800Y-128135000D02*
X143317800Y-126865000D01*
X141781100Y-126674500D02*
X139418900Y-126674500D01*
X139418900Y-128325500D02*
X141781100Y-128325500D01*
D15*
%TO.C,C1*%
X204238748Y-137735000D02*
X204761252Y-137735000D01*
X204238748Y-136265000D02*
X204761252Y-136265000D01*
%TO.C,R6*%
X168627064Y-134865000D02*
X168172936Y-134865000D01*
X168627064Y-136335000D02*
X168172936Y-136335000D01*
%TO.C,R2*%
X185372936Y-139635000D02*
X185827064Y-139635000D01*
X185372936Y-138165000D02*
X185827064Y-138165000D01*
D13*
%TO.C,SW1*%
X231049150Y-146578901D02*
X231049150Y-146412140D01*
X231049150Y-145187860D02*
X231049150Y-142712142D01*
X231049150Y-141487862D02*
X231049150Y-141321101D01*
X231049150Y-141321101D02*
X225791350Y-141321101D01*
X225791350Y-146578901D02*
X231049150Y-146578901D01*
X225791350Y-146412140D02*
X225791350Y-146578901D01*
X225791350Y-142712142D02*
X225791350Y-145187860D01*
X225791350Y-141321101D02*
X225791350Y-141487862D01*
%TO.C,J6*%
X83137060Y-142095000D02*
X82175800Y-142095000D01*
X88424200Y-145189761D02*
X88424200Y-142095000D01*
X83480441Y-147302000D02*
X87119559Y-147302000D01*
X82175800Y-142095000D02*
X82175800Y-145189761D01*
X88424200Y-142095000D02*
X87462940Y-142095000D01*
D14*
X81921800Y-142600000D02*
G75*
G02*
X81159800Y-142600000I-381000J0D01*
G01*
X81159800Y-142600000D02*
G75*
G02*
X81921800Y-142600000I381000J0D01*
G01*
D15*
%TO.C,R10*%
X114165000Y-125185436D02*
X114165000Y-125639564D01*
X115635000Y-125185436D02*
X115635000Y-125639564D01*
%TO.C,C6*%
X80488748Y-140235000D02*
X81011252Y-140235000D01*
X80488748Y-138765000D02*
X81011252Y-138765000D01*
%TO.C,C18*%
X154488748Y-140835000D02*
X155011252Y-140835000D01*
X154488748Y-139365000D02*
X155011252Y-139365000D01*
%TO.C,R7*%
X232560436Y-140035000D02*
X233014564Y-140035000D01*
X232560436Y-138565000D02*
X233014564Y-138565000D01*
%TO.C,C17*%
X141065000Y-141138748D02*
X141065000Y-141661252D01*
X142535000Y-141138748D02*
X142535000Y-141661252D01*
D13*
%TO.C,J1*%
X161028899Y-130564063D02*
X161028899Y-128101102D01*
X143071099Y-128101102D02*
X143071099Y-130564063D01*
X161028899Y-128101102D02*
X143071099Y-128101102D01*
D14*
X163187899Y-133000000D02*
G75*
G02*
X162425899Y-133000000I-381000J0D01*
G01*
X162425899Y-133000000D02*
G75*
G02*
X163187899Y-133000000I381000J0D01*
G01*
D15*
%TO.C,C13*%
X228911252Y-138565000D02*
X228388748Y-138565000D01*
X228911252Y-140035000D02*
X228388748Y-140035000D01*
%TO.C,R14*%
X192760436Y-140835000D02*
X193214564Y-140835000D01*
X192760436Y-139365000D02*
X193214564Y-139365000D01*
%TO.C,R8*%
X74760436Y-135735000D02*
X75214564Y-135735000D01*
X74760436Y-134265000D02*
X75214564Y-134265000D01*
%TO.C,C10*%
X140338748Y-125935000D02*
X140861252Y-125935000D01*
X140338748Y-124465000D02*
X140861252Y-124465000D01*
%TO.C,R12*%
X106772936Y-138635000D02*
X107227064Y-138635000D01*
X106772936Y-137165000D02*
X107227064Y-137165000D01*
D13*
%TO.C,SW2*%
X80008650Y-132078899D02*
X80008650Y-131912138D01*
X80008650Y-130687858D02*
X80008650Y-128212140D01*
X80008650Y-126987860D02*
X80008650Y-126821099D01*
X80008650Y-126821099D02*
X74750850Y-126821099D01*
X74750850Y-132078899D02*
X80008650Y-132078899D01*
X74750850Y-131912138D02*
X74750850Y-132078899D01*
X74750850Y-128212140D02*
X74750850Y-130687858D01*
X74750850Y-126821099D02*
X74750850Y-126987860D01*
D15*
%TO.C,R13*%
X111965000Y-125160436D02*
X111965000Y-125614564D01*
X113435000Y-125160436D02*
X113435000Y-125614564D01*
%TO.C,C15*%
X228211252Y-125565000D02*
X227688748Y-125565000D01*
X228211252Y-127035000D02*
X227688748Y-127035000D01*
%TO.C,D1*%
X193960000Y-116750000D02*
X193630000Y-116990000D01*
X193630000Y-116510000D01*
X193960000Y-116750000D01*
G36*
X193960000Y-116750000D02*
G01*
X193630000Y-116990000D01*
X193630000Y-116510000D01*
X193960000Y-116750000D01*
G37*
X195600000Y-114970000D02*
X196260000Y-114970000D01*
X193940000Y-114970000D02*
X194600000Y-114970000D01*
X196260000Y-116380000D02*
X196260000Y-114970000D01*
X193940000Y-116380000D02*
X193940000Y-114970000D01*
%TO.C,R1*%
X180372936Y-139735000D02*
X180827064Y-139735000D01*
X180372936Y-138265000D02*
X180827064Y-138265000D01*
%TO.C,C25*%
X199588748Y-123035000D02*
X200111252Y-123035000D01*
X199588748Y-121565000D02*
X200111252Y-121565000D01*
%TO.C,C23*%
X132265000Y-137988748D02*
X132265000Y-138511252D01*
X133735000Y-137988748D02*
X133735000Y-138511252D01*
D13*
%TO.C,J7*%
X73937057Y-142144998D02*
X72975797Y-142144998D01*
X79224197Y-145239759D02*
X79224197Y-142144998D01*
X74280438Y-147351998D02*
X77919556Y-147351998D01*
X72975797Y-142144998D02*
X72975797Y-145239759D01*
X79224197Y-142144998D02*
X78262937Y-142144998D01*
D14*
X72721797Y-142649998D02*
G75*
G02*
X71959797Y-142649998I-381000J0D01*
G01*
X71959797Y-142649998D02*
G75*
G02*
X72721797Y-142649998I381000J0D01*
G01*
D15*
%TO.C,R9*%
X231460436Y-127035000D02*
X231914564Y-127035000D01*
X231460436Y-125565000D02*
X231914564Y-125565000D01*
D13*
%TO.C,SW3*%
X231008650Y-133378899D02*
X231008650Y-133212138D01*
X231008650Y-131987858D02*
X231008650Y-129512140D01*
X231008650Y-128287860D02*
X231008650Y-128121099D01*
X231008650Y-128121099D02*
X225750850Y-128121099D01*
X225750850Y-133378899D02*
X231008650Y-133378899D01*
X225750850Y-133212138D02*
X225750850Y-133378899D01*
X225750850Y-129512140D02*
X225750850Y-131987858D01*
X225750850Y-128121099D02*
X225750850Y-128287860D01*
D16*
%TO.C,U3*%
X204716000Y-122000000D02*
G75*
G02*
X204516000Y-122000000I-100000J0D01*
G01*
X204516000Y-122000000D02*
G75*
G02*
X204716000Y-122000000I100000J0D01*
G01*
D17*
X206235000Y-121400000D02*
X206235000Y-121500000D01*
X207935000Y-121400000D02*
X207935000Y-121500000D01*
X207935000Y-124500000D02*
X207935000Y-124400000D01*
X206235000Y-124500000D02*
X206235000Y-124400000D01*
X207935000Y-124500000D02*
X206235000Y-124500000D01*
X207935000Y-121400000D02*
X206235000Y-121400000D01*
D15*
%TO.C,C4*%
X200061252Y-119165000D02*
X199538748Y-119165000D01*
X200061252Y-120635000D02*
X199538748Y-120635000D01*
%TO.C,C22*%
X130165000Y-137988748D02*
X130165000Y-138511252D01*
X131635000Y-137988748D02*
X131635000Y-138511252D01*
%TO.C,R11*%
X106760436Y-141035000D02*
X107214564Y-141035000D01*
X106760436Y-139565000D02*
X107214564Y-139565000D01*
%TO.C,C8*%
X131538748Y-146035000D02*
X132061252Y-146035000D01*
X131538748Y-144565000D02*
X132061252Y-144565000D01*
%TO.C,C2*%
X204188748Y-140035000D02*
X204711252Y-140035000D01*
X204188748Y-138565000D02*
X204711252Y-138565000D01*
%TO.C,C3*%
X204188748Y-142335000D02*
X204711252Y-142335000D01*
X204188748Y-140865000D02*
X204711252Y-140865000D01*
%TO.C,Q1*%
X163330000Y-135137500D02*
X163000000Y-135377500D01*
X163000000Y-134897500D01*
X163330000Y-135137500D01*
G36*
X163330000Y-135137500D02*
G01*
X163000000Y-135377500D01*
X163000000Y-134897500D01*
X163330000Y-135137500D01*
G37*
X161390000Y-137197500D02*
X161390000Y-135677500D01*
X162390000Y-137197500D02*
X161390000Y-137197500D01*
X164510000Y-137197500D02*
X163510000Y-137197500D01*
X161390000Y-135677500D02*
X161440000Y-135677500D01*
X162560000Y-135677500D02*
X163340000Y-135677500D01*
X164460000Y-135677500D02*
X164510000Y-135677500D01*
X164510000Y-135677500D02*
X164510000Y-137197500D01*
%TO.C,C20*%
X154438748Y-143035000D02*
X154961252Y-143035000D01*
X154438748Y-141565000D02*
X154961252Y-141565000D01*
%TO.C,C12*%
X138465000Y-137088748D02*
X138465000Y-137611252D01*
X139935000Y-137088748D02*
X139935000Y-137611252D01*
%TO.C,C9*%
X157238748Y-136435000D02*
X157761252Y-136435000D01*
X157238748Y-134965000D02*
X157761252Y-134965000D01*
%TO.C,R15*%
X190835000Y-141139564D02*
X190835000Y-140685436D01*
X189365000Y-141139564D02*
X189365000Y-140685436D01*
D13*
%TO.C,L1*%
X143120100Y-137885597D02*
X143120100Y-141029403D01*
X151679900Y-141029403D02*
X151679900Y-137885597D01*
D15*
%TO.C,C21*%
X154488748Y-138635000D02*
X155011252Y-138635000D01*
X154488748Y-137165000D02*
X155011252Y-137165000D01*
%TO.C,C7*%
X153588748Y-136435000D02*
X154111252Y-136435000D01*
X153588748Y-134965000D02*
X154111252Y-134965000D01*
%TO.C,R4*%
X211560436Y-134235000D02*
X212014564Y-134235000D01*
X211560436Y-132765000D02*
X212014564Y-132765000D01*
%TO.C,R3*%
X211572936Y-132135000D02*
X212027064Y-132135000D01*
X211572936Y-130665000D02*
X212027064Y-130665000D01*
%TO.C,R17*%
X200039564Y-124065000D02*
X199585436Y-124065000D01*
X200039564Y-125535000D02*
X199585436Y-125535000D01*
%TO.C,C24*%
X192788748Y-143235000D02*
X193311252Y-143235000D01*
X192788748Y-141765000D02*
X193311252Y-141765000D01*
%TO.C,C19*%
X149038748Y-145735000D02*
X149561252Y-145735000D01*
X149038748Y-144265000D02*
X149561252Y-144265000D01*
%TO.C,C14*%
X79088748Y-135835000D02*
X79611252Y-135835000D01*
X79088748Y-134365000D02*
X79611252Y-134365000D01*
%TO.C,R5*%
X161614564Y-139365000D02*
X161160436Y-139365000D01*
X161614564Y-140835000D02*
X161160436Y-140835000D01*
%TO.C,C5*%
X211888748Y-122735000D02*
X212411252Y-122735000D01*
X211888748Y-121265000D02*
X212411252Y-121265000D01*
%TO.C,C16*%
X138465000Y-132938748D02*
X138465000Y-133461252D01*
X139935000Y-132938748D02*
X139935000Y-133461252D01*
%TO.C,C11*%
X161038748Y-143235000D02*
X161561252Y-143235000D01*
X161038748Y-141765000D02*
X161561252Y-141765000D01*
%TO.C,R16*%
X199585436Y-128035000D02*
X200039564Y-128035000D01*
X199585436Y-126565000D02*
X200039564Y-126565000D01*
%TO.C,U1*%
X128555000Y-154240000D02*
X128555000Y-148040000D01*
X128555000Y-154240000D02*
X110155000Y-154240000D01*
X128555000Y-129390000D02*
X128555000Y-128390000D01*
X128555000Y-128390000D02*
X127055000Y-128390000D01*
X110155000Y-154240000D02*
X110155000Y-148040000D01*
X110155000Y-128390000D02*
X111655000Y-128390000D01*
X110155000Y-128390000D02*
X110155000Y-129390000D01*
X128555000Y-147865000D02*
X128555000Y-147365000D01*
X129055000Y-147365000D01*
X128555000Y-147865000D01*
G36*
X128555000Y-147865000D02*
G01*
X128555000Y-147365000D01*
X129055000Y-147365000D01*
X128555000Y-147865000D01*
G37*
%TD*%
M02*
