ISO-10303-21;
HEADER;
FILE_DESCRIPTION(('STEP AP214'),'1');
FILE_NAME('result.stp','2026-04-05T09:21:28',(' '),(' '),'Spatial InterOp 3D',' ',' ');
FILE_SCHEMA(('automotive_design'));
ENDSEC;
DATA;
#1=MECHANICAL_DESIGN_GEOMETRIC_PRESENTATION_REPRESENTATION(' ',(#180,#210,#240,#270,#300,#330,#360,#390,#420,#450,#480,#510,#540,#570,#600,#630,#660,#690,#720,#750),#6);
#2=PRODUCT_DEFINITION_CONTEXT('',#7,'design');
#3=APPLICATION_PROTOCOL_DEFINITION('INTERNATIONAL STANDARD','automotive_design',1994,#7);
#4=PRODUCT_CATEGORY_RELATIONSHIP('NONE','NONE',#8,#9);
#5=SHAPE_DEFINITION_REPRESENTATION(#10,#11);
#6= (GEOMETRIC_REPRESENTATION_CONTEXT(3)GLOBAL_UNCERTAINTY_ASSIGNED_CONTEXT((#12))GLOBAL_UNIT_ASSIGNED_CONTEXT((#13,#14,#15))REPRESENTATION_CONTEXT('NONE','WORKSPACE'));
#7=APPLICATION_CONTEXT(' ');
#8=PRODUCT_CATEGORY('part','NONE');
#9=PRODUCT_RELATED_PRODUCT_CATEGORY('detail',' ',(#17));
#10=PRODUCT_DEFINITION_SHAPE('NONE','NONE',#18);
#11=MANIFOLD_SURFACE_SHAPE_REPRESENTATION('Root',(#16,#19),#6);
#12=UNCERTAINTY_MEASURE_WITH_UNIT(LENGTH_MEASURE(1.0E-006),#13,'','');
#13=(CONVERSION_BASED_UNIT('METRE',#20)LENGTH_UNIT()NAMED_UNIT(#21));
#14=(NAMED_UNIT(#22)PLANE_ANGLE_UNIT()SI_UNIT($,.RADIAN.));
#15=(NAMED_UNIT(#22)SOLID_ANGLE_UNIT()SI_UNIT($,.STERADIAN.));
#16=SHELL_BASED_SURFACE_MODEL('Root',(#29));
#17=PRODUCT('Root','Root','Root',(#23));
#18=PRODUCT_DEFINITION('NONE','NONE',#24,#2);
#19=AXIS2_PLACEMENT_3D('',#25,#26,#27);
#20=LENGTH_MEASURE_WITH_UNIT(LENGTH_MEASURE(1.0),#28);
#21=DIMENSIONAL_EXPONENTS(1.0,0.0,0.0,0.0,0.0,0.0,0.0);
#22=DIMENSIONAL_EXPONENTS(0.0,0.0,0.0,0.0,0.0,0.0,0.0);
#23=PRODUCT_CONTEXT('',#7,'mechanical');
#24=PRODUCT_DEFINITION_FORMATION_WITH_SPECIFIED_SOURCE(' ','NONE',#17,.NOT_KNOWN.);
#25=CARTESIAN_POINT('',(0.0,0.0,0.0));
#26=DIRECTION('',(0.0,0.0,1.0));
#27=DIRECTION('',(1.0,0.0,0.0));
#28= (NAMED_UNIT(#21)LENGTH_UNIT()SI_UNIT(.MILLI.,.METRE.));
#29=CLOSED_SHELL('',(#188,#218,#248,#278,#308,#338,#368,#398,#428,#458,#488,#518,#548,#578,#608,#638,#668,#698,#728,#758));
#100=CARTESIAN_POINT('',(-0.850000024,2.099999905,0.000000000));
#101=VERTEX_POINT('',#100);
#102=CARTESIAN_POINT('',(-0.850000024,-2.099999905,0.000000000));
#103=VERTEX_POINT('',#102);
#104=CARTESIAN_POINT('',(-0.850000024,2.099999905,0.600000024));
#105=VERTEX_POINT('',#104);
#106=CARTESIAN_POINT('',(-0.850000024,-2.099999905,0.600000024));
#107=VERTEX_POINT('',#106);
#108=CARTESIAN_POINT('',(0.850000024,2.099999905,0.000000000));
#109=VERTEX_POINT('',#108);
#110=CARTESIAN_POINT('',(-0.850000024,2.099999905,0.000000000));
#111=VERTEX_POINT('',#110);
#112=CARTESIAN_POINT('',(0.850000024,2.099999905,0.600000024));
#113=VERTEX_POINT('',#112);
#114=CARTESIAN_POINT('',(-0.850000024,2.099999905,0.600000024));
#115=VERTEX_POINT('',#114);
#116=CARTESIAN_POINT('',(-0.750000000,-2.000000000,0.699999988));
#117=VERTEX_POINT('',#116);
#118=CARTESIAN_POINT('',(-0.750000000,2.000000000,0.699999988));
#119=VERTEX_POINT('',#118);
#120=CARTESIAN_POINT('',(-0.850000024,2.099999905,0.600000024));
#121=VERTEX_POINT('',#120);
#122=CARTESIAN_POINT('',(-0.850000024,-2.099999905,0.600000024));
#123=VERTEX_POINT('',#122);
#124=CARTESIAN_POINT('',(-0.850000024,2.099999905,0.000000000));
#125=VERTEX_POINT('',#124);
#126=CARTESIAN_POINT('',(0.850000024,2.099999905,0.000000000));
#127=VERTEX_POINT('',#126);
#128=CARTESIAN_POINT('',(-0.850000024,-2.099999905,0.000000000));
#129=VERTEX_POINT('',#128);
#130=CARTESIAN_POINT('',(0.850000024,-2.099999905,0.000000000));
#131=VERTEX_POINT('',#130);
#132=CARTESIAN_POINT('',(-0.850000024,-2.099999905,0.000000000));
#133=VERTEX_POINT('',#132);
#134=CARTESIAN_POINT('',(0.850000024,-2.099999905,0.000000000));
#135=VERTEX_POINT('',#134);
#136=CARTESIAN_POINT('',(-0.850000024,-2.099999905,0.600000024));
#137=VERTEX_POINT('',#136);
#138=CARTESIAN_POINT('',(0.850000024,-2.099999905,0.600000024));
#139=VERTEX_POINT('',#138);
#140=CARTESIAN_POINT('',(0.850000024,-2.099999905,0.000000000));
#141=VERTEX_POINT('',#140);
#142=CARTESIAN_POINT('',(0.850000024,2.099999905,0.000000000));
#143=VERTEX_POINT('',#142);
#144=CARTESIAN_POINT('',(0.850000024,-2.099999905,0.600000024));
#145=VERTEX_POINT('',#144);
#146=CARTESIAN_POINT('',(0.850000024,2.099999905,0.600000024));
#147=VERTEX_POINT('',#146);
#148=CARTESIAN_POINT('',(-0.750000000,2.000000000,0.699999988));
#149=VERTEX_POINT('',#148);
#150=CARTESIAN_POINT('',(0.750000000,2.000000000,0.699999988));
#151=VERTEX_POINT('',#150);
#152=CARTESIAN_POINT('',(0.850000024,2.099999905,0.600000024));
#153=VERTEX_POINT('',#152);
#154=CARTESIAN_POINT('',(-0.850000024,2.099999905,0.600000024));
#155=VERTEX_POINT('',#154);
#156=CARTESIAN_POINT('',(0.750000000,2.000000000,0.699999988));
#157=VERTEX_POINT('',#156);
#158=CARTESIAN_POINT('',(-0.750000000,2.000000000,0.699999988));
#159=VERTEX_POINT('',#158);
#160=CARTESIAN_POINT('',(-0.750000000,-2.000000000,0.699999988));
#161=VERTEX_POINT('',#160);
#162=CARTESIAN_POINT('',(0.750000000,-2.000000000,0.699999988));
#163=VERTEX_POINT('',#162);
#164=CARTESIAN_POINT('',(0.750000000,-2.000000000,0.699999988));
#165=VERTEX_POINT('',#164);
#166=CARTESIAN_POINT('',(-0.750000000,-2.000000000,0.699999988));
#167=VERTEX_POINT('',#166);
#168=CARTESIAN_POINT('',(-0.850000024,-2.099999905,0.600000024));
#169=VERTEX_POINT('',#168);
#170=CARTESIAN_POINT('',(0.850000024,-2.099999905,0.600000024));
#171=VERTEX_POINT('',#170);
#172=CARTESIAN_POINT('',(0.750000000,2.000000000,0.699999988));
#173=VERTEX_POINT('',#172);
#174=CARTESIAN_POINT('',(0.750000000,-2.000000000,0.699999988));
#175=VERTEX_POINT('',#174);
#176=CARTESIAN_POINT('',(0.850000024,-2.099999905,0.600000024));
#177=VERTEX_POINT('',#176);
#178=CARTESIAN_POINT('',(0.850000024,2.099999905,0.600000024));
#179=VERTEX_POINT('',#178);
#180=STYLED_ITEM('',(#181),#188);
#181=PRESENTATION_STYLE_ASSIGNMENT((#182));
#182=SURFACE_STYLE_USAGE(.BOTH.,#183);
#183=SURFACE_SIDE_STYLE('',(#184));
#184=SURFACE_STYLE_FILL_AREA(#185);
#185=FILL_AREA_STYLE('',(#186));
#186=FILL_AREA_STYLE_COLOUR('',#187);
#187=COLOUR_RGB('',0.800000012,0.800000012,0.800000012);
#188=FACE_SURFACE('',(#193),#189,.T.);
#189=PLANE('',#190);
#190=AXIS2_PLACEMENT_3D('',#100,#191,#192);
#191=DIRECTION('',(1.000000000,0.000000000,-0.000000000));
#192=DIRECTION('',(0.000000000,0.989949524,0.141421378));
#193=FACE_BOUND('',#194,.T.);
#194=EDGE_LOOP('',(#195,#196,#197));
#195=ORIENTED_EDGE('',*,*,#198,.T.);
#196=ORIENTED_EDGE('',*,*,#199,.T.);
#197=ORIENTED_EDGE('',*,*,#200,.T.);
#198=EDGE_CURVE('',#101,#103,#201,.F.);
#199=EDGE_CURVE('',#103,#105,#202,.T.);
#200=EDGE_CURVE('',#105,#101,#203,.T.);
#201=LINE('',#100,#204);
#202=LINE('',#102,#205);
#203=LINE('',#104,#206);
#204=VECTOR('',#207,1.0);
#205=VECTOR('',#208,1.0);
#206=VECTOR('',#209,1.0);
#207=DIRECTION('',(0.000000000,-1.000000000,0.000000000));
#208=DIRECTION('',(0.000000000,0.989949524,0.141421378));
#209=DIRECTION('',(0.000000000,0.000000000,-1.000000000));
#210=STYLED_ITEM('',(#211),#218);
#211=PRESENTATION_STYLE_ASSIGNMENT((#212));
#212=SURFACE_STYLE_USAGE(.BOTH.,#213);
#213=SURFACE_SIDE_STYLE('',(#214));
#214=SURFACE_STYLE_FILL_AREA(#215);
#215=FILL_AREA_STYLE('',(#216));
#216=FILL_AREA_STYLE_COLOUR('',#217);
#217=COLOUR_RGB('',0.800000012,0.800000012,0.800000012);
#218=FACE_SURFACE('',(#223),#219,.T.);
#219=PLANE('',#220);
#220=AXIS2_PLACEMENT_3D('',#104,#221,#222);
#221=DIRECTION('',(0.999999940,0.000000000,-0.000000000));
#222=DIRECTION('',(0.000000000,0.000000000,1.000000000));
#223=FACE_BOUND('',#224,.T.);
#224=EDGE_LOOP('',(#225,#226,#227));
#225=ORIENTED_EDGE('',*,*,#228,.T.);
#226=ORIENTED_EDGE('',*,*,#229,.T.);
#227=ORIENTED_EDGE('',*,*,#230,.T.);
#228=EDGE_CURVE('',#105,#103,#231,.F.);
#229=EDGE_CURVE('',#103,#107,#232,.T.);
#230=EDGE_CURVE('',#107,#105,#233,.T.);
#231=LINE('',#104,#234);
#232=LINE('',#102,#235);
#233=LINE('',#106,#236);
#234=VECTOR('',#237,1.0);
#235=VECTOR('',#238,1.0);
#236=VECTOR('',#239,1.0);
#237=DIRECTION('',(0.000000000,-0.989949524,-0.141421378));
#238=DIRECTION('',(0.000000000,0.000000000,1.000000000));
#239=DIRECTION('',(0.000000000,1.000000000,0.000000000));
#240=STYLED_ITEM('',(#241),#248);
#241=PRESENTATION_STYLE_ASSIGNMENT((#242));
#242=SURFACE_STYLE_USAGE(.BOTH.,#243);
#243=SURFACE_SIDE_STYLE('',(#244));
#244=SURFACE_STYLE_FILL_AREA(#245);
#245=FILL_AREA_STYLE('',(#246));
#246=FILL_AREA_STYLE_COLOUR('',#247);
#247=COLOUR_RGB('',0.800000012,0.800000012,0.800000012);
#248=FACE_SURFACE('',(#253),#249,.T.);
#249=PLANE('',#250);
#250=AXIS2_PLACEMENT_3D('',#108,#251,#252);
#251=DIRECTION('',(0.000000000,-1.000000000,0.000000000));
#252=DIRECTION('',(0.942990363,0.000000000,0.332820117));
#253=FACE_BOUND('',#254,.T.);
#254=EDGE_LOOP('',(#255,#256,#257));
#255=ORIENTED_EDGE('',*,*,#258,.T.);
#256=ORIENTED_EDGE('',*,*,#259,.T.);
#257=ORIENTED_EDGE('',*,*,#260,.T.);
#258=EDGE_CURVE('',#109,#111,#261,.F.);
#259=EDGE_CURVE('',#111,#113,#262,.T.);
#260=EDGE_CURVE('',#113,#109,#263,.T.);
#261=LINE('',#108,#264);
#262=LINE('',#110,#265);
#263=LINE('',#112,#266);
#264=VECTOR('',#267,1.0);
#265=VECTOR('',#268,1.0);
#266=VECTOR('',#269,1.0);
#267=DIRECTION('',(-0.999999940,0.000000000,0.000000000));
#268=DIRECTION('',(0.942990363,0.000000000,0.332820117));
#269=DIRECTION('',(0.000000000,0.000000000,-1.000000000));
#270=STYLED_ITEM('',(#271),#278);
#271=PRESENTATION_STYLE_ASSIGNMENT((#272));
#272=SURFACE_STYLE_USAGE(.BOTH.,#273);
#273=SURFACE_SIDE_STYLE('',(#274));
#274=SURFACE_STYLE_FILL_AREA(#275);
#275=FILL_AREA_STYLE('',(#276));
#276=FILL_AREA_STYLE_COLOUR('',#277);
#277=COLOUR_RGB('',0.800000012,0.800000012,0.800000012);
#278=FACE_SURFACE('',(#283),#279,.T.);
#279=PLANE('',#280);
#280=AXIS2_PLACEMENT_3D('',#112,#281,#282);
#281=DIRECTION('',(-0.000000000,-1.000000000,0.000000000));
#282=DIRECTION('',(0.000000000,0.000000000,1.000000000));
#283=FACE_BOUND('',#284,.T.);
#284=EDGE_LOOP('',(#285,#286,#287));
#285=ORIENTED_EDGE('',*,*,#288,.T.);
#286=ORIENTED_EDGE('',*,*,#289,.T.);
#287=ORIENTED_EDGE('',*,*,#290,.T.);
#288=EDGE_CURVE('',#113,#111,#291,.F.);
#289=EDGE_CURVE('',#111,#115,#292,.T.);
#290=EDGE_CURVE('',#115,#113,#293,.T.);
#291=LINE('',#112,#294);
#292=LINE('',#110,#295);
#293=LINE('',#114,#296);
#294=VECTOR('',#297,1.0);
#295=VECTOR('',#298,1.0);
#296=VECTOR('',#299,1.0);
#297=DIRECTION('',(-0.942990363,0.000000000,-0.332820117));
#298=DIRECTION('',(0.000000000,0.000000000,1.000000000));
#299=DIRECTION('',(0.999999940,0.000000000,0.000000000));
#300=STYLED_ITEM('',(#301),#308);
#301=PRESENTATION_STYLE_ASSIGNMENT((#302));
#302=SURFACE_STYLE_USAGE(.BOTH.,#303);
#303=SURFACE_SIDE_STYLE('',(#304));
#304=SURFACE_STYLE_FILL_AREA(#305);
#305=FILL_AREA_STYLE('',(#306));
#306=FILL_AREA_STYLE_COLOUR('',#307);
#307=COLOUR_RGB('',0.800000012,0.800000012,0.800000012);
#308=FACE_SURFACE('',(#313),#309,.T.);
#309=PLANE('',#310);
#310=AXIS2_PLACEMENT_3D('',#116,#311,#312);
#311=DIRECTION('',(0.707106590,0.000000000,-0.707107008));
#312=DIRECTION('',(-0.577350616,0.577349901,-0.577350259));
#313=FACE_BOUND('',#314,.T.);
#314=EDGE_LOOP('',(#315,#316,#317));
#315=ORIENTED_EDGE('',*,*,#318,.T.);
#316=ORIENTED_EDGE('',*,*,#319,.T.);
#317=ORIENTED_EDGE('',*,*,#320,.T.);
#318=EDGE_CURVE('',#117,#119,#321,.F.);
#319=EDGE_CURVE('',#119,#121,#322,.T.);
#320=EDGE_CURVE('',#121,#117,#323,.T.);
#321=LINE('',#116,#324);
#322=LINE('',#118,#325);
#323=LINE('',#120,#326);
#324=VECTOR('',#327,1.0);
#325=VECTOR('',#328,1.0);
#326=VECTOR('',#329,1.0);
#327=DIRECTION('',(0.000000000,1.000000000,0.000000000));
#328=DIRECTION('',(-0.577350616,0.577349901,-0.577350259));
#329=DIRECTION('',(0.024375753,-0.999405622,0.024375739));
#330=STYLED_ITEM('',(#331),#338);
#331=PRESENTATION_STYLE_ASSIGNMENT((#332));
#332=SURFACE_STYLE_USAGE(.BOTH.,#333);
#333=SURFACE_SIDE_STYLE('',(#334));
#334=SURFACE_STYLE_FILL_AREA(#335);
#335=FILL_AREA_STYLE('',(#336));
#336=FILL_AREA_STYLE_COLOUR('',#337);
#337=COLOUR_RGB('',0.800000012,0.800000012,0.800000012);
#338=FACE_SURFACE('',(#343),#339,.T.);
#339=PLANE('',#340);
#340=AXIS2_PLACEMENT_3D('',#116,#341,#342);
#341=DIRECTION('',(0.707106590,0.000000000,-0.707107008));
#342=DIRECTION('',(0.000000000,-1.000000000,0.000000000));
#343=FACE_BOUND('',#344,.T.);
#344=EDGE_LOOP('',(#345,#346,#347));
#345=ORIENTED_EDGE('',*,*,#348,.T.);
#346=ORIENTED_EDGE('',*,*,#349,.T.);
#347=ORIENTED_EDGE('',*,*,#350,.T.);
#348=EDGE_CURVE('',#117,#121,#351,.F.);
#349=EDGE_CURVE('',#121,#123,#352,.T.);
#350=EDGE_CURVE('',#123,#117,#353,.T.);
#351=LINE('',#116,#354);
#352=LINE('',#120,#355);
#353=LINE('',#122,#356);
#354=VECTOR('',#357,1.0);
#355=VECTOR('',#358,1.0);
#356=VECTOR('',#359,1.0);
#357=DIRECTION('',(-0.024375753,0.999405622,-0.024375739));
#358=DIRECTION('',(0.000000000,-1.000000000,0.000000000));
#359=DIRECTION('',(0.577350616,0.577349901,0.577350259));
#360=STYLED_ITEM('',(#361),#368);
#361=PRESENTATION_STYLE_ASSIGNMENT((#362));
#362=SURFACE_STYLE_USAGE(.BOTH.,#363);
#363=SURFACE_SIDE_STYLE('',(#364));
#364=SURFACE_STYLE_FILL_AREA(#365);
#365=FILL_AREA_STYLE('',(#366));
#366=FILL_AREA_STYLE_COLOUR('',#367);
#367=COLOUR_RGB('',0.800000012,0.800000012,0.800000012);
#368=FACE_SURFACE('',(#373),#369,.T.);
#369=PLANE('',#370);
#370=AXIS2_PLACEMENT_3D('',#124,#371,#372);
#371=DIRECTION('',(-0.000000000,0.000000000,0.999999940));
#372=DIRECTION('',(-0.375192791,-0.926946819,0.000000000));
#373=FACE_BOUND('',#374,.T.);
#374=EDGE_LOOP('',(#375,#376,#377));
#375=ORIENTED_EDGE('',*,*,#378,.T.);
#376=ORIENTED_EDGE('',*,*,#379,.T.);
#377=ORIENTED_EDGE('',*,*,#380,.T.);
#378=EDGE_CURVE('',#125,#127,#381,.F.);
#379=EDGE_CURVE('',#127,#129,#382,.T.);
#380=EDGE_CURVE('',#129,#125,#383,.T.);
#381=LINE('',#124,#384);
#382=LINE('',#126,#385);
#383=LINE('',#128,#386);
#384=VECTOR('',#387,1.0);
#385=VECTOR('',#388,1.0);
#386=VECTOR('',#389,1.0);
#387=DIRECTION('',(0.999999940,0.000000000,0.000000000));
#388=DIRECTION('',(-0.375192791,-0.926946819,0.000000000));
#389=DIRECTION('',(0.000000000,1.000000000,0.000000000));
#390=STYLED_ITEM('',(#391),#398);
#391=PRESENTATION_STYLE_ASSIGNMENT((#392));
#392=SURFACE_STYLE_USAGE(.BOTH.,#393);
#393=SURFACE_SIDE_STYLE('',(#394));
#394=SURFACE_STYLE_FILL_AREA(#395);
#395=FILL_AREA_STYLE('',(#396));
#396=FILL_AREA_STYLE_COLOUR('',#397);
#397=COLOUR_RGB('',0.800000012,0.800000012,0.800000012);
#398=FACE_SURFACE('',(#403),#399,.T.);
#399=PLANE('',#400);
#400=AXIS2_PLACEMENT_3D('',#128,#401,#402);
#401=DIRECTION('',(-0.000000000,0.000000000,0.999999940));
#402=DIRECTION('',(0.000000000,-1.000000000,0.000000000));
#403=FACE_BOUND('',#404,.T.);
#404=EDGE_LOOP('',(#405,#406,#407));
#405=ORIENTED_EDGE('',*,*,#408,.T.);
#406=ORIENTED_EDGE('',*,*,#409,.T.);
#407=ORIENTED_EDGE('',*,*,#410,.T.);
#408=EDGE_CURVE('',#129,#127,#411,.F.);
#409=EDGE_CURVE('',#127,#131,#412,.T.);
#410=EDGE_CURVE('',#131,#129,#413,.T.);
#411=LINE('',#128,#414);
#412=LINE('',#126,#415);
#413=LINE('',#130,#416);
#414=VECTOR('',#417,1.0);
#415=VECTOR('',#418,1.0);
#416=VECTOR('',#419,1.0);
#417=DIRECTION('',(0.375192791,0.926946819,0.000000000));
#418=DIRECTION('',(0.000000000,-1.000000000,0.000000000));
#419=DIRECTION('',(-0.999999940,0.000000000,0.000000000));
#420=STYLED_ITEM('',(#421),#428);
#421=PRESENTATION_STYLE_ASSIGNMENT((#422));
#422=SURFACE_STYLE_USAGE(.BOTH.,#423);
#423=SURFACE_SIDE_STYLE('',(#424));
#424=SURFACE_STYLE_FILL_AREA(#425);
#425=FILL_AREA_STYLE('',(#426));
#426=FILL_AREA_STYLE_COLOUR('',#427);
#427=COLOUR_RGB('',0.800000012,0.800000012,0.800000012);
#428=FACE_SURFACE('',(#433),#429,.T.);
#429=PLANE('',#430);
#430=AXIS2_PLACEMENT_3D('',#132,#431,#432);
#431=DIRECTION('',(0.000000000,1.000000000,-0.000000000));
#432=DIRECTION('',(-0.942990363,0.000000000,0.332820117));
#433=FACE_BOUND('',#434,.T.);
#434=EDGE_LOOP('',(#435,#436,#437));
#435=ORIENTED_EDGE('',*,*,#438,.T.);
#436=ORIENTED_EDGE('',*,*,#439,.T.);
#437=ORIENTED_EDGE('',*,*,#440,.T.);
#438=EDGE_CURVE('',#133,#135,#441,.F.);
#439=EDGE_CURVE('',#135,#137,#442,.T.);
#440=EDGE_CURVE('',#137,#133,#443,.T.);
#441=LINE('',#132,#444);
#442=LINE('',#134,#445);
#443=LINE('',#136,#446);
#444=VECTOR('',#447,1.0);
#445=VECTOR('',#448,1.0);
#446=VECTOR('',#449,1.0);
#447=DIRECTION('',(0.999999940,0.000000000,0.000000000));
#448=DIRECTION('',(-0.942990363,0.000000000,0.332820117));
#449=DIRECTION('',(0.000000000,0.000000000,-1.000000000));
#450=STYLED_ITEM('',(#451),#458);
#451=PRESENTATION_STYLE_ASSIGNMENT((#452));
#452=SURFACE_STYLE_USAGE(.BOTH.,#453);
#453=SURFACE_SIDE_STYLE('',(#454));
#454=SURFACE_STYLE_FILL_AREA(#455);
#455=FILL_AREA_STYLE('',(#456));
#456=FILL_AREA_STYLE_COLOUR('',#457);
#457=COLOUR_RGB('',0.800000012,0.800000012,0.800000012);
#458=FACE_SURFACE('',(#463),#459,.T.);
#459=PLANE('',#460);
#460=AXIS2_PLACEMENT_3D('',#136,#461,#462);
#461=DIRECTION('',(-0.000000000,1.000000000,0.000000000));
#462=DIRECTION('',(0.000000000,0.000000000,1.000000000));
#463=FACE_BOUND('',#464,.T.);
#464=EDGE_LOOP('',(#465,#466,#467));
#465=ORIENTED_EDGE('',*,*,#468,.T.);
#466=ORIENTED_EDGE('',*,*,#469,.T.);
#467=ORIENTED_EDGE('',*,*,#470,.T.);
#468=EDGE_CURVE('',#137,#135,#471,.F.);
#469=EDGE_CURVE('',#135,#139,#472,.T.);
#470=EDGE_CURVE('',#139,#137,#473,.T.);
#471=LINE('',#136,#474);
#472=LINE('',#134,#475);
#473=LINE('',#138,#476);
#474=VECTOR('',#477,1.0);
#475=VECTOR('',#478,1.0);
#476=VECTOR('',#479,1.0);
#477=DIRECTION('',(0.942990363,0.000000000,-0.332820117));
#478=DIRECTION('',(0.000000000,0.000000000,1.000000000));
#479=DIRECTION('',(-0.999999940,0.000000000,0.000000000));
#480=STYLED_ITEM('',(#481),#488);
#481=PRESENTATION_STYLE_ASSIGNMENT((#482));
#482=SURFACE_STYLE_USAGE(.BOTH.,#483);
#483=SURFACE_SIDE_STYLE('',(#484));
#484=SURFACE_STYLE_FILL_AREA(#485);
#485=FILL_AREA_STYLE('',(#486));
#486=FILL_AREA_STYLE_COLOUR('',#487);
#487=COLOUR_RGB('',0.800000012,0.800000012,0.800000012);
#488=FACE_SURFACE('',(#493),#489,.T.);
#489=PLANE('',#490);
#490=AXIS2_PLACEMENT_3D('',#140,#491,#492);
#491=DIRECTION('',(-1.000000000,0.000000000,0.000000000));
#492=DIRECTION('',(0.000000000,-0.989949524,0.141421378));
#493=FACE_BOUND('',#494,.T.);
#494=EDGE_LOOP('',(#495,#496,#497));
#495=ORIENTED_EDGE('',*,*,#498,.T.);
#496=ORIENTED_EDGE('',*,*,#499,.T.);
#497=ORIENTED_EDGE('',*,*,#500,.T.);
#498=EDGE_CURVE('',#141,#143,#501,.F.);
#499=EDGE_CURVE('',#143,#145,#502,.T.);
#500=EDGE_CURVE('',#145,#141,#503,.T.);
#501=LINE('',#140,#504);
#502=LINE('',#142,#505);
#503=LINE('',#144,#506);
#504=VECTOR('',#507,1.0);
#505=VECTOR('',#508,1.0);
#506=VECTOR('',#509,1.0);
#507=DIRECTION('',(0.000000000,1.000000000,0.000000000));
#508=DIRECTION('',(0.000000000,-0.989949524,0.141421378));
#509=DIRECTION('',(0.000000000,0.000000000,-1.000000000));
#510=STYLED_ITEM('',(#511),#518);
#511=PRESENTATION_STYLE_ASSIGNMENT((#512));
#512=SURFACE_STYLE_USAGE(.BOTH.,#513);
#513=SURFACE_SIDE_STYLE('',(#514));
#514=SURFACE_STYLE_FILL_AREA(#515);
#515=FILL_AREA_STYLE('',(#516));
#516=FILL_AREA_STYLE_COLOUR('',#517);
#517=COLOUR_RGB('',0.800000012,0.800000012,0.800000012);
#518=FACE_SURFACE('',(#523),#519,.T.);
#519=PLANE('',#520);
#520=AXIS2_PLACEMENT_3D('',#144,#521,#522);
#521=DIRECTION('',(-0.999999940,0.000000000,0.000000000));
#522=DIRECTION('',(0.000000000,0.000000000,1.000000000));
#523=FACE_BOUND('',#524,.T.);
#524=EDGE_LOOP('',(#525,#526,#527));
#525=ORIENTED_EDGE('',*,*,#528,.T.);
#526=ORIENTED_EDGE('',*,*,#529,.T.);
#527=ORIENTED_EDGE('',*,*,#530,.T.);
#528=EDGE_CURVE('',#145,#143,#531,.F.);
#529=EDGE_CURVE('',#143,#147,#532,.T.);
#530=EDGE_CURVE('',#147,#145,#533,.T.);
#531=LINE('',#144,#534);
#532=LINE('',#142,#535);
#533=LINE('',#146,#536);
#534=VECTOR('',#537,1.0);
#535=VECTOR('',#538,1.0);
#536=VECTOR('',#539,1.0);
#537=DIRECTION('',(0.000000000,0.989949524,-0.141421378));
#538=DIRECTION('',(0.000000000,0.000000000,1.000000000));
#539=DIRECTION('',(0.000000000,-1.000000000,0.000000000));
#540=STYLED_ITEM('',(#541),#548);
#541=PRESENTATION_STYLE_ASSIGNMENT((#542));
#542=SURFACE_STYLE_USAGE(.BOTH.,#543);
#543=SURFACE_SIDE_STYLE('',(#544));
#544=SURFACE_STYLE_FILL_AREA(#545);
#545=FILL_AREA_STYLE('',(#546));
#546=FILL_AREA_STYLE_COLOUR('',#547);
#547=COLOUR_RGB('',0.800000012,0.800000012,0.800000012);
#548=FACE_SURFACE('',(#553),#549,.T.);
#549=PLANE('',#550);
#550=AXIS2_PLACEMENT_3D('',#148,#551,#552);
#551=DIRECTION('',(0.000000000,-0.707107008,-0.707106590));
#552=DIRECTION('',(0.577350616,0.577349901,-0.577350259));
#553=FACE_BOUND('',#554,.T.);
#554=EDGE_LOOP('',(#555,#556,#557));
#555=ORIENTED_EDGE('',*,*,#558,.T.);
#556=ORIENTED_EDGE('',*,*,#559,.T.);
#557=ORIENTED_EDGE('',*,*,#560,.T.);
#558=EDGE_CURVE('',#149,#151,#561,.F.);
#559=EDGE_CURVE('',#151,#153,#562,.T.);
#560=EDGE_CURVE('',#153,#149,#563,.T.);
#561=LINE('',#148,#564);
#562=LINE('',#150,#565);
#563=LINE('',#152,#566);
#564=VECTOR('',#567,1.0);
#565=VECTOR('',#568,1.0);
#566=VECTOR('',#569,1.0);
#567=DIRECTION('',(1.000000000,0.000000000,0.000000000));
#568=DIRECTION('',(0.577350616,0.577349901,-0.577350259));
#569=DIRECTION('',(-0.996116459,-0.062257219,0.062257256));
#570=STYLED_ITEM('',(#571),#578);
#571=PRESENTATION_STYLE_ASSIGNMENT((#572));
#572=SURFACE_STYLE_USAGE(.BOTH.,#573);
#573=SURFACE_SIDE_STYLE('',(#574));
#574=SURFACE_STYLE_FILL_AREA(#575);
#575=FILL_AREA_STYLE('',(#576));
#576=FILL_AREA_STYLE_COLOUR('',#577);
#577=COLOUR_RGB('',0.800000012,0.800000012,0.800000012);
#578=FACE_SURFACE('',(#583),#579,.T.);
#579=PLANE('',#580);
#580=AXIS2_PLACEMENT_3D('',#148,#581,#582);
#581=DIRECTION('',(-0.000000000,-0.707107008,-0.707106590));
#582=DIRECTION('',(-0.999999940,0.000000000,0.000000000));
#583=FACE_BOUND('',#584,.T.);
#584=EDGE_LOOP('',(#585,#586,#587));
#585=ORIENTED_EDGE('',*,*,#588,.T.);
#586=ORIENTED_EDGE('',*,*,#589,.T.);
#587=ORIENTED_EDGE('',*,*,#590,.T.);
#588=EDGE_CURVE('',#149,#153,#591,.F.);
#589=EDGE_CURVE('',#153,#155,#592,.T.);
#590=EDGE_CURVE('',#155,#149,#593,.T.);
#591=LINE('',#148,#594);
#592=LINE('',#152,#595);
#593=LINE('',#154,#596);
#594=VECTOR('',#597,1.0);
#595=VECTOR('',#598,1.0);
#596=VECTOR('',#599,1.0);
#597=DIRECTION('',(0.996116459,0.062257219,-0.062257256));
#598=DIRECTION('',(-0.999999940,0.000000000,0.000000000));
#599=DIRECTION('',(0.577350616,-0.577349901,0.577350259));
#600=STYLED_ITEM('',(#601),#608);
#601=PRESENTATION_STYLE_ASSIGNMENT((#602));
#602=SURFACE_STYLE_USAGE(.BOTH.,#603);
#603=SURFACE_SIDE_STYLE('',(#604));
#604=SURFACE_STYLE_FILL_AREA(#605);
#605=FILL_AREA_STYLE('',(#606));
#606=FILL_AREA_STYLE_COLOUR('',#607);
#607=COLOUR_RGB('',0.800000012,0.800000012,0.800000012);
#608=FACE_SURFACE('',(#613),#609,.T.);
#609=PLANE('',#610);
#610=AXIS2_PLACEMENT_3D('',#156,#611,#612);
#611=DIRECTION('',(-0.000000000,-0.000000000,-1.000000000));
#612=DIRECTION('',(0.000000000,-1.000000000,0.000000000));
#613=FACE_BOUND('',#614,.T.);
#614=EDGE_LOOP('',(#615,#616,#617));
#615=ORIENTED_EDGE('',*,*,#618,.T.);
#616=ORIENTED_EDGE('',*,*,#619,.T.);
#617=ORIENTED_EDGE('',*,*,#620,.T.);
#618=EDGE_CURVE('',#157,#159,#621,.F.);
#619=EDGE_CURVE('',#159,#161,#622,.T.);
#620=EDGE_CURVE('',#161,#157,#623,.T.);
#621=LINE('',#156,#624);
#622=LINE('',#158,#625);
#623=LINE('',#160,#626);
#624=VECTOR('',#627,1.0);
#625=VECTOR('',#628,1.0);
#626=VECTOR('',#629,1.0);
#627=DIRECTION('',(-1.000000000,0.000000000,0.000000000));
#628=DIRECTION('',(0.000000000,-1.000000000,0.000000000));
#629=DIRECTION('',(0.351123452,0.936329186,0.000000000));
#630=STYLED_ITEM('',(#631),#638);
#631=PRESENTATION_STYLE_ASSIGNMENT((#632));
#632=SURFACE_STYLE_USAGE(.BOTH.,#633);
#633=SURFACE_SIDE_STYLE('',(#634));
#634=SURFACE_STYLE_FILL_AREA(#635);
#635=FILL_AREA_STYLE('',(#636));
#636=FILL_AREA_STYLE_COLOUR('',#637);
#637=COLOUR_RGB('',0.800000012,0.800000012,0.800000012);
#638=FACE_SURFACE('',(#643),#639,.T.);
#639=PLANE('',#640);
#640=AXIS2_PLACEMENT_3D('',#156,#641,#642);
#641=DIRECTION('',(0.000000000,-0.000000000,-1.000000000));
#642=DIRECTION('',(1.000000000,0.000000000,0.000000000));
#643=FACE_BOUND('',#644,.T.);
#644=EDGE_LOOP('',(#645,#646,#647));
#645=ORIENTED_EDGE('',*,*,#648,.T.);
#646=ORIENTED_EDGE('',*,*,#649,.T.);
#647=ORIENTED_EDGE('',*,*,#650,.T.);
#648=EDGE_CURVE('',#157,#161,#651,.F.);
#649=EDGE_CURVE('',#161,#163,#652,.T.);
#650=EDGE_CURVE('',#163,#157,#653,.T.);
#651=LINE('',#156,#654);
#652=LINE('',#160,#655);
#653=LINE('',#162,#656);
#654=VECTOR('',#657,1.0);
#655=VECTOR('',#658,1.0);
#656=VECTOR('',#659,1.0);
#657=DIRECTION('',(-0.351123452,-0.936329186,0.000000000));
#658=DIRECTION('',(1.000000000,0.000000000,0.000000000));
#659=DIRECTION('',(0.000000000,1.000000000,0.000000000));
#660=STYLED_ITEM('',(#661),#668);
#661=PRESENTATION_STYLE_ASSIGNMENT((#662));
#662=SURFACE_STYLE_USAGE(.BOTH.,#663);
#663=SURFACE_SIDE_STYLE('',(#664));
#664=SURFACE_STYLE_FILL_AREA(#665);
#665=FILL_AREA_STYLE('',(#666));
#666=FILL_AREA_STYLE_COLOUR('',#667);
#667=COLOUR_RGB('',0.800000012,0.800000012,0.800000012);
#668=FACE_SURFACE('',(#673),#669,.T.);
#669=PLANE('',#670);
#670=AXIS2_PLACEMENT_3D('',#164,#671,#672);
#671=DIRECTION('',(0.000000000,0.707107008,-0.707106590));
#672=DIRECTION('',(-0.577350616,-0.577349901,-0.577350259));
#673=FACE_BOUND('',#674,.T.);
#674=EDGE_LOOP('',(#675,#676,#677));
#675=ORIENTED_EDGE('',*,*,#678,.T.);
#676=ORIENTED_EDGE('',*,*,#679,.T.);
#677=ORIENTED_EDGE('',*,*,#680,.T.);
#678=EDGE_CURVE('',#165,#167,#681,.F.);
#679=EDGE_CURVE('',#167,#169,#682,.T.);
#680=EDGE_CURVE('',#169,#165,#683,.T.);
#681=LINE('',#164,#684);
#682=LINE('',#166,#685);
#683=LINE('',#168,#686);
#684=VECTOR('',#687,1.0);
#685=VECTOR('',#688,1.0);
#686=VECTOR('',#689,1.0);
#687=DIRECTION('',(-1.000000000,0.000000000,0.000000000));
#688=DIRECTION('',(-0.577350616,-0.577349901,-0.577350259));
#689=DIRECTION('',(0.996116459,0.062257219,0.062257256));
#690=STYLED_ITEM('',(#691),#698);
#691=PRESENTATION_STYLE_ASSIGNMENT((#692));
#692=SURFACE_STYLE_USAGE(.BOTH.,#693);
#693=SURFACE_SIDE_STYLE('',(#694));
#694=SURFACE_STYLE_FILL_AREA(#695);
#695=FILL_AREA_STYLE('',(#696));
#696=FILL_AREA_STYLE_COLOUR('',#697);
#697=COLOUR_RGB('',0.800000012,0.800000012,0.800000012);
#698=FACE_SURFACE('',(#703),#699,.T.);
#699=PLANE('',#700);
#700=AXIS2_PLACEMENT_3D('',#164,#701,#702);
#701=DIRECTION('',(0.000000000,0.707107008,-0.707106590));
#702=DIRECTION('',(0.999999940,0.000000000,0.000000000));
#703=FACE_BOUND('',#704,.T.);
#704=EDGE_LOOP('',(#705,#706,#707));
#705=ORIENTED_EDGE('',*,*,#708,.T.);
#706=ORIENTED_EDGE('',*,*,#709,.T.);
#707=ORIENTED_EDGE('',*,*,#710,.T.);
#708=EDGE_CURVE('',#165,#169,#711,.F.);
#709=EDGE_CURVE('',#169,#171,#712,.T.);
#710=EDGE_CURVE('',#171,#165,#713,.T.);
#711=LINE('',#164,#714);
#712=LINE('',#168,#715);
#713=LINE('',#170,#716);
#714=VECTOR('',#717,1.0);
#715=VECTOR('',#718,1.0);
#716=VECTOR('',#719,1.0);
#717=DIRECTION('',(-0.996116459,-0.062257219,-0.062257256));
#718=DIRECTION('',(0.999999940,0.000000000,0.000000000));
#719=DIRECTION('',(-0.577350616,0.577349901,0.577350259));
#720=STYLED_ITEM('',(#721),#728);
#721=PRESENTATION_STYLE_ASSIGNMENT((#722));
#722=SURFACE_STYLE_USAGE(.BOTH.,#723);
#723=SURFACE_SIDE_STYLE('',(#724));
#724=SURFACE_STYLE_FILL_AREA(#725);
#725=FILL_AREA_STYLE('',(#726));
#726=FILL_AREA_STYLE_COLOUR('',#727);
#727=COLOUR_RGB('',0.800000012,0.800000012,0.800000012);
#728=FACE_SURFACE('',(#733),#729,.T.);
#729=PLANE('',#730);
#730=AXIS2_PLACEMENT_3D('',#172,#731,#732);
#731=DIRECTION('',(-0.707106590,-0.000000000,-0.707107008));
#732=DIRECTION('',(0.577350616,-0.577349901,-0.577350259));
#733=FACE_BOUND('',#734,.T.);
#734=EDGE_LOOP('',(#735,#736,#737));
#735=ORIENTED_EDGE('',*,*,#738,.T.);
#736=ORIENTED_EDGE('',*,*,#739,.T.);
#737=ORIENTED_EDGE('',*,*,#740,.T.);
#738=EDGE_CURVE('',#173,#175,#741,.F.);
#739=EDGE_CURVE('',#175,#177,#742,.T.);
#740=EDGE_CURVE('',#177,#173,#743,.T.);
#741=LINE('',#172,#744);
#742=LINE('',#174,#745);
#743=LINE('',#176,#746);
#744=VECTOR('',#747,1.0);
#745=VECTOR('',#748,1.0);
#746=VECTOR('',#749,1.0);
#747=DIRECTION('',(0.000000000,-1.000000000,0.000000000));
#748=DIRECTION('',(0.577350616,-0.577349901,-0.577350259));
#749=DIRECTION('',(-0.024375753,0.999405622,0.024375739));
#750=STYLED_ITEM('',(#751),#758);
#751=PRESENTATION_STYLE_ASSIGNMENT((#752));
#752=SURFACE_STYLE_USAGE(.BOTH.,#753);
#753=SURFACE_SIDE_STYLE('',(#754));
#754=SURFACE_STYLE_FILL_AREA(#755);
#755=FILL_AREA_STYLE('',(#756));
#756=FILL_AREA_STYLE_COLOUR('',#757);
#757=COLOUR_RGB('',0.800000012,0.800000012,0.800000012);
#758=FACE_SURFACE('',(#763),#759,.T.);
#759=PLANE('',#760);
#760=AXIS2_PLACEMENT_3D('',#172,#761,#762);
#761=DIRECTION('',(-0.707106590,0.000000000,-0.707107008));
#762=DIRECTION('',(0.000000000,1.000000000,0.000000000));
#763=FACE_BOUND('',#764,.T.);
#764=EDGE_LOOP('',(#765,#766,#767));
#765=ORIENTED_EDGE('',*,*,#768,.T.);
#766=ORIENTED_EDGE('',*,*,#769,.T.);
#767=ORIENTED_EDGE('',*,*,#770,.T.);
#768=EDGE_CURVE('',#173,#177,#771,.F.);
#769=EDGE_CURVE('',#177,#179,#772,.T.);
#770=EDGE_CURVE('',#179,#173,#773,.T.);
#771=LINE('',#172,#774);
#772=LINE('',#176,#775);
#773=LINE('',#178,#776);
#774=VECTOR('',#777,1.0);
#775=VECTOR('',#778,1.0);
#776=VECTOR('',#779,1.0);
#777=DIRECTION('',(0.024375753,-0.999405622,-0.024375739));
#778=DIRECTION('',(0.000000000,1.000000000,0.000000000));
#779=DIRECTION('',(-0.577350616,-0.577349901,0.577350259));
ENDSEC;
END-ISO-10303-21;
